G04 Layer: TopLayer*
G04 EasyEDA v6.4.25, 2021-11-06T18:35:38+01:00*
G04 257399e89a0843229902440734c7eb75,b8d8dd1b48584f29be867e52f4c70977,10*
G04 Gerber Generator version 0.2*
G04 Scale: 100 percent, Rotated: No, Reflected: No *
G04 Dimensions in millimeters *
G04 leading zeros omitted , absolute positions ,4 integer and 5 decimal *
%FSLAX45Y45*%
%MOMM*%

%ADD10C,0.2540*%
%ADD11C,0.4000*%
%ADD12C,0.7000*%
%ADD13C,1.0000*%
%ADD14C,0.6198*%
%ADD15R,0.9093X1.2192*%
%ADD23R,1.8009X1.6002*%
%ADD25C,2.4000*%
%ADD26C,1.5240*%
%ADD27R,1.5240X1.5240*%
%ADD28C,1.5748*%
%ADD29R,1.5748X1.5748*%
%ADD30C,4.0000*%

%LPD*%
G36*
X625602Y-6513576D02*
G01*
X621690Y-6512814D01*
X618439Y-6510578D01*
X616204Y-6507327D01*
X615442Y-6503416D01*
X615442Y-5865012D01*
X614070Y-5863336D01*
X25654Y-5863336D01*
X21742Y-5862574D01*
X18491Y-5860338D01*
X16256Y-5857087D01*
X15494Y-5853176D01*
X15494Y-4113733D01*
X16205Y-4109974D01*
X18288Y-4106722D01*
X21437Y-4104487D01*
X25196Y-4103573D01*
X29819Y-4104436D01*
X36118Y-4105148D01*
X68580Y-4105148D01*
X68580Y-4046220D01*
X25654Y-4046220D01*
X21742Y-4045458D01*
X18491Y-4043222D01*
X16256Y-4039971D01*
X15494Y-4036060D01*
X15494Y-3964940D01*
X16256Y-3961028D01*
X18491Y-3957777D01*
X21742Y-3955542D01*
X25654Y-3954779D01*
X68580Y-3954779D01*
X68580Y-3895851D01*
X36118Y-3895851D01*
X25196Y-3897426D01*
X21437Y-3896512D01*
X18288Y-3894277D01*
X16205Y-3891026D01*
X15494Y-3887266D01*
X15494Y-3819194D01*
X16306Y-3815181D01*
X18643Y-3811828D01*
X22098Y-3809644D01*
X26111Y-3809034D01*
X30022Y-3810000D01*
X33274Y-3812489D01*
X40335Y-3820464D01*
X50596Y-3829507D01*
X61976Y-3837127D01*
X74269Y-3843172D01*
X87223Y-3847541D01*
X100634Y-3850233D01*
X114300Y-3851148D01*
X127965Y-3850233D01*
X141376Y-3847541D01*
X154330Y-3843172D01*
X166624Y-3837127D01*
X178155Y-3829405D01*
X228092Y-3787495D01*
X231190Y-3785717D01*
X234645Y-3785108D01*
X906881Y-3785108D01*
X910793Y-3785870D01*
X914095Y-3788105D01*
X1343964Y-4217924D01*
X1350162Y-4223054D01*
X1356868Y-4226610D01*
X1364081Y-4228795D01*
X1372108Y-4229608D01*
X2075281Y-4229608D01*
X2079193Y-4230370D01*
X2082495Y-4232605D01*
X2347264Y-4497324D01*
X2353462Y-4502454D01*
X2360168Y-4506010D01*
X2367381Y-4508195D01*
X2375408Y-4509008D01*
X2672435Y-4509008D01*
X2677007Y-4510074D01*
X2688996Y-4516069D01*
X2692095Y-4518456D01*
X2694025Y-4521809D01*
X2695702Y-4526584D01*
X2696921Y-4528515D01*
X2698292Y-4532020D01*
X2698292Y-4535779D01*
X2696921Y-4539284D01*
X2695702Y-4541215D01*
X2694025Y-4545990D01*
X2692095Y-4549343D01*
X2688996Y-4551730D01*
X2677007Y-4557725D01*
X2672435Y-4558792D01*
X2642108Y-4558792D01*
X2634081Y-4559604D01*
X2626868Y-4561789D01*
X2620162Y-4565345D01*
X2613964Y-4570476D01*
X1992375Y-5192064D01*
X1987245Y-5198262D01*
X1983689Y-5204968D01*
X1981504Y-5212181D01*
X1980692Y-5220208D01*
X1980692Y-5790692D01*
X1981504Y-5798718D01*
X1983689Y-5805932D01*
X1987245Y-5812637D01*
X1992375Y-5818835D01*
X2194864Y-6021324D01*
X2201062Y-6026454D01*
X2207768Y-6030010D01*
X2214981Y-6032195D01*
X2223008Y-6033008D01*
X2425192Y-6033008D01*
X2433218Y-6032195D01*
X2440432Y-6030010D01*
X2447137Y-6026454D01*
X2453335Y-6021324D01*
X2592324Y-5882335D01*
X2597454Y-5876137D01*
X2601010Y-5869432D01*
X2603195Y-5862218D01*
X2604008Y-5854192D01*
X2604008Y-5847029D01*
X2604566Y-5843727D01*
X2606192Y-5840730D01*
X2624582Y-5817514D01*
X2628036Y-5814720D01*
X2632405Y-5813653D01*
X2636824Y-5814618D01*
X2640380Y-5817362D01*
X2641295Y-5818479D01*
X2649982Y-5826201D01*
X2659735Y-5832551D01*
X2664612Y-5834735D01*
X2664612Y-5797245D01*
X2652268Y-5797245D01*
X2648559Y-5796534D01*
X2645359Y-5794502D01*
X2643124Y-5791454D01*
X2642158Y-5787745D01*
X2644648Y-5771692D01*
X2644648Y-5760059D01*
X2642158Y-5744006D01*
X2643124Y-5740298D01*
X2645359Y-5737250D01*
X2648559Y-5735218D01*
X2652268Y-5734507D01*
X2664612Y-5734507D01*
X2664612Y-5697016D01*
X2659735Y-5699201D01*
X2649982Y-5705551D01*
X2641295Y-5713272D01*
X2640279Y-5714542D01*
X2636926Y-5717133D01*
X2632811Y-5718200D01*
X2628646Y-5717489D01*
X2625090Y-5715101D01*
X2619451Y-5709208D01*
X2610205Y-5702198D01*
X2600045Y-5696661D01*
X2589072Y-5692698D01*
X2577693Y-5690514D01*
X2566060Y-5690057D01*
X2554528Y-5691378D01*
X2543352Y-5694476D01*
X2532735Y-5699201D01*
X2522982Y-5705551D01*
X2514295Y-5713272D01*
X2513279Y-5714542D01*
X2509926Y-5717133D01*
X2505811Y-5718200D01*
X2501646Y-5717489D01*
X2498090Y-5715101D01*
X2492451Y-5709208D01*
X2483205Y-5702198D01*
X2473045Y-5696661D01*
X2462072Y-5692698D01*
X2450693Y-5690514D01*
X2439060Y-5690057D01*
X2427528Y-5691378D01*
X2416352Y-5694476D01*
X2405735Y-5699201D01*
X2395982Y-5705551D01*
X2383840Y-5716422D01*
X2380335Y-5717641D01*
X2376627Y-5717489D01*
X2373223Y-5716016D01*
X2370531Y-5713425D01*
X2355494Y-5692190D01*
X2354072Y-5689396D01*
X2353614Y-5686298D01*
X2353614Y-5325211D01*
X2354376Y-5321300D01*
X2356612Y-5317998D01*
X2654604Y-5020005D01*
X2657906Y-5017770D01*
X2661818Y-5017008D01*
X2672435Y-5017008D01*
X2677007Y-5018074D01*
X2688996Y-5024069D01*
X2692095Y-5026456D01*
X2694025Y-5029809D01*
X2695702Y-5034584D01*
X2696921Y-5036515D01*
X2698292Y-5040020D01*
X2698292Y-5043779D01*
X2696921Y-5047284D01*
X2695702Y-5049215D01*
X2693822Y-5054650D01*
X2693111Y-5060950D01*
X2693111Y-5149850D01*
X2693822Y-5156149D01*
X2695702Y-5161584D01*
X2698800Y-5166512D01*
X2702915Y-5170576D01*
X2707792Y-5173675D01*
X2713278Y-5175605D01*
X2719578Y-5176316D01*
X2739999Y-5176316D01*
X2743657Y-5176977D01*
X2746806Y-5178958D01*
X2749092Y-5181904D01*
X2754325Y-5192420D01*
X2755392Y-5196992D01*
X2755392Y-5296204D01*
X2754376Y-5300675D01*
X2748838Y-5312054D01*
X2746908Y-5314848D01*
X2742184Y-5323281D01*
X2738983Y-5332374D01*
X2737358Y-5341874D01*
X2737358Y-5351526D01*
X2738983Y-5361025D01*
X2742184Y-5370118D01*
X2746908Y-5378551D01*
X2752953Y-5386019D01*
X2760167Y-5392420D01*
X2768396Y-5397449D01*
X2777337Y-5401056D01*
X2786786Y-5403088D01*
X2796438Y-5403494D01*
X2805988Y-5402275D01*
X2815183Y-5399481D01*
X2823819Y-5395112D01*
X2831541Y-5389372D01*
X2838246Y-5382412D01*
X2843631Y-5374436D01*
X2847594Y-5365648D01*
X2850032Y-5356301D01*
X2850845Y-5346700D01*
X2850032Y-5337098D01*
X2847594Y-5327751D01*
X2843631Y-5318963D01*
X2839364Y-5312460D01*
X2833624Y-5300675D01*
X2832608Y-5296204D01*
X2832608Y-5196992D01*
X2833674Y-5192420D01*
X2838958Y-5181904D01*
X2841193Y-5178958D01*
X2844342Y-5176977D01*
X2848000Y-5176316D01*
X2868422Y-5176316D01*
X2874721Y-5175605D01*
X2880207Y-5173675D01*
X2885084Y-5170576D01*
X2889199Y-5166512D01*
X2892298Y-5161584D01*
X2894177Y-5156149D01*
X2894888Y-5149850D01*
X2894888Y-5060950D01*
X2894177Y-5054650D01*
X2892298Y-5049215D01*
X2891078Y-5047284D01*
X2889707Y-5043779D01*
X2889707Y-5040020D01*
X2891078Y-5036515D01*
X2892298Y-5034584D01*
X2894177Y-5029149D01*
X2894888Y-5022850D01*
X2894888Y-4933950D01*
X2894177Y-4927650D01*
X2892298Y-4922215D01*
X2891078Y-4920284D01*
X2889707Y-4916779D01*
X2889707Y-4913020D01*
X2891078Y-4909515D01*
X2892298Y-4907584D01*
X2894177Y-4902149D01*
X2894888Y-4895850D01*
X2894888Y-4806950D01*
X2894177Y-4800650D01*
X2892298Y-4795215D01*
X2891078Y-4793284D01*
X2889707Y-4789779D01*
X2889707Y-4786020D01*
X2891078Y-4782515D01*
X2892298Y-4780584D01*
X2894177Y-4775149D01*
X2894888Y-4768850D01*
X2894888Y-4679950D01*
X2894177Y-4673650D01*
X2892298Y-4668215D01*
X2891078Y-4666284D01*
X2889707Y-4662779D01*
X2889707Y-4659020D01*
X2891078Y-4655515D01*
X2892298Y-4653584D01*
X2894177Y-4648149D01*
X2894888Y-4641850D01*
X2894888Y-4552950D01*
X2894177Y-4546650D01*
X2892298Y-4541215D01*
X2891078Y-4539284D01*
X2889707Y-4535779D01*
X2889707Y-4532020D01*
X2891078Y-4528515D01*
X2892298Y-4526584D01*
X2894177Y-4521149D01*
X2894888Y-4514850D01*
X2894888Y-4425950D01*
X2894177Y-4419650D01*
X2892298Y-4414215D01*
X2891078Y-4412284D01*
X2889707Y-4408779D01*
X2889707Y-4405020D01*
X2891078Y-4401515D01*
X2892298Y-4399584D01*
X2894177Y-4394149D01*
X2894888Y-4387850D01*
X2894888Y-4298950D01*
X2894177Y-4292650D01*
X2892298Y-4287215D01*
X2891078Y-4285284D01*
X2889707Y-4281779D01*
X2889707Y-4278020D01*
X2891078Y-4274515D01*
X2892298Y-4272584D01*
X2894177Y-4267149D01*
X2894888Y-4260850D01*
X2894888Y-4171950D01*
X2894177Y-4165650D01*
X2892298Y-4160215D01*
X2891078Y-4158284D01*
X2889707Y-4154779D01*
X2889707Y-4151020D01*
X2891078Y-4147515D01*
X2892298Y-4145584D01*
X2894177Y-4140149D01*
X2894888Y-4133850D01*
X2894888Y-4044950D01*
X2894177Y-4038650D01*
X2892298Y-4033215D01*
X2891078Y-4031284D01*
X2889707Y-4027779D01*
X2889707Y-4024020D01*
X2891078Y-4020515D01*
X2892298Y-4018584D01*
X2894177Y-4013149D01*
X2894888Y-4006850D01*
X2894888Y-3917950D01*
X2894177Y-3911650D01*
X2892298Y-3906215D01*
X2891078Y-3904284D01*
X2889707Y-3900779D01*
X2889707Y-3897020D01*
X2891078Y-3893515D01*
X2892298Y-3891584D01*
X2894177Y-3886149D01*
X2894888Y-3879850D01*
X2894888Y-3790950D01*
X2894177Y-3784650D01*
X2892298Y-3779215D01*
X2891078Y-3777284D01*
X2889707Y-3773779D01*
X2889707Y-3770020D01*
X2891078Y-3766515D01*
X2892298Y-3764584D01*
X2893974Y-3759809D01*
X2895904Y-3756456D01*
X2899003Y-3754069D01*
X2910992Y-3748074D01*
X2915564Y-3747008D01*
X2938881Y-3747008D01*
X2942793Y-3747770D01*
X2946095Y-3750005D01*
X3006394Y-3810304D01*
X3008630Y-3813606D01*
X3009392Y-3817518D01*
X3009392Y-4749292D01*
X3010204Y-4757318D01*
X3012389Y-4764532D01*
X3015945Y-4771237D01*
X3021076Y-4777435D01*
X3226308Y-4982718D01*
X3228695Y-4986578D01*
X3233064Y-4999075D01*
X3234283Y-5005425D01*
X3237484Y-5014518D01*
X3242208Y-5022951D01*
X3248253Y-5030419D01*
X3255467Y-5036820D01*
X3263696Y-5041849D01*
X3272637Y-5045456D01*
X3282086Y-5047488D01*
X3291738Y-5047894D01*
X3301288Y-5046675D01*
X3310483Y-5043881D01*
X3319119Y-5039512D01*
X3326841Y-5033772D01*
X3333546Y-5026812D01*
X3338931Y-5018836D01*
X3342894Y-5010048D01*
X3345332Y-5000701D01*
X3346145Y-4991100D01*
X3345332Y-4981498D01*
X3342894Y-4972151D01*
X3338931Y-4963363D01*
X3333546Y-4955387D01*
X3326841Y-4948428D01*
X3319119Y-4942687D01*
X3310483Y-4938318D01*
X3301288Y-4935524D01*
X3297021Y-4934762D01*
X3284778Y-4930495D01*
X3280918Y-4928108D01*
X3089605Y-4736795D01*
X3087370Y-4733493D01*
X3086608Y-4729581D01*
X3086608Y-3797808D01*
X3085795Y-3789781D01*
X3083610Y-3782568D01*
X3080054Y-3775862D01*
X3074924Y-3769664D01*
X2986735Y-3681476D01*
X2980537Y-3676345D01*
X2973832Y-3672789D01*
X2966618Y-3670604D01*
X2958592Y-3669792D01*
X2915564Y-3669792D01*
X2910992Y-3668725D01*
X2899003Y-3662730D01*
X2895904Y-3660343D01*
X2893974Y-3656990D01*
X2893161Y-3654704D01*
X2892602Y-3650945D01*
X2893466Y-3647236D01*
X2895650Y-3644087D01*
X2898851Y-3641953D01*
X2932226Y-3628085D01*
X2936138Y-3627323D01*
X2971393Y-3627323D01*
X2975965Y-3628390D01*
X3000908Y-3640836D01*
X3006750Y-3645103D01*
X3016961Y-3650640D01*
X3027883Y-3654551D01*
X3039313Y-3656787D01*
X3050895Y-3657244D01*
X3062427Y-3655872D01*
X3073654Y-3652824D01*
X3084271Y-3648049D01*
X3093974Y-3641750D01*
X3102660Y-3634028D01*
X3110077Y-3625037D01*
X3116021Y-3615080D01*
X3120339Y-3604310D01*
X3122980Y-3592982D01*
X3123895Y-3581400D01*
X3122980Y-3569817D01*
X3120339Y-3558489D01*
X3116021Y-3547719D01*
X3110077Y-3537762D01*
X3102660Y-3528771D01*
X3093974Y-3521049D01*
X3084271Y-3514750D01*
X3073654Y-3509975D01*
X3062427Y-3506927D01*
X3050895Y-3505555D01*
X3039313Y-3506012D01*
X3027883Y-3508248D01*
X3016961Y-3512159D01*
X3006750Y-3517696D01*
X3000908Y-3521964D01*
X2975965Y-3534410D01*
X2971393Y-3535476D01*
X2936138Y-3535476D01*
X2932226Y-3534714D01*
X2898851Y-3520846D01*
X2895650Y-3518712D01*
X2893466Y-3515563D01*
X2892602Y-3511854D01*
X2893161Y-3508095D01*
X2894177Y-3505149D01*
X2894888Y-3498850D01*
X2894888Y-3483254D01*
X2837840Y-3483254D01*
X2837840Y-3500323D01*
X2837078Y-3504234D01*
X2834894Y-3507536D01*
X2831592Y-3509721D01*
X2827680Y-3510483D01*
X2760319Y-3510483D01*
X2756408Y-3509721D01*
X2753106Y-3507536D01*
X2750921Y-3504234D01*
X2750159Y-3500323D01*
X2750159Y-3483254D01*
X2693111Y-3483254D01*
X2693111Y-3498850D01*
X2693822Y-3505149D01*
X2694838Y-3508095D01*
X2695397Y-3511854D01*
X2694533Y-3515563D01*
X2692349Y-3518712D01*
X2689148Y-3520846D01*
X2655773Y-3534714D01*
X2651861Y-3535476D01*
X2588615Y-3535476D01*
X2584754Y-3534714D01*
X2581452Y-3532530D01*
X2418791Y-3369919D01*
X2411730Y-3364585D01*
X2404160Y-3360826D01*
X2396032Y-3358540D01*
X2387142Y-3357676D01*
X2317699Y-3357676D01*
X2313127Y-3356610D01*
X2280716Y-3340404D01*
X2277719Y-3338169D01*
X2275738Y-3334969D01*
X2275078Y-3331311D01*
X2275078Y-3324148D01*
X2274366Y-3317849D01*
X2272436Y-3312363D01*
X2269388Y-3307486D01*
X2265273Y-3303371D01*
X2260396Y-3300323D01*
X2254910Y-3298393D01*
X2248611Y-3297682D01*
X2231390Y-3297682D01*
X2227732Y-3297021D01*
X2224582Y-3295040D01*
X2222347Y-3292043D01*
X2206091Y-3259632D01*
X2205024Y-3255111D01*
X2204974Y-3236772D01*
X2203754Y-3228136D01*
X2201062Y-3220110D01*
X2196947Y-3212693D01*
X2191258Y-3205835D01*
X2113991Y-3128619D01*
X2106930Y-3123285D01*
X2099360Y-3119526D01*
X2091232Y-3117240D01*
X2082342Y-3116376D01*
X1902815Y-3116376D01*
X1898954Y-3115614D01*
X1895652Y-3113430D01*
X1814169Y-3031947D01*
X1811985Y-3028645D01*
X1811223Y-3024784D01*
X1811223Y-2547264D01*
X1811883Y-2543556D01*
X1813864Y-2540406D01*
X1816862Y-2538171D01*
X1820418Y-2537155D01*
X1824126Y-2537460D01*
X1826564Y-2538171D01*
X1833168Y-2538933D01*
X1992071Y-2538933D01*
X1998370Y-2538171D01*
X2003856Y-2536291D01*
X2008733Y-2533192D01*
X2012848Y-2529128D01*
X2015896Y-2524201D01*
X2017826Y-2518765D01*
X2018538Y-2512415D01*
X2018538Y-2313584D01*
X2017826Y-2307234D01*
X2015896Y-2301798D01*
X2012848Y-2296871D01*
X2008733Y-2292807D01*
X2003856Y-2289708D01*
X1998370Y-2287828D01*
X1992071Y-2287117D01*
X1966874Y-2287117D01*
X1964689Y-2286863D01*
X1958898Y-2285593D01*
X1955698Y-2284272D01*
X1953158Y-2282037D01*
X1951482Y-2279040D01*
X1950923Y-2275636D01*
X1950872Y-1560322D01*
X1949653Y-1551584D01*
X1946960Y-1543558D01*
X1942846Y-1536192D01*
X1937105Y-1529283D01*
X1618691Y-1210919D01*
X1611630Y-1205585D01*
X1604060Y-1201826D01*
X1595932Y-1199540D01*
X1587042Y-1198676D01*
X1019505Y-1198676D01*
X1014933Y-1197610D01*
X979525Y-1179880D01*
X976426Y-1177544D01*
X974191Y-1173378D01*
X971092Y-1168501D01*
X967028Y-1164386D01*
X962101Y-1161338D01*
X956665Y-1159408D01*
X950315Y-1158697D01*
X751484Y-1158697D01*
X745134Y-1159408D01*
X739698Y-1161338D01*
X734771Y-1164386D01*
X730707Y-1168501D01*
X727608Y-1173378D01*
X725728Y-1178864D01*
X725017Y-1185164D01*
X725017Y-1304036D01*
X725728Y-1310335D01*
X727608Y-1315821D01*
X730707Y-1320698D01*
X734771Y-1324813D01*
X739698Y-1327861D01*
X745134Y-1329791D01*
X751484Y-1330502D01*
X950315Y-1330502D01*
X956665Y-1329791D01*
X962101Y-1327861D01*
X967028Y-1324813D01*
X971092Y-1320698D01*
X976426Y-1311656D01*
X979525Y-1309319D01*
X1014933Y-1291590D01*
X1019505Y-1290523D01*
X1564284Y-1290523D01*
X1568145Y-1291285D01*
X1571447Y-1293469D01*
X1856130Y-1578152D01*
X1858314Y-1581454D01*
X1859076Y-1585315D01*
X1859076Y-2276957D01*
X1858314Y-2280818D01*
X1856130Y-2284120D01*
X1852828Y-2286304D01*
X1848916Y-2287117D01*
X1833168Y-2287117D01*
X1826869Y-2287828D01*
X1821383Y-2289708D01*
X1816506Y-2292807D01*
X1812391Y-2296871D01*
X1809343Y-2301798D01*
X1807413Y-2307234D01*
X1806702Y-2313584D01*
X1806702Y-2385466D01*
X1806193Y-2388616D01*
X1804720Y-2391460D01*
X1752346Y-2462631D01*
X1731619Y-2483408D01*
X1726285Y-2490470D01*
X1722526Y-2498039D01*
X1720240Y-2506167D01*
X1719376Y-2515057D01*
X1719427Y-3049778D01*
X1720646Y-3058515D01*
X1723339Y-3066542D01*
X1727454Y-3073908D01*
X1733194Y-3080816D01*
X1848408Y-3195980D01*
X1855470Y-3201314D01*
X1863039Y-3205073D01*
X1871167Y-3207359D01*
X1880057Y-3208223D01*
X2059584Y-3208223D01*
X2063445Y-3208985D01*
X2066747Y-3211169D01*
X2107996Y-3252419D01*
X2110282Y-3255924D01*
X2110943Y-3260090D01*
X2109876Y-3264153D01*
X2095906Y-3292043D01*
X2093671Y-3295040D01*
X2090521Y-3297021D01*
X2086813Y-3297682D01*
X2069642Y-3297682D01*
X2063343Y-3298393D01*
X2057857Y-3300323D01*
X2052980Y-3303371D01*
X2048865Y-3307486D01*
X2045817Y-3312363D01*
X2043887Y-3317849D01*
X2043175Y-3324148D01*
X2043175Y-3331311D01*
X2042515Y-3334969D01*
X2040534Y-3338169D01*
X2037537Y-3340404D01*
X2005126Y-3356610D01*
X2000554Y-3357676D01*
X1758899Y-3357676D01*
X1754327Y-3356610D01*
X1721764Y-3340354D01*
X1718818Y-3338068D01*
X1716836Y-3334918D01*
X1716176Y-3331260D01*
X1716176Y-3324148D01*
X1715414Y-3317849D01*
X1713534Y-3312363D01*
X1710436Y-3307486D01*
X1706372Y-3303371D01*
X1701444Y-3300323D01*
X1696008Y-3298393D01*
X1689658Y-3297682D01*
X1510741Y-3297682D01*
X1504391Y-3298393D01*
X1498955Y-3300323D01*
X1494028Y-3303371D01*
X1489964Y-3307486D01*
X1486865Y-3312363D01*
X1484985Y-3317849D01*
X1484274Y-3324148D01*
X1484274Y-3483051D01*
X1484985Y-3489350D01*
X1486865Y-3494836D01*
X1489964Y-3499713D01*
X1494028Y-3503828D01*
X1498955Y-3506876D01*
X1504391Y-3508806D01*
X1510741Y-3509518D01*
X1689658Y-3509518D01*
X1696008Y-3508806D01*
X1701444Y-3506876D01*
X1706372Y-3503828D01*
X1710436Y-3499713D01*
X1713534Y-3494836D01*
X1715414Y-3489350D01*
X1716176Y-3483051D01*
X1716176Y-3475939D01*
X1716836Y-3472281D01*
X1718818Y-3469132D01*
X1721764Y-3466846D01*
X1754327Y-3450590D01*
X1758899Y-3449523D01*
X2000554Y-3449523D01*
X2005126Y-3450590D01*
X2037537Y-3466795D01*
X2040534Y-3469030D01*
X2042515Y-3472230D01*
X2043175Y-3475888D01*
X2043175Y-3483051D01*
X2043887Y-3489350D01*
X2045817Y-3494836D01*
X2048865Y-3499713D01*
X2052980Y-3503828D01*
X2057857Y-3506876D01*
X2063343Y-3508806D01*
X2069642Y-3509518D01*
X2248611Y-3509518D01*
X2254910Y-3508806D01*
X2260396Y-3506876D01*
X2265273Y-3503828D01*
X2269388Y-3499713D01*
X2272436Y-3494836D01*
X2274366Y-3489350D01*
X2275078Y-3483051D01*
X2275078Y-3475888D01*
X2275738Y-3472230D01*
X2277719Y-3469030D01*
X2280716Y-3466795D01*
X2313127Y-3450590D01*
X2317699Y-3449523D01*
X2364384Y-3449523D01*
X2368245Y-3450285D01*
X2371547Y-3452469D01*
X2534208Y-3615080D01*
X2541270Y-3620414D01*
X2548839Y-3624173D01*
X2556967Y-3626459D01*
X2565857Y-3627323D01*
X2651861Y-3627323D01*
X2655773Y-3628085D01*
X2689148Y-3641953D01*
X2692349Y-3644087D01*
X2694533Y-3647236D01*
X2695397Y-3650945D01*
X2694838Y-3654704D01*
X2694025Y-3656990D01*
X2692095Y-3660343D01*
X2688996Y-3662730D01*
X2677007Y-3668725D01*
X2672435Y-3669792D01*
X2522118Y-3669792D01*
X2518206Y-3669029D01*
X2514904Y-3666794D01*
X2504135Y-3656076D01*
X2497937Y-3650945D01*
X2491232Y-3647389D01*
X2484018Y-3645204D01*
X2475992Y-3644392D01*
X2295804Y-3644392D01*
X2291232Y-3643325D01*
X2280716Y-3638042D01*
X2277719Y-3635806D01*
X2275738Y-3632606D01*
X2275078Y-3628948D01*
X2275078Y-3603548D01*
X2274366Y-3597249D01*
X2272436Y-3591763D01*
X2269388Y-3586886D01*
X2265273Y-3582771D01*
X2260396Y-3579723D01*
X2254910Y-3577793D01*
X2248611Y-3577082D01*
X2069642Y-3577082D01*
X2063343Y-3577793D01*
X2057857Y-3579723D01*
X2052980Y-3582771D01*
X2048865Y-3586886D01*
X2045817Y-3591763D01*
X2043887Y-3597249D01*
X2043175Y-3603548D01*
X2043175Y-3762451D01*
X2043887Y-3768750D01*
X2045817Y-3774236D01*
X2048865Y-3779113D01*
X2052980Y-3783228D01*
X2057857Y-3786276D01*
X2063343Y-3788206D01*
X2069642Y-3788918D01*
X2248611Y-3788918D01*
X2254910Y-3788206D01*
X2260396Y-3786276D01*
X2265273Y-3783228D01*
X2269388Y-3779113D01*
X2272436Y-3774236D01*
X2274366Y-3768750D01*
X2275078Y-3762451D01*
X2275078Y-3737051D01*
X2275738Y-3733393D01*
X2277719Y-3730193D01*
X2280716Y-3727958D01*
X2291232Y-3722674D01*
X2295804Y-3721608D01*
X2456281Y-3721608D01*
X2460193Y-3722370D01*
X2463495Y-3724605D01*
X2474264Y-3735324D01*
X2480462Y-3740454D01*
X2487168Y-3744010D01*
X2494381Y-3746195D01*
X2502408Y-3747008D01*
X2672435Y-3747008D01*
X2677007Y-3748074D01*
X2688996Y-3754069D01*
X2692095Y-3756456D01*
X2694025Y-3759809D01*
X2695702Y-3764584D01*
X2696921Y-3766515D01*
X2698292Y-3770020D01*
X2698292Y-3773779D01*
X2696921Y-3777284D01*
X2695702Y-3779215D01*
X2693822Y-3784650D01*
X2693111Y-3790950D01*
X2693111Y-3879850D01*
X2693822Y-3886149D01*
X2695702Y-3891584D01*
X2696921Y-3893515D01*
X2698292Y-3897020D01*
X2698292Y-3900779D01*
X2696921Y-3904284D01*
X2695702Y-3906215D01*
X2693822Y-3911650D01*
X2693111Y-3917950D01*
X2693111Y-4006850D01*
X2693822Y-4013149D01*
X2695702Y-4018584D01*
X2696921Y-4020515D01*
X2698292Y-4024020D01*
X2698292Y-4027779D01*
X2696921Y-4031284D01*
X2695702Y-4033215D01*
X2694025Y-4037990D01*
X2692095Y-4041343D01*
X2688996Y-4043730D01*
X2677007Y-4049725D01*
X2672435Y-4050792D01*
X2306218Y-4050792D01*
X2302306Y-4050029D01*
X2299004Y-4047794D01*
X2237435Y-3986276D01*
X2231237Y-3981145D01*
X2224532Y-3977589D01*
X2217318Y-3975404D01*
X2209292Y-3974592D01*
X1468018Y-3974592D01*
X1464106Y-3973829D01*
X1460804Y-3971594D01*
X1228140Y-3738930D01*
X1225956Y-3735679D01*
X1225194Y-3731768D01*
X1225956Y-3727856D01*
X1228140Y-3724605D01*
X1231442Y-3722370D01*
X1235354Y-3721608D01*
X1463649Y-3721608D01*
X1468221Y-3722674D01*
X1478635Y-3727907D01*
X1481582Y-3730142D01*
X1483563Y-3733292D01*
X1484274Y-3737000D01*
X1484274Y-3762451D01*
X1484985Y-3768750D01*
X1486865Y-3774236D01*
X1489964Y-3779113D01*
X1494028Y-3783228D01*
X1498955Y-3786276D01*
X1504391Y-3788206D01*
X1510741Y-3788918D01*
X1689658Y-3788918D01*
X1696008Y-3788206D01*
X1701444Y-3786276D01*
X1706372Y-3783228D01*
X1710436Y-3779113D01*
X1713534Y-3774236D01*
X1715414Y-3768750D01*
X1716176Y-3762451D01*
X1716176Y-3603548D01*
X1715414Y-3597249D01*
X1713534Y-3591763D01*
X1710436Y-3586886D01*
X1706372Y-3582771D01*
X1701444Y-3579723D01*
X1696008Y-3577793D01*
X1689658Y-3577082D01*
X1510741Y-3577082D01*
X1504391Y-3577793D01*
X1498955Y-3579723D01*
X1494028Y-3582771D01*
X1489964Y-3586886D01*
X1486865Y-3591763D01*
X1484985Y-3597249D01*
X1484274Y-3603548D01*
X1484274Y-3628999D01*
X1483563Y-3632708D01*
X1481582Y-3635857D01*
X1478635Y-3638092D01*
X1468221Y-3643325D01*
X1463649Y-3644392D01*
X1137818Y-3644392D01*
X1133906Y-3643629D01*
X1130604Y-3641394D01*
X700735Y-3211576D01*
X694537Y-3206445D01*
X687832Y-3202889D01*
X680618Y-3200704D01*
X672592Y-3199892D01*
X234645Y-3199892D01*
X231190Y-3199282D01*
X228092Y-3197504D01*
X178155Y-3155594D01*
X166624Y-3147872D01*
X154330Y-3141827D01*
X141376Y-3137458D01*
X127965Y-3134766D01*
X114300Y-3133852D01*
X100634Y-3134766D01*
X87223Y-3137458D01*
X74269Y-3141827D01*
X61976Y-3147872D01*
X50596Y-3155492D01*
X40335Y-3164535D01*
X33274Y-3172510D01*
X30022Y-3175000D01*
X26111Y-3175965D01*
X22098Y-3175355D01*
X18643Y-3173171D01*
X16306Y-3169818D01*
X15494Y-3165805D01*
X15494Y-2894533D01*
X16205Y-2890774D01*
X18288Y-2887522D01*
X21437Y-2885287D01*
X25196Y-2884373D01*
X29819Y-2885236D01*
X36118Y-2885948D01*
X68580Y-2885948D01*
X68580Y-2827020D01*
X25654Y-2827020D01*
X21742Y-2826258D01*
X18491Y-2824022D01*
X16256Y-2820771D01*
X15494Y-2816860D01*
X15494Y-2745740D01*
X16256Y-2741828D01*
X18491Y-2738577D01*
X21742Y-2736342D01*
X25654Y-2735580D01*
X68580Y-2735580D01*
X68580Y-2676652D01*
X36118Y-2676652D01*
X25196Y-2678226D01*
X21437Y-2677312D01*
X18288Y-2675077D01*
X16205Y-2671826D01*
X15494Y-2668066D01*
X15494Y-2599994D01*
X16306Y-2595981D01*
X18643Y-2592628D01*
X22098Y-2590444D01*
X26111Y-2589834D01*
X30022Y-2590800D01*
X33274Y-2593289D01*
X40335Y-2601264D01*
X50596Y-2610307D01*
X61976Y-2617927D01*
X74269Y-2623972D01*
X87223Y-2628341D01*
X100634Y-2631033D01*
X114300Y-2631948D01*
X127965Y-2631033D01*
X141376Y-2628341D01*
X154330Y-2623972D01*
X166624Y-2617927D01*
X178054Y-2610256D01*
X181356Y-2607513D01*
X227126Y-2575102D01*
X229920Y-2573680D01*
X232968Y-2573223D01*
X560984Y-2573223D01*
X564845Y-2573985D01*
X568147Y-2576169D01*
X972108Y-2980080D01*
X979169Y-2985414D01*
X986739Y-2989173D01*
X994867Y-2991459D01*
X1003757Y-2992323D01*
X1486204Y-2992323D01*
X1490776Y-2993390D01*
X1525727Y-3010865D01*
X1528775Y-3013202D01*
X1530756Y-3016605D01*
X1531467Y-3018586D01*
X1534515Y-3023463D01*
X1538630Y-3027578D01*
X1543507Y-3030626D01*
X1548993Y-3032556D01*
X1555292Y-3033268D01*
X1645107Y-3033268D01*
X1651406Y-3032556D01*
X1656892Y-3030626D01*
X1661769Y-3027578D01*
X1665884Y-3023463D01*
X1668932Y-3018586D01*
X1670862Y-3013100D01*
X1671574Y-3006801D01*
X1671574Y-2885998D01*
X1670862Y-2879699D01*
X1668932Y-2874213D01*
X1665884Y-2869336D01*
X1661769Y-2865221D01*
X1656892Y-2862173D01*
X1651406Y-2860243D01*
X1645107Y-2859532D01*
X1555292Y-2859532D01*
X1548993Y-2860243D01*
X1543507Y-2862173D01*
X1538630Y-2865221D01*
X1534515Y-2869336D01*
X1531467Y-2874213D01*
X1530756Y-2876194D01*
X1528775Y-2879598D01*
X1525727Y-2881934D01*
X1490776Y-2899410D01*
X1486204Y-2900476D01*
X1026515Y-2900476D01*
X1022654Y-2899714D01*
X1019352Y-2897530D01*
X615391Y-2493619D01*
X608330Y-2488285D01*
X600760Y-2484526D01*
X592632Y-2482240D01*
X583742Y-2481376D01*
X232968Y-2481376D01*
X229920Y-2480919D01*
X227126Y-2479497D01*
X181356Y-2447086D01*
X178054Y-2444343D01*
X166624Y-2436672D01*
X154330Y-2430627D01*
X141376Y-2426258D01*
X127965Y-2423566D01*
X114300Y-2422652D01*
X100634Y-2423566D01*
X87223Y-2426258D01*
X74269Y-2430627D01*
X61976Y-2436672D01*
X50596Y-2444292D01*
X40335Y-2453335D01*
X33274Y-2461310D01*
X30022Y-2463800D01*
X26111Y-2464765D01*
X22098Y-2464155D01*
X18643Y-2461971D01*
X16306Y-2458618D01*
X15494Y-2454605D01*
X15494Y-674624D01*
X16256Y-670712D01*
X18491Y-667461D01*
X21742Y-665226D01*
X25654Y-664464D01*
X613765Y-664464D01*
X615442Y-663092D01*
X615442Y-24638D01*
X616204Y-20726D01*
X618439Y-17475D01*
X621690Y-15240D01*
X625602Y-14478D01*
X2516936Y-14478D01*
X2521102Y-15341D01*
X2524506Y-17881D01*
X2526588Y-21539D01*
X2526995Y-26162D01*
X2526995Y-525018D01*
X2527706Y-531317D01*
X2529586Y-536803D01*
X2532684Y-541680D01*
X2536799Y-545795D01*
X2541676Y-548894D01*
X2547162Y-550773D01*
X2553462Y-551484D01*
X3052318Y-551484D01*
X3058617Y-550773D01*
X3064103Y-548894D01*
X3068980Y-545795D01*
X3073095Y-541680D01*
X3076194Y-536803D01*
X3078073Y-531317D01*
X3078784Y-525018D01*
X3078784Y-26162D01*
X3079191Y-21539D01*
X3081274Y-17881D01*
X3084677Y-15341D01*
X3088843Y-14478D01*
X5620105Y-14478D01*
X5624271Y-15341D01*
X5627674Y-17881D01*
X5629757Y-21539D01*
X5630214Y-25755D01*
X5629706Y-29971D01*
X5629706Y-344932D01*
X5628944Y-348843D01*
X5626760Y-352094D01*
X5623458Y-354330D01*
X5619546Y-355092D01*
X3366058Y-355092D01*
X3359759Y-355803D01*
X3354273Y-357733D01*
X3349396Y-360781D01*
X3345281Y-364896D01*
X3342233Y-369773D01*
X3340303Y-375259D01*
X3339592Y-381558D01*
X3339592Y-2285441D01*
X3340303Y-2291740D01*
X3342233Y-2297226D01*
X3345281Y-2302103D01*
X3349396Y-2306218D01*
X3354273Y-2309266D01*
X3359759Y-2311196D01*
X3366058Y-2311908D01*
X5619445Y-2311908D01*
X5623306Y-2312670D01*
X5626608Y-2314905D01*
X5628843Y-2318156D01*
X5629605Y-2322068D01*
X5629605Y-2611780D01*
X5630316Y-2618079D01*
X5632196Y-2623515D01*
X5635294Y-2628442D01*
X5639409Y-2632506D01*
X5644286Y-2635605D01*
X5649772Y-2637536D01*
X5656072Y-2638247D01*
X6154928Y-2638247D01*
X6161227Y-2637536D01*
X6166713Y-2635605D01*
X6171590Y-2632506D01*
X6175705Y-2628442D01*
X6178804Y-2623515D01*
X6180683Y-2618079D01*
X6181394Y-2611780D01*
X6181394Y-2112873D01*
X6180683Y-2106574D01*
X6178804Y-2101138D01*
X6175705Y-2096211D01*
X6171590Y-2092147D01*
X6166713Y-2089048D01*
X6161227Y-2087118D01*
X6154928Y-2086406D01*
X6106668Y-2086406D01*
X6102756Y-2085644D01*
X6099505Y-2083460D01*
X6097270Y-2080158D01*
X6096508Y-2076246D01*
X6096508Y-565454D01*
X6097270Y-561594D01*
X6099505Y-558292D01*
X6102756Y-556056D01*
X6106668Y-555294D01*
X6155080Y-555294D01*
X6161379Y-554583D01*
X6166815Y-552704D01*
X6171742Y-549605D01*
X6175806Y-545490D01*
X6178905Y-540613D01*
X6180836Y-535127D01*
X6181547Y-528828D01*
X6181547Y-29971D01*
X6181039Y-25755D01*
X6181496Y-21539D01*
X6183579Y-17881D01*
X6187033Y-15341D01*
X6191148Y-14478D01*
X6704330Y-14478D01*
X6708241Y-15240D01*
X6711492Y-17475D01*
X6713728Y-20726D01*
X6714490Y-24638D01*
X6714490Y-662787D01*
X6715861Y-664464D01*
X7304278Y-664464D01*
X7308189Y-665226D01*
X7311440Y-667461D01*
X7313675Y-670712D01*
X7314438Y-674624D01*
X7314438Y-4141978D01*
X7313726Y-4145737D01*
X7311644Y-4148988D01*
X7308494Y-4151223D01*
X7304735Y-4152137D01*
X7300925Y-4151579D01*
X7298080Y-4150563D01*
X7291781Y-4149851D01*
X7259320Y-4149851D01*
X7259320Y-4208780D01*
X7304278Y-4208780D01*
X7308189Y-4209542D01*
X7311440Y-4211777D01*
X7313675Y-4215028D01*
X7314438Y-4218940D01*
X7314438Y-4290060D01*
X7313675Y-4293971D01*
X7311440Y-4297222D01*
X7308189Y-4299458D01*
X7304278Y-4300220D01*
X7259320Y-4300220D01*
X7259320Y-4359148D01*
X7291781Y-4359148D01*
X7298080Y-4358436D01*
X7300925Y-4357420D01*
X7304735Y-4356862D01*
X7308494Y-4357776D01*
X7311644Y-4360011D01*
X7313726Y-4363262D01*
X7314438Y-4367022D01*
X7314438Y-4438142D01*
X7313625Y-4442155D01*
X7311288Y-4445508D01*
X7307834Y-4447641D01*
X7303820Y-4448302D01*
X7299909Y-4447286D01*
X7296658Y-4444847D01*
X7287564Y-4434535D01*
X7277303Y-4425492D01*
X7265924Y-4417872D01*
X7253630Y-4411827D01*
X7240676Y-4407458D01*
X7227265Y-4404766D01*
X7213600Y-4403852D01*
X7199934Y-4404766D01*
X7186523Y-4407458D01*
X7173569Y-4411827D01*
X7161275Y-4417872D01*
X7149744Y-4425594D01*
X7099808Y-4467504D01*
X7096709Y-4469282D01*
X7093254Y-4469892D01*
X5625896Y-4469892D01*
X5621731Y-4469028D01*
X5618276Y-4466488D01*
X5616194Y-4462780D01*
X5615787Y-4458563D01*
X5617159Y-4454550D01*
X5617921Y-4453280D01*
X5622239Y-4442510D01*
X5624880Y-4431182D01*
X5625795Y-4419600D01*
X5624880Y-4408017D01*
X5622239Y-4396689D01*
X5617921Y-4385919D01*
X5611977Y-4375962D01*
X5604560Y-4366971D01*
X5595874Y-4359249D01*
X5586171Y-4352950D01*
X5575554Y-4348175D01*
X5564327Y-4345127D01*
X5552795Y-4343755D01*
X5541213Y-4344212D01*
X5529783Y-4346448D01*
X5518861Y-4350359D01*
X5508650Y-4355896D01*
X5499404Y-4362958D01*
X5491378Y-4371340D01*
X5484672Y-4380839D01*
X5479542Y-4391253D01*
X5476036Y-4402328D01*
X5474258Y-4413808D01*
X5474258Y-4425391D01*
X5476036Y-4436872D01*
X5479542Y-4447946D01*
X5483098Y-4455210D01*
X5484164Y-4459173D01*
X5483555Y-4463237D01*
X5481370Y-4466742D01*
X5478018Y-4469079D01*
X5474004Y-4469892D01*
X5366918Y-4469892D01*
X5363006Y-4469130D01*
X5359704Y-4466894D01*
X4701235Y-3808476D01*
X4695037Y-3803345D01*
X4688332Y-3799789D01*
X4681118Y-3797604D01*
X4673092Y-3796792D01*
X4635652Y-3796792D01*
X4631080Y-3795725D01*
X4618939Y-3789629D01*
X4615840Y-3787292D01*
X4613910Y-3783888D01*
X4612233Y-3779215D01*
X4611065Y-3777284D01*
X4609693Y-3773779D01*
X4609693Y-3770020D01*
X4611065Y-3766515D01*
X4612233Y-3764584D01*
X4613910Y-3759860D01*
X4615840Y-3756507D01*
X4618939Y-3754170D01*
X4631080Y-3748074D01*
X4635652Y-3747008D01*
X5955792Y-3747008D01*
X5963818Y-3746195D01*
X5971032Y-3744010D01*
X5977737Y-3740454D01*
X5983935Y-3735324D01*
X6376924Y-3342335D01*
X6382054Y-3336137D01*
X6385610Y-3329432D01*
X6387795Y-3322218D01*
X6388608Y-3314192D01*
X6388608Y-1582318D01*
X6389370Y-1578406D01*
X6391605Y-1575104D01*
X6477304Y-1489405D01*
X6480606Y-1487170D01*
X6484518Y-1486408D01*
X6609181Y-1486408D01*
X6613093Y-1487170D01*
X6616395Y-1489405D01*
X6676694Y-1549704D01*
X6678930Y-1553006D01*
X6679692Y-1556918D01*
X6679692Y-1575663D01*
X6678625Y-1580235D01*
X6663842Y-1609801D01*
X6661505Y-1612849D01*
X6658254Y-1614830D01*
X6654495Y-1615440D01*
X6650736Y-1614627D01*
X6647586Y-1612493D01*
X6639356Y-1599590D01*
X6632549Y-1592173D01*
X6624574Y-1585976D01*
X6615734Y-1581200D01*
X6606235Y-1577949D01*
X6596329Y-1576273D01*
X6586270Y-1576273D01*
X6576364Y-1577949D01*
X6566865Y-1581200D01*
X6558025Y-1585976D01*
X6550050Y-1592173D01*
X6543243Y-1599590D01*
X6537756Y-1607972D01*
X6533743Y-1617218D01*
X6531254Y-1626920D01*
X6530390Y-1637385D01*
X6530390Y-1786534D01*
X6531254Y-1796999D01*
X6533743Y-1806854D01*
X6536334Y-1813052D01*
X6551117Y-1842668D01*
X6552184Y-1846732D01*
X6551472Y-1850898D01*
X6549186Y-1854403D01*
X6450076Y-1953564D01*
X6444945Y-1959762D01*
X6441389Y-1966468D01*
X6439204Y-1973681D01*
X6438392Y-1981707D01*
X6438392Y-2475992D01*
X6439204Y-2484018D01*
X6441389Y-2491232D01*
X6444945Y-2497937D01*
X6450076Y-2504135D01*
X6500164Y-2554224D01*
X6506362Y-2559354D01*
X6513068Y-2562910D01*
X6518605Y-2564638D01*
X6520586Y-2565450D01*
X6530949Y-2571242D01*
X6533743Y-2573477D01*
X6535572Y-2576576D01*
X6536181Y-2580132D01*
X6536181Y-2616657D01*
X6536893Y-2622956D01*
X6538823Y-2628442D01*
X6541871Y-2633319D01*
X6545986Y-2637434D01*
X6550863Y-2640482D01*
X6556349Y-2642412D01*
X6562648Y-2643124D01*
X6588048Y-2643124D01*
X6591706Y-2643784D01*
X6594906Y-2645765D01*
X6597142Y-2648762D01*
X6602425Y-2659278D01*
X6603492Y-2663850D01*
X6603492Y-2794304D01*
X6602475Y-2798775D01*
X6596938Y-2810154D01*
X6595008Y-2812948D01*
X6590284Y-2821381D01*
X6587083Y-2830474D01*
X6585458Y-2839974D01*
X6585458Y-2849626D01*
X6587083Y-2859125D01*
X6590284Y-2868218D01*
X6595008Y-2876651D01*
X6601053Y-2884119D01*
X6608267Y-2890520D01*
X6616496Y-2895549D01*
X6625437Y-2899156D01*
X6634886Y-2901188D01*
X6644538Y-2901594D01*
X6654088Y-2900375D01*
X6663283Y-2897581D01*
X6671919Y-2893212D01*
X6679641Y-2887472D01*
X6686346Y-2880512D01*
X6691731Y-2872536D01*
X6695694Y-2863748D01*
X6698132Y-2854401D01*
X6698945Y-2844800D01*
X6698132Y-2835198D01*
X6695694Y-2825851D01*
X6691731Y-2817063D01*
X6687464Y-2810560D01*
X6681724Y-2798775D01*
X6680708Y-2794304D01*
X6680708Y-2663850D01*
X6681774Y-2659278D01*
X6687058Y-2648762D01*
X6689293Y-2645765D01*
X6692493Y-2643784D01*
X6696151Y-2643124D01*
X6721551Y-2643124D01*
X6727850Y-2642412D01*
X6733336Y-2640482D01*
X6738213Y-2637434D01*
X6742328Y-2633319D01*
X6745376Y-2628442D01*
X6747306Y-2622956D01*
X6748018Y-2616657D01*
X6748018Y-2437688D01*
X6747306Y-2431389D01*
X6745376Y-2425903D01*
X6742328Y-2421026D01*
X6738213Y-2416911D01*
X6733336Y-2413863D01*
X6727850Y-2411933D01*
X6721551Y-2411222D01*
X6562648Y-2411222D01*
X6556349Y-2411933D01*
X6550863Y-2413863D01*
X6545986Y-2416911D01*
X6541871Y-2421026D01*
X6538823Y-2425903D01*
X6536893Y-2431389D01*
X6536181Y-2437688D01*
X6536181Y-2456535D01*
X6535420Y-2460447D01*
X6533184Y-2463749D01*
X6529933Y-2465933D01*
X6526022Y-2466695D01*
X6522110Y-2465933D01*
X6518605Y-2463495D01*
X6516370Y-2460193D01*
X6515607Y-2456281D01*
X6515607Y-2001418D01*
X6516370Y-1997506D01*
X6518605Y-1994204D01*
X6618224Y-1894535D01*
X6623354Y-1888337D01*
X6626910Y-1881632D01*
X6629095Y-1874418D01*
X6629908Y-1866392D01*
X6629908Y-1848256D01*
X6630974Y-1843684D01*
X6645706Y-1814220D01*
X6648551Y-1810766D01*
X6652564Y-1808835D01*
X6657035Y-1808835D01*
X6661048Y-1810766D01*
X6663893Y-1814220D01*
X6678625Y-1843684D01*
X6679692Y-1848256D01*
X6679692Y-1910181D01*
X6678930Y-1914093D01*
X6676694Y-1917395D01*
X6615175Y-1978964D01*
X6610045Y-1985162D01*
X6606946Y-1989582D01*
X6603796Y-1991461D01*
X6600240Y-1992122D01*
X6562648Y-1992122D01*
X6556349Y-1992833D01*
X6550863Y-1994763D01*
X6545986Y-1997811D01*
X6541871Y-2001926D01*
X6538823Y-2006803D01*
X6536893Y-2012289D01*
X6536181Y-2018588D01*
X6536181Y-2197557D01*
X6536893Y-2203856D01*
X6538823Y-2209342D01*
X6541871Y-2214219D01*
X6545986Y-2218334D01*
X6550863Y-2221382D01*
X6556349Y-2223312D01*
X6562648Y-2224024D01*
X6721551Y-2224024D01*
X6727850Y-2223312D01*
X6733336Y-2221382D01*
X6738213Y-2218334D01*
X6742328Y-2214219D01*
X6745376Y-2209342D01*
X6747306Y-2203856D01*
X6748018Y-2197557D01*
X6748018Y-2018588D01*
X6747306Y-2012289D01*
X6745376Y-2006803D01*
X6742328Y-2001926D01*
X6738213Y-1997811D01*
X6733336Y-1994763D01*
X6730238Y-1993646D01*
X6726732Y-1991563D01*
X6724345Y-1988261D01*
X6723430Y-1984298D01*
X6724142Y-1980285D01*
X6726428Y-1976882D01*
X6745224Y-1958035D01*
X6750354Y-1951837D01*
X6753910Y-1945132D01*
X6756095Y-1937918D01*
X6756908Y-1929892D01*
X6756908Y-1848256D01*
X6757974Y-1843684D01*
X6772757Y-1814118D01*
X6775094Y-1811070D01*
X6778345Y-1809089D01*
X6782104Y-1808480D01*
X6785864Y-1809292D01*
X6789013Y-1811426D01*
X6797243Y-1824329D01*
X6804050Y-1831746D01*
X6812025Y-1837943D01*
X6821474Y-1842922D01*
X6821474Y-1773326D01*
X6789369Y-1773326D01*
X6785457Y-1772513D01*
X6782206Y-1770329D01*
X6779971Y-1767027D01*
X6779209Y-1763166D01*
X6779209Y-1660753D01*
X6779971Y-1656892D01*
X6782206Y-1653590D01*
X6785457Y-1651406D01*
X6789369Y-1650593D01*
X6821474Y-1650593D01*
X6821474Y-1580997D01*
X6812025Y-1585976D01*
X6804050Y-1592173D01*
X6797243Y-1599590D01*
X6789013Y-1612493D01*
X6785864Y-1614627D01*
X6782104Y-1615440D01*
X6778345Y-1614830D01*
X6775094Y-1612849D01*
X6772757Y-1609801D01*
X6757974Y-1580235D01*
X6756908Y-1575663D01*
X6756908Y-1537208D01*
X6756095Y-1529181D01*
X6753910Y-1521968D01*
X6750354Y-1515262D01*
X6745224Y-1509064D01*
X6657035Y-1420876D01*
X6650837Y-1415745D01*
X6644131Y-1412189D01*
X6636918Y-1410004D01*
X6628892Y-1409192D01*
X6464808Y-1409192D01*
X6456781Y-1410004D01*
X6449568Y-1412189D01*
X6442862Y-1415745D01*
X6436664Y-1420876D01*
X6323076Y-1534464D01*
X6317945Y-1540662D01*
X6314389Y-1547368D01*
X6312204Y-1554581D01*
X6311392Y-1562608D01*
X6311392Y-3294481D01*
X6310630Y-3298393D01*
X6308394Y-3301695D01*
X5943295Y-3666794D01*
X5939993Y-3669029D01*
X5936081Y-3669792D01*
X4635652Y-3669792D01*
X4631080Y-3668725D01*
X4618939Y-3662629D01*
X4615840Y-3660292D01*
X4613910Y-3656888D01*
X4612233Y-3652215D01*
X4611065Y-3650284D01*
X4609693Y-3646779D01*
X4609693Y-3643020D01*
X4611065Y-3639515D01*
X4612233Y-3637584D01*
X4614164Y-3632149D01*
X4614875Y-3625850D01*
X4614875Y-3536950D01*
X4614164Y-3530650D01*
X4612233Y-3525215D01*
X4611065Y-3523284D01*
X4609693Y-3519779D01*
X4609693Y-3516020D01*
X4611065Y-3512515D01*
X4612233Y-3510584D01*
X4614164Y-3505149D01*
X4614875Y-3498850D01*
X4614875Y-3483254D01*
X4557826Y-3483254D01*
X4557826Y-3500323D01*
X4557014Y-3504234D01*
X4554829Y-3507536D01*
X4551527Y-3509721D01*
X4547666Y-3510483D01*
X4480255Y-3510483D01*
X4476394Y-3509721D01*
X4473092Y-3507536D01*
X4470908Y-3504234D01*
X4470095Y-3500323D01*
X4470095Y-3483254D01*
X4413046Y-3483254D01*
X4413046Y-3498850D01*
X4413758Y-3505149D01*
X4415688Y-3510584D01*
X4416856Y-3512515D01*
X4418228Y-3516020D01*
X4418228Y-3519779D01*
X4416856Y-3523284D01*
X4415688Y-3525215D01*
X4413758Y-3530650D01*
X4413046Y-3536950D01*
X4413046Y-3625850D01*
X4413758Y-3632149D01*
X4415688Y-3637584D01*
X4416856Y-3639515D01*
X4418228Y-3643020D01*
X4418228Y-3646779D01*
X4416856Y-3650284D01*
X4415688Y-3652215D01*
X4413758Y-3657650D01*
X4413046Y-3663950D01*
X4413046Y-3752850D01*
X4413758Y-3759149D01*
X4415688Y-3764584D01*
X4416856Y-3766515D01*
X4418228Y-3770020D01*
X4418228Y-3773779D01*
X4416856Y-3777284D01*
X4415688Y-3779215D01*
X4413758Y-3784650D01*
X4413046Y-3790950D01*
X4413046Y-3879850D01*
X4413758Y-3886149D01*
X4415688Y-3891584D01*
X4416856Y-3893515D01*
X4418228Y-3897020D01*
X4418228Y-3900779D01*
X4416856Y-3904284D01*
X4415688Y-3906215D01*
X4413758Y-3911650D01*
X4413046Y-3917950D01*
X4413046Y-4006850D01*
X4413758Y-4013149D01*
X4415688Y-4018584D01*
X4416856Y-4020515D01*
X4418228Y-4024020D01*
X4418228Y-4027779D01*
X4416856Y-4031284D01*
X4415688Y-4033215D01*
X4413758Y-4038650D01*
X4413046Y-4044950D01*
X4413046Y-4133850D01*
X4413758Y-4140149D01*
X4415688Y-4145584D01*
X4416856Y-4147515D01*
X4418228Y-4151020D01*
X4418228Y-4154779D01*
X4416856Y-4158284D01*
X4415688Y-4160215D01*
X4413758Y-4165650D01*
X4413046Y-4171950D01*
X4413046Y-4260850D01*
X4413758Y-4267149D01*
X4415688Y-4272584D01*
X4416856Y-4274515D01*
X4418228Y-4278020D01*
X4418228Y-4281779D01*
X4416856Y-4285284D01*
X4415688Y-4287215D01*
X4413758Y-4292650D01*
X4413046Y-4298950D01*
X4413046Y-4387850D01*
X4413758Y-4394149D01*
X4415688Y-4399584D01*
X4416856Y-4401515D01*
X4418228Y-4405020D01*
X4418228Y-4408779D01*
X4416856Y-4412284D01*
X4415688Y-4414215D01*
X4413758Y-4419650D01*
X4413046Y-4425950D01*
X4413046Y-4514850D01*
X4413758Y-4521149D01*
X4415688Y-4526584D01*
X4416856Y-4528515D01*
X4418228Y-4532020D01*
X4418228Y-4535779D01*
X4416856Y-4539284D01*
X4415688Y-4541215D01*
X4413758Y-4546650D01*
X4413046Y-4552950D01*
X4413046Y-4641850D01*
X4413758Y-4648149D01*
X4415688Y-4653584D01*
X4416856Y-4655515D01*
X4418228Y-4659020D01*
X4418228Y-4662779D01*
X4416856Y-4666284D01*
X4415688Y-4668215D01*
X4414012Y-4672888D01*
X4412081Y-4676292D01*
X4408982Y-4678629D01*
X4396841Y-4684725D01*
X4392269Y-4685792D01*
X4363618Y-4685792D01*
X4359706Y-4685030D01*
X4356404Y-4682794D01*
X4232605Y-4558995D01*
X4230370Y-4555693D01*
X4229608Y-4551781D01*
X4229608Y-4254195D01*
X4230624Y-4249724D01*
X4236364Y-4237888D01*
X4240631Y-4231436D01*
X4244594Y-4222648D01*
X4247032Y-4213301D01*
X4247845Y-4203700D01*
X4247032Y-4194098D01*
X4244594Y-4184751D01*
X4240631Y-4175963D01*
X4235246Y-4167987D01*
X4228541Y-4161028D01*
X4220819Y-4155287D01*
X4212183Y-4150918D01*
X4202988Y-4148124D01*
X4193438Y-4146905D01*
X4183786Y-4147312D01*
X4174337Y-4149344D01*
X4165396Y-4152950D01*
X4157167Y-4157979D01*
X4149953Y-4164380D01*
X4146092Y-4169156D01*
X4142892Y-4171797D01*
X4138879Y-4172915D01*
X4134764Y-4172356D01*
X4131259Y-4170222D01*
X4128871Y-4166819D01*
X4128008Y-4162755D01*
X4128008Y-3696208D01*
X4127195Y-3688181D01*
X4125010Y-3680968D01*
X4121454Y-3674262D01*
X4116324Y-3668064D01*
X4002735Y-3554476D01*
X3996537Y-3549345D01*
X3989832Y-3545789D01*
X3982618Y-3543604D01*
X3974592Y-3542792D01*
X3474618Y-3542792D01*
X3470706Y-3542029D01*
X3467404Y-3539794D01*
X3280105Y-3352495D01*
X3277870Y-3349193D01*
X3277108Y-3345281D01*
X3277108Y-1346708D01*
X3276295Y-1338681D01*
X3274110Y-1331468D01*
X3270554Y-1324762D01*
X3265424Y-1318564D01*
X3113735Y-1166876D01*
X3107537Y-1161745D01*
X3100832Y-1158189D01*
X3093618Y-1156004D01*
X3085592Y-1155192D01*
X2847492Y-1155344D01*
X2844038Y-1154734D01*
X2840990Y-1153007D01*
X2798165Y-1117295D01*
X2796032Y-1115822D01*
X2791256Y-1111758D01*
X2779776Y-1104442D01*
X2767380Y-1098702D01*
X2754376Y-1094638D01*
X2740914Y-1092403D01*
X2727299Y-1091946D01*
X2713736Y-1093266D01*
X2700477Y-1096467D01*
X2687726Y-1101344D01*
X2675788Y-1107897D01*
X2664815Y-1115974D01*
X2655011Y-1125474D01*
X2646527Y-1136192D01*
X2639568Y-1147927D01*
X2634284Y-1160475D01*
X2630678Y-1173632D01*
X2628849Y-1187145D01*
X2628849Y-1200759D01*
X2630678Y-1214272D01*
X2634284Y-1227429D01*
X2639568Y-1239977D01*
X2646527Y-1251712D01*
X2655011Y-1262430D01*
X2664815Y-1271930D01*
X2675788Y-1280007D01*
X2687726Y-1286560D01*
X2700477Y-1291437D01*
X2713736Y-1294638D01*
X2727299Y-1295958D01*
X2740914Y-1295501D01*
X2754376Y-1293266D01*
X2767380Y-1289202D01*
X2779776Y-1283462D01*
X2791256Y-1276146D01*
X2798165Y-1270609D01*
X2840990Y-1234948D01*
X2844038Y-1233170D01*
X2847492Y-1232560D01*
X3065881Y-1232408D01*
X3069793Y-1233170D01*
X3073095Y-1235405D01*
X3196894Y-1359204D01*
X3199130Y-1362506D01*
X3199892Y-1366418D01*
X3199892Y-3364992D01*
X3200704Y-3373018D01*
X3202889Y-3380232D01*
X3206445Y-3386937D01*
X3211576Y-3393135D01*
X3426764Y-3608324D01*
X3432962Y-3613454D01*
X3439668Y-3617010D01*
X3446881Y-3619195D01*
X3454908Y-3620008D01*
X3954881Y-3620008D01*
X3958793Y-3620770D01*
X3962095Y-3623005D01*
X4047794Y-3708704D01*
X4050029Y-3712006D01*
X4050792Y-3715918D01*
X4050792Y-4774692D01*
X4051604Y-4782718D01*
X4053789Y-4789932D01*
X4057345Y-4796637D01*
X4062476Y-4802835D01*
X4137964Y-4878324D01*
X4144162Y-4883454D01*
X4150868Y-4887010D01*
X4158081Y-4889195D01*
X4166108Y-4890008D01*
X4392269Y-4890008D01*
X4396841Y-4891074D01*
X4408982Y-4897170D01*
X4412081Y-4899558D01*
X4414012Y-4902911D01*
X4415688Y-4907584D01*
X4416856Y-4909515D01*
X4418228Y-4913020D01*
X4418228Y-4916779D01*
X4416856Y-4920284D01*
X4415688Y-4922215D01*
X4413758Y-4927650D01*
X4413046Y-4933950D01*
X4413046Y-5022850D01*
X4413758Y-5029149D01*
X4415688Y-5034584D01*
X4416856Y-5036515D01*
X4418228Y-5040020D01*
X4418228Y-5043779D01*
X4416856Y-5047284D01*
X4415688Y-5049215D01*
X4413758Y-5054650D01*
X4413046Y-5060950D01*
X4413046Y-5149850D01*
X4413758Y-5156149D01*
X4415688Y-5161584D01*
X4418787Y-5166512D01*
X4422851Y-5170576D01*
X4427778Y-5173675D01*
X4433214Y-5175605D01*
X4439513Y-5176316D01*
X4588408Y-5176316D01*
X4594707Y-5175605D01*
X4600143Y-5173675D01*
X4605070Y-5170576D01*
X4609134Y-5166512D01*
X4612233Y-5161584D01*
X4613910Y-5156860D01*
X4615840Y-5153507D01*
X4618939Y-5151170D01*
X4631080Y-5145074D01*
X4635652Y-5144008D01*
X6075781Y-5144008D01*
X6079693Y-5144770D01*
X6082995Y-5147005D01*
X6487464Y-5551424D01*
X6493662Y-5556554D01*
X6500368Y-5560110D01*
X6507581Y-5562295D01*
X6515607Y-5563108D01*
X7093254Y-5563108D01*
X7096709Y-5563717D01*
X7099808Y-5565495D01*
X7149744Y-5607405D01*
X7161275Y-5615127D01*
X7173569Y-5621172D01*
X7186523Y-5625541D01*
X7199934Y-5628233D01*
X7213600Y-5629148D01*
X7227265Y-5628233D01*
X7240676Y-5625541D01*
X7253630Y-5621172D01*
X7265924Y-5615127D01*
X7277303Y-5607507D01*
X7287564Y-5598464D01*
X7296658Y-5588152D01*
X7299909Y-5585714D01*
X7303820Y-5584698D01*
X7307834Y-5585358D01*
X7311288Y-5587492D01*
X7313625Y-5590844D01*
X7314438Y-5594858D01*
X7314438Y-5853176D01*
X7313675Y-5857087D01*
X7311440Y-5860338D01*
X7308189Y-5862574D01*
X7304278Y-5863336D01*
X6716166Y-5863336D01*
X6714490Y-5864707D01*
X6714490Y-6503416D01*
X6713728Y-6507327D01*
X6711492Y-6510578D01*
X6708241Y-6512814D01*
X6704330Y-6513576D01*
G37*

%LPC*%
G36*
X6438900Y-6410807D02*
G01*
X6459728Y-6409842D01*
X6480403Y-6406946D01*
X6500723Y-6402171D01*
X6520484Y-6395567D01*
X6539585Y-6387134D01*
X6557822Y-6376974D01*
X6575044Y-6365189D01*
X6591096Y-6351828D01*
X6605828Y-6337096D01*
X6619189Y-6321044D01*
X6630974Y-6303822D01*
X6641134Y-6285585D01*
X6649567Y-6266484D01*
X6656171Y-6246723D01*
X6660946Y-6226403D01*
X6663842Y-6205728D01*
X6664807Y-6184900D01*
X6663842Y-6164072D01*
X6660946Y-6143396D01*
X6656171Y-6123076D01*
X6649567Y-6103315D01*
X6641134Y-6084214D01*
X6630974Y-6065977D01*
X6619189Y-6048756D01*
X6605828Y-6032703D01*
X6591096Y-6017971D01*
X6575044Y-6004610D01*
X6557822Y-5992825D01*
X6539585Y-5982665D01*
X6520484Y-5974232D01*
X6500723Y-5967628D01*
X6480403Y-5962853D01*
X6459728Y-5959957D01*
X6438900Y-5958992D01*
X6418072Y-5959957D01*
X6397396Y-5962853D01*
X6377076Y-5967628D01*
X6357315Y-5974232D01*
X6338214Y-5982665D01*
X6319977Y-5992825D01*
X6302756Y-6004610D01*
X6286703Y-6017971D01*
X6271971Y-6032703D01*
X6258610Y-6048756D01*
X6246825Y-6065977D01*
X6236665Y-6084214D01*
X6228232Y-6103315D01*
X6221628Y-6123076D01*
X6216853Y-6143396D01*
X6213957Y-6164072D01*
X6212992Y-6184900D01*
X6213957Y-6205728D01*
X6216853Y-6226403D01*
X6221628Y-6246723D01*
X6228232Y-6266484D01*
X6236665Y-6285585D01*
X6246825Y-6303822D01*
X6258610Y-6321044D01*
X6271971Y-6337096D01*
X6286703Y-6351828D01*
X6302756Y-6365189D01*
X6319977Y-6376974D01*
X6338214Y-6387134D01*
X6357315Y-6395567D01*
X6377076Y-6402171D01*
X6397396Y-6406946D01*
X6418072Y-6409842D01*
G37*
G36*
X901700Y-6410807D02*
G01*
X922528Y-6409842D01*
X943203Y-6406946D01*
X963523Y-6402171D01*
X983284Y-6395567D01*
X1002385Y-6387134D01*
X1020622Y-6376974D01*
X1037844Y-6365189D01*
X1053896Y-6351828D01*
X1068628Y-6337096D01*
X1081989Y-6321044D01*
X1093774Y-6303822D01*
X1103934Y-6285585D01*
X1112367Y-6266484D01*
X1118971Y-6246723D01*
X1123746Y-6226403D01*
X1126642Y-6205728D01*
X1127607Y-6184900D01*
X1126642Y-6164072D01*
X1123746Y-6143396D01*
X1118971Y-6123076D01*
X1112367Y-6103315D01*
X1103934Y-6084214D01*
X1093774Y-6065977D01*
X1081989Y-6048756D01*
X1068628Y-6032703D01*
X1053896Y-6017971D01*
X1037844Y-6004610D01*
X1020622Y-5992825D01*
X1002385Y-5982665D01*
X983284Y-5974232D01*
X963523Y-5967628D01*
X943203Y-5962853D01*
X922528Y-5959957D01*
X901700Y-5958992D01*
X880871Y-5959957D01*
X860196Y-5962853D01*
X839876Y-5967628D01*
X820115Y-5974232D01*
X801014Y-5982665D01*
X782777Y-5992825D01*
X765556Y-6004610D01*
X749503Y-6017971D01*
X734771Y-6032703D01*
X721410Y-6048756D01*
X709625Y-6065977D01*
X699465Y-6084214D01*
X691032Y-6103315D01*
X684428Y-6123076D01*
X679653Y-6143396D01*
X676757Y-6164072D01*
X675792Y-6184900D01*
X676757Y-6205728D01*
X679653Y-6226403D01*
X684428Y-6246723D01*
X691032Y-6266484D01*
X699465Y-6285585D01*
X709625Y-6303822D01*
X721410Y-6321044D01*
X734771Y-6337096D01*
X749503Y-6351828D01*
X765556Y-6365189D01*
X782777Y-6376974D01*
X801014Y-6387134D01*
X820115Y-6395567D01*
X839876Y-6402171D01*
X860196Y-6406946D01*
X880871Y-6409842D01*
G37*
G36*
X1342796Y-6398056D02*
G01*
X1356410Y-6397599D01*
X1369872Y-6395313D01*
X1382877Y-6391300D01*
X1395272Y-6385560D01*
X1406753Y-6378194D01*
X1417167Y-6369405D01*
X1426311Y-6359296D01*
X1434033Y-6348069D01*
X1440180Y-6335877D01*
X1444650Y-6322974D01*
X1447393Y-6309614D01*
X1448308Y-6296050D01*
X1447393Y-6282436D01*
X1444650Y-6269075D01*
X1440180Y-6256172D01*
X1434033Y-6243980D01*
X1426311Y-6232753D01*
X1417167Y-6222644D01*
X1406753Y-6213856D01*
X1395272Y-6206490D01*
X1382877Y-6200749D01*
X1369872Y-6196736D01*
X1356410Y-6194450D01*
X1342796Y-6193993D01*
X1329232Y-6195364D01*
X1315974Y-6198514D01*
X1303223Y-6203442D01*
X1291285Y-6209995D01*
X1280312Y-6218072D01*
X1270508Y-6227572D01*
X1262024Y-6238240D01*
X1255064Y-6249974D01*
X1249781Y-6262522D01*
X1246174Y-6275679D01*
X1244346Y-6289192D01*
X1244346Y-6302857D01*
X1246174Y-6316370D01*
X1249781Y-6329527D01*
X1255064Y-6342075D01*
X1262024Y-6353810D01*
X1270508Y-6364478D01*
X1280312Y-6373977D01*
X1291285Y-6382054D01*
X1303223Y-6388608D01*
X1315974Y-6393535D01*
X1329232Y-6396685D01*
G37*
G36*
X1349756Y-6153658D02*
G01*
X1364030Y-6152286D01*
X1378000Y-6149086D01*
X1391412Y-6144158D01*
X1404112Y-6137554D01*
X1415846Y-6129324D01*
X1426413Y-6119723D01*
X1435709Y-6108852D01*
X1443532Y-6096812D01*
X1449730Y-6083960D01*
X1454251Y-6070346D01*
X1456994Y-6056325D01*
X1457909Y-6042050D01*
X1456994Y-6027724D01*
X1454251Y-6013704D01*
X1449730Y-6000089D01*
X1443532Y-5987237D01*
X1435709Y-5975248D01*
X1426413Y-5964326D01*
X1415846Y-5954725D01*
X1404112Y-5946495D01*
X1391412Y-5939891D01*
X1378000Y-5934964D01*
X1364030Y-5931763D01*
X1349756Y-5930392D01*
X1335481Y-5930849D01*
X1321358Y-5933135D01*
X1307642Y-5937199D01*
X1294536Y-5942990D01*
X1282293Y-5950407D01*
X1271117Y-5959348D01*
X1261160Y-5969609D01*
X1252575Y-5981090D01*
X1245565Y-5993587D01*
X1240180Y-6006846D01*
X1236573Y-6020663D01*
X1234744Y-6034887D01*
X1234744Y-6049162D01*
X1236573Y-6063386D01*
X1240180Y-6077204D01*
X1245565Y-6090462D01*
X1252575Y-6102959D01*
X1261160Y-6114440D01*
X1271117Y-6124702D01*
X1282293Y-6133642D01*
X1294536Y-6141059D01*
X1307642Y-6146850D01*
X1321358Y-6150914D01*
X1335481Y-6153200D01*
G37*
G36*
X6721906Y-5841746D02*
G01*
X6733489Y-5840882D01*
X6744817Y-5838240D01*
X6755587Y-5833872D01*
X6765544Y-5827928D01*
X6774535Y-5820562D01*
X6778294Y-5816295D01*
X6781749Y-5813755D01*
X6785914Y-5812891D01*
X6790080Y-5813755D01*
X6793484Y-5816295D01*
X6797294Y-5820562D01*
X6806234Y-5827928D01*
X6816242Y-5833872D01*
X6827012Y-5838240D01*
X6838289Y-5840882D01*
X6849922Y-5841746D01*
X6861505Y-5840882D01*
X6872782Y-5838240D01*
X6883552Y-5833872D01*
X6893559Y-5827928D01*
X6902500Y-5820562D01*
X6910222Y-5811875D01*
X6916572Y-5802122D01*
X6921296Y-5791504D01*
X6924395Y-5780328D01*
X6925716Y-5768797D01*
X6925259Y-5757164D01*
X6923074Y-5745784D01*
X6919112Y-5734812D01*
X6913575Y-5724652D01*
X6906564Y-5715406D01*
X6898182Y-5707329D01*
X6888683Y-5700674D01*
X6878269Y-5695492D01*
X6867194Y-5691987D01*
X6855714Y-5690209D01*
X6844080Y-5690209D01*
X6832600Y-5691987D01*
X6821525Y-5695492D01*
X6811111Y-5700674D01*
X6801612Y-5707329D01*
X6792925Y-5715660D01*
X6789724Y-5717794D01*
X6785914Y-5718505D01*
X6782104Y-5717794D01*
X6778853Y-5715660D01*
X6770166Y-5707329D01*
X6760667Y-5700674D01*
X6750253Y-5695492D01*
X6739178Y-5691987D01*
X6727698Y-5690209D01*
X6716115Y-5690209D01*
X6704634Y-5691987D01*
X6693560Y-5695492D01*
X6683146Y-5700674D01*
X6673646Y-5707329D01*
X6665264Y-5715406D01*
X6658203Y-5724652D01*
X6652666Y-5734812D01*
X6648754Y-5745784D01*
X6646519Y-5757164D01*
X6646062Y-5768797D01*
X6647434Y-5780328D01*
X6650481Y-5791504D01*
X6655257Y-5802122D01*
X6661556Y-5811875D01*
X6669278Y-5820562D01*
X6678269Y-5827928D01*
X6688226Y-5833872D01*
X6698996Y-5838240D01*
X6710324Y-5840882D01*
G37*
G36*
X448106Y-5841746D02*
G01*
X459689Y-5840882D01*
X471017Y-5838240D01*
X481787Y-5833872D01*
X491743Y-5827928D01*
X500735Y-5820562D01*
X504494Y-5816295D01*
X507949Y-5813755D01*
X512114Y-5812891D01*
X516280Y-5813755D01*
X519684Y-5816295D01*
X523493Y-5820562D01*
X532434Y-5827928D01*
X542442Y-5833872D01*
X553212Y-5838240D01*
X564489Y-5840882D01*
X576122Y-5841746D01*
X587705Y-5840882D01*
X598982Y-5838240D01*
X609752Y-5833872D01*
X619760Y-5827928D01*
X628700Y-5820562D01*
X636422Y-5811875D01*
X642772Y-5802122D01*
X647496Y-5791504D01*
X650595Y-5780328D01*
X651916Y-5768797D01*
X651459Y-5757164D01*
X649274Y-5745784D01*
X645312Y-5734812D01*
X639775Y-5724652D01*
X632764Y-5715406D01*
X624382Y-5707329D01*
X614883Y-5700674D01*
X604469Y-5695492D01*
X593394Y-5691987D01*
X581914Y-5690209D01*
X570280Y-5690209D01*
X558800Y-5691987D01*
X547725Y-5695492D01*
X537311Y-5700674D01*
X527812Y-5707329D01*
X519125Y-5715660D01*
X515924Y-5717794D01*
X512114Y-5718505D01*
X508304Y-5717794D01*
X505053Y-5715660D01*
X496366Y-5707329D01*
X486867Y-5700674D01*
X476453Y-5695492D01*
X465378Y-5691987D01*
X453898Y-5690209D01*
X442315Y-5690209D01*
X430834Y-5691987D01*
X419760Y-5695492D01*
X409346Y-5700674D01*
X399846Y-5707329D01*
X391464Y-5715406D01*
X384403Y-5724652D01*
X378866Y-5734812D01*
X374954Y-5745784D01*
X372719Y-5757164D01*
X372262Y-5768797D01*
X373634Y-5780328D01*
X376682Y-5791504D01*
X381457Y-5802122D01*
X387756Y-5811875D01*
X395478Y-5820562D01*
X404469Y-5827928D01*
X414426Y-5833872D01*
X425196Y-5838240D01*
X436524Y-5840882D01*
G37*
G36*
X4217060Y-5841695D02*
G01*
X4228693Y-5841238D01*
X4240072Y-5839053D01*
X4251045Y-5835091D01*
X4261205Y-5829554D01*
X4270451Y-5822543D01*
X4276090Y-5816650D01*
X4279646Y-5814263D01*
X4283811Y-5813552D01*
X4287926Y-5814618D01*
X4291279Y-5817209D01*
X4292295Y-5818479D01*
X4300982Y-5826201D01*
X4310735Y-5832551D01*
X4321352Y-5837275D01*
X4332528Y-5840374D01*
X4344060Y-5841695D01*
X4355693Y-5841238D01*
X4367072Y-5839053D01*
X4378045Y-5835091D01*
X4388205Y-5829554D01*
X4397451Y-5822543D01*
X4403090Y-5816650D01*
X4406646Y-5814263D01*
X4410811Y-5813552D01*
X4414926Y-5814618D01*
X4418279Y-5817209D01*
X4419295Y-5818479D01*
X4427982Y-5826201D01*
X4437735Y-5832551D01*
X4448352Y-5837275D01*
X4459528Y-5840374D01*
X4471060Y-5841695D01*
X4482693Y-5841238D01*
X4494072Y-5839053D01*
X4505045Y-5835091D01*
X4515205Y-5829554D01*
X4524451Y-5822543D01*
X4530090Y-5816650D01*
X4533646Y-5814263D01*
X4537811Y-5813552D01*
X4541926Y-5814618D01*
X4545279Y-5817209D01*
X4546295Y-5818479D01*
X4554982Y-5826201D01*
X4564735Y-5832551D01*
X4575352Y-5837275D01*
X4586528Y-5840374D01*
X4598060Y-5841695D01*
X4609693Y-5841238D01*
X4621072Y-5839053D01*
X4632045Y-5835091D01*
X4642205Y-5829554D01*
X4651451Y-5822543D01*
X4657090Y-5816650D01*
X4660646Y-5814263D01*
X4664811Y-5813552D01*
X4668926Y-5814618D01*
X4672279Y-5817209D01*
X4673295Y-5818479D01*
X4681982Y-5826201D01*
X4691735Y-5832551D01*
X4702352Y-5837275D01*
X4713528Y-5840374D01*
X4725060Y-5841695D01*
X4736693Y-5841238D01*
X4748072Y-5839053D01*
X4759045Y-5835091D01*
X4769205Y-5829554D01*
X4778451Y-5822543D01*
X4784090Y-5816650D01*
X4787646Y-5814263D01*
X4791811Y-5813552D01*
X4795926Y-5814618D01*
X4799279Y-5817209D01*
X4800295Y-5818479D01*
X4808982Y-5826201D01*
X4818735Y-5832551D01*
X4823612Y-5834735D01*
X4823612Y-5797245D01*
X4811268Y-5797245D01*
X4807559Y-5796534D01*
X4804359Y-5794502D01*
X4802124Y-5791454D01*
X4801158Y-5787745D01*
X4803648Y-5771692D01*
X4803648Y-5760059D01*
X4801158Y-5744006D01*
X4802124Y-5740298D01*
X4804359Y-5737250D01*
X4807559Y-5735218D01*
X4811268Y-5734507D01*
X4823612Y-5734507D01*
X4823612Y-5697016D01*
X4818735Y-5699201D01*
X4808982Y-5705551D01*
X4800295Y-5713272D01*
X4799279Y-5714542D01*
X4795926Y-5717133D01*
X4791811Y-5718200D01*
X4787646Y-5717489D01*
X4784090Y-5715101D01*
X4778451Y-5709208D01*
X4769205Y-5702198D01*
X4759045Y-5696661D01*
X4748072Y-5692698D01*
X4736693Y-5690514D01*
X4725060Y-5690057D01*
X4713528Y-5691378D01*
X4702352Y-5694476D01*
X4691735Y-5699201D01*
X4681982Y-5705551D01*
X4673295Y-5713272D01*
X4672279Y-5714542D01*
X4668926Y-5717133D01*
X4664811Y-5718200D01*
X4660646Y-5717489D01*
X4657090Y-5715101D01*
X4651451Y-5709208D01*
X4642205Y-5702198D01*
X4632045Y-5696661D01*
X4621072Y-5692698D01*
X4609693Y-5690514D01*
X4598060Y-5690057D01*
X4586528Y-5691378D01*
X4575352Y-5694476D01*
X4564735Y-5699201D01*
X4554982Y-5705551D01*
X4546295Y-5713272D01*
X4545279Y-5714542D01*
X4541926Y-5717133D01*
X4537811Y-5718200D01*
X4533646Y-5717489D01*
X4530090Y-5715101D01*
X4524451Y-5709208D01*
X4515205Y-5702198D01*
X4505045Y-5696661D01*
X4494072Y-5692698D01*
X4482693Y-5690514D01*
X4471060Y-5690057D01*
X4459528Y-5691378D01*
X4448352Y-5694476D01*
X4437735Y-5699201D01*
X4427982Y-5705551D01*
X4419295Y-5713272D01*
X4418279Y-5714542D01*
X4414926Y-5717133D01*
X4410811Y-5718200D01*
X4406646Y-5717489D01*
X4403090Y-5715101D01*
X4397451Y-5709208D01*
X4388205Y-5702198D01*
X4378045Y-5696661D01*
X4367072Y-5692698D01*
X4355693Y-5690514D01*
X4344060Y-5690057D01*
X4332528Y-5691378D01*
X4321352Y-5694476D01*
X4310735Y-5699201D01*
X4300982Y-5705551D01*
X4292295Y-5713272D01*
X4291279Y-5714542D01*
X4287926Y-5717133D01*
X4283811Y-5718200D01*
X4279646Y-5717489D01*
X4276090Y-5715101D01*
X4270451Y-5709208D01*
X4261205Y-5702198D01*
X4251045Y-5696661D01*
X4240072Y-5692698D01*
X4228693Y-5690514D01*
X4217060Y-5690057D01*
X4205528Y-5691378D01*
X4194352Y-5694476D01*
X4183735Y-5699201D01*
X4173982Y-5705551D01*
X4165295Y-5713272D01*
X4164279Y-5714542D01*
X4160926Y-5717133D01*
X4156811Y-5718200D01*
X4152646Y-5717489D01*
X4149090Y-5715101D01*
X4143451Y-5709208D01*
X4134205Y-5702198D01*
X4124350Y-5696813D01*
X4124350Y-5734507D01*
X4136796Y-5734507D01*
X4140403Y-5735167D01*
X4143501Y-5737047D01*
X4145787Y-5739892D01*
X4146905Y-5743346D01*
X4146702Y-5747004D01*
X4144975Y-5754268D01*
X4144111Y-5765901D01*
X4144975Y-5777484D01*
X4146702Y-5784748D01*
X4146905Y-5788406D01*
X4145787Y-5791860D01*
X4143501Y-5794705D01*
X4140403Y-5796584D01*
X4136796Y-5797245D01*
X4124350Y-5797245D01*
X4124350Y-5834938D01*
X4134205Y-5829554D01*
X4143451Y-5822543D01*
X4149090Y-5816650D01*
X4152646Y-5814263D01*
X4156811Y-5813552D01*
X4160926Y-5814618D01*
X4164279Y-5817209D01*
X4165295Y-5818479D01*
X4173982Y-5826201D01*
X4183735Y-5832551D01*
X4194352Y-5837275D01*
X4205528Y-5840374D01*
G37*
G36*
X3709060Y-5841695D02*
G01*
X3720693Y-5841238D01*
X3732072Y-5839053D01*
X3743045Y-5835091D01*
X3753205Y-5829554D01*
X3762451Y-5822543D01*
X3768090Y-5816650D01*
X3771646Y-5814263D01*
X3775811Y-5813552D01*
X3779926Y-5814618D01*
X3783279Y-5817209D01*
X3784295Y-5818479D01*
X3792982Y-5826201D01*
X3802735Y-5832551D01*
X3813352Y-5837275D01*
X3824528Y-5840374D01*
X3836060Y-5841695D01*
X3847693Y-5841238D01*
X3859072Y-5839053D01*
X3870045Y-5835091D01*
X3880205Y-5829554D01*
X3889451Y-5822543D01*
X3895090Y-5816650D01*
X3898646Y-5814263D01*
X3902811Y-5813552D01*
X3906926Y-5814618D01*
X3910279Y-5817209D01*
X3911295Y-5818479D01*
X3919982Y-5826201D01*
X3929735Y-5832551D01*
X3940352Y-5837275D01*
X3951528Y-5840374D01*
X3963060Y-5841695D01*
X3974693Y-5841238D01*
X3986072Y-5839053D01*
X3997045Y-5835091D01*
X4007205Y-5829554D01*
X4016451Y-5822543D01*
X4022090Y-5816650D01*
X4025646Y-5814263D01*
X4029811Y-5813552D01*
X4033926Y-5814618D01*
X4037279Y-5817209D01*
X4038295Y-5818479D01*
X4046982Y-5826201D01*
X4056735Y-5832551D01*
X4061612Y-5834735D01*
X4061612Y-5797245D01*
X4049268Y-5797245D01*
X4045559Y-5796534D01*
X4042359Y-5794502D01*
X4040124Y-5791454D01*
X4039158Y-5787745D01*
X4041648Y-5771692D01*
X4041648Y-5760059D01*
X4039158Y-5744006D01*
X4040124Y-5740298D01*
X4042359Y-5737250D01*
X4045559Y-5735218D01*
X4049268Y-5734507D01*
X4061612Y-5734507D01*
X4061612Y-5697016D01*
X4056735Y-5699201D01*
X4046982Y-5705551D01*
X4038295Y-5713272D01*
X4037279Y-5714542D01*
X4033926Y-5717133D01*
X4029811Y-5718200D01*
X4025646Y-5717489D01*
X4022090Y-5715101D01*
X4016451Y-5709208D01*
X4007205Y-5702198D01*
X3997045Y-5696661D01*
X3986072Y-5692698D01*
X3974693Y-5690514D01*
X3963060Y-5690057D01*
X3951528Y-5691378D01*
X3940352Y-5694476D01*
X3929735Y-5699201D01*
X3919982Y-5705551D01*
X3911295Y-5713272D01*
X3910279Y-5714542D01*
X3906926Y-5717133D01*
X3902811Y-5718200D01*
X3898646Y-5717489D01*
X3895090Y-5715101D01*
X3889451Y-5709208D01*
X3880205Y-5702198D01*
X3870045Y-5696661D01*
X3859072Y-5692698D01*
X3847693Y-5690514D01*
X3836060Y-5690057D01*
X3824528Y-5691378D01*
X3813352Y-5694476D01*
X3802735Y-5699201D01*
X3792982Y-5705551D01*
X3784295Y-5713272D01*
X3783279Y-5714542D01*
X3779926Y-5717133D01*
X3775811Y-5718200D01*
X3771646Y-5717489D01*
X3768090Y-5715101D01*
X3762451Y-5709208D01*
X3753205Y-5702198D01*
X3743045Y-5696661D01*
X3732072Y-5692698D01*
X3720287Y-5690463D01*
X3688486Y-5685129D01*
X3685540Y-5684164D01*
X3683000Y-5682335D01*
X3637940Y-5637276D01*
X3631742Y-5632145D01*
X3625037Y-5628589D01*
X3617823Y-5626404D01*
X3609797Y-5625592D01*
X3458413Y-5625592D01*
X3454603Y-5624830D01*
X3451351Y-5622747D01*
X3449116Y-5619546D01*
X3448253Y-5615787D01*
X3448862Y-5611926D01*
X3450894Y-5608624D01*
X3453993Y-5606288D01*
X3462324Y-5602224D01*
X3466795Y-5601208D01*
X4025392Y-5601208D01*
X4033418Y-5600395D01*
X4040632Y-5598210D01*
X4047337Y-5594654D01*
X4053535Y-5589524D01*
X4126941Y-5516168D01*
X4132072Y-5509920D01*
X4135628Y-5503265D01*
X4137812Y-5496052D01*
X4138625Y-5488025D01*
X4138625Y-5365902D01*
X4139692Y-5361330D01*
X4145635Y-5349392D01*
X4148023Y-5346293D01*
X4151376Y-5344312D01*
X4156252Y-5342636D01*
X4158183Y-5341416D01*
X4161688Y-5340045D01*
X4165447Y-5340045D01*
X4168952Y-5341416D01*
X4170883Y-5342636D01*
X4176318Y-5344515D01*
X4182618Y-5345226D01*
X4271518Y-5345226D01*
X4277817Y-5344515D01*
X4283252Y-5342636D01*
X4288180Y-5339537D01*
X4292244Y-5335422D01*
X4295343Y-5330545D01*
X4297273Y-5325059D01*
X4297984Y-5318760D01*
X4297984Y-5169916D01*
X4297273Y-5163616D01*
X4295343Y-5158130D01*
X4292244Y-5153253D01*
X4288180Y-5149138D01*
X4283252Y-5146040D01*
X4277817Y-5144160D01*
X4271518Y-5143449D01*
X4182618Y-5143449D01*
X4176318Y-5144160D01*
X4170883Y-5146040D01*
X4168952Y-5147259D01*
X4165447Y-5148630D01*
X4161688Y-5148630D01*
X4158183Y-5147259D01*
X4156252Y-5146040D01*
X4150817Y-5144160D01*
X4144518Y-5143449D01*
X4055618Y-5143449D01*
X4049318Y-5144160D01*
X4043883Y-5146040D01*
X4041952Y-5147259D01*
X4038447Y-5148630D01*
X4034688Y-5148630D01*
X4031183Y-5147259D01*
X4029252Y-5146040D01*
X4023817Y-5144160D01*
X4017518Y-5143449D01*
X3928618Y-5143449D01*
X3922318Y-5144160D01*
X3916883Y-5146040D01*
X3914952Y-5147259D01*
X3911447Y-5148630D01*
X3907688Y-5148630D01*
X3904183Y-5147259D01*
X3902252Y-5146040D01*
X3896817Y-5144160D01*
X3890518Y-5143449D01*
X3801618Y-5143449D01*
X3795318Y-5144160D01*
X3789883Y-5146040D01*
X3787952Y-5147259D01*
X3784447Y-5148630D01*
X3780688Y-5148630D01*
X3777183Y-5147259D01*
X3775252Y-5146040D01*
X3769817Y-5144160D01*
X3763518Y-5143449D01*
X3674618Y-5143449D01*
X3668318Y-5144160D01*
X3662883Y-5146040D01*
X3660952Y-5147259D01*
X3657447Y-5148630D01*
X3653688Y-5148630D01*
X3650183Y-5147259D01*
X3648252Y-5146040D01*
X3642817Y-5144160D01*
X3636518Y-5143449D01*
X3547618Y-5143449D01*
X3541318Y-5144160D01*
X3535883Y-5146040D01*
X3533952Y-5147259D01*
X3530447Y-5148630D01*
X3526688Y-5148630D01*
X3523183Y-5147259D01*
X3521252Y-5146040D01*
X3515817Y-5144160D01*
X3509518Y-5143449D01*
X3420618Y-5143449D01*
X3414318Y-5144160D01*
X3408883Y-5146040D01*
X3406952Y-5147259D01*
X3403447Y-5148630D01*
X3399688Y-5148630D01*
X3396183Y-5147259D01*
X3394252Y-5146040D01*
X3388817Y-5144160D01*
X3382518Y-5143449D01*
X3293618Y-5143449D01*
X3287318Y-5144160D01*
X3281883Y-5146040D01*
X3279952Y-5147259D01*
X3276447Y-5148630D01*
X3272688Y-5148630D01*
X3269183Y-5147259D01*
X3267252Y-5146040D01*
X3261817Y-5144160D01*
X3255517Y-5143449D01*
X3166618Y-5143449D01*
X3160318Y-5144160D01*
X3154883Y-5146040D01*
X3152952Y-5147259D01*
X3149447Y-5148630D01*
X3145688Y-5148630D01*
X3142183Y-5147259D01*
X3140252Y-5146040D01*
X3134817Y-5144160D01*
X3128518Y-5143449D01*
X3112922Y-5143449D01*
X3112922Y-5200497D01*
X3129991Y-5200497D01*
X3133902Y-5201259D01*
X3137204Y-5203444D01*
X3139389Y-5206746D01*
X3140151Y-5210657D01*
X3140151Y-5278018D01*
X3139389Y-5281930D01*
X3137204Y-5285232D01*
X3133902Y-5287416D01*
X3129991Y-5288178D01*
X3112922Y-5288178D01*
X3112922Y-5345226D01*
X3128518Y-5345226D01*
X3134817Y-5344515D01*
X3140252Y-5342636D01*
X3142183Y-5341416D01*
X3145688Y-5340045D01*
X3149447Y-5340045D01*
X3152952Y-5341416D01*
X3154883Y-5342636D01*
X3159556Y-5344261D01*
X3162909Y-5346242D01*
X3165297Y-5349290D01*
X3171291Y-5361330D01*
X3172409Y-5365902D01*
X3172409Y-5483809D01*
X3173171Y-5491835D01*
X3175355Y-5499049D01*
X3178911Y-5505704D01*
X3184042Y-5511952D01*
X3359353Y-5687263D01*
X3361537Y-5690565D01*
X3362350Y-5694426D01*
X3362350Y-5734507D01*
X3426612Y-5734507D01*
X3426612Y-5712968D01*
X3427425Y-5709056D01*
X3429609Y-5705805D01*
X3432911Y-5703570D01*
X3436772Y-5702808D01*
X3479190Y-5702808D01*
X3483051Y-5703570D01*
X3486353Y-5705805D01*
X3488537Y-5709056D01*
X3489350Y-5712968D01*
X3489350Y-5734507D01*
X3553612Y-5734507D01*
X3553612Y-5712968D01*
X3554425Y-5709056D01*
X3556609Y-5705805D01*
X3559911Y-5703570D01*
X3563772Y-5702808D01*
X3590086Y-5702808D01*
X3593998Y-5703570D01*
X3597300Y-5705805D01*
X3613353Y-5721858D01*
X3615537Y-5725160D01*
X3616350Y-5729020D01*
X3616350Y-5734507D01*
X3621328Y-5734507D01*
X3624834Y-5735167D01*
X3627882Y-5736945D01*
X3630168Y-5739638D01*
X3631336Y-5742990D01*
X3636619Y-5774080D01*
X3636975Y-5777331D01*
X3638702Y-5784748D01*
X3638905Y-5788406D01*
X3637787Y-5791860D01*
X3635501Y-5794705D01*
X3632403Y-5796584D01*
X3628796Y-5797245D01*
X3616350Y-5797245D01*
X3616350Y-5834938D01*
X3626205Y-5829554D01*
X3635451Y-5822543D01*
X3641090Y-5816650D01*
X3644646Y-5814263D01*
X3648811Y-5813552D01*
X3652926Y-5814618D01*
X3656279Y-5817209D01*
X3657295Y-5818479D01*
X3665982Y-5826201D01*
X3675735Y-5832551D01*
X3686352Y-5837275D01*
X3697528Y-5840374D01*
G37*
G36*
X5013350Y-5834938D02*
G01*
X5023256Y-5829554D01*
X5032502Y-5822543D01*
X5040528Y-5814161D01*
X5047234Y-5804662D01*
X5050891Y-5797245D01*
X5013350Y-5797245D01*
G37*
G36*
X2981350Y-5834938D02*
G01*
X2991205Y-5829554D01*
X3000451Y-5822543D01*
X3006090Y-5816650D01*
X3009646Y-5814263D01*
X3013811Y-5813552D01*
X3017926Y-5814618D01*
X3021279Y-5817209D01*
X3022295Y-5818479D01*
X3030982Y-5826201D01*
X3040735Y-5832551D01*
X3045612Y-5834735D01*
X3045612Y-5797245D01*
X2981350Y-5797245D01*
G37*
G36*
X3362350Y-5834938D02*
G01*
X3372205Y-5829554D01*
X3381451Y-5822543D01*
X3387090Y-5816650D01*
X3390646Y-5814263D01*
X3394811Y-5813552D01*
X3398926Y-5814618D01*
X3402279Y-5817209D01*
X3403295Y-5818479D01*
X3411982Y-5826201D01*
X3421735Y-5832551D01*
X3426612Y-5834735D01*
X3426612Y-5797245D01*
X3362350Y-5797245D01*
G37*
G36*
X3235350Y-5834938D02*
G01*
X3245205Y-5829554D01*
X3254451Y-5822543D01*
X3260090Y-5816650D01*
X3263646Y-5814263D01*
X3267811Y-5813552D01*
X3271926Y-5814618D01*
X3275279Y-5817209D01*
X3276295Y-5818479D01*
X3284982Y-5826201D01*
X3294735Y-5832551D01*
X3299612Y-5834735D01*
X3299612Y-5797245D01*
X3235350Y-5797245D01*
G37*
G36*
X3108350Y-5834938D02*
G01*
X3118205Y-5829554D01*
X3127451Y-5822543D01*
X3133090Y-5816650D01*
X3136646Y-5814263D01*
X3140811Y-5813552D01*
X3144926Y-5814618D01*
X3148279Y-5817209D01*
X3149295Y-5818479D01*
X3157982Y-5826201D01*
X3167735Y-5832551D01*
X3172612Y-5834735D01*
X3172612Y-5797245D01*
X3108350Y-5797245D01*
G37*
G36*
X3489350Y-5834938D02*
G01*
X3499205Y-5829554D01*
X3508451Y-5822543D01*
X3514090Y-5816650D01*
X3517646Y-5814263D01*
X3521811Y-5813552D01*
X3525926Y-5814618D01*
X3529279Y-5817209D01*
X3530295Y-5818479D01*
X3538982Y-5826201D01*
X3548735Y-5832551D01*
X3553612Y-5834735D01*
X3553612Y-5797245D01*
X3489350Y-5797245D01*
G37*
G36*
X2854350Y-5834938D02*
G01*
X2864205Y-5829554D01*
X2873451Y-5822543D01*
X2879090Y-5816650D01*
X2882646Y-5814263D01*
X2886811Y-5813552D01*
X2890926Y-5814618D01*
X2894279Y-5817209D01*
X2895295Y-5818479D01*
X2903982Y-5826201D01*
X2913735Y-5832551D01*
X2918612Y-5834735D01*
X2918612Y-5797245D01*
X2854350Y-5797245D01*
G37*
G36*
X2727350Y-5834938D02*
G01*
X2737205Y-5829554D01*
X2746451Y-5822543D01*
X2752090Y-5816650D01*
X2755646Y-5814263D01*
X2759811Y-5813552D01*
X2763926Y-5814618D01*
X2767279Y-5817209D01*
X2768295Y-5818479D01*
X2776982Y-5826201D01*
X2786735Y-5832551D01*
X2791612Y-5834735D01*
X2791612Y-5797245D01*
X2727350Y-5797245D01*
G37*
G36*
X4886350Y-5834938D02*
G01*
X4896205Y-5829554D01*
X4905451Y-5822543D01*
X4911140Y-5816650D01*
X4914646Y-5814263D01*
X4918811Y-5813552D01*
X4922977Y-5814568D01*
X4926279Y-5817209D01*
X4927346Y-5818479D01*
X4936032Y-5826201D01*
X4945735Y-5832551D01*
X4950663Y-5834735D01*
X4950663Y-5797245D01*
X4886350Y-5797245D01*
G37*
G36*
X5013350Y-5734507D02*
G01*
X5050891Y-5734507D01*
X5047234Y-5727090D01*
X5040528Y-5717590D01*
X5032502Y-5709208D01*
X5023256Y-5702198D01*
X5013350Y-5696813D01*
G37*
G36*
X2981350Y-5734507D02*
G01*
X3045612Y-5734507D01*
X3045612Y-5697016D01*
X3040735Y-5699201D01*
X3030982Y-5705551D01*
X3022295Y-5713272D01*
X3021279Y-5714542D01*
X3017926Y-5717133D01*
X3013811Y-5718200D01*
X3009646Y-5717489D01*
X3006090Y-5715101D01*
X3000451Y-5709208D01*
X2991205Y-5702198D01*
X2981350Y-5696813D01*
G37*
G36*
X3108350Y-5734507D02*
G01*
X3172612Y-5734507D01*
X3172612Y-5697016D01*
X3167735Y-5699201D01*
X3157982Y-5705551D01*
X3149295Y-5713272D01*
X3148279Y-5714542D01*
X3144926Y-5717133D01*
X3140811Y-5718200D01*
X3136646Y-5717489D01*
X3133090Y-5715101D01*
X3127451Y-5709208D01*
X3118205Y-5702198D01*
X3108350Y-5696813D01*
G37*
G36*
X2854350Y-5734507D02*
G01*
X2918612Y-5734507D01*
X2918612Y-5697016D01*
X2913735Y-5699201D01*
X2903982Y-5705551D01*
X2895295Y-5713272D01*
X2894279Y-5714542D01*
X2890926Y-5717133D01*
X2886811Y-5718200D01*
X2882646Y-5717489D01*
X2879090Y-5715101D01*
X2873451Y-5709208D01*
X2864205Y-5702198D01*
X2854350Y-5696813D01*
G37*
G36*
X3235350Y-5734507D02*
G01*
X3299612Y-5734507D01*
X3299612Y-5697016D01*
X3294735Y-5699201D01*
X3284982Y-5705551D01*
X3276295Y-5713272D01*
X3275279Y-5714542D01*
X3271926Y-5717133D01*
X3267811Y-5718200D01*
X3263646Y-5717489D01*
X3260090Y-5715101D01*
X3254451Y-5709208D01*
X3245205Y-5702198D01*
X3235350Y-5696813D01*
G37*
G36*
X2727350Y-5734507D02*
G01*
X2791612Y-5734507D01*
X2791612Y-5697016D01*
X2786735Y-5699201D01*
X2776982Y-5705551D01*
X2768295Y-5713272D01*
X2767279Y-5714542D01*
X2763926Y-5717133D01*
X2759811Y-5718200D01*
X2755646Y-5717489D01*
X2752090Y-5715101D01*
X2746451Y-5709208D01*
X2737205Y-5702198D01*
X2727350Y-5696813D01*
G37*
G36*
X4886350Y-5734507D02*
G01*
X4950663Y-5734507D01*
X4950663Y-5697016D01*
X4945735Y-5699201D01*
X4936032Y-5705551D01*
X4927346Y-5713272D01*
X4926279Y-5714542D01*
X4922977Y-5717184D01*
X4918811Y-5718200D01*
X4914646Y-5717489D01*
X4911140Y-5715101D01*
X4905451Y-5709208D01*
X4896205Y-5702198D01*
X4886350Y-5696813D01*
G37*
G36*
X1215034Y-5611774D02*
G01*
X1231341Y-5610860D01*
X1247495Y-5608116D01*
X1263192Y-5603595D01*
X1278331Y-5597296D01*
X1292606Y-5589422D01*
X1305966Y-5579922D01*
X1318158Y-5569051D01*
X1329080Y-5556859D01*
X1338529Y-5543499D01*
X1346454Y-5529173D01*
X1352702Y-5514086D01*
X1357223Y-5498338D01*
X1359966Y-5482234D01*
X1360881Y-5465876D01*
X1359966Y-5449519D01*
X1357223Y-5433415D01*
X1352702Y-5417667D01*
X1346454Y-5402580D01*
X1338529Y-5388254D01*
X1329080Y-5374894D01*
X1318158Y-5362702D01*
X1305966Y-5351830D01*
X1292606Y-5342331D01*
X1278331Y-5334457D01*
X1263192Y-5328158D01*
X1247495Y-5323636D01*
X1231341Y-5320893D01*
X1215034Y-5319979D01*
X1198676Y-5320893D01*
X1182522Y-5323636D01*
X1166825Y-5328158D01*
X1151686Y-5334457D01*
X1137412Y-5342331D01*
X1124051Y-5351830D01*
X1111859Y-5362702D01*
X1100937Y-5374894D01*
X1091488Y-5388254D01*
X1083564Y-5402580D01*
X1077315Y-5417667D01*
X1072794Y-5433415D01*
X1070051Y-5449519D01*
X1069136Y-5465876D01*
X1070051Y-5482234D01*
X1072794Y-5498338D01*
X1077315Y-5514086D01*
X1083564Y-5529173D01*
X1091488Y-5543499D01*
X1100937Y-5556859D01*
X1111859Y-5569051D01*
X1124051Y-5579922D01*
X1137412Y-5589422D01*
X1151686Y-5597296D01*
X1166825Y-5603595D01*
X1182522Y-5608116D01*
X1198676Y-5610860D01*
G37*
G36*
X6048654Y-5595620D02*
G01*
X6048654Y-5532221D01*
X5985256Y-5532221D01*
X5991453Y-5543499D01*
X6000953Y-5556859D01*
X6011824Y-5569051D01*
X6024016Y-5579922D01*
X6037376Y-5589422D01*
G37*
G36*
X6181344Y-5595620D02*
G01*
X6192621Y-5589422D01*
X6205982Y-5579922D01*
X6218174Y-5569051D01*
X6229045Y-5556859D01*
X6238544Y-5543499D01*
X6244742Y-5532221D01*
X6181344Y-5532221D01*
G37*
G36*
X5985256Y-5399532D02*
G01*
X6048654Y-5399532D01*
X6048654Y-5336133D01*
X6037376Y-5342331D01*
X6024016Y-5351830D01*
X6011824Y-5362702D01*
X6000953Y-5374894D01*
X5991453Y-5388254D01*
G37*
G36*
X6181344Y-5399532D02*
G01*
X6244742Y-5399532D01*
X6238544Y-5388254D01*
X6229045Y-5374894D01*
X6218174Y-5362702D01*
X6205982Y-5351830D01*
X6192621Y-5342331D01*
X6181344Y-5336133D01*
G37*
G36*
X3039618Y-5345226D02*
G01*
X3055213Y-5345226D01*
X3055213Y-5288178D01*
X3013151Y-5288178D01*
X3013151Y-5318760D01*
X3013862Y-5325059D01*
X3015792Y-5330545D01*
X3018891Y-5335422D01*
X3022955Y-5339537D01*
X3027883Y-5342636D01*
X3033318Y-5344515D01*
G37*
G36*
X3013151Y-5200497D02*
G01*
X3055213Y-5200497D01*
X3055213Y-5143449D01*
X3039618Y-5143449D01*
X3033318Y-5144160D01*
X3027883Y-5146040D01*
X3022955Y-5149138D01*
X3018891Y-5153253D01*
X3015792Y-5158130D01*
X3013862Y-5163616D01*
X3013151Y-5169916D01*
G37*
G36*
X3388664Y-4550308D02*
G01*
X3531717Y-4550308D01*
X3531717Y-4380738D01*
X3362147Y-4380738D01*
X3362147Y-4523841D01*
X3362909Y-4530140D01*
X3364788Y-4535627D01*
X3367887Y-4540504D01*
X3371951Y-4544618D01*
X3376879Y-4547666D01*
X3382314Y-4549597D01*
G37*
G36*
X3844442Y-4550308D02*
G01*
X3987495Y-4550308D01*
X3993845Y-4549597D01*
X3999280Y-4547666D01*
X4004208Y-4544618D01*
X4008272Y-4540504D01*
X4011371Y-4535627D01*
X4013250Y-4530140D01*
X4014012Y-4523841D01*
X4014012Y-4380738D01*
X3844442Y-4380738D01*
G37*
G36*
X1768195Y-4495444D02*
G01*
X1779727Y-4494072D01*
X1790954Y-4491024D01*
X1801571Y-4486249D01*
X1811274Y-4479950D01*
X1819960Y-4472228D01*
X1827377Y-4463237D01*
X1833321Y-4453280D01*
X1837639Y-4442510D01*
X1840280Y-4431182D01*
X1841195Y-4419600D01*
X1840280Y-4408017D01*
X1837639Y-4396689D01*
X1833321Y-4385919D01*
X1827377Y-4375962D01*
X1819960Y-4366971D01*
X1811274Y-4359249D01*
X1801571Y-4352950D01*
X1790954Y-4348175D01*
X1779727Y-4345127D01*
X1768195Y-4343755D01*
X1756613Y-4344212D01*
X1745183Y-4346448D01*
X1734261Y-4350359D01*
X1724050Y-4355896D01*
X1714804Y-4362958D01*
X1706778Y-4371340D01*
X1700072Y-4380839D01*
X1694942Y-4391253D01*
X1691436Y-4402328D01*
X1689658Y-4413808D01*
X1689658Y-4425391D01*
X1691436Y-4436872D01*
X1694942Y-4447946D01*
X1700072Y-4458360D01*
X1706778Y-4467860D01*
X1714804Y-4476242D01*
X1724050Y-4483303D01*
X1734261Y-4488840D01*
X1745183Y-4492752D01*
X1756613Y-4494987D01*
G37*
G36*
X7135418Y-4359148D02*
G01*
X7167880Y-4359148D01*
X7167880Y-4300220D01*
X7108952Y-4300220D01*
X7108952Y-4332681D01*
X7109663Y-4338980D01*
X7111593Y-4344466D01*
X7114641Y-4349343D01*
X7118756Y-4353458D01*
X7123633Y-4356506D01*
X7129119Y-4358436D01*
G37*
G36*
X7108952Y-4208780D02*
G01*
X7167880Y-4208780D01*
X7167880Y-4149851D01*
X7135418Y-4149851D01*
X7129119Y-4150563D01*
X7123633Y-4152493D01*
X7118756Y-4155541D01*
X7114641Y-4159656D01*
X7111593Y-4164533D01*
X7109663Y-4170019D01*
X7108952Y-4176318D01*
G37*
G36*
X160020Y-4105148D02*
G01*
X192481Y-4105148D01*
X198780Y-4104436D01*
X204266Y-4102506D01*
X209143Y-4099458D01*
X213258Y-4095343D01*
X216306Y-4090466D01*
X218236Y-4084980D01*
X218948Y-4078681D01*
X218948Y-4046220D01*
X160020Y-4046220D01*
G37*
G36*
X3362147Y-4068064D02*
G01*
X3531717Y-4068064D01*
X3531717Y-3898493D01*
X3388664Y-3898493D01*
X3382314Y-3899204D01*
X3376879Y-3901135D01*
X3371951Y-3904183D01*
X3367887Y-3908298D01*
X3364788Y-3913174D01*
X3362909Y-3918661D01*
X3362147Y-3924960D01*
G37*
G36*
X3844442Y-4068064D02*
G01*
X4014012Y-4068064D01*
X4014012Y-3924960D01*
X4013250Y-3918661D01*
X4011371Y-3913174D01*
X4008272Y-3908298D01*
X4004208Y-3904183D01*
X3999280Y-3901135D01*
X3993845Y-3899204D01*
X3987495Y-3898493D01*
X3844442Y-3898493D01*
G37*
G36*
X160020Y-3954779D02*
G01*
X218948Y-3954779D01*
X218948Y-3922318D01*
X218236Y-3916019D01*
X216306Y-3910533D01*
X213258Y-3905656D01*
X209143Y-3901541D01*
X204266Y-3898493D01*
X198780Y-3896563D01*
X192481Y-3895851D01*
X160020Y-3895851D01*
G37*
G36*
X4557826Y-3425545D02*
G01*
X4614875Y-3425545D01*
X4614875Y-3409950D01*
X4614164Y-3403650D01*
X4612233Y-3398215D01*
X4609134Y-3393287D01*
X4605070Y-3389223D01*
X4600143Y-3386124D01*
X4594707Y-3384194D01*
X4588408Y-3383483D01*
X4557826Y-3383483D01*
G37*
G36*
X4413046Y-3425545D02*
G01*
X4470095Y-3425545D01*
X4470095Y-3383483D01*
X4439513Y-3383483D01*
X4433214Y-3384194D01*
X4427778Y-3386124D01*
X4422851Y-3389223D01*
X4418787Y-3393287D01*
X4415688Y-3398215D01*
X4413758Y-3403650D01*
X4413046Y-3409950D01*
G37*
G36*
X2837840Y-3425545D02*
G01*
X2894888Y-3425545D01*
X2894888Y-3409950D01*
X2894177Y-3403650D01*
X2892298Y-3398215D01*
X2889199Y-3393287D01*
X2885084Y-3389223D01*
X2880207Y-3386124D01*
X2874721Y-3384194D01*
X2868422Y-3383483D01*
X2837840Y-3383483D01*
G37*
G36*
X2693111Y-3425545D02*
G01*
X2750159Y-3425545D01*
X2750159Y-3383483D01*
X2719578Y-3383483D01*
X2713278Y-3384194D01*
X2707792Y-3386124D01*
X2702915Y-3389223D01*
X2698800Y-3393287D01*
X2695702Y-3398215D01*
X2693822Y-3403650D01*
X2693111Y-3409950D01*
G37*
G36*
X1880412Y-3033268D02*
G01*
X1970227Y-3033268D01*
X1976526Y-3032556D01*
X1982012Y-3030626D01*
X1986889Y-3027578D01*
X1991004Y-3023463D01*
X1994052Y-3018586D01*
X1995982Y-3013100D01*
X1996592Y-3007766D01*
X1997252Y-3005074D01*
X1998624Y-3002686D01*
X2006854Y-2992018D01*
X2008987Y-2989986D01*
X2012442Y-2988360D01*
X2019807Y-2984246D01*
X2026716Y-2978505D01*
X2281580Y-2723591D01*
X2286914Y-2716530D01*
X2290673Y-2708960D01*
X2292959Y-2700832D01*
X2293823Y-2691942D01*
X2293823Y-1829562D01*
X2294280Y-1826514D01*
X2295652Y-1823770D01*
X2325471Y-1780946D01*
X2333955Y-1769414D01*
X2340508Y-1757476D01*
X2345385Y-1744725D01*
X2348585Y-1731467D01*
X2349906Y-1717903D01*
X2349449Y-1704289D01*
X2347214Y-1690827D01*
X2343150Y-1677822D01*
X2337409Y-1665427D01*
X2330094Y-1653946D01*
X2321306Y-1643532D01*
X2311146Y-1634388D01*
X2299919Y-1626666D01*
X2287778Y-1620520D01*
X2274874Y-1616049D01*
X2261514Y-1613306D01*
X2247900Y-1612392D01*
X2234285Y-1613306D01*
X2220925Y-1616049D01*
X2208022Y-1620520D01*
X2195880Y-1626666D01*
X2184654Y-1634388D01*
X2174494Y-1643532D01*
X2165705Y-1653946D01*
X2158390Y-1665427D01*
X2152650Y-1677822D01*
X2148586Y-1690827D01*
X2146350Y-1704289D01*
X2145893Y-1717903D01*
X2147214Y-1731467D01*
X2150414Y-1744725D01*
X2155291Y-1757476D01*
X2161844Y-1769414D01*
X2170531Y-1781200D01*
X2200148Y-1823770D01*
X2201519Y-1826514D01*
X2201976Y-1829562D01*
X2201976Y-2669184D01*
X2201214Y-2673045D01*
X2199030Y-2676347D01*
X2005685Y-2869692D01*
X2002383Y-2871876D01*
X1998522Y-2872638D01*
X1994611Y-2871876D01*
X1991360Y-2869692D01*
X1986889Y-2865221D01*
X1982012Y-2862173D01*
X1976526Y-2860243D01*
X1970227Y-2859532D01*
X1880412Y-2859532D01*
X1874113Y-2860243D01*
X1868627Y-2862173D01*
X1863750Y-2865221D01*
X1859635Y-2869336D01*
X1856587Y-2874213D01*
X1854657Y-2879699D01*
X1853946Y-2885998D01*
X1853946Y-3006801D01*
X1854657Y-3013100D01*
X1856587Y-3018586D01*
X1859635Y-3023463D01*
X1863750Y-3027578D01*
X1868627Y-3030626D01*
X1874113Y-3032556D01*
G37*
G36*
X160020Y-2885948D02*
G01*
X192481Y-2885948D01*
X198780Y-2885236D01*
X204266Y-2883306D01*
X209143Y-2880258D01*
X213258Y-2876143D01*
X216306Y-2871266D01*
X218236Y-2865780D01*
X218948Y-2859481D01*
X218948Y-2827020D01*
X160020Y-2827020D01*
G37*
G36*
X160020Y-2735580D02*
G01*
X218948Y-2735580D01*
X218948Y-2703118D01*
X218236Y-2696819D01*
X216306Y-2691333D01*
X213258Y-2686456D01*
X209143Y-2682341D01*
X204266Y-2679293D01*
X198780Y-2677363D01*
X192481Y-2676652D01*
X160020Y-2676652D01*
G37*
G36*
X2552954Y-2651201D02*
G01*
X3051810Y-2651201D01*
X3058109Y-2650490D01*
X3063595Y-2648559D01*
X3068472Y-2645460D01*
X3072587Y-2641396D01*
X3075686Y-2636469D01*
X3077565Y-2631033D01*
X3078276Y-2624734D01*
X3078276Y-2125827D01*
X3077565Y-2119528D01*
X3075686Y-2114092D01*
X3072587Y-2109165D01*
X3068472Y-2105101D01*
X3063595Y-2102002D01*
X3058109Y-2100072D01*
X3051810Y-2099360D01*
X2552954Y-2099360D01*
X2546654Y-2100072D01*
X2541168Y-2102002D01*
X2536291Y-2105101D01*
X2532176Y-2109165D01*
X2529078Y-2114092D01*
X2527198Y-2119528D01*
X2526487Y-2125827D01*
X2526487Y-2624734D01*
X2527198Y-2631033D01*
X2529078Y-2636469D01*
X2532176Y-2641396D01*
X2536291Y-2645460D01*
X2541168Y-2648559D01*
X2546654Y-2650490D01*
G37*
G36*
X6842048Y-2643124D02*
G01*
X7000951Y-2643124D01*
X7007250Y-2642412D01*
X7012736Y-2640482D01*
X7017613Y-2637434D01*
X7021728Y-2633319D01*
X7024776Y-2628442D01*
X7026706Y-2622956D01*
X7027418Y-2616657D01*
X7027418Y-2437688D01*
X7026706Y-2431389D01*
X7024776Y-2425903D01*
X7021728Y-2421026D01*
X7017613Y-2416911D01*
X7012736Y-2413863D01*
X7007250Y-2411933D01*
X7000951Y-2411222D01*
X6993788Y-2411222D01*
X6990130Y-2410561D01*
X6986930Y-2408580D01*
X6984695Y-2405583D01*
X6968490Y-2373172D01*
X6967423Y-2368600D01*
X6967423Y-2266645D01*
X6968490Y-2262073D01*
X6984695Y-2229662D01*
X6986930Y-2226665D01*
X6990130Y-2224684D01*
X6993788Y-2224024D01*
X7000951Y-2224024D01*
X7007250Y-2223312D01*
X7012736Y-2221382D01*
X7017613Y-2218334D01*
X7021728Y-2214219D01*
X7024776Y-2209342D01*
X7026706Y-2203856D01*
X7027418Y-2197557D01*
X7027418Y-2050237D01*
X7028230Y-2046224D01*
X7030516Y-2042922D01*
X7033971Y-2040737D01*
X7037984Y-2040077D01*
X7041946Y-2041042D01*
X7045198Y-2043480D01*
X7047230Y-2047036D01*
X7049770Y-2055063D01*
X7050836Y-2061972D01*
X7054342Y-2073046D01*
X7059472Y-2083460D01*
X7066178Y-2092960D01*
X7074204Y-2101342D01*
X7083450Y-2108403D01*
X7093661Y-2113940D01*
X7104583Y-2117852D01*
X7116013Y-2120087D01*
X7127595Y-2120544D01*
X7139127Y-2119172D01*
X7150353Y-2116124D01*
X7160971Y-2111349D01*
X7170674Y-2105050D01*
X7179360Y-2097328D01*
X7186777Y-2088337D01*
X7192721Y-2078380D01*
X7197039Y-2067610D01*
X7199680Y-2056282D01*
X7200595Y-2044700D01*
X7199680Y-2033117D01*
X7197039Y-2021789D01*
X7192721Y-2011019D01*
X7186777Y-2001062D01*
X7179360Y-1992071D01*
X7170674Y-1984349D01*
X7160971Y-1978050D01*
X7150353Y-1973275D01*
X7139127Y-1970227D01*
X7133285Y-1969312D01*
X7106970Y-1960524D01*
X7103008Y-1958086D01*
X7021169Y-1876247D01*
X7018985Y-1872945D01*
X7018223Y-1869084D01*
X7018223Y-1851355D01*
X7018528Y-1848866D01*
X7027722Y-1811934D01*
X7029856Y-1806702D01*
X7032345Y-1796999D01*
X7033209Y-1786534D01*
X7033209Y-1637385D01*
X7032345Y-1626920D01*
X7029856Y-1617218D01*
X7025843Y-1607972D01*
X7020356Y-1599590D01*
X7013549Y-1592173D01*
X7005574Y-1585976D01*
X6996734Y-1581200D01*
X6987235Y-1577949D01*
X6977329Y-1576273D01*
X6967270Y-1576273D01*
X6957364Y-1577949D01*
X6947865Y-1581200D01*
X6939025Y-1585976D01*
X6931050Y-1592173D01*
X6924243Y-1599590D01*
X6915861Y-1612696D01*
X6912609Y-1614830D01*
X6908800Y-1615592D01*
X6904990Y-1614830D01*
X6901738Y-1612696D01*
X6893356Y-1599590D01*
X6886549Y-1592173D01*
X6878574Y-1585976D01*
X6869125Y-1580997D01*
X6869125Y-1650593D01*
X6901230Y-1650593D01*
X6905142Y-1651406D01*
X6908393Y-1653590D01*
X6910628Y-1656892D01*
X6911390Y-1660753D01*
X6911390Y-1763166D01*
X6910628Y-1767027D01*
X6908393Y-1770329D01*
X6905142Y-1772513D01*
X6901230Y-1773326D01*
X6869125Y-1773326D01*
X6869125Y-1842922D01*
X6878574Y-1837943D01*
X6886549Y-1831746D01*
X6893356Y-1824329D01*
X6898995Y-1815541D01*
X6901434Y-1812137D01*
X6905040Y-1810004D01*
X6909155Y-1809496D01*
X6913168Y-1810715D01*
X6916318Y-1813407D01*
X6918147Y-1817166D01*
X6926072Y-1848866D01*
X6926376Y-1851304D01*
X6926376Y-1869084D01*
X6925614Y-1872945D01*
X6923430Y-1876247D01*
X6887819Y-1911908D01*
X6882485Y-1918970D01*
X6878726Y-1926539D01*
X6876440Y-1934667D01*
X6875576Y-1943557D01*
X6875576Y-1949500D01*
X6874509Y-1954072D01*
X6858304Y-1986483D01*
X6856069Y-1989480D01*
X6852869Y-1991461D01*
X6849211Y-1992122D01*
X6842048Y-1992122D01*
X6835749Y-1992833D01*
X6830263Y-1994763D01*
X6825386Y-1997811D01*
X6821271Y-2001926D01*
X6818223Y-2006803D01*
X6816293Y-2012289D01*
X6815581Y-2018588D01*
X6815581Y-2197557D01*
X6816293Y-2203856D01*
X6818223Y-2209342D01*
X6821271Y-2214219D01*
X6825386Y-2218334D01*
X6830263Y-2221382D01*
X6835749Y-2223312D01*
X6842048Y-2224024D01*
X6849211Y-2224024D01*
X6852869Y-2224684D01*
X6856069Y-2226665D01*
X6858304Y-2229662D01*
X6874509Y-2262073D01*
X6875576Y-2266645D01*
X6875576Y-2368600D01*
X6874509Y-2373172D01*
X6858304Y-2405583D01*
X6856069Y-2408580D01*
X6852869Y-2410561D01*
X6849211Y-2411222D01*
X6842048Y-2411222D01*
X6835749Y-2411933D01*
X6830263Y-2413863D01*
X6825386Y-2416911D01*
X6821271Y-2421026D01*
X6818223Y-2425903D01*
X6816293Y-2431389D01*
X6815581Y-2437688D01*
X6815581Y-2616657D01*
X6816293Y-2622956D01*
X6818223Y-2628442D01*
X6821271Y-2633319D01*
X6825386Y-2637434D01*
X6830263Y-2640482D01*
X6835749Y-2642412D01*
G37*
G36*
X1513128Y-2538933D02*
G01*
X1546250Y-2538933D01*
X1546250Y-2469337D01*
X1486662Y-2469337D01*
X1486662Y-2512415D01*
X1487373Y-2518765D01*
X1489303Y-2524201D01*
X1492351Y-2529128D01*
X1496466Y-2533192D01*
X1501343Y-2536291D01*
X1506829Y-2538171D01*
G37*
G36*
X1638960Y-2538933D02*
G01*
X1672031Y-2538933D01*
X1678330Y-2538171D01*
X1683816Y-2536291D01*
X1688693Y-2533192D01*
X1692808Y-2529128D01*
X1695856Y-2524201D01*
X1697786Y-2518765D01*
X1698498Y-2512415D01*
X1698498Y-2469337D01*
X1638960Y-2469337D01*
G37*
G36*
X1638960Y-2356662D02*
G01*
X1698498Y-2356662D01*
X1698498Y-2313584D01*
X1697786Y-2307234D01*
X1695856Y-2301798D01*
X1692808Y-2296871D01*
X1688693Y-2292807D01*
X1683816Y-2289708D01*
X1678330Y-2287828D01*
X1672031Y-2287117D01*
X1638960Y-2287117D01*
G37*
G36*
X1486662Y-2356662D02*
G01*
X1546250Y-2356662D01*
X1546250Y-2287117D01*
X1513128Y-2287117D01*
X1506829Y-2287828D01*
X1501343Y-2289708D01*
X1496466Y-2292807D01*
X1492351Y-2296871D01*
X1489303Y-2301798D01*
X1487373Y-2307234D01*
X1486662Y-2313584D01*
G37*
G36*
X1428750Y-1816607D02*
G01*
X1459941Y-1816607D01*
X1466240Y-1815896D01*
X1471726Y-1813966D01*
X1476603Y-1810918D01*
X1480718Y-1806803D01*
X1483766Y-1801926D01*
X1485696Y-1796440D01*
X1486408Y-1790141D01*
X1486408Y-1758950D01*
X1428750Y-1758950D01*
G37*
G36*
X1308658Y-1816607D02*
G01*
X1339850Y-1816607D01*
X1339850Y-1758950D01*
X1282192Y-1758950D01*
X1282192Y-1790141D01*
X1282903Y-1796440D01*
X1284833Y-1801926D01*
X1287881Y-1806803D01*
X1291996Y-1810918D01*
X1296873Y-1813966D01*
X1302359Y-1815896D01*
G37*
G36*
X2734259Y-1813560D02*
G01*
X2748534Y-1812188D01*
X2762504Y-1809038D01*
X2775915Y-1804060D01*
X2788615Y-1797456D01*
X2800350Y-1789277D01*
X2810916Y-1779676D01*
X2820212Y-1768754D01*
X2828036Y-1756765D01*
X2834233Y-1743862D01*
X2838754Y-1730298D01*
X2841498Y-1716227D01*
X2842412Y-1701952D01*
X2841498Y-1687677D01*
X2838754Y-1673606D01*
X2834233Y-1660042D01*
X2828036Y-1647139D01*
X2820212Y-1635150D01*
X2810916Y-1624228D01*
X2800350Y-1614627D01*
X2788615Y-1606448D01*
X2775915Y-1599844D01*
X2762504Y-1594866D01*
X2748483Y-1591665D01*
X2741726Y-1590954D01*
X2691841Y-1582013D01*
X2688945Y-1581048D01*
X2686456Y-1579219D01*
X2306370Y-1199134D01*
X2304186Y-1195832D01*
X2303424Y-1191971D01*
X2303424Y-308559D01*
X2303881Y-305562D01*
X2305253Y-302768D01*
X2334869Y-260197D01*
X2339492Y-254406D01*
X2346909Y-242163D01*
X2352700Y-229057D01*
X2356764Y-215341D01*
X2359050Y-201218D01*
X2359507Y-186944D01*
X2358136Y-172669D01*
X2354986Y-158699D01*
X2350008Y-145288D01*
X2343404Y-132588D01*
X2335225Y-120853D01*
X2325624Y-110286D01*
X2314702Y-100990D01*
X2302713Y-93167D01*
X2289810Y-86969D01*
X2276246Y-82448D01*
X2262174Y-79705D01*
X2247900Y-78790D01*
X2233625Y-79705D01*
X2219553Y-82448D01*
X2205990Y-86969D01*
X2193086Y-93167D01*
X2181098Y-100990D01*
X2170176Y-110286D01*
X2160574Y-120853D01*
X2152396Y-132588D01*
X2145792Y-145288D01*
X2140813Y-158699D01*
X2137613Y-172720D01*
X2136902Y-179476D01*
X2127961Y-229362D01*
X2126996Y-232257D01*
X2125167Y-234746D01*
X1403756Y-956106D01*
X1400505Y-958342D01*
X1396593Y-959103D01*
X1021740Y-959103D01*
X1017219Y-958037D01*
X986688Y-942797D01*
X984148Y-940968D01*
X982268Y-938479D01*
X980389Y-934923D01*
X975969Y-929538D01*
X970584Y-925118D01*
X964488Y-921867D01*
X957834Y-919835D01*
X950417Y-919073D01*
X751382Y-919073D01*
X743966Y-919835D01*
X737311Y-921867D01*
X731215Y-925118D01*
X725830Y-929538D01*
X721410Y-934923D01*
X718159Y-941019D01*
X716127Y-947674D01*
X715416Y-955090D01*
X715416Y-1074115D01*
X716127Y-1081532D01*
X718159Y-1088186D01*
X721410Y-1094282D01*
X725830Y-1099667D01*
X731215Y-1104087D01*
X737311Y-1107389D01*
X743966Y-1109370D01*
X751382Y-1110132D01*
X950417Y-1110132D01*
X957834Y-1109370D01*
X964488Y-1107389D01*
X970584Y-1104087D01*
X975969Y-1099667D01*
X980389Y-1094282D01*
X982268Y-1090726D01*
X984148Y-1088237D01*
X986688Y-1086459D01*
X1017219Y-1071168D01*
X1021740Y-1070102D01*
X1423568Y-1070102D01*
X1428648Y-1069898D01*
X1433423Y-1069238D01*
X1438148Y-1068222D01*
X1442770Y-1066749D01*
X1447241Y-1064920D01*
X1451559Y-1062685D01*
X1455623Y-1060043D01*
X1459484Y-1057097D01*
X1463192Y-1053693D01*
X2175052Y-341833D01*
X2178354Y-339648D01*
X2182215Y-338886D01*
X2186127Y-339648D01*
X2189429Y-341833D01*
X2191613Y-345135D01*
X2192375Y-349046D01*
X2192375Y-1218946D01*
X2192629Y-1223975D01*
X2193239Y-1228801D01*
X2194306Y-1233525D01*
X2195728Y-1238148D01*
X2197608Y-1242618D01*
X2199843Y-1246886D01*
X2202434Y-1251000D01*
X2205380Y-1254810D01*
X2208784Y-1258570D01*
X2607970Y-1657705D01*
X2609799Y-1660194D01*
X2610764Y-1663090D01*
X2619857Y-1713890D01*
X2621076Y-1723288D01*
X2624683Y-1737156D01*
X2630068Y-1750415D01*
X2637078Y-1762861D01*
X2645664Y-1774342D01*
X2655620Y-1784654D01*
X2666796Y-1793544D01*
X2679039Y-1800961D01*
X2692146Y-1806752D01*
X2705862Y-1810816D01*
X2719984Y-1813102D01*
G37*
G36*
X1428750Y-1670050D02*
G01*
X1486408Y-1670050D01*
X1486408Y-1638858D01*
X1485696Y-1632559D01*
X1483766Y-1627073D01*
X1480718Y-1622196D01*
X1476603Y-1618081D01*
X1471726Y-1615033D01*
X1466240Y-1613103D01*
X1459941Y-1612392D01*
X1428750Y-1612392D01*
G37*
G36*
X1282192Y-1670050D02*
G01*
X1339850Y-1670050D01*
X1339850Y-1612392D01*
X1308658Y-1612392D01*
X1302359Y-1613103D01*
X1296873Y-1615033D01*
X1291996Y-1618081D01*
X1287881Y-1622196D01*
X1284833Y-1627073D01*
X1282903Y-1632559D01*
X1282192Y-1638858D01*
G37*
G36*
X907237Y-1560525D02*
G01*
X950315Y-1560525D01*
X956665Y-1559814D01*
X962101Y-1557883D01*
X967028Y-1554784D01*
X971092Y-1550720D01*
X974191Y-1545793D01*
X976071Y-1540357D01*
X976833Y-1534007D01*
X976833Y-1510944D01*
X907237Y-1510944D01*
G37*
G36*
X751484Y-1560525D02*
G01*
X794562Y-1560525D01*
X794562Y-1510944D01*
X725017Y-1510944D01*
X725017Y-1534007D01*
X725728Y-1540357D01*
X727608Y-1545793D01*
X730707Y-1550720D01*
X734771Y-1554784D01*
X739698Y-1557883D01*
X745134Y-1559814D01*
G37*
G36*
X2727299Y-1549958D02*
G01*
X2740914Y-1549501D01*
X2754376Y-1547266D01*
X2767380Y-1543202D01*
X2779776Y-1537462D01*
X2791256Y-1530146D01*
X2801670Y-1521358D01*
X2810814Y-1511198D01*
X2818536Y-1499971D01*
X2824683Y-1487830D01*
X2829153Y-1474927D01*
X2831896Y-1461566D01*
X2832811Y-1447952D01*
X2831896Y-1434338D01*
X2829153Y-1420977D01*
X2824683Y-1408074D01*
X2818536Y-1395933D01*
X2810814Y-1384706D01*
X2801670Y-1374546D01*
X2791256Y-1365758D01*
X2779776Y-1358442D01*
X2767380Y-1352702D01*
X2754376Y-1348638D01*
X2740914Y-1346403D01*
X2727299Y-1345946D01*
X2713736Y-1347266D01*
X2700477Y-1350467D01*
X2687726Y-1355344D01*
X2675788Y-1361897D01*
X2664815Y-1369974D01*
X2655011Y-1379474D01*
X2646527Y-1390192D01*
X2639568Y-1401927D01*
X2634284Y-1414475D01*
X2630678Y-1427632D01*
X2628849Y-1441145D01*
X2628849Y-1454759D01*
X2630678Y-1468272D01*
X2634284Y-1481429D01*
X2639568Y-1493977D01*
X2646527Y-1505712D01*
X2655011Y-1516430D01*
X2664815Y-1525930D01*
X2675788Y-1534007D01*
X2687726Y-1540560D01*
X2700477Y-1545437D01*
X2713736Y-1548638D01*
G37*
G36*
X101447Y-1460500D02*
G01*
X330352Y-1460500D01*
X336651Y-1459788D01*
X342138Y-1457909D01*
X347014Y-1454810D01*
X351129Y-1450695D01*
X354177Y-1445818D01*
X356108Y-1440332D01*
X356819Y-1434033D01*
X356819Y-1055166D01*
X356108Y-1048867D01*
X354177Y-1043381D01*
X351129Y-1038504D01*
X347014Y-1034389D01*
X342138Y-1031290D01*
X336651Y-1029411D01*
X330352Y-1028700D01*
X101447Y-1028700D01*
X95148Y-1029411D01*
X89662Y-1031290D01*
X84785Y-1034389D01*
X80670Y-1038504D01*
X77622Y-1043381D01*
X75692Y-1048867D01*
X74980Y-1055166D01*
X74980Y-1434033D01*
X75692Y-1440332D01*
X77622Y-1445818D01*
X80670Y-1450695D01*
X84785Y-1454810D01*
X89662Y-1457909D01*
X95148Y-1459788D01*
G37*
G36*
X725017Y-1438249D02*
G01*
X794562Y-1438249D01*
X794562Y-1388668D01*
X751484Y-1388668D01*
X745134Y-1389380D01*
X739698Y-1391310D01*
X734771Y-1394409D01*
X730707Y-1398473D01*
X727608Y-1403400D01*
X725728Y-1408836D01*
X725017Y-1415186D01*
G37*
G36*
X907237Y-1438249D02*
G01*
X976833Y-1438249D01*
X976833Y-1415186D01*
X976071Y-1408836D01*
X974191Y-1403400D01*
X971092Y-1398473D01*
X967028Y-1394409D01*
X962101Y-1391310D01*
X956665Y-1389380D01*
X950315Y-1388668D01*
X907237Y-1388668D01*
G37*
G36*
X6567474Y-1238402D02*
G01*
X6567474Y-1168806D01*
X6530390Y-1168806D01*
X6530390Y-1182014D01*
X6531254Y-1192479D01*
X6533743Y-1202182D01*
X6537756Y-1211427D01*
X6543243Y-1219809D01*
X6550050Y-1227226D01*
X6558025Y-1233424D01*
G37*
G36*
X6996125Y-1238402D02*
G01*
X7005574Y-1233424D01*
X7013549Y-1227226D01*
X7020356Y-1219809D01*
X7025843Y-1211427D01*
X7029856Y-1202182D01*
X7032345Y-1192479D01*
X7033209Y-1182014D01*
X7033209Y-1168806D01*
X6996125Y-1168806D01*
G37*
G36*
X6742125Y-1238402D02*
G01*
X6751574Y-1233424D01*
X6759549Y-1227226D01*
X6766356Y-1219809D01*
X6774738Y-1206703D01*
X6777990Y-1204569D01*
X6781800Y-1203807D01*
X6785609Y-1204569D01*
X6788861Y-1206703D01*
X6797243Y-1219809D01*
X6804050Y-1227226D01*
X6812025Y-1233424D01*
X6821474Y-1238402D01*
X6821474Y-1168806D01*
X6742125Y-1168806D01*
G37*
G36*
X6615125Y-1238402D02*
G01*
X6624574Y-1233424D01*
X6632549Y-1227226D01*
X6639356Y-1219809D01*
X6647738Y-1206703D01*
X6650990Y-1204569D01*
X6654800Y-1203807D01*
X6658609Y-1204569D01*
X6661861Y-1206703D01*
X6670243Y-1219809D01*
X6677050Y-1227226D01*
X6685025Y-1233424D01*
X6694474Y-1238402D01*
X6694474Y-1168806D01*
X6615125Y-1168806D01*
G37*
G36*
X6869125Y-1238402D02*
G01*
X6878574Y-1233424D01*
X6886549Y-1227226D01*
X6893356Y-1219809D01*
X6901738Y-1206703D01*
X6904990Y-1204569D01*
X6908800Y-1203807D01*
X6912609Y-1204569D01*
X6915861Y-1206703D01*
X6924243Y-1219809D01*
X6931050Y-1227226D01*
X6939025Y-1233424D01*
X6948474Y-1238402D01*
X6948474Y-1168806D01*
X6869125Y-1168806D01*
G37*
G36*
X6996125Y-1046073D02*
G01*
X7033209Y-1046073D01*
X7033209Y-1032865D01*
X7032345Y-1022400D01*
X7029856Y-1012698D01*
X7025843Y-1003452D01*
X7020356Y-995070D01*
X7013549Y-987653D01*
X7005574Y-981456D01*
X6996125Y-976477D01*
G37*
G36*
X6530390Y-1046073D02*
G01*
X6567474Y-1046073D01*
X6567474Y-976477D01*
X6558025Y-981456D01*
X6550050Y-987653D01*
X6543243Y-995070D01*
X6537756Y-1003452D01*
X6533743Y-1012698D01*
X6531254Y-1022400D01*
X6530390Y-1032865D01*
G37*
G36*
X6742125Y-1046073D02*
G01*
X6821474Y-1046073D01*
X6821474Y-976477D01*
X6812025Y-981456D01*
X6804050Y-987653D01*
X6797243Y-995070D01*
X6788861Y-1008176D01*
X6785609Y-1010310D01*
X6781800Y-1011072D01*
X6777990Y-1010310D01*
X6774738Y-1008176D01*
X6766356Y-995070D01*
X6759549Y-987653D01*
X6751574Y-981456D01*
X6742125Y-976477D01*
G37*
G36*
X6615125Y-1046073D02*
G01*
X6694474Y-1046073D01*
X6694474Y-976477D01*
X6685025Y-981456D01*
X6677050Y-987653D01*
X6670243Y-995070D01*
X6661861Y-1008176D01*
X6658609Y-1010310D01*
X6654800Y-1011072D01*
X6650990Y-1010310D01*
X6647738Y-1008176D01*
X6639356Y-995070D01*
X6632549Y-987653D01*
X6624574Y-981456D01*
X6615125Y-976477D01*
G37*
G36*
X6869125Y-1046073D02*
G01*
X6948474Y-1046073D01*
X6948474Y-976477D01*
X6939025Y-981456D01*
X6931050Y-987653D01*
X6924243Y-995070D01*
X6915861Y-1008176D01*
X6912609Y-1010310D01*
X6908800Y-1011072D01*
X6904990Y-1010310D01*
X6901738Y-1008176D01*
X6893356Y-995070D01*
X6886549Y-987653D01*
X6878574Y-981456D01*
X6869125Y-976477D01*
G37*
G36*
X2686253Y-1031748D02*
G01*
X2686253Y-984402D01*
X2638907Y-984402D01*
X2639568Y-985977D01*
X2646527Y-997712D01*
X2655011Y-1008430D01*
X2664815Y-1017930D01*
X2675788Y-1026007D01*
G37*
G36*
X2775153Y-1031595D02*
G01*
X2779776Y-1029462D01*
X2791256Y-1022146D01*
X2801670Y-1013358D01*
X2810814Y-1003198D01*
X2818536Y-991971D01*
X2822346Y-984402D01*
X2775153Y-984402D01*
G37*
G36*
X2775153Y-895502D02*
G01*
X2822346Y-895502D01*
X2818536Y-887933D01*
X2810814Y-876706D01*
X2801670Y-866546D01*
X2791256Y-857758D01*
X2779776Y-850442D01*
X2775153Y-848309D01*
G37*
G36*
X2638907Y-895502D02*
G01*
X2686253Y-895502D01*
X2686253Y-848156D01*
X2675788Y-853897D01*
X2664815Y-861974D01*
X2655011Y-871474D01*
X2646527Y-882192D01*
X2639568Y-893927D01*
G37*
G36*
X6721906Y-837946D02*
G01*
X6733489Y-837082D01*
X6744817Y-834440D01*
X6755587Y-830071D01*
X6765544Y-824128D01*
X6774535Y-816762D01*
X6778294Y-812495D01*
X6781749Y-809955D01*
X6785914Y-809091D01*
X6790080Y-809955D01*
X6793484Y-812495D01*
X6797294Y-816762D01*
X6806234Y-824128D01*
X6816242Y-830071D01*
X6827012Y-834440D01*
X6838289Y-837082D01*
X6849922Y-837946D01*
X6861505Y-837082D01*
X6872782Y-834440D01*
X6883552Y-830071D01*
X6893559Y-824128D01*
X6902500Y-816762D01*
X6910222Y-808075D01*
X6916572Y-798322D01*
X6921296Y-787704D01*
X6924395Y-776528D01*
X6925716Y-764997D01*
X6925259Y-753364D01*
X6923074Y-741984D01*
X6919112Y-731012D01*
X6913575Y-720852D01*
X6906564Y-711606D01*
X6898182Y-703529D01*
X6888683Y-696874D01*
X6878269Y-691692D01*
X6867194Y-688187D01*
X6855714Y-686409D01*
X6844080Y-686409D01*
X6832600Y-688187D01*
X6821525Y-691692D01*
X6811111Y-696874D01*
X6801612Y-703529D01*
X6792925Y-711860D01*
X6789724Y-713994D01*
X6785914Y-714705D01*
X6782104Y-713994D01*
X6778853Y-711860D01*
X6770166Y-703529D01*
X6760667Y-696874D01*
X6750253Y-691692D01*
X6739178Y-688187D01*
X6727698Y-686409D01*
X6716115Y-686409D01*
X6704634Y-688187D01*
X6693560Y-691692D01*
X6683146Y-696874D01*
X6673646Y-703529D01*
X6665264Y-711606D01*
X6658203Y-720852D01*
X6652666Y-731012D01*
X6648754Y-741984D01*
X6646519Y-753364D01*
X6646062Y-764997D01*
X6647434Y-776528D01*
X6650481Y-787704D01*
X6655257Y-798322D01*
X6661556Y-808075D01*
X6669278Y-816762D01*
X6678269Y-824128D01*
X6688226Y-830071D01*
X6698996Y-834440D01*
X6710324Y-837082D01*
G37*
G36*
X448106Y-837946D02*
G01*
X459689Y-837082D01*
X471017Y-834440D01*
X481787Y-830071D01*
X491743Y-824128D01*
X500735Y-816762D01*
X504545Y-812495D01*
X507949Y-809955D01*
X512114Y-809091D01*
X516280Y-809955D01*
X519684Y-812495D01*
X523493Y-816762D01*
X532485Y-824128D01*
X542442Y-830071D01*
X553212Y-834440D01*
X564540Y-837082D01*
X576122Y-837946D01*
X587705Y-837082D01*
X599033Y-834440D01*
X609803Y-830071D01*
X619760Y-824128D01*
X628751Y-816762D01*
X636473Y-808075D01*
X642772Y-798322D01*
X647547Y-787704D01*
X650595Y-776528D01*
X651967Y-764997D01*
X651510Y-753364D01*
X649274Y-741984D01*
X645363Y-731012D01*
X639826Y-720852D01*
X632764Y-711606D01*
X624382Y-703529D01*
X614883Y-696874D01*
X604469Y-691692D01*
X593394Y-688187D01*
X581914Y-686409D01*
X570331Y-686409D01*
X558850Y-688187D01*
X547776Y-691692D01*
X537362Y-696874D01*
X527862Y-703529D01*
X519176Y-711911D01*
X515924Y-713994D01*
X512114Y-714756D01*
X508304Y-713994D01*
X505053Y-711911D01*
X496366Y-703529D01*
X486867Y-696874D01*
X476453Y-691692D01*
X465378Y-688187D01*
X453898Y-686409D01*
X442315Y-686409D01*
X430834Y-688187D01*
X419760Y-691692D01*
X409346Y-696874D01*
X399846Y-703529D01*
X391464Y-711606D01*
X384403Y-720852D01*
X378866Y-731012D01*
X374954Y-741984D01*
X372719Y-753364D01*
X372262Y-764997D01*
X373634Y-776528D01*
X376682Y-787704D01*
X381457Y-798322D01*
X387756Y-808075D01*
X395478Y-816762D01*
X404469Y-824128D01*
X414426Y-830071D01*
X425196Y-834440D01*
X436524Y-837082D01*
G37*
G36*
X6438900Y-594207D02*
G01*
X6459728Y-593242D01*
X6480403Y-590346D01*
X6500723Y-585571D01*
X6520484Y-578967D01*
X6539585Y-570534D01*
X6557822Y-560374D01*
X6575044Y-548589D01*
X6591096Y-535228D01*
X6605828Y-520496D01*
X6619189Y-504443D01*
X6630974Y-487222D01*
X6641134Y-468985D01*
X6649567Y-449884D01*
X6656171Y-430123D01*
X6660946Y-409803D01*
X6663842Y-389128D01*
X6664807Y-368300D01*
X6663842Y-347472D01*
X6660946Y-326796D01*
X6656171Y-306476D01*
X6649567Y-286715D01*
X6641134Y-267614D01*
X6630974Y-249377D01*
X6619189Y-232156D01*
X6605828Y-216103D01*
X6591096Y-201371D01*
X6575044Y-188010D01*
X6557822Y-176225D01*
X6539585Y-166065D01*
X6520484Y-157632D01*
X6500723Y-151028D01*
X6480403Y-146253D01*
X6459728Y-143357D01*
X6438900Y-142392D01*
X6418072Y-143357D01*
X6397396Y-146253D01*
X6377076Y-151028D01*
X6357315Y-157632D01*
X6338214Y-166065D01*
X6319977Y-176225D01*
X6302756Y-188010D01*
X6286703Y-201371D01*
X6271971Y-216103D01*
X6258610Y-232156D01*
X6246825Y-249377D01*
X6236665Y-267614D01*
X6228232Y-286715D01*
X6221628Y-306476D01*
X6216853Y-326796D01*
X6213957Y-347472D01*
X6212992Y-368300D01*
X6213957Y-389128D01*
X6216853Y-409803D01*
X6221628Y-430123D01*
X6228232Y-449884D01*
X6236665Y-468985D01*
X6246825Y-487222D01*
X6258610Y-504443D01*
X6271971Y-520496D01*
X6286703Y-535228D01*
X6302756Y-548589D01*
X6319977Y-560374D01*
X6338214Y-570534D01*
X6357315Y-578967D01*
X6377076Y-585571D01*
X6397396Y-590346D01*
X6418072Y-593242D01*
G37*
G36*
X901700Y-594207D02*
G01*
X922528Y-593242D01*
X943203Y-590346D01*
X963523Y-585571D01*
X983284Y-578967D01*
X1002385Y-570534D01*
X1020622Y-560374D01*
X1037844Y-548589D01*
X1053896Y-535228D01*
X1068628Y-520496D01*
X1081989Y-504443D01*
X1093774Y-487222D01*
X1103934Y-468985D01*
X1112367Y-449884D01*
X1118971Y-430123D01*
X1123746Y-409803D01*
X1126642Y-389128D01*
X1127607Y-368300D01*
X1126642Y-347472D01*
X1123746Y-326796D01*
X1118971Y-306476D01*
X1112367Y-286715D01*
X1103934Y-267614D01*
X1093774Y-249377D01*
X1081989Y-232156D01*
X1068628Y-216103D01*
X1053896Y-201371D01*
X1037844Y-188010D01*
X1020622Y-176225D01*
X1002385Y-166065D01*
X983284Y-157632D01*
X963523Y-151028D01*
X943203Y-146253D01*
X922528Y-143357D01*
X901700Y-142392D01*
X880871Y-143357D01*
X860196Y-146253D01*
X839876Y-151028D01*
X820115Y-157632D01*
X801014Y-166065D01*
X782777Y-176225D01*
X765556Y-188010D01*
X749503Y-201371D01*
X734771Y-216103D01*
X721410Y-232156D01*
X709625Y-249377D01*
X699465Y-267614D01*
X691032Y-286715D01*
X684428Y-306476D01*
X679653Y-326796D01*
X676757Y-347472D01*
X675792Y-368300D01*
X676757Y-389128D01*
X679653Y-409803D01*
X684428Y-430123D01*
X691032Y-449884D01*
X699465Y-468985D01*
X709625Y-487222D01*
X721410Y-504443D01*
X734771Y-520496D01*
X749503Y-535228D01*
X765556Y-548589D01*
X782777Y-560374D01*
X801014Y-570534D01*
X820115Y-578967D01*
X839876Y-585571D01*
X860196Y-590346D01*
X880871Y-593242D01*
G37*
G36*
X1428750Y-282295D02*
G01*
X1430324Y-281635D01*
X1442059Y-274675D01*
X1452778Y-266192D01*
X1462278Y-256387D01*
X1470355Y-245414D01*
X1476095Y-234950D01*
X1428750Y-234950D01*
G37*
G36*
X1339850Y-282295D02*
G01*
X1339850Y-234950D01*
X1292504Y-234950D01*
X1298244Y-245414D01*
X1306322Y-256387D01*
X1315821Y-266192D01*
X1326540Y-274675D01*
X1338275Y-281635D01*
G37*
G36*
X1292656Y-146050D02*
G01*
X1339850Y-146050D01*
X1339850Y-98856D01*
X1332280Y-102666D01*
X1321054Y-110388D01*
X1310894Y-119532D01*
X1302105Y-129946D01*
X1294790Y-141427D01*
G37*
G36*
X1428750Y-146050D02*
G01*
X1475943Y-146050D01*
X1473809Y-141427D01*
X1466494Y-129946D01*
X1457706Y-119532D01*
X1447546Y-110388D01*
X1436319Y-102666D01*
X1428750Y-98856D01*
G37*

%LPD*%
G36*
X6559550Y-1801622D02*
G01*
X6578600Y-1839722D01*
X6604000Y-1839722D01*
X6623050Y-1801622D01*
G37*
G36*
X6705600Y-1584198D02*
G01*
X6686550Y-1622298D01*
X6750050Y-1622298D01*
X6731000Y-1584198D01*
G37*
G36*
X6686550Y-1801622D02*
G01*
X6705600Y-1839722D01*
X6731000Y-1839722D01*
X6750050Y-1801622D01*
G37*
G36*
X6937298Y-1786889D02*
G01*
X6952284Y-1846884D01*
X6992315Y-1846884D01*
X7007301Y-1786889D01*
G37*
G36*
X1510284Y-3651250D02*
G01*
X1472184Y-3670300D01*
X1472184Y-3695700D01*
X1510284Y-3714750D01*
G37*
G36*
X1690370Y-3353612D02*
G01*
X1690370Y-3453587D01*
X1750364Y-3423615D01*
X1750364Y-3383584D01*
G37*
G36*
X1832610Y-2397302D02*
G01*
X1772615Y-2478989D01*
X1772615Y-2535580D01*
X1832610Y-2497277D01*
G37*
G36*
X1892604Y-2306320D02*
G01*
X1862632Y-2312924D01*
X1962607Y-2312924D01*
X1932635Y-2306320D01*
G37*
G36*
X2249170Y-3353612D02*
G01*
X2249170Y-3453587D01*
X2309164Y-3423615D01*
X2309164Y-3383584D01*
G37*
G36*
X2069084Y-3353612D02*
G01*
X2009089Y-3383584D01*
X2009089Y-3423615D01*
X2069084Y-3453587D01*
G37*
G36*
X2139137Y-3263595D02*
G01*
X2109114Y-3323590D01*
X2209139Y-3323590D01*
X2179116Y-3263595D01*
G37*
G36*
X2249170Y-3651250D02*
G01*
X2249170Y-3714750D01*
X2287270Y-3695700D01*
X2287270Y-3670300D01*
G37*
G36*
X6901484Y-2377135D02*
G01*
X6871512Y-2437130D01*
X6971487Y-2437130D01*
X6941515Y-2377135D01*
G37*
G36*
X6562090Y-2495448D02*
G01*
X6527901Y-2514498D01*
X6527901Y-2539898D01*
X6562090Y-2558948D01*
G37*
G36*
X6610350Y-2617216D02*
G01*
X6629400Y-2655316D01*
X6654800Y-2655316D01*
X6673850Y-2617216D01*
G37*
G36*
X6901484Y-1958035D02*
G01*
X6871512Y-2018030D01*
X6971487Y-2018030D01*
X6941515Y-1958035D01*
G37*
G36*
X6871512Y-2198116D02*
G01*
X6901484Y-2258110D01*
X6941515Y-2258110D01*
X6971487Y-2198116D01*
G37*
G36*
X6629400Y-2006600D02*
G01*
X6610350Y-2018030D01*
X6673850Y-2018030D01*
X6654800Y-2006600D01*
G37*
G36*
X950976Y-964590D02*
G01*
X950976Y-1064615D01*
X1010970Y-1034592D01*
X1010970Y-994613D01*
G37*
G36*
X950976Y-1194612D02*
G01*
X950976Y-1294587D01*
X1010970Y-1264615D01*
X1010970Y-1224584D01*
G37*
G36*
X4589018Y-3676650D02*
G01*
X4589018Y-3740150D01*
X4627118Y-3721100D01*
X4627118Y-3695700D01*
G37*
G36*
X4589018Y-3803650D02*
G01*
X4589018Y-3867150D01*
X4627118Y-3848100D01*
X4627118Y-3822700D01*
G37*
G36*
X4589018Y-3930650D02*
G01*
X4589018Y-3994150D01*
X4627118Y-3975100D01*
X4627118Y-3949700D01*
G37*
G36*
X4589018Y-4057650D02*
G01*
X4589018Y-4121150D01*
X4627118Y-4102100D01*
X4627118Y-4076700D01*
G37*
G36*
X4438904Y-4692650D02*
G01*
X4400804Y-4711700D01*
X4400804Y-4737100D01*
X4438904Y-4756150D01*
G37*
G36*
X4438904Y-4819650D02*
G01*
X4400804Y-4838700D01*
X4400804Y-4864100D01*
X4438904Y-4883150D01*
G37*
G36*
X4589018Y-5073650D02*
G01*
X4589018Y-5137150D01*
X4627118Y-5118100D01*
X4627118Y-5092700D01*
G37*
G36*
X4068216Y-5319268D02*
G01*
X4087266Y-5357368D01*
X4112666Y-5357368D01*
X4131716Y-5319268D01*
G37*
G36*
X3179216Y-5319268D02*
G01*
X3198266Y-5357368D01*
X3223666Y-5357368D01*
X3242716Y-5319268D01*
G37*
G36*
X2762250Y-5150358D02*
G01*
X2781300Y-5188458D01*
X2806700Y-5188458D01*
X2825750Y-5150358D01*
G37*
G36*
X2719070Y-4946650D02*
G01*
X2680970Y-4965700D01*
X2680970Y-4991100D01*
X2719070Y-5010150D01*
G37*
G36*
X2719070Y-4819650D02*
G01*
X2680970Y-4838700D01*
X2680970Y-4864100D01*
X2719070Y-4883150D01*
G37*
G36*
X2719070Y-4679442D02*
G01*
X2659075Y-4704384D01*
X2659075Y-4744415D01*
X2719070Y-4769358D01*
G37*
G36*
X2719070Y-4565650D02*
G01*
X2680970Y-4584700D01*
X2680970Y-4610100D01*
X2719070Y-4629150D01*
G37*
G36*
X2719070Y-4438650D02*
G01*
X2680970Y-4457700D01*
X2680970Y-4483100D01*
X2719070Y-4502150D01*
G37*
G36*
X2719070Y-4311650D02*
G01*
X2680970Y-4330700D01*
X2680970Y-4356100D01*
X2719070Y-4375150D01*
G37*
G36*
X2719070Y-4057650D02*
G01*
X2680970Y-4076700D01*
X2680970Y-4102100D01*
X2719070Y-4121150D01*
G37*
G36*
X2719070Y-3676650D02*
G01*
X2680970Y-3695700D01*
X2680970Y-3721100D01*
X2719070Y-3740150D01*
G37*
G36*
X2868930Y-3676650D02*
G01*
X2868930Y-3740150D01*
X2907030Y-3721100D01*
X2907030Y-3695700D01*
G37*
G36*
X2719070Y-3536442D02*
G01*
X2659075Y-3561384D01*
X2659075Y-3601415D01*
X2719070Y-3626358D01*
G37*
G36*
X2868930Y-3536442D02*
G01*
X2868930Y-3626358D01*
X2928924Y-3601415D01*
X2928924Y-3561384D01*
G37*
G36*
X1970786Y-2896412D02*
G01*
X1970786Y-2996387D01*
X1993900Y-2966415D01*
X1993900Y-2926384D01*
G37*
G36*
X1554734Y-2896412D02*
G01*
X1494739Y-2926384D01*
X1494739Y-2966415D01*
X1554734Y-2996387D01*
G37*
G36*
X6629400Y-2802636D02*
G01*
X6618884Y-2824327D01*
X6665315Y-2824327D01*
X6654800Y-2802636D01*
G37*
G36*
X4653127Y-4066184D02*
G01*
X4631436Y-4076700D01*
X4631436Y-4102100D01*
X4653127Y-4112615D01*
G37*
G36*
X4167784Y-4224172D02*
G01*
X4178300Y-4245864D01*
X4203700Y-4245864D01*
X4214215Y-4224172D01*
G37*
G36*
X7090714Y-1982419D02*
G01*
X7062419Y-2010714D01*
X7074814Y-2047849D01*
X7127849Y-1994814D01*
G37*
G36*
X3436772Y-5539384D02*
G01*
X3436772Y-5585815D01*
X3458464Y-5575300D01*
X3458464Y-5549900D01*
G37*
G36*
X2781300Y-5304536D02*
G01*
X2770784Y-5326227D01*
X2817215Y-5326227D01*
X2806700Y-5304536D01*
G37*
G36*
X2649372Y-4701184D02*
G01*
X2649372Y-4747615D01*
X2671064Y-4744415D01*
X2671064Y-4704384D01*
G37*
G36*
X3268472Y-4952288D02*
G01*
X3250488Y-4970272D01*
X3258362Y-4993030D01*
X3291230Y-4960162D01*
G37*
G36*
X3014929Y-3543909D02*
G01*
X2979928Y-3561384D01*
X2979928Y-3601415D01*
X3014929Y-3618890D01*
G37*
G36*
X166370Y-2468270D02*
G01*
X166370Y-2586329D01*
X221488Y-2547315D01*
X221488Y-2507284D01*
G37*
G36*
X166370Y-3179470D02*
G01*
X166370Y-3297529D01*
X221488Y-3251200D01*
X221488Y-3225800D01*
G37*
G36*
X166370Y-3433470D02*
G01*
X166370Y-3551529D01*
X221488Y-3505200D01*
X221488Y-3479800D01*
G37*
G36*
X166370Y-3687470D02*
G01*
X166370Y-3805529D01*
X221488Y-3759200D01*
X221488Y-3733800D01*
G37*
G36*
X7161530Y-4449470D02*
G01*
X7106412Y-4495800D01*
X7106412Y-4521200D01*
X7161530Y-4567529D01*
G37*
G36*
X7161530Y-4703470D02*
G01*
X7106412Y-4749800D01*
X7106412Y-4775200D01*
X7161530Y-4821529D01*
G37*
G36*
X7161530Y-5465470D02*
G01*
X7106412Y-5511800D01*
X7106412Y-5537200D01*
X7161530Y-5583529D01*
G37*
G36*
X2671470Y-1614474D02*
G01*
X2643225Y-1642719D01*
X2654655Y-1706727D01*
X2735478Y-1625904D01*
G37*
G36*
X2781096Y-1136802D02*
G01*
X2781096Y-1251102D01*
X2834436Y-1206703D01*
X2834436Y-1181303D01*
G37*
G36*
X2190750Y-1764893D02*
G01*
X2227884Y-1818233D01*
X2267915Y-1818233D01*
X2305050Y-1764893D01*
G37*
G36*
X2190750Y-240893D02*
G01*
X2227884Y-294233D01*
X2267915Y-294233D01*
X2305050Y-240893D01*
G37*
G36*
X2171852Y-185724D02*
G01*
X2160422Y-249732D01*
X2188667Y-277977D01*
X2252675Y-266547D01*
G37*
G36*
X3672840Y-5708751D02*
G01*
X3654856Y-5726734D01*
X3662070Y-5769000D01*
X3715105Y-5715965D01*
G37*
G36*
X2529789Y-5796940D02*
G01*
X2552700Y-5833160D01*
X2578100Y-5834532D01*
X2604668Y-5800852D01*
G37*
G36*
X2404465Y-5798921D02*
G01*
X2429306Y-5825693D01*
X2454706Y-5825693D01*
X2479497Y-5798921D01*
G37*
G36*
X2302306Y-5697778D02*
G01*
X2277516Y-5732780D01*
X2352497Y-5732780D01*
X2327706Y-5697778D01*
G37*
D11*
X6972300Y-1892300D02*
G01*
X6921500Y-1943100D01*
X6921500Y-2108072D01*
X6921500Y-2108072D02*
G01*
X6921500Y-2527172D01*
D10*
X4513961Y-3708400D02*
G01*
X5956300Y-3708400D01*
X6350000Y-3314700D01*
X6350000Y-1562100D01*
X6464300Y-1447800D01*
X6629400Y-1447800D01*
X6718300Y-1536700D01*
X6718300Y-1711960D01*
X6591300Y-1711960D02*
G01*
X6591300Y-1866900D01*
X6477000Y-1981200D01*
X6477000Y-2476500D01*
X6527800Y-2527300D01*
X6527927Y-2527172D01*
X6642100Y-2527172D01*
X6718300Y-1711960D02*
G01*
X6718300Y-1930400D01*
X6642100Y-2006600D01*
X6642100Y-2108072D01*
X6642100Y-2844800D02*
G01*
X6642100Y-2527172D01*
X4513961Y-4089400D02*
G01*
X4673600Y-4089400D01*
X1600200Y-3683000D02*
G01*
X1118041Y-3683000D01*
X1117820Y-3683220D01*
X2159127Y-3683000D02*
G01*
X2476500Y-3683000D01*
X2501900Y-3708400D01*
X2794000Y-3708400D01*
D11*
X2159127Y-3403600D02*
G01*
X2387600Y-3403600D01*
X2565400Y-3581400D01*
X2794000Y-3581400D01*
X2159127Y-3403600D02*
G01*
X1600200Y-3403600D01*
X1912620Y-2413000D02*
G01*
X1866900Y-2413000D01*
X1765300Y-2514600D01*
X1765300Y-3048000D01*
X1879600Y-3162300D01*
X2082800Y-3162300D01*
X2159000Y-3238500D01*
X2159127Y-3238627D01*
X2159127Y-3403600D01*
D10*
X4254500Y-4635500D02*
G01*
X4191000Y-4572000D01*
X4191000Y-4203700D01*
X4513961Y-4724400D02*
G01*
X4343400Y-4724400D01*
X4254500Y-4635500D01*
X4513834Y-4851400D02*
G01*
X4165600Y-4851400D01*
X4089400Y-4775200D01*
X4089400Y-3695700D01*
X3975100Y-3581400D01*
X3454400Y-3581400D01*
X3238500Y-3365500D01*
X3238500Y-1346200D01*
X3086100Y-1193800D01*
X2730754Y-1194054D01*
D11*
X850900Y-1244600D02*
G01*
X1587500Y-1244600D01*
X1905000Y-1562100D01*
X1905000Y-2298700D01*
X1912620Y-2306320D01*
X1912620Y-2413000D01*
X7124700Y-2044700D02*
G01*
X6972300Y-1892300D01*
X6972300Y-1711960D01*
D10*
X4099991Y-5244388D02*
G01*
X4099991Y-5488508D01*
X4025900Y-5562600D01*
X3416300Y-5562600D01*
X2794000Y-5346700D02*
G01*
X2794000Y-5105400D01*
D11*
X2628900Y-4724400D02*
G01*
X2794000Y-4724400D01*
D10*
X2794000Y-3708400D02*
G01*
X2959100Y-3708400D01*
X3048000Y-3797300D01*
X3048000Y-4749800D01*
X3289300Y-4991100D01*
D11*
X2794000Y-3581400D02*
G01*
X3048000Y-3581400D01*
D10*
X7175500Y-5524500D02*
G01*
X6515100Y-5524500D01*
X6096000Y-5105400D01*
X4513986Y-5105400D01*
X7175500Y-4762500D02*
G01*
X5473700Y-4762500D01*
X4673600Y-3962400D01*
X4513986Y-3962400D01*
X7175500Y-4508500D02*
G01*
X5346700Y-4508500D01*
X4673600Y-3835400D01*
X4513986Y-3835400D01*
X3210991Y-5244388D02*
G01*
X3210991Y-5484291D01*
X3390900Y-5664200D01*
X3610305Y-5664200D01*
X3711981Y-5765876D01*
X2794000Y-4597400D02*
G01*
X2641600Y-4597400D01*
X2019300Y-5219700D01*
X2019300Y-5791200D01*
X2222500Y-5994400D01*
X2425700Y-5994400D01*
X2565400Y-5854700D01*
X2565400Y-5769457D01*
X2568981Y-5765876D01*
X2441981Y-5765876D02*
G01*
X2441981Y-5825718D01*
X2374900Y-5892800D01*
X2260600Y-5892800D01*
X2184400Y-5816600D01*
X2184400Y-5257800D01*
X2590800Y-4851400D01*
X2794000Y-4851400D01*
X2315006Y-5765876D02*
G01*
X2315006Y-5304993D01*
X2641600Y-4978400D01*
X2794000Y-4978400D01*
X152400Y-3238500D02*
G01*
X673100Y-3238500D01*
X1447800Y-4013200D01*
X2209800Y-4013200D01*
X2286000Y-4089400D01*
X2794000Y-4089400D01*
X152400Y-3492500D02*
G01*
X800100Y-3492500D01*
X1409700Y-4102100D01*
X2133600Y-4102100D01*
X2374900Y-4343400D01*
X2794000Y-4343400D01*
X152400Y-3746500D02*
G01*
X927100Y-3746500D01*
X1371600Y-4191000D01*
X2095500Y-4191000D01*
X2374900Y-4470400D01*
X2794000Y-4470400D01*
D11*
X2247900Y-190500D02*
G01*
X2247900Y-1219149D01*
X2730703Y-1701952D01*
X2247900Y-190500D02*
G01*
X1423796Y-1014603D01*
X850900Y-1014603D01*
X1925320Y-2946400D02*
G01*
X1993900Y-2946400D01*
X2247900Y-2692400D01*
X2247900Y-1714500D01*
X152400Y-2527300D02*
G01*
X584200Y-2527300D01*
X1003300Y-2946400D01*
X1600200Y-2946400D01*
D12*
X6972300Y-1032441D02*
G01*
X6972300Y-1182441D01*
X6845300Y-1032441D02*
G01*
X6845300Y-1182441D01*
X6718300Y-1032441D02*
G01*
X6718300Y-1182441D01*
X6591300Y-1032441D02*
G01*
X6591300Y-1182441D01*
X6972300Y-1636961D02*
G01*
X6972300Y-1786961D01*
X6845300Y-1636961D02*
G01*
X6845300Y-1786961D01*
X6718300Y-1636961D02*
G01*
X6718300Y-1786961D01*
X6591300Y-1636961D02*
G01*
X6591300Y-1786961D01*
D15*
G01*
X1600200Y-2946400D03*
G01*
X1925320Y-2946400D03*
G36*
X2552954Y-25654D02*
G01*
X3052825Y-25654D01*
X3052825Y-525526D01*
X2552954Y-525526D01*
G37*
G36*
X2552445Y-2125218D02*
G01*
X3052318Y-2125218D01*
X3052318Y-2625344D01*
X2552445Y-2625344D01*
G37*
G36*
X5655563Y-29463D02*
G01*
X6155690Y-29463D01*
X6155690Y-529336D01*
X5655563Y-529336D01*
G37*
G36*
X5655563Y-2112263D02*
G01*
X6155436Y-2112263D01*
X6155436Y-2612389D01*
X5655563Y-2612389D01*
G37*
G36*
X2868929Y-3499357D02*
G01*
X2719070Y-3499357D01*
X2719070Y-3409442D01*
X2868929Y-3409442D01*
G37*
G36*
X2868929Y-3626357D02*
G01*
X2719070Y-3626357D01*
X2719070Y-3536442D01*
X2868929Y-3536442D01*
G37*
G36*
X2868929Y-3753357D02*
G01*
X2719070Y-3753357D01*
X2719070Y-3663442D01*
X2868929Y-3663442D01*
G37*
G36*
X2868929Y-3880357D02*
G01*
X2719070Y-3880357D01*
X2719070Y-3790442D01*
X2868929Y-3790442D01*
G37*
G36*
X2868929Y-4007357D02*
G01*
X2719070Y-4007357D01*
X2719070Y-3917442D01*
X2868929Y-3917442D01*
G37*
G36*
X2868929Y-4134357D02*
G01*
X2719070Y-4134357D01*
X2719070Y-4044442D01*
X2868929Y-4044442D01*
G37*
G36*
X2868929Y-4261357D02*
G01*
X2719070Y-4261357D01*
X2719070Y-4171442D01*
X2868929Y-4171442D01*
G37*
G36*
X2868929Y-4388357D02*
G01*
X2719070Y-4388357D01*
X2719070Y-4298442D01*
X2868929Y-4298442D01*
G37*
G36*
X2868929Y-4515357D02*
G01*
X2719070Y-4515357D01*
X2719070Y-4425442D01*
X2868929Y-4425442D01*
G37*
G36*
X2868929Y-4642357D02*
G01*
X2719070Y-4642357D01*
X2719070Y-4552442D01*
X2868929Y-4552442D01*
G37*
G36*
X2868929Y-4769357D02*
G01*
X2719070Y-4769357D01*
X2719070Y-4679442D01*
X2868929Y-4679442D01*
G37*
G36*
X2868929Y-4896357D02*
G01*
X2719070Y-4896357D01*
X2719070Y-4806442D01*
X2868929Y-4806442D01*
G37*
G36*
X2868929Y-5023357D02*
G01*
X2719070Y-5023357D01*
X2719070Y-4933442D01*
X2868929Y-4933442D01*
G37*
G36*
X2868929Y-5150357D02*
G01*
X2719070Y-5150357D01*
X2719070Y-5060442D01*
X2868929Y-5060442D01*
G37*
G36*
X3129025Y-5169407D02*
G01*
X3129025Y-5319268D01*
X3039109Y-5319268D01*
X3039109Y-5169407D01*
G37*
G36*
X3256025Y-5169407D02*
G01*
X3256025Y-5319268D01*
X3166109Y-5319268D01*
X3166109Y-5169407D01*
G37*
G36*
X3383025Y-5169407D02*
G01*
X3383025Y-5319268D01*
X3293109Y-5319268D01*
X3293109Y-5169407D01*
G37*
G36*
X3510025Y-5169407D02*
G01*
X3510025Y-5319268D01*
X3420109Y-5319268D01*
X3420109Y-5169407D01*
G37*
G36*
X3637025Y-5169407D02*
G01*
X3637025Y-5319268D01*
X3547109Y-5319268D01*
X3547109Y-5169407D01*
G37*
G36*
X3764025Y-5169407D02*
G01*
X3764025Y-5319268D01*
X3674109Y-5319268D01*
X3674109Y-5169407D01*
G37*
G36*
X3891025Y-5169407D02*
G01*
X3891025Y-5319268D01*
X3801109Y-5319268D01*
X3801109Y-5169407D01*
G37*
G36*
X4018025Y-5169407D02*
G01*
X4018025Y-5319268D01*
X3928109Y-5319268D01*
X3928109Y-5169407D01*
G37*
G36*
X4145025Y-5169407D02*
G01*
X4145025Y-5319268D01*
X4055109Y-5319268D01*
X4055109Y-5169407D01*
G37*
G36*
X4272025Y-5169407D02*
G01*
X4272025Y-5319268D01*
X4182109Y-5319268D01*
X4182109Y-5169407D01*
G37*
G36*
X4438904Y-5060442D02*
G01*
X4589018Y-5060442D01*
X4589018Y-5150357D01*
X4438904Y-5150357D01*
G37*
G36*
X4438904Y-4933442D02*
G01*
X4589018Y-4933442D01*
X4589018Y-5023357D01*
X4438904Y-5023357D01*
G37*
G36*
X4438904Y-4806442D02*
G01*
X4589018Y-4806442D01*
X4589018Y-4896357D01*
X4438904Y-4896357D01*
G37*
G36*
X4438904Y-4679442D02*
G01*
X4589018Y-4679442D01*
X4589018Y-4769357D01*
X4438904Y-4769357D01*
G37*
G36*
X4438904Y-4552442D02*
G01*
X4589018Y-4552442D01*
X4589018Y-4642357D01*
X4438904Y-4642357D01*
G37*
G36*
X4438904Y-4425442D02*
G01*
X4589018Y-4425442D01*
X4589018Y-4515357D01*
X4438904Y-4515357D01*
G37*
G36*
X4438904Y-4298442D02*
G01*
X4589018Y-4298442D01*
X4589018Y-4388357D01*
X4438904Y-4388357D01*
G37*
G36*
X4438904Y-4171442D02*
G01*
X4589018Y-4171442D01*
X4589018Y-4261357D01*
X4438904Y-4261357D01*
G37*
G36*
X4438904Y-4044442D02*
G01*
X4589018Y-4044442D01*
X4589018Y-4134357D01*
X4438904Y-4134357D01*
G37*
G36*
X4438904Y-3917442D02*
G01*
X4589018Y-3917442D01*
X4589018Y-4007357D01*
X4438904Y-4007357D01*
G37*
G36*
X4438904Y-3790442D02*
G01*
X4589018Y-3790442D01*
X4589018Y-3880357D01*
X4438904Y-3880357D01*
G37*
G36*
X4438904Y-3663442D02*
G01*
X4589018Y-3663442D01*
X4589018Y-3753357D01*
X4438904Y-3753357D01*
G37*
G36*
X4438904Y-3536442D02*
G01*
X4589018Y-3536442D01*
X4589018Y-3626357D01*
X4438904Y-3626357D01*
G37*
G36*
X4438904Y-3409442D02*
G01*
X4589018Y-3409442D01*
X4589018Y-3499357D01*
X4438904Y-3499357D01*
G37*
G36*
X3388106Y-3924300D02*
G01*
X3988054Y-3924300D01*
X3988054Y-4524502D01*
X3388106Y-4524502D01*
G37*
G36*
X330962Y-1434592D02*
G01*
X100837Y-1434592D01*
X100837Y-1054607D01*
X330962Y-1054607D01*
G37*
G36*
X950976Y-1304544D02*
G01*
X750823Y-1304544D01*
X750823Y-1184655D01*
X950976Y-1184655D01*
G37*
G36*
X950976Y-1074673D02*
G01*
X750823Y-1074673D01*
X750823Y-954531D01*
X950976Y-954531D01*
G37*
G36*
X950976Y-1534668D02*
G01*
X750823Y-1534668D01*
X750823Y-1414526D01*
X950976Y-1414526D01*
G37*
G36*
X6562090Y-2018029D02*
G01*
X6722109Y-2018029D01*
X6722109Y-2198115D01*
X6562090Y-2198115D01*
G37*
G36*
X6841490Y-2018029D02*
G01*
X7001509Y-2018029D01*
X7001509Y-2198115D01*
X6841490Y-2198115D01*
G37*
G36*
X6562090Y-2437129D02*
G01*
X6722109Y-2437129D01*
X6722109Y-2617215D01*
X6562090Y-2617215D01*
G37*
G36*
X6841490Y-2437129D02*
G01*
X7001509Y-2437129D01*
X7001509Y-2617215D01*
X6841490Y-2617215D01*
G37*
D23*
G01*
X2159127Y-3683000D03*
G01*
X2159127Y-3403600D03*
G36*
X1512570Y-2312923D02*
G01*
X1672589Y-2312923D01*
X1672589Y-2513076D01*
X1512570Y-2513076D01*
G37*
G36*
X1832610Y-2312923D02*
G01*
X1992629Y-2312923D01*
X1992629Y-2513076D01*
X1832610Y-2513076D01*
G37*
G01*
X1600200Y-3403600D03*
G01*
X1600200Y-3683000D03*
D13*
G01*
X2315006Y-5765876D03*
G01*
X2441981Y-5765876D03*
G01*
X2568981Y-5765876D03*
G01*
X2695981Y-5765876D03*
G01*
X2822981Y-5765876D03*
G01*
X2949981Y-5765876D03*
G01*
X3076981Y-5765876D03*
G01*
X3203981Y-5765876D03*
G01*
X3330981Y-5765876D03*
G01*
X3457981Y-5765876D03*
G01*
X3584981Y-5765876D03*
G01*
X3711981Y-5765876D03*
G01*
X3838981Y-5765876D03*
G01*
X3965981Y-5765876D03*
G01*
X4092981Y-5765876D03*
G01*
X4219981Y-5765876D03*
G01*
X4346981Y-5765876D03*
G01*
X4473981Y-5765876D03*
G01*
X4600981Y-5765876D03*
G01*
X4727981Y-5765876D03*
G01*
X4854981Y-5765876D03*
G01*
X4982006Y-5765876D03*
G01*
X6721906Y-5765876D03*
G01*
X6849897Y-5765876D03*
G01*
X448106Y-5765876D03*
G01*
X576097Y-5765876D03*
G01*
X6721906Y-762076D03*
G01*
X6849897Y-762076D03*
G01*
X448106Y-762076D03*
G01*
X576122Y-762076D03*
D25*
G01*
X1215009Y-5465876D03*
G01*
X6114999Y-5465876D03*
D26*
G01*
X1346200Y-6296025D03*
G01*
X1346200Y-6042025D03*
D27*
G01*
X1384300Y-1714500D03*
D26*
G01*
X1384300Y-190500D03*
G01*
X2247900Y-190500D03*
G01*
X2247900Y-1714500D03*
G01*
X2730703Y-939952D03*
G01*
X2730703Y-1193952D03*
G01*
X2730703Y-1447952D03*
G01*
X2730703Y-1701952D03*
D28*
G01*
X7213600Y-5524500D03*
G01*
X7213600Y-5270500D03*
G01*
X7213600Y-5016500D03*
G01*
X7213600Y-4762500D03*
G01*
X7213600Y-4508500D03*
D29*
G01*
X7213600Y-4254500D03*
G01*
X114300Y-4000500D03*
D28*
G01*
X114300Y-3746500D03*
G01*
X114300Y-3492500D03*
G01*
X114300Y-3238500D03*
G36*
X35560Y-2702560D02*
G01*
X193039Y-2702560D01*
X193039Y-2860039D01*
X35560Y-2860039D01*
G37*
G01*
X114300Y-2527300D03*
D30*
G01*
X6438900Y-6184900D03*
G01*
X901700Y-6184900D03*
G01*
X6438900Y-368300D03*
G01*
X901700Y-368300D03*
D13*
G01*
X3048000Y-3581400D03*
D14*
G01*
X3289300Y-4991100D03*
G01*
X2628900Y-4724400D03*
G01*
X2794000Y-5346700D03*
G01*
X3416300Y-5562600D03*
D13*
G01*
X7124700Y-2044700D03*
D14*
G01*
X4191000Y-4203700D03*
G01*
X4673600Y-4089400D03*
G01*
X6642100Y-2844800D03*
M02*
