G04 Layer: BottomPasteMaskLayer*
G04 EasyEDA v6.4.25, 2021-11-06T18:35:38+01:00*
G04 257399e89a0843229902440734c7eb75,b8d8dd1b48584f29be867e52f4c70977,10*
G04 Gerber Generator version 0.2*
G04 Scale: 100 percent, Rotated: No, Reflected: No *
G04 Dimensions in millimeters *
G04 leading zeros omitted , absolute positions ,4 integer and 5 decimal *
%FSLAX45Y45*%
%MOMM*%

%ADD10C,0.0001*%

%LPD*%
G36*
X4382515Y-6388862D02*
G01*
X4382515Y-6228842D01*
X4202429Y-6228842D01*
X4202429Y-6388862D01*
G37*
G36*
X4382515Y-6109462D02*
G01*
X4382515Y-5949442D01*
X4202429Y-5949442D01*
X4202429Y-6109462D01*
G37*
G36*
X4903215Y-6388862D02*
G01*
X4903215Y-6228842D01*
X4723129Y-6228842D01*
X4723129Y-6388862D01*
G37*
G36*
X4903215Y-6109462D02*
G01*
X4903215Y-5949442D01*
X4723129Y-5949442D01*
X4723129Y-6109462D01*
G37*
G36*
X5944615Y-6388862D02*
G01*
X5944615Y-6228842D01*
X5764529Y-6228842D01*
X5764529Y-6388862D01*
G37*
G36*
X5944615Y-6109462D02*
G01*
X5944615Y-5949442D01*
X5764529Y-5949442D01*
X5764529Y-6109462D01*
G37*
G36*
X3341115Y-6388862D02*
G01*
X3341115Y-6228842D01*
X3161029Y-6228842D01*
X3161029Y-6388862D01*
G37*
G36*
X3341115Y-6109462D02*
G01*
X3341115Y-5949442D01*
X3161029Y-5949442D01*
X3161029Y-6109462D01*
G37*
G36*
X5423915Y-6388862D02*
G01*
X5423915Y-6228842D01*
X5243829Y-6228842D01*
X5243829Y-6388862D01*
G37*
G36*
X5423915Y-6109462D02*
G01*
X5423915Y-5949442D01*
X5243829Y-5949442D01*
X5243829Y-6109462D01*
G37*
G36*
X1751584Y-5949442D02*
G01*
X1751584Y-6109462D01*
X1931670Y-6109462D01*
X1931670Y-5949442D01*
G37*
G36*
X1751584Y-6228842D02*
G01*
X1751584Y-6388862D01*
X1931670Y-6388862D01*
X1931670Y-6228842D01*
G37*
G36*
X3861815Y-6388862D02*
G01*
X3861815Y-6228842D01*
X3681729Y-6228842D01*
X3681729Y-6388862D01*
G37*
G36*
X3861815Y-6109462D02*
G01*
X3861815Y-5949442D01*
X3681729Y-5949442D01*
X3681729Y-6109462D01*
G37*
M02*
