G04 Layer: BottomLayer*
G04 EasyEDA v6.4.25, 2021-11-06T18:35:38+01:00*
G04 257399e89a0843229902440734c7eb75,b8d8dd1b48584f29be867e52f4c70977,10*
G04 Gerber Generator version 0.2*
G04 Scale: 100 percent, Rotated: No, Reflected: No *
G04 Dimensions in millimeters *
G04 leading zeros omitted , absolute positions ,4 integer and 5 decimal *
%FSLAX45Y45*%
%MOMM*%

%ADD10C,0.2540*%
%ADD11C,0.4000*%
%ADD13C,1.0000*%
%ADD14C,0.6198*%
%ADD25C,2.4000*%
%ADD26C,1.5240*%
%ADD27R,1.5240X1.5240*%
%ADD28C,1.5748*%
%ADD29R,1.5748X1.5748*%
%ADD30C,4.0000*%

%LPD*%
G36*
X625602Y-6513576D02*
G01*
X621690Y-6512814D01*
X618439Y-6510578D01*
X616204Y-6507327D01*
X615442Y-6503416D01*
X615442Y-5865012D01*
X614070Y-5863336D01*
X25654Y-5863336D01*
X21742Y-5862574D01*
X18491Y-5860338D01*
X16256Y-5857087D01*
X15494Y-5853176D01*
X15494Y-4113733D01*
X16205Y-4109974D01*
X18288Y-4106722D01*
X21437Y-4104487D01*
X25196Y-4103573D01*
X29819Y-4104436D01*
X36118Y-4105148D01*
X68580Y-4105148D01*
X68580Y-4046220D01*
X25654Y-4046220D01*
X21742Y-4045458D01*
X18491Y-4043222D01*
X16256Y-4039971D01*
X15494Y-4036060D01*
X15494Y-3964940D01*
X16256Y-3961028D01*
X18491Y-3957777D01*
X21742Y-3955542D01*
X25654Y-3954779D01*
X68580Y-3954779D01*
X68580Y-3895851D01*
X36118Y-3895851D01*
X25196Y-3897426D01*
X21437Y-3896512D01*
X18288Y-3894277D01*
X16205Y-3891026D01*
X15494Y-3887266D01*
X15494Y-3819194D01*
X16306Y-3815181D01*
X18643Y-3811828D01*
X22098Y-3809644D01*
X26111Y-3809034D01*
X30022Y-3810000D01*
X33274Y-3812489D01*
X40335Y-3820464D01*
X50596Y-3829507D01*
X61976Y-3837127D01*
X74269Y-3843172D01*
X87223Y-3847541D01*
X100634Y-3850233D01*
X114300Y-3851148D01*
X127965Y-3850233D01*
X141376Y-3847541D01*
X154330Y-3843172D01*
X166624Y-3837127D01*
X178003Y-3829507D01*
X188264Y-3820464D01*
X197307Y-3810203D01*
X204927Y-3798824D01*
X210972Y-3786530D01*
X215341Y-3773576D01*
X218033Y-3760165D01*
X218948Y-3746500D01*
X218033Y-3732834D01*
X215341Y-3719423D01*
X210972Y-3706469D01*
X204927Y-3694176D01*
X197307Y-3682796D01*
X188264Y-3672535D01*
X178003Y-3663492D01*
X166624Y-3655872D01*
X154330Y-3649827D01*
X141376Y-3645458D01*
X127965Y-3642766D01*
X114300Y-3641851D01*
X100634Y-3642766D01*
X87223Y-3645458D01*
X74269Y-3649827D01*
X61976Y-3655872D01*
X50596Y-3663492D01*
X40335Y-3672535D01*
X33274Y-3680510D01*
X30022Y-3683000D01*
X26111Y-3683965D01*
X22098Y-3683355D01*
X18643Y-3681171D01*
X16306Y-3677818D01*
X15494Y-3673805D01*
X15494Y-3565194D01*
X16306Y-3561181D01*
X18643Y-3557828D01*
X22098Y-3555644D01*
X26111Y-3555034D01*
X30022Y-3556000D01*
X33274Y-3558489D01*
X40335Y-3566464D01*
X50596Y-3575507D01*
X61976Y-3583127D01*
X74269Y-3589172D01*
X87223Y-3593541D01*
X100634Y-3596233D01*
X114300Y-3597148D01*
X127965Y-3596233D01*
X141376Y-3593541D01*
X154330Y-3589172D01*
X166624Y-3583127D01*
X178003Y-3575507D01*
X188264Y-3566464D01*
X197307Y-3556203D01*
X204927Y-3544824D01*
X210972Y-3532530D01*
X215341Y-3519576D01*
X218033Y-3506165D01*
X218948Y-3492500D01*
X218033Y-3478834D01*
X215341Y-3465423D01*
X210972Y-3452469D01*
X204927Y-3440176D01*
X197307Y-3428796D01*
X188264Y-3418535D01*
X178003Y-3409492D01*
X166624Y-3401872D01*
X154330Y-3395827D01*
X141376Y-3391458D01*
X127965Y-3388766D01*
X114300Y-3387851D01*
X100634Y-3388766D01*
X87223Y-3391458D01*
X74269Y-3395827D01*
X61976Y-3401872D01*
X50596Y-3409492D01*
X40335Y-3418535D01*
X33274Y-3426510D01*
X30022Y-3429000D01*
X26111Y-3429965D01*
X22098Y-3429355D01*
X18643Y-3427171D01*
X16306Y-3423818D01*
X15494Y-3419805D01*
X15494Y-3311194D01*
X16306Y-3307181D01*
X18643Y-3303828D01*
X22098Y-3301644D01*
X26111Y-3301034D01*
X30022Y-3302000D01*
X33274Y-3304489D01*
X40335Y-3312464D01*
X50596Y-3321507D01*
X61976Y-3329127D01*
X74269Y-3335172D01*
X87223Y-3339541D01*
X100634Y-3342233D01*
X114300Y-3343148D01*
X127965Y-3342233D01*
X141376Y-3339541D01*
X154330Y-3335172D01*
X166624Y-3329127D01*
X178003Y-3321507D01*
X188264Y-3312464D01*
X197307Y-3302203D01*
X204927Y-3290824D01*
X210972Y-3278530D01*
X215341Y-3265576D01*
X218033Y-3252165D01*
X218948Y-3238500D01*
X218033Y-3224834D01*
X215341Y-3211423D01*
X210972Y-3198469D01*
X204927Y-3186176D01*
X197307Y-3174796D01*
X188264Y-3164535D01*
X178003Y-3155492D01*
X166624Y-3147872D01*
X154330Y-3141827D01*
X141376Y-3137458D01*
X127965Y-3134766D01*
X114300Y-3133852D01*
X100634Y-3134766D01*
X87223Y-3137458D01*
X74269Y-3141827D01*
X61976Y-3147872D01*
X50596Y-3155492D01*
X40335Y-3164535D01*
X33274Y-3172510D01*
X30022Y-3175000D01*
X26111Y-3175965D01*
X22098Y-3175355D01*
X18643Y-3173171D01*
X16306Y-3169818D01*
X15494Y-3165805D01*
X15494Y-2894533D01*
X16205Y-2890774D01*
X18288Y-2887522D01*
X21437Y-2885287D01*
X25196Y-2884373D01*
X29819Y-2885236D01*
X36118Y-2885948D01*
X68580Y-2885948D01*
X68580Y-2827020D01*
X25654Y-2827020D01*
X21742Y-2826258D01*
X18491Y-2824022D01*
X16256Y-2820771D01*
X15494Y-2816860D01*
X15494Y-2745740D01*
X16256Y-2741828D01*
X18491Y-2738577D01*
X21742Y-2736342D01*
X25654Y-2735580D01*
X68580Y-2735580D01*
X68580Y-2676652D01*
X36118Y-2676652D01*
X25196Y-2678226D01*
X21437Y-2677312D01*
X18288Y-2675077D01*
X16205Y-2671826D01*
X15494Y-2668066D01*
X15494Y-2599994D01*
X16306Y-2595981D01*
X18643Y-2592628D01*
X22098Y-2590444D01*
X26111Y-2589834D01*
X30022Y-2590800D01*
X33274Y-2593289D01*
X40335Y-2601264D01*
X50596Y-2610307D01*
X61976Y-2617927D01*
X74269Y-2623972D01*
X87223Y-2628341D01*
X100634Y-2631033D01*
X114300Y-2631948D01*
X127965Y-2631033D01*
X141376Y-2628341D01*
X154330Y-2623972D01*
X166624Y-2617927D01*
X178003Y-2610307D01*
X188264Y-2601264D01*
X197307Y-2591003D01*
X204927Y-2579624D01*
X210972Y-2567330D01*
X215341Y-2554376D01*
X218033Y-2540965D01*
X218948Y-2527300D01*
X218033Y-2513634D01*
X215341Y-2500223D01*
X210972Y-2487269D01*
X204927Y-2474976D01*
X197307Y-2463596D01*
X188264Y-2453335D01*
X178003Y-2444292D01*
X166624Y-2436672D01*
X154330Y-2430627D01*
X141376Y-2426258D01*
X127965Y-2423566D01*
X114300Y-2422652D01*
X100634Y-2423566D01*
X87223Y-2426258D01*
X74269Y-2430627D01*
X61976Y-2436672D01*
X50596Y-2444292D01*
X40335Y-2453335D01*
X33274Y-2461310D01*
X30022Y-2463800D01*
X26111Y-2464765D01*
X22098Y-2464155D01*
X18643Y-2461971D01*
X16306Y-2458618D01*
X15494Y-2454605D01*
X15494Y-674624D01*
X16256Y-670712D01*
X18491Y-667461D01*
X21742Y-665226D01*
X25654Y-664464D01*
X613765Y-664464D01*
X615442Y-663092D01*
X615442Y-24638D01*
X616204Y-20726D01*
X618439Y-17475D01*
X621690Y-15240D01*
X625602Y-14478D01*
X6704330Y-14478D01*
X6708241Y-15240D01*
X6711492Y-17475D01*
X6713728Y-20726D01*
X6714490Y-24638D01*
X6714490Y-662787D01*
X6715861Y-664464D01*
X7304278Y-664464D01*
X7308189Y-665226D01*
X7311440Y-667461D01*
X7313675Y-670712D01*
X7314438Y-674624D01*
X7314438Y-4141978D01*
X7313726Y-4145737D01*
X7311644Y-4148988D01*
X7308494Y-4151223D01*
X7304735Y-4152137D01*
X7300925Y-4151579D01*
X7298080Y-4150563D01*
X7291781Y-4149851D01*
X7259320Y-4149851D01*
X7259320Y-4208780D01*
X7304278Y-4208780D01*
X7308189Y-4209542D01*
X7311440Y-4211777D01*
X7313675Y-4215028D01*
X7314438Y-4218940D01*
X7314438Y-4290060D01*
X7313675Y-4293971D01*
X7311440Y-4297222D01*
X7308189Y-4299458D01*
X7304278Y-4300220D01*
X7259320Y-4300220D01*
X7259320Y-4359148D01*
X7291781Y-4359148D01*
X7298080Y-4358436D01*
X7300925Y-4357420D01*
X7304735Y-4356862D01*
X7308494Y-4357776D01*
X7311644Y-4360011D01*
X7313726Y-4363262D01*
X7314438Y-4367022D01*
X7314438Y-4438142D01*
X7313625Y-4442155D01*
X7311288Y-4445508D01*
X7307834Y-4447641D01*
X7303820Y-4448302D01*
X7299909Y-4447286D01*
X7296658Y-4444847D01*
X7287564Y-4434535D01*
X7277303Y-4425492D01*
X7265924Y-4417872D01*
X7253630Y-4411827D01*
X7240676Y-4407458D01*
X7227265Y-4404766D01*
X7213600Y-4403852D01*
X7199934Y-4404766D01*
X7186523Y-4407458D01*
X7173569Y-4411827D01*
X7161275Y-4417872D01*
X7149896Y-4425492D01*
X7139635Y-4434535D01*
X7130592Y-4444796D01*
X7122972Y-4456176D01*
X7116927Y-4468469D01*
X7112558Y-4481423D01*
X7109866Y-4494834D01*
X7108952Y-4508500D01*
X7109866Y-4522165D01*
X7112558Y-4535576D01*
X7116927Y-4548530D01*
X7122972Y-4560824D01*
X7130592Y-4572203D01*
X7139635Y-4582464D01*
X7149896Y-4591507D01*
X7161275Y-4599127D01*
X7173569Y-4605172D01*
X7186523Y-4609541D01*
X7199934Y-4612233D01*
X7213600Y-4613148D01*
X7227265Y-4612233D01*
X7240676Y-4609541D01*
X7253630Y-4605172D01*
X7265924Y-4599127D01*
X7277303Y-4591507D01*
X7287564Y-4582464D01*
X7296658Y-4572152D01*
X7299909Y-4569714D01*
X7303820Y-4568698D01*
X7307834Y-4569358D01*
X7311288Y-4571492D01*
X7313625Y-4574844D01*
X7314438Y-4578858D01*
X7314438Y-4692142D01*
X7313625Y-4696155D01*
X7311288Y-4699508D01*
X7307834Y-4701641D01*
X7303820Y-4702302D01*
X7299909Y-4701286D01*
X7296658Y-4698847D01*
X7287564Y-4688535D01*
X7277303Y-4679492D01*
X7265924Y-4671872D01*
X7253630Y-4665827D01*
X7240676Y-4661458D01*
X7227265Y-4658766D01*
X7213600Y-4657852D01*
X7199934Y-4658766D01*
X7186523Y-4661458D01*
X7173569Y-4665827D01*
X7161275Y-4671872D01*
X7149896Y-4679492D01*
X7139635Y-4688535D01*
X7130592Y-4698796D01*
X7122972Y-4710176D01*
X7116927Y-4722469D01*
X7112558Y-4735423D01*
X7109866Y-4748834D01*
X7108952Y-4762500D01*
X7109866Y-4776165D01*
X7112558Y-4789576D01*
X7116927Y-4802530D01*
X7122972Y-4814824D01*
X7130592Y-4826203D01*
X7139635Y-4836464D01*
X7149896Y-4845507D01*
X7161275Y-4853127D01*
X7173569Y-4859172D01*
X7186523Y-4863541D01*
X7199934Y-4866233D01*
X7213600Y-4867148D01*
X7227265Y-4866233D01*
X7240676Y-4863541D01*
X7253630Y-4859172D01*
X7265924Y-4853127D01*
X7277303Y-4845507D01*
X7287564Y-4836464D01*
X7296658Y-4826152D01*
X7299909Y-4823714D01*
X7303820Y-4822698D01*
X7307834Y-4823358D01*
X7311288Y-4825492D01*
X7313625Y-4828844D01*
X7314438Y-4832858D01*
X7314438Y-4946142D01*
X7313625Y-4950155D01*
X7311288Y-4953508D01*
X7307834Y-4955641D01*
X7303820Y-4956302D01*
X7299909Y-4955286D01*
X7296658Y-4952847D01*
X7287564Y-4942535D01*
X7277303Y-4933492D01*
X7265924Y-4925872D01*
X7253630Y-4919827D01*
X7240676Y-4915458D01*
X7227265Y-4912766D01*
X7213600Y-4911852D01*
X7199934Y-4912766D01*
X7196531Y-4913376D01*
X7146188Y-4917236D01*
X7141921Y-4916678D01*
X7138212Y-4914290D01*
X7021169Y-4797247D01*
X7018985Y-4793945D01*
X7018223Y-4790084D01*
X7018223Y-2715615D01*
X7018985Y-2711754D01*
X7021169Y-2708452D01*
X7158380Y-2571191D01*
X7163714Y-2564130D01*
X7167473Y-2556560D01*
X7169759Y-2548432D01*
X7170623Y-2539542D01*
X7170623Y-2121306D01*
X7171690Y-2116734D01*
X7183983Y-2092096D01*
X7186777Y-2088337D01*
X7192721Y-2078380D01*
X7197039Y-2067610D01*
X7199680Y-2056282D01*
X7200595Y-2044700D01*
X7199680Y-2033117D01*
X7197039Y-2021789D01*
X7192721Y-2011019D01*
X7186777Y-2001062D01*
X7179360Y-1992071D01*
X7170674Y-1984349D01*
X7160971Y-1978050D01*
X7150353Y-1973275D01*
X7139127Y-1970227D01*
X7127595Y-1968855D01*
X7116013Y-1969312D01*
X7104583Y-1971548D01*
X7093661Y-1975459D01*
X7083450Y-1980996D01*
X7074204Y-1988057D01*
X7066178Y-1996439D01*
X7059472Y-2005939D01*
X7054342Y-2016353D01*
X7050836Y-2027428D01*
X7049058Y-2038908D01*
X7049058Y-2050491D01*
X7050836Y-2061972D01*
X7054342Y-2073046D01*
X7059472Y-2083460D01*
X7065416Y-2092096D01*
X7077709Y-2116734D01*
X7078776Y-2121306D01*
X7078776Y-2516784D01*
X7078014Y-2520645D01*
X7075830Y-2523947D01*
X6938619Y-2661208D01*
X6933285Y-2668270D01*
X6929526Y-2675839D01*
X6927240Y-2683967D01*
X6926376Y-2692857D01*
X6926427Y-4815078D01*
X6927646Y-4823815D01*
X6930339Y-4831842D01*
X6934453Y-4839208D01*
X6940194Y-4846116D01*
X7047331Y-4953254D01*
X7049516Y-4956556D01*
X7050278Y-4960416D01*
X7049516Y-4964328D01*
X7047331Y-4967630D01*
X7044029Y-4969814D01*
X7040118Y-4970576D01*
X4709515Y-4970576D01*
X4705654Y-4969814D01*
X4702352Y-4967630D01*
X3282391Y-3547719D01*
X3275329Y-3542385D01*
X3263087Y-3536442D01*
X3260496Y-3533241D01*
X3259378Y-3529228D01*
X3259937Y-3525164D01*
X3262122Y-3521608D01*
X3265474Y-3519271D01*
X3269538Y-3518408D01*
X4005681Y-3518408D01*
X4009593Y-3519170D01*
X4012895Y-3521405D01*
X4149394Y-3657904D01*
X4151629Y-3661206D01*
X4152392Y-3665118D01*
X4152392Y-4153204D01*
X4151376Y-4157675D01*
X4145838Y-4169054D01*
X4143908Y-4171848D01*
X4139184Y-4180281D01*
X4135983Y-4189374D01*
X4134358Y-4198874D01*
X4134358Y-4208526D01*
X4135983Y-4218025D01*
X4139184Y-4227118D01*
X4143908Y-4235551D01*
X4149953Y-4243019D01*
X4157167Y-4249420D01*
X4165396Y-4254449D01*
X4174337Y-4258056D01*
X4183786Y-4260088D01*
X4193438Y-4260494D01*
X4202988Y-4259275D01*
X4212183Y-4256481D01*
X4220819Y-4252112D01*
X4228541Y-4246372D01*
X4235246Y-4239412D01*
X4240631Y-4231436D01*
X4244594Y-4222648D01*
X4247032Y-4213301D01*
X4247845Y-4203700D01*
X4247032Y-4194098D01*
X4244594Y-4184751D01*
X4240631Y-4175963D01*
X4236364Y-4169460D01*
X4230624Y-4157675D01*
X4229608Y-4153204D01*
X4229608Y-3645408D01*
X4228795Y-3637381D01*
X4226610Y-3630168D01*
X4223054Y-3623462D01*
X4217924Y-3617264D01*
X4053535Y-3452876D01*
X4047337Y-3447745D01*
X4040632Y-3444189D01*
X4033418Y-3442004D01*
X4025392Y-3441192D01*
X3271418Y-3441192D01*
X3267506Y-3440429D01*
X3264204Y-3438194D01*
X3191205Y-3365195D01*
X3188970Y-3361893D01*
X3188208Y-3357981D01*
X3188208Y-1588008D01*
X3187395Y-1579981D01*
X3185210Y-1572768D01*
X3181654Y-1566062D01*
X3176574Y-1559864D01*
X3037281Y-1420825D01*
X3031083Y-1415745D01*
X3024378Y-1412189D01*
X3017164Y-1410004D01*
X3009138Y-1409192D01*
X2847441Y-1409192D01*
X2843987Y-1408582D01*
X2840939Y-1406855D01*
X2798013Y-1371142D01*
X2795930Y-1369720D01*
X2791256Y-1365758D01*
X2779776Y-1358442D01*
X2767380Y-1352702D01*
X2754376Y-1348638D01*
X2740914Y-1346403D01*
X2727299Y-1345946D01*
X2713736Y-1347266D01*
X2700477Y-1350467D01*
X2687726Y-1355344D01*
X2675788Y-1361897D01*
X2664815Y-1369974D01*
X2655011Y-1379474D01*
X2646527Y-1390192D01*
X2639568Y-1401927D01*
X2634284Y-1414475D01*
X2630678Y-1427632D01*
X2628849Y-1441145D01*
X2628849Y-1454759D01*
X2630678Y-1468272D01*
X2634284Y-1481429D01*
X2639568Y-1493977D01*
X2646527Y-1505712D01*
X2655011Y-1516430D01*
X2664815Y-1525930D01*
X2675788Y-1534007D01*
X2687726Y-1540560D01*
X2700477Y-1545437D01*
X2713736Y-1548638D01*
X2727299Y-1549958D01*
X2740914Y-1549501D01*
X2754376Y-1547266D01*
X2767380Y-1543202D01*
X2779776Y-1537462D01*
X2791256Y-1530146D01*
X2798267Y-1524508D01*
X2841040Y-1488795D01*
X2844088Y-1487017D01*
X2847543Y-1486408D01*
X2989478Y-1486408D01*
X2993339Y-1487170D01*
X2996641Y-1489354D01*
X3107994Y-1600555D01*
X3110230Y-1603857D01*
X3110992Y-1607718D01*
X3110992Y-3377692D01*
X3111804Y-3385718D01*
X3113989Y-3392932D01*
X3117545Y-3399637D01*
X3122676Y-3405835D01*
X3223564Y-3506724D01*
X3229762Y-3511854D01*
X3240684Y-3517544D01*
X3243173Y-3520795D01*
X3244240Y-3524758D01*
X3243630Y-3528822D01*
X3241497Y-3532327D01*
X3238144Y-3534664D01*
X3234131Y-3535476D01*
X3124606Y-3535476D01*
X3120034Y-3534410D01*
X3096107Y-3522421D01*
X3084220Y-3514750D01*
X3073654Y-3509975D01*
X3062427Y-3506927D01*
X3050895Y-3505555D01*
X3039313Y-3506012D01*
X3027883Y-3508248D01*
X3016961Y-3512159D01*
X3006750Y-3517696D01*
X2997504Y-3524758D01*
X2989478Y-3533140D01*
X2982772Y-3542639D01*
X2977642Y-3553053D01*
X2974136Y-3564128D01*
X2972358Y-3575608D01*
X2972358Y-3587191D01*
X2974136Y-3598672D01*
X2977642Y-3609746D01*
X2982772Y-3620160D01*
X2989478Y-3629660D01*
X2997504Y-3638042D01*
X3006750Y-3645103D01*
X3016961Y-3650640D01*
X3027883Y-3654551D01*
X3040126Y-3657041D01*
X3065729Y-3665575D01*
X3069691Y-3668014D01*
X3151530Y-3749852D01*
X3153714Y-3753154D01*
X3154476Y-3757015D01*
X3154527Y-5094478D01*
X3155746Y-5103215D01*
X3158439Y-5111242D01*
X3162554Y-5118608D01*
X3168294Y-5125516D01*
X3258108Y-5215280D01*
X3265170Y-5220614D01*
X3272739Y-5224373D01*
X3280867Y-5226659D01*
X3289757Y-5227523D01*
X3901084Y-5227523D01*
X3904945Y-5228285D01*
X3908247Y-5230469D01*
X3913530Y-5235752D01*
X3915714Y-5239054D01*
X3916476Y-5242915D01*
X3916476Y-5691428D01*
X3915664Y-5695492D01*
X3909466Y-5709716D01*
X3907180Y-5712968D01*
X3903878Y-5715152D01*
X3899966Y-5715812D01*
X3896055Y-5715000D01*
X3892804Y-5712714D01*
X3889451Y-5709208D01*
X3880205Y-5702198D01*
X3870045Y-5696661D01*
X3859072Y-5692698D01*
X3847541Y-5690463D01*
X3843731Y-5690209D01*
X3813301Y-5686145D01*
X3810152Y-5685180D01*
X3807460Y-5683250D01*
X3532835Y-5408676D01*
X3526637Y-5403545D01*
X3519932Y-5399989D01*
X3512718Y-5397804D01*
X3504692Y-5396992D01*
X2903118Y-5396992D01*
X2899206Y-5396230D01*
X2895904Y-5393994D01*
X2856992Y-5355082D01*
X2854604Y-5351221D01*
X2850591Y-5339638D01*
X2847594Y-5327751D01*
X2843631Y-5318963D01*
X2838246Y-5310987D01*
X2831541Y-5304028D01*
X2823819Y-5298287D01*
X2815183Y-5293918D01*
X2805988Y-5291124D01*
X2796438Y-5289905D01*
X2786786Y-5290312D01*
X2777337Y-5292344D01*
X2768396Y-5295950D01*
X2760167Y-5300980D01*
X2752953Y-5307380D01*
X2746908Y-5314848D01*
X2742184Y-5323281D01*
X2738983Y-5332374D01*
X2737358Y-5341874D01*
X2737358Y-5351526D01*
X2738983Y-5361025D01*
X2742184Y-5370118D01*
X2746908Y-5378551D01*
X2752953Y-5386019D01*
X2760167Y-5392420D01*
X2768396Y-5397449D01*
X2777337Y-5401056D01*
X2786481Y-5403088D01*
X2798521Y-5407304D01*
X2802382Y-5409692D01*
X2855264Y-5462524D01*
X2861462Y-5467654D01*
X2868168Y-5471210D01*
X2875381Y-5473395D01*
X2883408Y-5474208D01*
X3484981Y-5474208D01*
X3488893Y-5474970D01*
X3492195Y-5477205D01*
X3692144Y-5677103D01*
X3694429Y-5680659D01*
X3695090Y-5684824D01*
X3694023Y-5688888D01*
X3691382Y-5692190D01*
X3675735Y-5699201D01*
X3665982Y-5705551D01*
X3657295Y-5713272D01*
X3656279Y-5714542D01*
X3652926Y-5717133D01*
X3648811Y-5718200D01*
X3644646Y-5717489D01*
X3641090Y-5715101D01*
X3635451Y-5709208D01*
X3626205Y-5702198D01*
X3616350Y-5696813D01*
X3616350Y-5734507D01*
X3628796Y-5734507D01*
X3632403Y-5735167D01*
X3635501Y-5737047D01*
X3637787Y-5739892D01*
X3638905Y-5743346D01*
X3638702Y-5747004D01*
X3636975Y-5754268D01*
X3636111Y-5765901D01*
X3636975Y-5777484D01*
X3638702Y-5784748D01*
X3638905Y-5788406D01*
X3637787Y-5791860D01*
X3635501Y-5794705D01*
X3632403Y-5796584D01*
X3628796Y-5797245D01*
X3616350Y-5797245D01*
X3616350Y-5834938D01*
X3626205Y-5829554D01*
X3635451Y-5822543D01*
X3641090Y-5816650D01*
X3644646Y-5814263D01*
X3648811Y-5813552D01*
X3652926Y-5814618D01*
X3656279Y-5817209D01*
X3657295Y-5818479D01*
X3665982Y-5826201D01*
X3675735Y-5832551D01*
X3686352Y-5837275D01*
X3697528Y-5840374D01*
X3709060Y-5841695D01*
X3720693Y-5841238D01*
X3732072Y-5839053D01*
X3743045Y-5835091D01*
X3753205Y-5829554D01*
X3762451Y-5822543D01*
X3768090Y-5816650D01*
X3771646Y-5814263D01*
X3775811Y-5813552D01*
X3779926Y-5814618D01*
X3783279Y-5817209D01*
X3784295Y-5818479D01*
X3792982Y-5826201D01*
X3802735Y-5832551D01*
X3813352Y-5837275D01*
X3824528Y-5840374D01*
X3836060Y-5841695D01*
X3847693Y-5841238D01*
X3859072Y-5839053D01*
X3870045Y-5835091D01*
X3880205Y-5829554D01*
X3889451Y-5822543D01*
X3892804Y-5819038D01*
X3896106Y-5816752D01*
X3899966Y-5815939D01*
X3903878Y-5816600D01*
X3907180Y-5818784D01*
X3909466Y-5822035D01*
X3915664Y-5836259D01*
X3916476Y-5840323D01*
X3916476Y-6110884D01*
X3915714Y-6114745D01*
X3913530Y-6118047D01*
X3902710Y-6128867D01*
X3899458Y-6131052D01*
X3895648Y-6131864D01*
X3891838Y-6131204D01*
X3888536Y-6129121D01*
X3886301Y-6125972D01*
X3885336Y-6122212D01*
X3885895Y-6118352D01*
X3887012Y-6115202D01*
X3887724Y-6108903D01*
X3887724Y-6075832D01*
X3823157Y-6075832D01*
X3823157Y-6135370D01*
X3861257Y-6135370D01*
X3867556Y-6134658D01*
X3870706Y-6133541D01*
X3874566Y-6132982D01*
X3878326Y-6133947D01*
X3881475Y-6136182D01*
X3883558Y-6139484D01*
X3884218Y-6143294D01*
X3883406Y-6147104D01*
X3881221Y-6150356D01*
X3849776Y-6181801D01*
X3846525Y-6183985D01*
X3803497Y-6202121D01*
X3799586Y-6202934D01*
X3682288Y-6202934D01*
X3675989Y-6203645D01*
X3670503Y-6205575D01*
X3665626Y-6208623D01*
X3661511Y-6212738D01*
X3658463Y-6217615D01*
X3656533Y-6223101D01*
X3655822Y-6229400D01*
X3655822Y-6236411D01*
X3655161Y-6240119D01*
X3653180Y-6243269D01*
X3650183Y-6245504D01*
X3617772Y-6261760D01*
X3613200Y-6262827D01*
X3409645Y-6262827D01*
X3405073Y-6261760D01*
X3372662Y-6245504D01*
X3369665Y-6243269D01*
X3367684Y-6240119D01*
X3367024Y-6236411D01*
X3367024Y-6229400D01*
X3366312Y-6223101D01*
X3364382Y-6217615D01*
X3361334Y-6212738D01*
X3357219Y-6208623D01*
X3352342Y-6205575D01*
X3346856Y-6203645D01*
X3340557Y-6202934D01*
X3161588Y-6202934D01*
X3155289Y-6203645D01*
X3149803Y-6205575D01*
X3144926Y-6208623D01*
X3140811Y-6212738D01*
X3137763Y-6217615D01*
X3135833Y-6223101D01*
X3135122Y-6229400D01*
X3135122Y-6388303D01*
X3135833Y-6394602D01*
X3137763Y-6400088D01*
X3140811Y-6404965D01*
X3144926Y-6409080D01*
X3149803Y-6412128D01*
X3155289Y-6414058D01*
X3161588Y-6414770D01*
X3340557Y-6414770D01*
X3346856Y-6414058D01*
X3352342Y-6412128D01*
X3357219Y-6409080D01*
X3361334Y-6404965D01*
X3364382Y-6400088D01*
X3366312Y-6394602D01*
X3367024Y-6388303D01*
X3367024Y-6381038D01*
X3367684Y-6377330D01*
X3369665Y-6374180D01*
X3372662Y-6371945D01*
X3405073Y-6355689D01*
X3409645Y-6354622D01*
X3613200Y-6354622D01*
X3617772Y-6355689D01*
X3650183Y-6371945D01*
X3653180Y-6374180D01*
X3655161Y-6377330D01*
X3655822Y-6381038D01*
X3655822Y-6388303D01*
X3656533Y-6394602D01*
X3658463Y-6400088D01*
X3661511Y-6404965D01*
X3665626Y-6409080D01*
X3670503Y-6412128D01*
X3675989Y-6414058D01*
X3682288Y-6414770D01*
X3861257Y-6414770D01*
X3867556Y-6414058D01*
X3873042Y-6412128D01*
X3877919Y-6409080D01*
X3882034Y-6404965D01*
X3885082Y-6400088D01*
X3887012Y-6394602D01*
X3887724Y-6388303D01*
X3887724Y-6318097D01*
X3888232Y-6314948D01*
X3907485Y-6255512D01*
X3908501Y-6253327D01*
X3909974Y-6251448D01*
X3996080Y-6165291D01*
X4001414Y-6158230D01*
X4005173Y-6150660D01*
X4007459Y-6142532D01*
X4008323Y-6133642D01*
X4008323Y-5844438D01*
X4008628Y-5841847D01*
X4009644Y-5839409D01*
X4021074Y-5819241D01*
X4023614Y-5816295D01*
X4027068Y-5814517D01*
X4030979Y-5814161D01*
X4034688Y-5815330D01*
X4046982Y-5826201D01*
X4056735Y-5832551D01*
X4061612Y-5834735D01*
X4061612Y-5797245D01*
X4049268Y-5797245D01*
X4045559Y-5796534D01*
X4042359Y-5794502D01*
X4040124Y-5791454D01*
X4039158Y-5787745D01*
X4041648Y-5771692D01*
X4041648Y-5760059D01*
X4039158Y-5744006D01*
X4040124Y-5740298D01*
X4042359Y-5737250D01*
X4045559Y-5735218D01*
X4049268Y-5734507D01*
X4061612Y-5734507D01*
X4061612Y-5697016D01*
X4056735Y-5699201D01*
X4046982Y-5705551D01*
X4034688Y-5716422D01*
X4030979Y-5717590D01*
X4027068Y-5717235D01*
X4023614Y-5715457D01*
X4021074Y-5712510D01*
X4009644Y-5692343D01*
X4008628Y-5689904D01*
X4008323Y-5687314D01*
X4008272Y-5217922D01*
X4007053Y-5209184D01*
X4004360Y-5201158D01*
X4000246Y-5193792D01*
X3994505Y-5186883D01*
X3955491Y-5147919D01*
X3948429Y-5142585D01*
X3940860Y-5138826D01*
X3932732Y-5136540D01*
X3923842Y-5135676D01*
X3312515Y-5135676D01*
X3308654Y-5134914D01*
X3305352Y-5132730D01*
X3249269Y-5076647D01*
X3247085Y-5073345D01*
X3246323Y-5069484D01*
X3246323Y-5049367D01*
X3247186Y-5045151D01*
X3249777Y-5041696D01*
X3253486Y-5039614D01*
X3257753Y-5039258D01*
X3261817Y-5040680D01*
X3263696Y-5041849D01*
X3272637Y-5045456D01*
X3282086Y-5047488D01*
X3291738Y-5047894D01*
X3301288Y-5046675D01*
X3310483Y-5043881D01*
X3319119Y-5039512D01*
X3323488Y-5036464D01*
X3335324Y-5030724D01*
X3339795Y-5029708D01*
X4450181Y-5029708D01*
X4454093Y-5030470D01*
X4457395Y-5032705D01*
X4722164Y-5297424D01*
X4728362Y-5302554D01*
X4735068Y-5306110D01*
X4742281Y-5308295D01*
X4750308Y-5309108D01*
X7093254Y-5309108D01*
X7096709Y-5309717D01*
X7099808Y-5311495D01*
X7149744Y-5353405D01*
X7161275Y-5361127D01*
X7173569Y-5367172D01*
X7186523Y-5371541D01*
X7199934Y-5374233D01*
X7213600Y-5375148D01*
X7227265Y-5374233D01*
X7240676Y-5371541D01*
X7253630Y-5367172D01*
X7265924Y-5361127D01*
X7277303Y-5353507D01*
X7287564Y-5344464D01*
X7296658Y-5334152D01*
X7299909Y-5331714D01*
X7303820Y-5330698D01*
X7307834Y-5331358D01*
X7311288Y-5333492D01*
X7313625Y-5336844D01*
X7314438Y-5340858D01*
X7314438Y-5454142D01*
X7313625Y-5458155D01*
X7311288Y-5461508D01*
X7307834Y-5463641D01*
X7303820Y-5464302D01*
X7299909Y-5463286D01*
X7296658Y-5460847D01*
X7287564Y-5450535D01*
X7277303Y-5441492D01*
X7265924Y-5433872D01*
X7253630Y-5427827D01*
X7240676Y-5423458D01*
X7227265Y-5420766D01*
X7213600Y-5419852D01*
X7199934Y-5420766D01*
X7186523Y-5423458D01*
X7173569Y-5427827D01*
X7161275Y-5433872D01*
X7149896Y-5441492D01*
X7139635Y-5450535D01*
X7130592Y-5460796D01*
X7122972Y-5472176D01*
X7116927Y-5484469D01*
X7112558Y-5497423D01*
X7109866Y-5510834D01*
X7108952Y-5524500D01*
X7109866Y-5538165D01*
X7112558Y-5551576D01*
X7116927Y-5564530D01*
X7122972Y-5576824D01*
X7130592Y-5588203D01*
X7139635Y-5598464D01*
X7149896Y-5607507D01*
X7161275Y-5615127D01*
X7173569Y-5621172D01*
X7186523Y-5625541D01*
X7199934Y-5628233D01*
X7213600Y-5629148D01*
X7227265Y-5628233D01*
X7240676Y-5625541D01*
X7253630Y-5621172D01*
X7265924Y-5615127D01*
X7277303Y-5607507D01*
X7287564Y-5598464D01*
X7296658Y-5588152D01*
X7299909Y-5585714D01*
X7303820Y-5584698D01*
X7307834Y-5585358D01*
X7311288Y-5587492D01*
X7313625Y-5590844D01*
X7314438Y-5594858D01*
X7314438Y-5853176D01*
X7313675Y-5857087D01*
X7311440Y-5860338D01*
X7308189Y-5862574D01*
X7304278Y-5863336D01*
X6716166Y-5863336D01*
X6714490Y-5864707D01*
X6714490Y-6503416D01*
X6713728Y-6507327D01*
X6711492Y-6510578D01*
X6708241Y-6512814D01*
X6704330Y-6513576D01*
G37*

%LPC*%
G36*
X5385257Y-6414770D02*
G01*
X5423357Y-6414770D01*
X5429656Y-6414058D01*
X5435142Y-6412128D01*
X5440019Y-6409080D01*
X5444134Y-6404965D01*
X5447182Y-6400088D01*
X5449112Y-6394602D01*
X5449824Y-6388303D01*
X5449824Y-6355232D01*
X5385257Y-6355232D01*
G37*
G36*
X5765088Y-6414770D02*
G01*
X5803188Y-6414770D01*
X5803188Y-6355232D01*
X5738622Y-6355232D01*
X5738622Y-6388303D01*
X5739333Y-6394602D01*
X5741263Y-6400088D01*
X5744311Y-6404965D01*
X5748426Y-6409080D01*
X5753303Y-6412128D01*
X5758789Y-6414058D01*
G37*
G36*
X5244388Y-6414770D02*
G01*
X5282488Y-6414770D01*
X5282488Y-6355232D01*
X5217922Y-6355232D01*
X5217922Y-6388303D01*
X5218633Y-6394602D01*
X5220563Y-6400088D01*
X5223611Y-6404965D01*
X5227726Y-6409080D01*
X5232603Y-6412128D01*
X5238089Y-6414058D01*
G37*
G36*
X5905957Y-6414770D02*
G01*
X5944057Y-6414770D01*
X5950356Y-6414058D01*
X5955842Y-6412128D01*
X5960719Y-6409080D01*
X5964834Y-6404965D01*
X5967882Y-6400088D01*
X5969812Y-6394602D01*
X5970524Y-6388303D01*
X5970524Y-6355232D01*
X5905957Y-6355232D01*
G37*
G36*
X4202988Y-6414770D02*
G01*
X4381957Y-6414770D01*
X4388256Y-6414058D01*
X4393742Y-6412128D01*
X4398619Y-6409080D01*
X4402734Y-6404965D01*
X4405782Y-6400088D01*
X4407712Y-6394602D01*
X4408424Y-6388303D01*
X4408424Y-6264148D01*
X4408728Y-6261557D01*
X4409694Y-6259169D01*
X4421276Y-6238341D01*
X4423003Y-6236106D01*
X4459224Y-6199835D01*
X4464354Y-6193637D01*
X4467910Y-6186932D01*
X4470095Y-6179718D01*
X4470908Y-6171692D01*
X4470908Y-6161684D01*
X4471771Y-6157671D01*
X4474108Y-6154267D01*
X4477664Y-6152134D01*
X4481728Y-6151575D01*
X4485690Y-6152642D01*
X4488942Y-6155232D01*
X4494276Y-6161735D01*
X4668164Y-6335674D01*
X4674412Y-6340805D01*
X4681067Y-6344361D01*
X4683658Y-6345123D01*
X4686503Y-6346545D01*
X4692853Y-6350965D01*
X4695190Y-6353200D01*
X4696714Y-6356096D01*
X4697222Y-6359296D01*
X4697222Y-6388303D01*
X4697933Y-6394602D01*
X4699863Y-6400088D01*
X4702911Y-6404965D01*
X4707026Y-6409080D01*
X4711903Y-6412128D01*
X4717389Y-6414058D01*
X4723688Y-6414770D01*
X4902657Y-6414770D01*
X4908956Y-6414058D01*
X4914442Y-6412128D01*
X4919319Y-6409080D01*
X4923434Y-6404965D01*
X4926482Y-6400088D01*
X4928412Y-6394602D01*
X4929124Y-6388303D01*
X4929124Y-6229400D01*
X4928412Y-6223101D01*
X4926482Y-6217615D01*
X4923434Y-6212738D01*
X4919319Y-6208623D01*
X4914442Y-6205575D01*
X4908956Y-6203645D01*
X4902657Y-6202934D01*
X4723688Y-6202934D01*
X4717389Y-6203645D01*
X4711903Y-6205575D01*
X4707026Y-6208623D01*
X4702911Y-6212738D01*
X4699863Y-6217615D01*
X4697933Y-6223101D01*
X4697222Y-6230975D01*
X4696460Y-6234887D01*
X4694224Y-6238189D01*
X4690973Y-6240373D01*
X4687062Y-6241135D01*
X4683150Y-6240373D01*
X4679899Y-6238189D01*
X4562805Y-6121095D01*
X4560570Y-6117793D01*
X4559808Y-6113881D01*
X4559808Y-5934354D01*
X4560570Y-5930442D01*
X4562805Y-5927140D01*
X4566056Y-5924956D01*
X4569968Y-5924194D01*
X4573879Y-5924956D01*
X4577130Y-5927140D01*
X4665776Y-6015939D01*
X4695240Y-6056071D01*
X4696714Y-6058916D01*
X4697222Y-6062116D01*
X4697222Y-6108903D01*
X4697933Y-6115202D01*
X4699863Y-6120688D01*
X4702911Y-6125565D01*
X4707026Y-6129680D01*
X4711903Y-6132728D01*
X4717389Y-6134658D01*
X4723688Y-6135370D01*
X4902657Y-6135370D01*
X4908956Y-6134658D01*
X4914442Y-6132728D01*
X4919319Y-6129680D01*
X4923434Y-6125565D01*
X4926482Y-6120688D01*
X4928412Y-6115202D01*
X4929124Y-6108903D01*
X4929124Y-5950000D01*
X4928412Y-5943701D01*
X4926482Y-5938215D01*
X4923434Y-5933338D01*
X4919319Y-5929223D01*
X4914442Y-5926175D01*
X4909820Y-5923686D01*
X4907432Y-5920435D01*
X4906467Y-5916472D01*
X4907178Y-5912510D01*
X4909362Y-5909106D01*
X4912664Y-5906820D01*
X4916627Y-5906008D01*
X4958181Y-5906008D01*
X4962093Y-5906770D01*
X4965395Y-5909005D01*
X5112664Y-6056274D01*
X5118912Y-6061405D01*
X5125567Y-6064961D01*
X5132781Y-6067145D01*
X5140807Y-6067958D01*
X5197195Y-6067958D01*
X5201767Y-6069025D01*
X5212283Y-6074257D01*
X5215280Y-6076543D01*
X5217261Y-6079693D01*
X5217922Y-6083350D01*
X5217922Y-6108903D01*
X5218633Y-6115202D01*
X5220563Y-6120688D01*
X5223611Y-6125565D01*
X5227726Y-6129680D01*
X5232603Y-6132728D01*
X5238089Y-6134658D01*
X5244388Y-6135370D01*
X5423357Y-6135370D01*
X5429656Y-6134658D01*
X5435142Y-6132728D01*
X5440019Y-6129680D01*
X5444134Y-6125565D01*
X5447182Y-6120688D01*
X5449112Y-6115202D01*
X5449824Y-6108903D01*
X5449824Y-6083350D01*
X5450484Y-6079693D01*
X5452465Y-6076543D01*
X5455462Y-6074257D01*
X5465978Y-6069025D01*
X5470550Y-6067958D01*
X5717895Y-6067958D01*
X5722467Y-6069025D01*
X5732983Y-6074257D01*
X5735980Y-6076543D01*
X5737961Y-6079693D01*
X5738622Y-6083350D01*
X5738622Y-6108903D01*
X5739333Y-6115202D01*
X5741263Y-6120688D01*
X5744311Y-6125565D01*
X5748426Y-6129680D01*
X5753303Y-6132728D01*
X5758789Y-6134658D01*
X5765088Y-6135370D01*
X5944057Y-6135370D01*
X5950356Y-6134658D01*
X5955842Y-6132728D01*
X5960719Y-6129680D01*
X5964834Y-6125565D01*
X5967882Y-6120688D01*
X5969812Y-6115202D01*
X5970524Y-6108903D01*
X5970524Y-5950000D01*
X5969812Y-5943701D01*
X5967882Y-5938215D01*
X5964834Y-5933338D01*
X5960719Y-5929223D01*
X5955842Y-5926175D01*
X5950356Y-5924245D01*
X5944057Y-5923534D01*
X5765088Y-5923534D01*
X5758789Y-5924245D01*
X5753303Y-5926175D01*
X5748426Y-5929223D01*
X5744311Y-5933338D01*
X5741263Y-5938215D01*
X5739333Y-5943701D01*
X5738622Y-5950000D01*
X5738622Y-5975299D01*
X5737961Y-5978956D01*
X5735980Y-5982106D01*
X5732983Y-5984392D01*
X5722467Y-5989624D01*
X5717946Y-5990742D01*
X5470550Y-5990742D01*
X5465978Y-5989624D01*
X5455462Y-5984392D01*
X5452465Y-5982106D01*
X5450484Y-5978956D01*
X5449824Y-5975299D01*
X5449824Y-5950000D01*
X5449112Y-5943701D01*
X5447182Y-5938215D01*
X5444134Y-5933338D01*
X5440019Y-5929223D01*
X5435142Y-5926175D01*
X5429656Y-5924245D01*
X5423357Y-5923534D01*
X5244388Y-5923534D01*
X5238089Y-5924245D01*
X5232603Y-5926175D01*
X5227726Y-5929223D01*
X5223611Y-5933338D01*
X5220563Y-5938215D01*
X5218633Y-5943701D01*
X5217922Y-5950000D01*
X5217922Y-5975299D01*
X5217261Y-5978956D01*
X5215280Y-5982106D01*
X5212283Y-5984392D01*
X5201767Y-5989624D01*
X5197246Y-5990742D01*
X5160518Y-5990742D01*
X5156657Y-5989929D01*
X5153355Y-5987745D01*
X5014671Y-5849061D01*
X5012537Y-5845962D01*
X5011724Y-5842304D01*
X5012232Y-5838596D01*
X5014112Y-5835345D01*
X5017008Y-5832957D01*
X5023256Y-5829554D01*
X5032502Y-5822543D01*
X5040528Y-5814161D01*
X5047234Y-5804662D01*
X5050891Y-5797245D01*
X5013350Y-5797245D01*
X5013350Y-5825642D01*
X5012486Y-5829706D01*
X5010099Y-5833059D01*
X5006543Y-5835243D01*
X5002377Y-5835751D01*
X4998415Y-5834583D01*
X4993132Y-5831789D01*
X4985918Y-5829604D01*
X4977892Y-5828792D01*
X4960823Y-5828792D01*
X4956911Y-5828030D01*
X4953609Y-5825794D01*
X4951425Y-5822543D01*
X4950663Y-5818632D01*
X4950663Y-5797245D01*
X4886350Y-5797245D01*
X4886350Y-5818632D01*
X4885537Y-5822543D01*
X4883353Y-5825794D01*
X4880051Y-5828030D01*
X4876190Y-5828792D01*
X4833772Y-5828792D01*
X4829911Y-5828030D01*
X4826609Y-5825794D01*
X4824425Y-5822543D01*
X4823612Y-5818632D01*
X4823612Y-5797245D01*
X4811268Y-5797245D01*
X4807559Y-5796534D01*
X4804359Y-5794502D01*
X4802124Y-5791454D01*
X4801158Y-5787745D01*
X4803648Y-5771692D01*
X4803648Y-5760059D01*
X4801158Y-5744006D01*
X4802124Y-5740298D01*
X4804359Y-5737250D01*
X4807559Y-5735218D01*
X4811268Y-5734507D01*
X4823612Y-5734507D01*
X4823612Y-5697016D01*
X4818735Y-5699201D01*
X4808982Y-5705551D01*
X4800295Y-5713272D01*
X4799279Y-5714542D01*
X4795926Y-5717133D01*
X4791811Y-5718200D01*
X4787646Y-5717489D01*
X4784090Y-5715101D01*
X4778451Y-5709208D01*
X4769205Y-5702198D01*
X4759045Y-5696661D01*
X4748072Y-5692698D01*
X4736693Y-5690514D01*
X4725060Y-5690057D01*
X4713528Y-5691378D01*
X4702352Y-5694476D01*
X4691735Y-5699201D01*
X4681982Y-5705551D01*
X4673295Y-5713272D01*
X4672279Y-5714542D01*
X4668926Y-5717133D01*
X4664811Y-5718200D01*
X4660646Y-5717489D01*
X4657090Y-5715101D01*
X4651451Y-5709208D01*
X4642205Y-5702198D01*
X4632045Y-5696661D01*
X4621072Y-5692698D01*
X4609693Y-5690514D01*
X4598060Y-5690057D01*
X4586528Y-5691378D01*
X4575352Y-5694476D01*
X4564735Y-5699201D01*
X4554982Y-5705551D01*
X4546295Y-5713272D01*
X4545279Y-5714542D01*
X4541926Y-5717133D01*
X4537811Y-5718200D01*
X4533646Y-5717489D01*
X4530090Y-5715101D01*
X4524451Y-5709208D01*
X4515205Y-5702198D01*
X4505045Y-5696661D01*
X4494072Y-5692698D01*
X4482693Y-5690514D01*
X4471060Y-5690057D01*
X4459528Y-5691378D01*
X4448352Y-5694476D01*
X4437735Y-5699201D01*
X4427982Y-5705551D01*
X4419295Y-5713272D01*
X4418279Y-5714542D01*
X4414926Y-5717133D01*
X4410811Y-5718200D01*
X4406646Y-5717489D01*
X4403090Y-5715101D01*
X4397451Y-5709208D01*
X4388205Y-5702198D01*
X4378045Y-5696661D01*
X4367072Y-5692698D01*
X4355693Y-5690514D01*
X4344060Y-5690057D01*
X4332528Y-5691378D01*
X4321352Y-5694476D01*
X4310735Y-5699201D01*
X4300982Y-5705551D01*
X4292295Y-5713272D01*
X4291279Y-5714542D01*
X4287926Y-5717133D01*
X4283811Y-5718200D01*
X4279646Y-5717489D01*
X4276090Y-5715101D01*
X4270451Y-5709208D01*
X4261205Y-5702198D01*
X4251045Y-5696661D01*
X4240072Y-5692698D01*
X4228693Y-5690514D01*
X4217060Y-5690057D01*
X4205528Y-5691378D01*
X4194352Y-5694476D01*
X4183735Y-5699201D01*
X4173982Y-5705551D01*
X4165295Y-5713272D01*
X4164279Y-5714542D01*
X4160926Y-5717133D01*
X4156811Y-5718200D01*
X4152646Y-5717489D01*
X4149090Y-5715101D01*
X4143451Y-5709208D01*
X4134205Y-5702198D01*
X4124350Y-5696813D01*
X4124350Y-5734507D01*
X4136796Y-5734507D01*
X4140403Y-5735167D01*
X4143501Y-5737047D01*
X4145787Y-5739892D01*
X4146905Y-5743346D01*
X4146702Y-5747004D01*
X4144975Y-5754268D01*
X4144111Y-5765901D01*
X4144975Y-5777484D01*
X4146702Y-5784748D01*
X4146905Y-5788406D01*
X4145787Y-5791860D01*
X4143501Y-5794705D01*
X4140403Y-5796584D01*
X4136796Y-5797245D01*
X4124350Y-5797245D01*
X4124350Y-5834938D01*
X4134205Y-5829554D01*
X4143451Y-5822543D01*
X4148277Y-5817514D01*
X4151223Y-5815380D01*
X4154779Y-5814466D01*
X4158437Y-5814822D01*
X4161688Y-5816447D01*
X4164177Y-5819140D01*
X4176217Y-5838190D01*
X4177385Y-5840780D01*
X4177792Y-5843625D01*
X4177792Y-5866892D01*
X4178604Y-5874918D01*
X4180789Y-5882132D01*
X4184345Y-5888837D01*
X4189476Y-5895035D01*
X4201515Y-5907125D01*
X4203750Y-5910529D01*
X4204512Y-5914542D01*
X4203598Y-5918504D01*
X4201210Y-5921806D01*
X4197705Y-5923889D01*
X4191203Y-5926175D01*
X4186326Y-5929223D01*
X4182211Y-5933338D01*
X4179163Y-5938215D01*
X4177233Y-5943701D01*
X4176522Y-5950000D01*
X4176522Y-6108903D01*
X4177233Y-6115202D01*
X4179163Y-6120688D01*
X4182211Y-6125565D01*
X4186326Y-6129680D01*
X4191203Y-6132728D01*
X4196689Y-6134658D01*
X4202988Y-6135370D01*
X4381957Y-6135370D01*
X4386630Y-6135725D01*
X4390288Y-6137859D01*
X4392828Y-6141262D01*
X4393692Y-6145428D01*
X4393692Y-6151981D01*
X4392930Y-6155893D01*
X4390694Y-6159195D01*
X4363669Y-6186220D01*
X4359910Y-6188608D01*
X4321708Y-6202324D01*
X4318254Y-6202934D01*
X4202988Y-6202934D01*
X4196689Y-6203645D01*
X4191203Y-6205575D01*
X4186326Y-6208623D01*
X4182211Y-6212738D01*
X4179163Y-6217615D01*
X4177233Y-6223101D01*
X4176522Y-6229400D01*
X4176522Y-6388303D01*
X4177233Y-6394602D01*
X4179163Y-6400088D01*
X4182211Y-6404965D01*
X4186326Y-6409080D01*
X4191203Y-6412128D01*
X4196689Y-6414058D01*
G37*
G36*
X1752142Y-6414770D02*
G01*
X1931111Y-6414770D01*
X1937410Y-6414058D01*
X1942896Y-6412128D01*
X1947773Y-6409080D01*
X1951888Y-6404965D01*
X1954936Y-6400088D01*
X1956866Y-6394602D01*
X1957578Y-6388303D01*
X1957578Y-6362750D01*
X1958238Y-6359093D01*
X1960219Y-6355943D01*
X1963216Y-6353657D01*
X1973732Y-6348425D01*
X1978304Y-6347358D01*
X2015083Y-6347358D01*
X2018080Y-6347764D01*
X2024481Y-6349695D01*
X2032000Y-6350457D01*
X2039518Y-6349695D01*
X2046732Y-6347510D01*
X2053437Y-6343954D01*
X2059635Y-6338824D01*
X2147824Y-6250635D01*
X2152954Y-6244437D01*
X2156510Y-6237732D01*
X2158695Y-6230518D01*
X2159508Y-6222492D01*
X2159508Y-5798718D01*
X2160270Y-5794806D01*
X2162505Y-5791504D01*
X2228799Y-5725210D01*
X2232101Y-5723026D01*
X2235962Y-5722213D01*
X2239822Y-5722975D01*
X2243124Y-5725160D01*
X2245360Y-5728411D01*
X2246122Y-5732322D01*
X2245410Y-5736183D01*
X2242667Y-5742990D01*
X2240026Y-5754268D01*
X2239111Y-5765901D01*
X2240026Y-5777484D01*
X2242667Y-5788761D01*
X2246985Y-5799531D01*
X2252929Y-5809538D01*
X2260346Y-5818479D01*
X2269032Y-5826201D01*
X2278735Y-5832551D01*
X2289352Y-5837275D01*
X2300579Y-5840374D01*
X2312111Y-5841695D01*
X2323693Y-5841238D01*
X2335123Y-5839053D01*
X2346045Y-5835091D01*
X2356256Y-5829554D01*
X2365502Y-5822543D01*
X2371140Y-5816650D01*
X2374646Y-5814314D01*
X2378811Y-5813552D01*
X2382977Y-5814618D01*
X2386279Y-5817260D01*
X2387295Y-5818479D01*
X2395982Y-5826201D01*
X2405735Y-5832551D01*
X2416352Y-5837275D01*
X2427528Y-5840374D01*
X2439060Y-5841695D01*
X2450693Y-5841238D01*
X2462072Y-5839053D01*
X2473045Y-5835091D01*
X2483205Y-5829554D01*
X2492451Y-5822543D01*
X2498090Y-5816650D01*
X2501646Y-5814263D01*
X2505811Y-5813552D01*
X2509926Y-5814618D01*
X2513279Y-5817209D01*
X2514295Y-5818479D01*
X2522982Y-5826201D01*
X2532735Y-5832551D01*
X2543352Y-5837275D01*
X2554528Y-5840374D01*
X2566060Y-5841695D01*
X2577693Y-5841238D01*
X2589072Y-5839053D01*
X2600045Y-5835091D01*
X2610205Y-5829554D01*
X2619451Y-5822543D01*
X2625090Y-5816650D01*
X2628646Y-5814263D01*
X2632811Y-5813552D01*
X2636926Y-5814618D01*
X2640279Y-5817209D01*
X2641295Y-5818479D01*
X2649982Y-5826201D01*
X2659735Y-5832551D01*
X2664612Y-5834735D01*
X2664612Y-5797245D01*
X2652268Y-5797245D01*
X2648559Y-5796534D01*
X2645359Y-5794502D01*
X2643124Y-5791454D01*
X2642158Y-5787745D01*
X2644648Y-5771692D01*
X2644648Y-5760059D01*
X2642158Y-5744006D01*
X2643124Y-5740298D01*
X2645359Y-5737250D01*
X2648559Y-5735218D01*
X2652268Y-5734507D01*
X2664612Y-5734507D01*
X2664612Y-5697016D01*
X2659735Y-5699201D01*
X2649982Y-5705551D01*
X2641295Y-5713272D01*
X2640279Y-5714542D01*
X2636926Y-5717133D01*
X2632811Y-5718200D01*
X2628646Y-5717489D01*
X2625090Y-5715101D01*
X2619451Y-5709208D01*
X2610205Y-5702198D01*
X2600045Y-5696661D01*
X2589072Y-5692698D01*
X2577693Y-5690514D01*
X2566060Y-5690057D01*
X2554528Y-5691378D01*
X2543352Y-5694476D01*
X2532735Y-5699201D01*
X2522982Y-5705551D01*
X2514295Y-5713272D01*
X2513279Y-5714542D01*
X2509926Y-5717133D01*
X2505811Y-5718200D01*
X2501646Y-5717489D01*
X2498090Y-5715101D01*
X2492451Y-5709208D01*
X2483205Y-5702198D01*
X2473045Y-5696661D01*
X2462072Y-5692698D01*
X2450693Y-5690514D01*
X2439060Y-5690057D01*
X2427528Y-5691378D01*
X2416352Y-5694476D01*
X2405735Y-5699201D01*
X2395982Y-5705551D01*
X2387295Y-5713272D01*
X2386279Y-5714492D01*
X2382977Y-5717133D01*
X2378811Y-5718200D01*
X2374646Y-5717438D01*
X2371140Y-5715101D01*
X2365502Y-5709208D01*
X2356256Y-5702198D01*
X2346045Y-5696661D01*
X2335123Y-5692698D01*
X2323693Y-5690514D01*
X2312111Y-5690057D01*
X2300579Y-5691378D01*
X2289352Y-5694476D01*
X2285695Y-5696102D01*
X2281783Y-5697016D01*
X2277821Y-5696305D01*
X2274468Y-5694121D01*
X2272182Y-5690819D01*
X2271369Y-5686907D01*
X2272131Y-5682996D01*
X2274366Y-5679643D01*
X2349804Y-5604205D01*
X2353106Y-5601970D01*
X2357018Y-5601208D01*
X3365804Y-5601208D01*
X3370275Y-5602224D01*
X3381857Y-5607913D01*
X3390696Y-5613349D01*
X3399637Y-5616956D01*
X3409086Y-5618988D01*
X3418738Y-5619394D01*
X3428288Y-5618175D01*
X3437483Y-5615381D01*
X3446119Y-5611012D01*
X3453841Y-5605272D01*
X3460546Y-5598312D01*
X3465931Y-5590336D01*
X3469894Y-5581548D01*
X3472332Y-5572201D01*
X3473145Y-5562600D01*
X3472332Y-5552998D01*
X3469894Y-5543651D01*
X3465931Y-5534863D01*
X3460546Y-5526887D01*
X3453841Y-5519928D01*
X3446119Y-5514187D01*
X3437483Y-5509818D01*
X3428288Y-5507024D01*
X3418738Y-5505805D01*
X3409086Y-5506212D01*
X3399637Y-5508244D01*
X3390696Y-5511850D01*
X3380943Y-5517743D01*
X3370275Y-5522976D01*
X3365804Y-5523992D01*
X2337308Y-5523992D01*
X2329281Y-5524804D01*
X2322068Y-5526989D01*
X2315362Y-5530545D01*
X2309164Y-5535676D01*
X2093975Y-5750864D01*
X2088845Y-5757062D01*
X2085289Y-5763768D01*
X2083104Y-5770981D01*
X2082292Y-5779008D01*
X2082292Y-6202781D01*
X2081530Y-6206693D01*
X2079294Y-6209995D01*
X2022144Y-6267145D01*
X2018842Y-6269329D01*
X2014982Y-6270142D01*
X1978304Y-6270142D01*
X1973732Y-6269024D01*
X1963216Y-6263792D01*
X1960219Y-6261506D01*
X1958238Y-6258356D01*
X1957578Y-6254699D01*
X1957578Y-6229400D01*
X1956866Y-6223101D01*
X1954936Y-6217615D01*
X1951888Y-6212738D01*
X1947773Y-6208623D01*
X1942896Y-6205575D01*
X1937410Y-6203645D01*
X1931111Y-6202934D01*
X1752142Y-6202934D01*
X1745843Y-6203645D01*
X1740357Y-6205575D01*
X1735480Y-6208623D01*
X1731365Y-6212738D01*
X1728317Y-6217615D01*
X1726387Y-6223101D01*
X1725675Y-6229400D01*
X1725675Y-6254699D01*
X1725015Y-6258356D01*
X1723034Y-6261506D01*
X1720037Y-6263792D01*
X1709521Y-6269024D01*
X1704949Y-6270142D01*
X1466342Y-6270142D01*
X1462278Y-6269278D01*
X1458925Y-6266891D01*
X1417167Y-6222644D01*
X1406753Y-6213856D01*
X1395272Y-6206490D01*
X1382877Y-6200749D01*
X1369872Y-6196736D01*
X1356410Y-6194450D01*
X1342796Y-6193993D01*
X1329232Y-6195364D01*
X1315974Y-6198514D01*
X1303223Y-6203442D01*
X1291285Y-6209995D01*
X1280312Y-6218072D01*
X1270508Y-6227572D01*
X1262024Y-6238240D01*
X1255064Y-6249974D01*
X1249781Y-6262522D01*
X1246174Y-6275679D01*
X1244346Y-6289192D01*
X1244346Y-6302857D01*
X1246174Y-6316370D01*
X1249781Y-6329527D01*
X1255064Y-6342075D01*
X1262024Y-6353810D01*
X1270508Y-6364478D01*
X1280312Y-6373977D01*
X1291285Y-6382054D01*
X1303223Y-6388608D01*
X1315974Y-6393535D01*
X1329232Y-6396685D01*
X1342796Y-6398056D01*
X1356410Y-6397599D01*
X1369872Y-6395313D01*
X1382877Y-6391300D01*
X1395272Y-6385560D01*
X1403756Y-6380378D01*
X1452676Y-6348933D01*
X1455318Y-6347764D01*
X1458163Y-6347358D01*
X1704949Y-6347358D01*
X1709521Y-6348425D01*
X1720037Y-6353657D01*
X1723034Y-6355943D01*
X1725015Y-6359093D01*
X1725675Y-6362750D01*
X1725675Y-6388303D01*
X1726387Y-6394602D01*
X1728317Y-6400088D01*
X1731365Y-6404965D01*
X1735480Y-6409080D01*
X1740357Y-6412128D01*
X1745843Y-6414058D01*
G37*
G36*
X6438900Y-6410807D02*
G01*
X6459728Y-6409842D01*
X6480403Y-6406946D01*
X6500723Y-6402171D01*
X6520484Y-6395567D01*
X6539585Y-6387134D01*
X6557822Y-6376974D01*
X6575044Y-6365189D01*
X6591096Y-6351828D01*
X6605828Y-6337096D01*
X6619189Y-6321044D01*
X6630974Y-6303822D01*
X6641134Y-6285585D01*
X6649567Y-6266484D01*
X6656171Y-6246723D01*
X6660946Y-6226403D01*
X6663842Y-6205728D01*
X6664807Y-6184900D01*
X6663842Y-6164072D01*
X6660946Y-6143396D01*
X6656171Y-6123076D01*
X6649567Y-6103315D01*
X6641134Y-6084214D01*
X6630974Y-6065977D01*
X6619189Y-6048756D01*
X6605828Y-6032703D01*
X6591096Y-6017971D01*
X6575044Y-6004610D01*
X6557822Y-5992825D01*
X6539585Y-5982665D01*
X6520484Y-5974232D01*
X6500723Y-5967628D01*
X6480403Y-5962853D01*
X6459728Y-5959957D01*
X6438900Y-5958992D01*
X6418072Y-5959957D01*
X6397396Y-5962853D01*
X6377076Y-5967628D01*
X6357315Y-5974232D01*
X6338214Y-5982665D01*
X6319977Y-5992825D01*
X6302756Y-6004610D01*
X6286703Y-6017971D01*
X6271971Y-6032703D01*
X6258610Y-6048756D01*
X6246825Y-6065977D01*
X6236665Y-6084214D01*
X6228232Y-6103315D01*
X6221628Y-6123076D01*
X6216853Y-6143396D01*
X6213957Y-6164072D01*
X6212992Y-6184900D01*
X6213957Y-6205728D01*
X6216853Y-6226403D01*
X6221628Y-6246723D01*
X6228232Y-6266484D01*
X6236665Y-6285585D01*
X6246825Y-6303822D01*
X6258610Y-6321044D01*
X6271971Y-6337096D01*
X6286703Y-6351828D01*
X6302756Y-6365189D01*
X6319977Y-6376974D01*
X6338214Y-6387134D01*
X6357315Y-6395567D01*
X6377076Y-6402171D01*
X6397396Y-6406946D01*
X6418072Y-6409842D01*
G37*
G36*
X901700Y-6410807D02*
G01*
X922528Y-6409842D01*
X943203Y-6406946D01*
X963523Y-6402171D01*
X983284Y-6395567D01*
X1002385Y-6387134D01*
X1020622Y-6376974D01*
X1037844Y-6365189D01*
X1053896Y-6351828D01*
X1068628Y-6337096D01*
X1081989Y-6321044D01*
X1093774Y-6303822D01*
X1103934Y-6285585D01*
X1112367Y-6266484D01*
X1118971Y-6246723D01*
X1123746Y-6226403D01*
X1126642Y-6205728D01*
X1127607Y-6184900D01*
X1126642Y-6164072D01*
X1123746Y-6143396D01*
X1118971Y-6123076D01*
X1112367Y-6103315D01*
X1103934Y-6084214D01*
X1093774Y-6065977D01*
X1081989Y-6048756D01*
X1068628Y-6032703D01*
X1053896Y-6017971D01*
X1037844Y-6004610D01*
X1020622Y-5992825D01*
X1002385Y-5982665D01*
X983284Y-5974232D01*
X963523Y-5967628D01*
X943203Y-5962853D01*
X922528Y-5959957D01*
X901700Y-5958992D01*
X880871Y-5959957D01*
X860196Y-5962853D01*
X839876Y-5967628D01*
X820115Y-5974232D01*
X801014Y-5982665D01*
X782777Y-5992825D01*
X765556Y-6004610D01*
X749503Y-6017971D01*
X734771Y-6032703D01*
X721410Y-6048756D01*
X709625Y-6065977D01*
X699465Y-6084214D01*
X691032Y-6103315D01*
X684428Y-6123076D01*
X679653Y-6143396D01*
X676757Y-6164072D01*
X675792Y-6184900D01*
X676757Y-6205728D01*
X679653Y-6226403D01*
X684428Y-6246723D01*
X691032Y-6266484D01*
X699465Y-6285585D01*
X709625Y-6303822D01*
X721410Y-6321044D01*
X734771Y-6337096D01*
X749503Y-6351828D01*
X765556Y-6365189D01*
X782777Y-6376974D01*
X801014Y-6387134D01*
X820115Y-6395567D01*
X839876Y-6402171D01*
X860196Y-6406946D01*
X880871Y-6409842D01*
G37*
G36*
X5385257Y-6262522D02*
G01*
X5449824Y-6262522D01*
X5449824Y-6229400D01*
X5449112Y-6223101D01*
X5447182Y-6217615D01*
X5444134Y-6212738D01*
X5440019Y-6208623D01*
X5435142Y-6205575D01*
X5429656Y-6203645D01*
X5423357Y-6202934D01*
X5385257Y-6202934D01*
G37*
G36*
X5738622Y-6262522D02*
G01*
X5803188Y-6262522D01*
X5803188Y-6202934D01*
X5765088Y-6202934D01*
X5758789Y-6203645D01*
X5753303Y-6205575D01*
X5748426Y-6208623D01*
X5744311Y-6212738D01*
X5741263Y-6217615D01*
X5739333Y-6223101D01*
X5738622Y-6229400D01*
G37*
G36*
X5905957Y-6262522D02*
G01*
X5970524Y-6262522D01*
X5970524Y-6229400D01*
X5969812Y-6223101D01*
X5967882Y-6217615D01*
X5964834Y-6212738D01*
X5960719Y-6208623D01*
X5955842Y-6205575D01*
X5950356Y-6203645D01*
X5944057Y-6202934D01*
X5905957Y-6202934D01*
G37*
G36*
X5217922Y-6262522D02*
G01*
X5282488Y-6262522D01*
X5282488Y-6202934D01*
X5244388Y-6202934D01*
X5238089Y-6203645D01*
X5232603Y-6205575D01*
X5227726Y-6208623D01*
X5223611Y-6212738D01*
X5220563Y-6217615D01*
X5218633Y-6223101D01*
X5217922Y-6229400D01*
G37*
G36*
X1349756Y-6153658D02*
G01*
X1364030Y-6152286D01*
X1378000Y-6149086D01*
X1391412Y-6144158D01*
X1404112Y-6137554D01*
X1415846Y-6129324D01*
X1426413Y-6119723D01*
X1435709Y-6108852D01*
X1443532Y-6096812D01*
X1449730Y-6083960D01*
X1454251Y-6070346D01*
X1456994Y-6056325D01*
X1457909Y-6042050D01*
X1456994Y-6027724D01*
X1454251Y-6013704D01*
X1449730Y-6000089D01*
X1443532Y-5987237D01*
X1435709Y-5975248D01*
X1426413Y-5964326D01*
X1415846Y-5954725D01*
X1404112Y-5946495D01*
X1391412Y-5939891D01*
X1378000Y-5934964D01*
X1363980Y-5931763D01*
X1357223Y-5931001D01*
X1307338Y-5922111D01*
X1304442Y-5921095D01*
X1301953Y-5919266D01*
X883970Y-5501284D01*
X881786Y-5498033D01*
X881024Y-5494121D01*
X881024Y-1157478D01*
X881786Y-1153617D01*
X883970Y-1150315D01*
X1785315Y-248970D01*
X1788617Y-246786D01*
X1792478Y-246024D01*
X2129840Y-246024D01*
X2132888Y-246481D01*
X2135632Y-247853D01*
X2176780Y-276504D01*
X2186990Y-284124D01*
X2199436Y-291134D01*
X2212695Y-296519D01*
X2226564Y-300126D01*
X2240737Y-301955D01*
X2255062Y-301955D01*
X2269236Y-300126D01*
X2283104Y-296519D01*
X2296363Y-291134D01*
X2308809Y-284124D01*
X2320290Y-275539D01*
X2330602Y-265582D01*
X2339492Y-254406D01*
X2346909Y-242163D01*
X2352700Y-229057D01*
X2356764Y-215341D01*
X2359050Y-201218D01*
X2359507Y-186944D01*
X2358136Y-172669D01*
X2354986Y-158699D01*
X2350008Y-145288D01*
X2343404Y-132588D01*
X2335225Y-120853D01*
X2325624Y-110286D01*
X2314702Y-100990D01*
X2302713Y-93167D01*
X2289810Y-86969D01*
X2276246Y-82448D01*
X2262174Y-79705D01*
X2247900Y-78790D01*
X2233625Y-79705D01*
X2219553Y-82448D01*
X2205990Y-86969D01*
X2193086Y-93167D01*
X2181098Y-100990D01*
X2177186Y-104190D01*
X2135632Y-133146D01*
X2132888Y-134518D01*
X2129840Y-134975D01*
X1765503Y-134975D01*
X1760474Y-135229D01*
X1755648Y-135839D01*
X1750923Y-136906D01*
X1746300Y-138328D01*
X1741830Y-140208D01*
X1737563Y-142443D01*
X1733448Y-145034D01*
X1729638Y-147980D01*
X1725879Y-151384D01*
X786384Y-1090879D01*
X782980Y-1094638D01*
X780034Y-1098448D01*
X777443Y-1102563D01*
X775208Y-1106830D01*
X773328Y-1111300D01*
X771906Y-1115923D01*
X770839Y-1120648D01*
X770229Y-1125474D01*
X769975Y-1130503D01*
X769975Y-5521096D01*
X770229Y-5526176D01*
X770839Y-5530951D01*
X771906Y-5535676D01*
X773328Y-5540298D01*
X775208Y-5544769D01*
X777443Y-5549087D01*
X780034Y-5553151D01*
X782980Y-5557012D01*
X786384Y-5560720D01*
X1223467Y-5997803D01*
X1225296Y-6000242D01*
X1226261Y-6003188D01*
X1235354Y-6053886D01*
X1236573Y-6063386D01*
X1240180Y-6077204D01*
X1245565Y-6090462D01*
X1252575Y-6102959D01*
X1261160Y-6114440D01*
X1271117Y-6124702D01*
X1282293Y-6133642D01*
X1294536Y-6141059D01*
X1307642Y-6146850D01*
X1321358Y-6150914D01*
X1335481Y-6153200D01*
G37*
G36*
X3302457Y-6135370D02*
G01*
X3340557Y-6135370D01*
X3346856Y-6134658D01*
X3352342Y-6132728D01*
X3357219Y-6129680D01*
X3361334Y-6125565D01*
X3364382Y-6120688D01*
X3366312Y-6115202D01*
X3367024Y-6108903D01*
X3367024Y-6075832D01*
X3302457Y-6075832D01*
G37*
G36*
X3682288Y-6135370D02*
G01*
X3720388Y-6135370D01*
X3720388Y-6075832D01*
X3655822Y-6075832D01*
X3655822Y-6108903D01*
X3656533Y-6115202D01*
X3658463Y-6120688D01*
X3661511Y-6125565D01*
X3665626Y-6129680D01*
X3670503Y-6132728D01*
X3675989Y-6134658D01*
G37*
G36*
X3161588Y-6135370D02*
G01*
X3199688Y-6135370D01*
X3199688Y-6075832D01*
X3135122Y-6075832D01*
X3135122Y-6108903D01*
X3135833Y-6115202D01*
X3137763Y-6120688D01*
X3140811Y-6125565D01*
X3144926Y-6129680D01*
X3149803Y-6132728D01*
X3155289Y-6134658D01*
G37*
G36*
X1752142Y-6135370D02*
G01*
X1790242Y-6135370D01*
X1790242Y-6075832D01*
X1725675Y-6075832D01*
X1725675Y-6108903D01*
X1726387Y-6115202D01*
X1728317Y-6120688D01*
X1731365Y-6125565D01*
X1735480Y-6129680D01*
X1740357Y-6132728D01*
X1745843Y-6134658D01*
G37*
G36*
X1893011Y-6135370D02*
G01*
X1931111Y-6135370D01*
X1937410Y-6134658D01*
X1942896Y-6132728D01*
X1947773Y-6129680D01*
X1951888Y-6125565D01*
X1954936Y-6120688D01*
X1956866Y-6115202D01*
X1957578Y-6108903D01*
X1957578Y-6075832D01*
X1893011Y-6075832D01*
G37*
G36*
X3302457Y-5983122D02*
G01*
X3367024Y-5983122D01*
X3367024Y-5950000D01*
X3366312Y-5943701D01*
X3364382Y-5938215D01*
X3361334Y-5933338D01*
X3357219Y-5929223D01*
X3352342Y-5926175D01*
X3346856Y-5924245D01*
X3340557Y-5923534D01*
X3302457Y-5923534D01*
G37*
G36*
X3655822Y-5983122D02*
G01*
X3720388Y-5983122D01*
X3720388Y-5923534D01*
X3682288Y-5923534D01*
X3675989Y-5924245D01*
X3670503Y-5926175D01*
X3665626Y-5929223D01*
X3661511Y-5933338D01*
X3658463Y-5938215D01*
X3656533Y-5943701D01*
X3655822Y-5950000D01*
G37*
G36*
X3823157Y-5983122D02*
G01*
X3887724Y-5983122D01*
X3887724Y-5950000D01*
X3887012Y-5943701D01*
X3885082Y-5938215D01*
X3882034Y-5933338D01*
X3877919Y-5929223D01*
X3873042Y-5926175D01*
X3867556Y-5924245D01*
X3861257Y-5923534D01*
X3823157Y-5923534D01*
G37*
G36*
X3135122Y-5983122D02*
G01*
X3199688Y-5983122D01*
X3199688Y-5923534D01*
X3161588Y-5923534D01*
X3155289Y-5924245D01*
X3149803Y-5926175D01*
X3144926Y-5929223D01*
X3140811Y-5933338D01*
X3137763Y-5938215D01*
X3135833Y-5943701D01*
X3135122Y-5950000D01*
G37*
G36*
X1725675Y-5983122D02*
G01*
X1790242Y-5983122D01*
X1790242Y-5923534D01*
X1752142Y-5923534D01*
X1745843Y-5924245D01*
X1740357Y-5926175D01*
X1735480Y-5929223D01*
X1731365Y-5933338D01*
X1728317Y-5938215D01*
X1726387Y-5943701D01*
X1725675Y-5950000D01*
G37*
G36*
X1893011Y-5983122D02*
G01*
X1957578Y-5983122D01*
X1957578Y-5950000D01*
X1956866Y-5943701D01*
X1954936Y-5938215D01*
X1951888Y-5933338D01*
X1947773Y-5929223D01*
X1942896Y-5926175D01*
X1937410Y-5924245D01*
X1931111Y-5923534D01*
X1893011Y-5923534D01*
G37*
G36*
X6721906Y-5841746D02*
G01*
X6733489Y-5840882D01*
X6744817Y-5838240D01*
X6755587Y-5833872D01*
X6765544Y-5827928D01*
X6774535Y-5820562D01*
X6778294Y-5816295D01*
X6781749Y-5813755D01*
X6785914Y-5812891D01*
X6790080Y-5813755D01*
X6793484Y-5816295D01*
X6797294Y-5820562D01*
X6806234Y-5827928D01*
X6816242Y-5833872D01*
X6827012Y-5838240D01*
X6838289Y-5840882D01*
X6849922Y-5841746D01*
X6861505Y-5840882D01*
X6872782Y-5838240D01*
X6883552Y-5833872D01*
X6893559Y-5827928D01*
X6902500Y-5820562D01*
X6910222Y-5811875D01*
X6916572Y-5802122D01*
X6921296Y-5791504D01*
X6924395Y-5780328D01*
X6925716Y-5768797D01*
X6925259Y-5757164D01*
X6923074Y-5745784D01*
X6919112Y-5734812D01*
X6913575Y-5724652D01*
X6906564Y-5715406D01*
X6898182Y-5707329D01*
X6888683Y-5700674D01*
X6878269Y-5695492D01*
X6867194Y-5691987D01*
X6855714Y-5690209D01*
X6844080Y-5690209D01*
X6832600Y-5691987D01*
X6821525Y-5695492D01*
X6811111Y-5700674D01*
X6801612Y-5707329D01*
X6792925Y-5715660D01*
X6789724Y-5717794D01*
X6785914Y-5718505D01*
X6782104Y-5717794D01*
X6778853Y-5715660D01*
X6770166Y-5707329D01*
X6760667Y-5700674D01*
X6750253Y-5695492D01*
X6739178Y-5691987D01*
X6727698Y-5690209D01*
X6716115Y-5690209D01*
X6704634Y-5691987D01*
X6693560Y-5695492D01*
X6683146Y-5700674D01*
X6673646Y-5707329D01*
X6665264Y-5715406D01*
X6658203Y-5724652D01*
X6652666Y-5734812D01*
X6648754Y-5745784D01*
X6646519Y-5757164D01*
X6646062Y-5768797D01*
X6647434Y-5780328D01*
X6650481Y-5791504D01*
X6655257Y-5802122D01*
X6661556Y-5811875D01*
X6669278Y-5820562D01*
X6678269Y-5827928D01*
X6688226Y-5833872D01*
X6698996Y-5838240D01*
X6710324Y-5840882D01*
G37*
G36*
X448106Y-5841746D02*
G01*
X459689Y-5840882D01*
X471017Y-5838240D01*
X481787Y-5833872D01*
X491743Y-5827928D01*
X500735Y-5820562D01*
X504494Y-5816295D01*
X507949Y-5813755D01*
X512114Y-5812891D01*
X516280Y-5813755D01*
X519684Y-5816295D01*
X523493Y-5820562D01*
X532434Y-5827928D01*
X542442Y-5833872D01*
X553212Y-5838240D01*
X564489Y-5840882D01*
X576122Y-5841746D01*
X587705Y-5840882D01*
X598982Y-5838240D01*
X609752Y-5833872D01*
X619760Y-5827928D01*
X628700Y-5820562D01*
X636422Y-5811875D01*
X642772Y-5802122D01*
X647496Y-5791504D01*
X650595Y-5780328D01*
X651916Y-5768797D01*
X651459Y-5757164D01*
X649274Y-5745784D01*
X645312Y-5734812D01*
X639775Y-5724652D01*
X632764Y-5715406D01*
X624382Y-5707329D01*
X614883Y-5700674D01*
X604469Y-5695492D01*
X593394Y-5691987D01*
X581914Y-5690209D01*
X570280Y-5690209D01*
X558800Y-5691987D01*
X547725Y-5695492D01*
X537311Y-5700674D01*
X527812Y-5707329D01*
X519125Y-5715660D01*
X515924Y-5717794D01*
X512114Y-5718505D01*
X508304Y-5717794D01*
X505053Y-5715660D01*
X496366Y-5707329D01*
X486867Y-5700674D01*
X476453Y-5695492D01*
X465378Y-5691987D01*
X453898Y-5690209D01*
X442315Y-5690209D01*
X430834Y-5691987D01*
X419760Y-5695492D01*
X409346Y-5700674D01*
X399846Y-5707329D01*
X391464Y-5715406D01*
X384403Y-5724652D01*
X378866Y-5734812D01*
X374954Y-5745784D01*
X372719Y-5757164D01*
X372262Y-5768797D01*
X373634Y-5780328D01*
X376682Y-5791504D01*
X381457Y-5802122D01*
X387756Y-5811875D01*
X395478Y-5820562D01*
X404469Y-5827928D01*
X414426Y-5833872D01*
X425196Y-5838240D01*
X436524Y-5840882D01*
G37*
G36*
X2727350Y-5834938D02*
G01*
X2737205Y-5829554D01*
X2746451Y-5822543D01*
X2752090Y-5816650D01*
X2755646Y-5814263D01*
X2759811Y-5813552D01*
X2763926Y-5814618D01*
X2767279Y-5817209D01*
X2768295Y-5818479D01*
X2776982Y-5826201D01*
X2786735Y-5832551D01*
X2791612Y-5834735D01*
X2791612Y-5797245D01*
X2727350Y-5797245D01*
G37*
G36*
X2854350Y-5834938D02*
G01*
X2864205Y-5829554D01*
X2873451Y-5822543D01*
X2879090Y-5816650D01*
X2882646Y-5814263D01*
X2886811Y-5813552D01*
X2890926Y-5814618D01*
X2894279Y-5817209D01*
X2895295Y-5818479D01*
X2903982Y-5826201D01*
X2913735Y-5832551D01*
X2918612Y-5834735D01*
X2918612Y-5797245D01*
X2854350Y-5797245D01*
G37*
G36*
X3235350Y-5834938D02*
G01*
X3245205Y-5829554D01*
X3254451Y-5822543D01*
X3260090Y-5816650D01*
X3263646Y-5814263D01*
X3267811Y-5813552D01*
X3271926Y-5814618D01*
X3275279Y-5817209D01*
X3276295Y-5818479D01*
X3284982Y-5826201D01*
X3294735Y-5832551D01*
X3299612Y-5834735D01*
X3299612Y-5797245D01*
X3235350Y-5797245D01*
G37*
G36*
X2981350Y-5834938D02*
G01*
X2991205Y-5829554D01*
X3000451Y-5822543D01*
X3006090Y-5816650D01*
X3009646Y-5814263D01*
X3013811Y-5813552D01*
X3017926Y-5814618D01*
X3021279Y-5817209D01*
X3022295Y-5818479D01*
X3030982Y-5826201D01*
X3040735Y-5832551D01*
X3045612Y-5834735D01*
X3045612Y-5797245D01*
X2981350Y-5797245D01*
G37*
G36*
X3362350Y-5834938D02*
G01*
X3372205Y-5829554D01*
X3381451Y-5822543D01*
X3387090Y-5816650D01*
X3390646Y-5814263D01*
X3394811Y-5813552D01*
X3398926Y-5814618D01*
X3402279Y-5817209D01*
X3403295Y-5818479D01*
X3411982Y-5826201D01*
X3421735Y-5832551D01*
X3426612Y-5834735D01*
X3426612Y-5797245D01*
X3362350Y-5797245D01*
G37*
G36*
X3108350Y-5834938D02*
G01*
X3118205Y-5829554D01*
X3127451Y-5822543D01*
X3133090Y-5816650D01*
X3136646Y-5814263D01*
X3140811Y-5813552D01*
X3144926Y-5814618D01*
X3148279Y-5817209D01*
X3149295Y-5818479D01*
X3157982Y-5826201D01*
X3167735Y-5832551D01*
X3172612Y-5834735D01*
X3172612Y-5797245D01*
X3108350Y-5797245D01*
G37*
G36*
X3489350Y-5834938D02*
G01*
X3499205Y-5829554D01*
X3508451Y-5822543D01*
X3514090Y-5816650D01*
X3517646Y-5814263D01*
X3521811Y-5813552D01*
X3525926Y-5814618D01*
X3529279Y-5817209D01*
X3530295Y-5818479D01*
X3538982Y-5826201D01*
X3548735Y-5832551D01*
X3553612Y-5834735D01*
X3553612Y-5797245D01*
X3489350Y-5797245D01*
G37*
G36*
X5013350Y-5734507D02*
G01*
X5050891Y-5734507D01*
X5047234Y-5727090D01*
X5040528Y-5717590D01*
X5032502Y-5709208D01*
X5023256Y-5702198D01*
X5013350Y-5696813D01*
G37*
G36*
X2854350Y-5734507D02*
G01*
X2918612Y-5734507D01*
X2918612Y-5697016D01*
X2913735Y-5699201D01*
X2903982Y-5705551D01*
X2895295Y-5713272D01*
X2894279Y-5714542D01*
X2890926Y-5717133D01*
X2886811Y-5718200D01*
X2882646Y-5717489D01*
X2879090Y-5715101D01*
X2873451Y-5709208D01*
X2864205Y-5702198D01*
X2854350Y-5696813D01*
G37*
G36*
X2727350Y-5734507D02*
G01*
X2791612Y-5734507D01*
X2791612Y-5697016D01*
X2786735Y-5699201D01*
X2776982Y-5705551D01*
X2768295Y-5713272D01*
X2767279Y-5714542D01*
X2763926Y-5717133D01*
X2759811Y-5718200D01*
X2755646Y-5717489D01*
X2752090Y-5715101D01*
X2746451Y-5709208D01*
X2737205Y-5702198D01*
X2727350Y-5696813D01*
G37*
G36*
X3235350Y-5734507D02*
G01*
X3299612Y-5734507D01*
X3299612Y-5697016D01*
X3294735Y-5699201D01*
X3284982Y-5705551D01*
X3276295Y-5713272D01*
X3275279Y-5714542D01*
X3271926Y-5717133D01*
X3267811Y-5718200D01*
X3263646Y-5717489D01*
X3260090Y-5715101D01*
X3254451Y-5709208D01*
X3245205Y-5702198D01*
X3235350Y-5696813D01*
G37*
G36*
X2981350Y-5734507D02*
G01*
X3045612Y-5734507D01*
X3045612Y-5697016D01*
X3040735Y-5699201D01*
X3030982Y-5705551D01*
X3022295Y-5713272D01*
X3021279Y-5714542D01*
X3017926Y-5717133D01*
X3013811Y-5718200D01*
X3009646Y-5717489D01*
X3006090Y-5715101D01*
X3000451Y-5709208D01*
X2991205Y-5702198D01*
X2981350Y-5696813D01*
G37*
G36*
X3362350Y-5734507D02*
G01*
X3426612Y-5734507D01*
X3426612Y-5697016D01*
X3421735Y-5699201D01*
X3411982Y-5705551D01*
X3403295Y-5713272D01*
X3402279Y-5714542D01*
X3398926Y-5717133D01*
X3394811Y-5718200D01*
X3390646Y-5717489D01*
X3387090Y-5715101D01*
X3381451Y-5709208D01*
X3372205Y-5702198D01*
X3362350Y-5696813D01*
G37*
G36*
X3489350Y-5734507D02*
G01*
X3553612Y-5734507D01*
X3553612Y-5697016D01*
X3548735Y-5699201D01*
X3538982Y-5705551D01*
X3530295Y-5713272D01*
X3529279Y-5714542D01*
X3525926Y-5717133D01*
X3521811Y-5718200D01*
X3517646Y-5717489D01*
X3514090Y-5715101D01*
X3508451Y-5709208D01*
X3499205Y-5702198D01*
X3489350Y-5696813D01*
G37*
G36*
X3108350Y-5734507D02*
G01*
X3172612Y-5734507D01*
X3172612Y-5697016D01*
X3167735Y-5699201D01*
X3157982Y-5705551D01*
X3149295Y-5713272D01*
X3148279Y-5714542D01*
X3144926Y-5717133D01*
X3140811Y-5718200D01*
X3136646Y-5717489D01*
X3133090Y-5715101D01*
X3127451Y-5709208D01*
X3118205Y-5702198D01*
X3108350Y-5696813D01*
G37*
G36*
X4886350Y-5734507D02*
G01*
X4950663Y-5734507D01*
X4950663Y-5697016D01*
X4945735Y-5699201D01*
X4936032Y-5705551D01*
X4927346Y-5713272D01*
X4926279Y-5714542D01*
X4922977Y-5717184D01*
X4918811Y-5718200D01*
X4914646Y-5717489D01*
X4911140Y-5715101D01*
X4905451Y-5709208D01*
X4896205Y-5702198D01*
X4886350Y-5696813D01*
G37*
G36*
X1215034Y-5611774D02*
G01*
X1231341Y-5610860D01*
X1247495Y-5608116D01*
X1263192Y-5603595D01*
X1278331Y-5597296D01*
X1292606Y-5589422D01*
X1305966Y-5579922D01*
X1318158Y-5569051D01*
X1329080Y-5556859D01*
X1338529Y-5543499D01*
X1346454Y-5529173D01*
X1352702Y-5514086D01*
X1357223Y-5498338D01*
X1359966Y-5482234D01*
X1360932Y-5465724D01*
X1358747Y-5365445D01*
X1359458Y-5361432D01*
X1361694Y-5358028D01*
X1946452Y-4773269D01*
X1949754Y-4771085D01*
X1953615Y-4770323D01*
X2584043Y-4770323D01*
X2596743Y-4772101D01*
X2600553Y-4773472D01*
X2603296Y-4775149D01*
X2612237Y-4778756D01*
X2621686Y-4780788D01*
X2631338Y-4781194D01*
X2640888Y-4779975D01*
X2650083Y-4777181D01*
X2658719Y-4772812D01*
X2666441Y-4767072D01*
X2673146Y-4760112D01*
X2678531Y-4752136D01*
X2682494Y-4743348D01*
X2684932Y-4734001D01*
X2685745Y-4724400D01*
X2684932Y-4714798D01*
X2682494Y-4705451D01*
X2678531Y-4696663D01*
X2673146Y-4688687D01*
X2666441Y-4681728D01*
X2658719Y-4675987D01*
X2650083Y-4671618D01*
X2640888Y-4668824D01*
X2631338Y-4667605D01*
X2621686Y-4668012D01*
X2612237Y-4670044D01*
X2603296Y-4673650D01*
X2600553Y-4675327D01*
X2596743Y-4676698D01*
X2584043Y-4678476D01*
X1928622Y-4678527D01*
X1919884Y-4679746D01*
X1911857Y-4682439D01*
X1904492Y-4686554D01*
X1897583Y-4692294D01*
X1290320Y-5299557D01*
X1287932Y-5301335D01*
X1285189Y-5302351D01*
X1182725Y-5323586D01*
X1166825Y-5328158D01*
X1151686Y-5334457D01*
X1137412Y-5342331D01*
X1124051Y-5351830D01*
X1111859Y-5362702D01*
X1100937Y-5374894D01*
X1091488Y-5388254D01*
X1083564Y-5402580D01*
X1077315Y-5417667D01*
X1072794Y-5433415D01*
X1070051Y-5449519D01*
X1069136Y-5465876D01*
X1070051Y-5482234D01*
X1072794Y-5498338D01*
X1077315Y-5514086D01*
X1083564Y-5529173D01*
X1091488Y-5543499D01*
X1100937Y-5556859D01*
X1111859Y-5569051D01*
X1124051Y-5579922D01*
X1137412Y-5589422D01*
X1151686Y-5597296D01*
X1166825Y-5603595D01*
X1182522Y-5608116D01*
X1198676Y-5610860D01*
G37*
G36*
X6181344Y-5595620D02*
G01*
X6192621Y-5589422D01*
X6205982Y-5579922D01*
X6218174Y-5569051D01*
X6229045Y-5556859D01*
X6238544Y-5543499D01*
X6244742Y-5532221D01*
X6181344Y-5532221D01*
G37*
G36*
X6048654Y-5595620D02*
G01*
X6048654Y-5532221D01*
X5985256Y-5532221D01*
X5991453Y-5543499D01*
X6000953Y-5556859D01*
X6011824Y-5569051D01*
X6024016Y-5579922D01*
X6037376Y-5589422D01*
G37*
G36*
X5985256Y-5399532D02*
G01*
X6048654Y-5399532D01*
X6048654Y-5336133D01*
X6037376Y-5342331D01*
X6024016Y-5351830D01*
X6011824Y-5362702D01*
X6000953Y-5374894D01*
X5991453Y-5388254D01*
G37*
G36*
X6181344Y-5399532D02*
G01*
X6244742Y-5399532D01*
X6238544Y-5388254D01*
X6229045Y-5374894D01*
X6218174Y-5362702D01*
X6205982Y-5351830D01*
X6192621Y-5342331D01*
X6181344Y-5336133D01*
G37*
G36*
X5552795Y-4495444D02*
G01*
X5564327Y-4494072D01*
X5575554Y-4491024D01*
X5586171Y-4486249D01*
X5595874Y-4479950D01*
X5604560Y-4472228D01*
X5611977Y-4463237D01*
X5617921Y-4453280D01*
X5622239Y-4442510D01*
X5624880Y-4431182D01*
X5625795Y-4419600D01*
X5624880Y-4408017D01*
X5622239Y-4396689D01*
X5617921Y-4385919D01*
X5611977Y-4375962D01*
X5604560Y-4366971D01*
X5595874Y-4359249D01*
X5586171Y-4352950D01*
X5575554Y-4348175D01*
X5564327Y-4345127D01*
X5552795Y-4343755D01*
X5541213Y-4344212D01*
X5529783Y-4346448D01*
X5518861Y-4350359D01*
X5508650Y-4355896D01*
X5499404Y-4362958D01*
X5491378Y-4371340D01*
X5484672Y-4380839D01*
X5479542Y-4391253D01*
X5476036Y-4402328D01*
X5474258Y-4413808D01*
X5474258Y-4425391D01*
X5476036Y-4436872D01*
X5479542Y-4447946D01*
X5484672Y-4458360D01*
X5491378Y-4467860D01*
X5499404Y-4476242D01*
X5508650Y-4483303D01*
X5518861Y-4488840D01*
X5529783Y-4492752D01*
X5541213Y-4494987D01*
G37*
G36*
X1768195Y-4495444D02*
G01*
X1779727Y-4494072D01*
X1790954Y-4491024D01*
X1801571Y-4486249D01*
X1811274Y-4479950D01*
X1819960Y-4472228D01*
X1827377Y-4463237D01*
X1833321Y-4453280D01*
X1837639Y-4442510D01*
X1840280Y-4431182D01*
X1841195Y-4419600D01*
X1840280Y-4408017D01*
X1837639Y-4396689D01*
X1833321Y-4385919D01*
X1827377Y-4375962D01*
X1819960Y-4366971D01*
X1811274Y-4359249D01*
X1801571Y-4352950D01*
X1790954Y-4348175D01*
X1779727Y-4345127D01*
X1768195Y-4343755D01*
X1756613Y-4344212D01*
X1745183Y-4346448D01*
X1734261Y-4350359D01*
X1724050Y-4355896D01*
X1714804Y-4362958D01*
X1706778Y-4371340D01*
X1700072Y-4380839D01*
X1694942Y-4391253D01*
X1691436Y-4402328D01*
X1689658Y-4413808D01*
X1689658Y-4425391D01*
X1691436Y-4436872D01*
X1694942Y-4447946D01*
X1700072Y-4458360D01*
X1706778Y-4467860D01*
X1714804Y-4476242D01*
X1724050Y-4483303D01*
X1734261Y-4488840D01*
X1745183Y-4492752D01*
X1756613Y-4494987D01*
G37*
G36*
X7135418Y-4359148D02*
G01*
X7167880Y-4359148D01*
X7167880Y-4300220D01*
X7108952Y-4300220D01*
X7108952Y-4332681D01*
X7109663Y-4338980D01*
X7111593Y-4344466D01*
X7114641Y-4349343D01*
X7118756Y-4353458D01*
X7123633Y-4356506D01*
X7129119Y-4358436D01*
G37*
G36*
X7108952Y-4208780D02*
G01*
X7167880Y-4208780D01*
X7167880Y-4149851D01*
X7135418Y-4149851D01*
X7129119Y-4150563D01*
X7123633Y-4152493D01*
X7118756Y-4155541D01*
X7114641Y-4159656D01*
X7111593Y-4164533D01*
X7109663Y-4170019D01*
X7108952Y-4176318D01*
G37*
G36*
X4676038Y-4146194D02*
G01*
X4685588Y-4144975D01*
X4694783Y-4142181D01*
X4703419Y-4137812D01*
X4707788Y-4134764D01*
X4719624Y-4129024D01*
X4724095Y-4128008D01*
X6489192Y-4128008D01*
X6497218Y-4127195D01*
X6504431Y-4125010D01*
X6511137Y-4121454D01*
X6517335Y-4116324D01*
X6669024Y-3964635D01*
X6674154Y-3958437D01*
X6677710Y-3951732D01*
X6679895Y-3944518D01*
X6680708Y-3936492D01*
X6680708Y-2895295D01*
X6681724Y-2890824D01*
X6687464Y-2878988D01*
X6691731Y-2872536D01*
X6695694Y-2863748D01*
X6698132Y-2854401D01*
X6698945Y-2844800D01*
X6698132Y-2835198D01*
X6695694Y-2825851D01*
X6691731Y-2817063D01*
X6686346Y-2809087D01*
X6679641Y-2802128D01*
X6671919Y-2796387D01*
X6663283Y-2792018D01*
X6654088Y-2789224D01*
X6644538Y-2788005D01*
X6634886Y-2788412D01*
X6625437Y-2790444D01*
X6616496Y-2794050D01*
X6608267Y-2799080D01*
X6601053Y-2805480D01*
X6595008Y-2812948D01*
X6590284Y-2821381D01*
X6587083Y-2830474D01*
X6585458Y-2839974D01*
X6585458Y-2849626D01*
X6587083Y-2859125D01*
X6590284Y-2868218D01*
X6595008Y-2876651D01*
X6596938Y-2879445D01*
X6602475Y-2890824D01*
X6603492Y-2895295D01*
X6603492Y-3916781D01*
X6602730Y-3920693D01*
X6600494Y-3923995D01*
X6476695Y-4047794D01*
X6473393Y-4050029D01*
X6469481Y-4050792D01*
X4724095Y-4050792D01*
X4719624Y-4049776D01*
X4707788Y-4044035D01*
X4703419Y-4040987D01*
X4694783Y-4036618D01*
X4685588Y-4033824D01*
X4676038Y-4032605D01*
X4666386Y-4033012D01*
X4656937Y-4035044D01*
X4647996Y-4038650D01*
X4639767Y-4043679D01*
X4632553Y-4050080D01*
X4626508Y-4057548D01*
X4621784Y-4065981D01*
X4618583Y-4075074D01*
X4616958Y-4084574D01*
X4616958Y-4094226D01*
X4618583Y-4103725D01*
X4621784Y-4112818D01*
X4626508Y-4121251D01*
X4632553Y-4128719D01*
X4639767Y-4135120D01*
X4647996Y-4140149D01*
X4656937Y-4143756D01*
X4666386Y-4145787D01*
G37*
G36*
X160020Y-4105148D02*
G01*
X192481Y-4105148D01*
X198780Y-4104436D01*
X204266Y-4102506D01*
X209143Y-4099458D01*
X213258Y-4095343D01*
X216306Y-4090466D01*
X218236Y-4084980D01*
X218948Y-4078681D01*
X218948Y-4046220D01*
X160020Y-4046220D01*
G37*
G36*
X160020Y-3954779D02*
G01*
X218948Y-3954779D01*
X218948Y-3922318D01*
X218236Y-3916019D01*
X216306Y-3910533D01*
X213258Y-3905656D01*
X209143Y-3901541D01*
X204266Y-3898493D01*
X198780Y-3896563D01*
X192481Y-3895851D01*
X160020Y-3895851D01*
G37*
G36*
X160020Y-2885948D02*
G01*
X192481Y-2885948D01*
X198780Y-2885236D01*
X204266Y-2883306D01*
X209143Y-2880258D01*
X213258Y-2876143D01*
X216306Y-2871266D01*
X218236Y-2865780D01*
X218948Y-2859481D01*
X218948Y-2827020D01*
X160020Y-2827020D01*
G37*
G36*
X160020Y-2735580D02*
G01*
X218948Y-2735580D01*
X218948Y-2703118D01*
X218236Y-2696819D01*
X216306Y-2691333D01*
X213258Y-2686456D01*
X209143Y-2682341D01*
X204266Y-2679293D01*
X198780Y-2677363D01*
X192481Y-2676652D01*
X160020Y-2676652D01*
G37*
G36*
X3366058Y-2311908D02*
G01*
X6070041Y-2311908D01*
X6076340Y-2311196D01*
X6081826Y-2309266D01*
X6086703Y-2306218D01*
X6090818Y-2302103D01*
X6093866Y-2297226D01*
X6095796Y-2291740D01*
X6096508Y-2285441D01*
X6096508Y-381558D01*
X6095796Y-375259D01*
X6093866Y-369773D01*
X6090818Y-364896D01*
X6086703Y-360781D01*
X6081826Y-357733D01*
X6076340Y-355803D01*
X6070041Y-355092D01*
X3366058Y-355092D01*
X3359759Y-355803D01*
X3354273Y-357733D01*
X3349396Y-360781D01*
X3345281Y-364896D01*
X3342233Y-369773D01*
X3340303Y-375259D01*
X3339592Y-381558D01*
X3339592Y-2285441D01*
X3340303Y-2291740D01*
X3342233Y-2297226D01*
X3345281Y-2302103D01*
X3349396Y-2306218D01*
X3354273Y-2309266D01*
X3359759Y-2311196D01*
G37*
G36*
X1308658Y-1816607D02*
G01*
X1339850Y-1816607D01*
X1339850Y-1758950D01*
X1282192Y-1758950D01*
X1282192Y-1790141D01*
X1282903Y-1796440D01*
X1284833Y-1801926D01*
X1287881Y-1806803D01*
X1291996Y-1810918D01*
X1296873Y-1813966D01*
X1302359Y-1815896D01*
G37*
G36*
X1428750Y-1816607D02*
G01*
X1459941Y-1816607D01*
X1466240Y-1815896D01*
X1471726Y-1813966D01*
X1476603Y-1810918D01*
X1480718Y-1806803D01*
X1483766Y-1801926D01*
X1485696Y-1796440D01*
X1486408Y-1790141D01*
X1486408Y-1758950D01*
X1428750Y-1758950D01*
G37*
G36*
X2241092Y-1816354D02*
G01*
X2254707Y-1816354D01*
X2268220Y-1814525D01*
X2281377Y-1810918D01*
X2293924Y-1805635D01*
X2305659Y-1798675D01*
X2316378Y-1790192D01*
X2325878Y-1780387D01*
X2333955Y-1769414D01*
X2340508Y-1757476D01*
X2345385Y-1744725D01*
X2348585Y-1731467D01*
X2349906Y-1717903D01*
X2349449Y-1704289D01*
X2347214Y-1690827D01*
X2343150Y-1677822D01*
X2337409Y-1665427D01*
X2330094Y-1653946D01*
X2321306Y-1643532D01*
X2311146Y-1634388D01*
X2299919Y-1626666D01*
X2287778Y-1620520D01*
X2274874Y-1616049D01*
X2261514Y-1613306D01*
X2247900Y-1612392D01*
X2234285Y-1613306D01*
X2220925Y-1616049D01*
X2208022Y-1620520D01*
X2195880Y-1626666D01*
X2184654Y-1634388D01*
X2174494Y-1643532D01*
X2165705Y-1653946D01*
X2158390Y-1665427D01*
X2152650Y-1677822D01*
X2148586Y-1690827D01*
X2146350Y-1704289D01*
X2145893Y-1717903D01*
X2147214Y-1731467D01*
X2150414Y-1744725D01*
X2155291Y-1757476D01*
X2161844Y-1769414D01*
X2169922Y-1780387D01*
X2179421Y-1790192D01*
X2190140Y-1798675D01*
X2201875Y-1805635D01*
X2214422Y-1810918D01*
X2227580Y-1814525D01*
G37*
G36*
X2734259Y-1813560D02*
G01*
X2748534Y-1812188D01*
X2762504Y-1809038D01*
X2775915Y-1804060D01*
X2788615Y-1797456D01*
X2800350Y-1789277D01*
X2810916Y-1779676D01*
X2820212Y-1768754D01*
X2828036Y-1756765D01*
X2834233Y-1743862D01*
X2838754Y-1730298D01*
X2841498Y-1716227D01*
X2842412Y-1701952D01*
X2841498Y-1687677D01*
X2838754Y-1673606D01*
X2834233Y-1660042D01*
X2828036Y-1647139D01*
X2820212Y-1635150D01*
X2810916Y-1624228D01*
X2800350Y-1614627D01*
X2788615Y-1606448D01*
X2775915Y-1599844D01*
X2762504Y-1594866D01*
X2748534Y-1591716D01*
X2734259Y-1590344D01*
X2719984Y-1590802D01*
X2705862Y-1593088D01*
X2692146Y-1597152D01*
X2679039Y-1602943D01*
X2666796Y-1610360D01*
X2655620Y-1619250D01*
X2645664Y-1629562D01*
X2637078Y-1641043D01*
X2630068Y-1653489D01*
X2624683Y-1666748D01*
X2621076Y-1680616D01*
X2619248Y-1694789D01*
X2619248Y-1709115D01*
X2621076Y-1723288D01*
X2624683Y-1737156D01*
X2630068Y-1750415D01*
X2637078Y-1762861D01*
X2645664Y-1774342D01*
X2655620Y-1784654D01*
X2666796Y-1793544D01*
X2679039Y-1800961D01*
X2692146Y-1806752D01*
X2705862Y-1810816D01*
X2719984Y-1813102D01*
G37*
G36*
X1282192Y-1670050D02*
G01*
X1339850Y-1670050D01*
X1339850Y-1612392D01*
X1308658Y-1612392D01*
X1302359Y-1613103D01*
X1296873Y-1615033D01*
X1291996Y-1618081D01*
X1287881Y-1622196D01*
X1284833Y-1627073D01*
X1282903Y-1632559D01*
X1282192Y-1638858D01*
G37*
G36*
X1428750Y-1670050D02*
G01*
X1486408Y-1670050D01*
X1486408Y-1638858D01*
X1485696Y-1632559D01*
X1483766Y-1627073D01*
X1480718Y-1622196D01*
X1476603Y-1618081D01*
X1471726Y-1615033D01*
X1466240Y-1613103D01*
X1459941Y-1612392D01*
X1428750Y-1612392D01*
G37*
G36*
X2727299Y-1295958D02*
G01*
X2740914Y-1295501D01*
X2754376Y-1293266D01*
X2767380Y-1289202D01*
X2779776Y-1283462D01*
X2791256Y-1276146D01*
X2801670Y-1267358D01*
X2810814Y-1257198D01*
X2818536Y-1245971D01*
X2824683Y-1233830D01*
X2829153Y-1220927D01*
X2831896Y-1207566D01*
X2832811Y-1193952D01*
X2831896Y-1180338D01*
X2829153Y-1166977D01*
X2824683Y-1154074D01*
X2818536Y-1141933D01*
X2810814Y-1130706D01*
X2801670Y-1120546D01*
X2791256Y-1111758D01*
X2779776Y-1104442D01*
X2767380Y-1098702D01*
X2754376Y-1094638D01*
X2740914Y-1092403D01*
X2727299Y-1091946D01*
X2713736Y-1093266D01*
X2700477Y-1096467D01*
X2687726Y-1101344D01*
X2675788Y-1107897D01*
X2664815Y-1115974D01*
X2655011Y-1125474D01*
X2646527Y-1136192D01*
X2639568Y-1147927D01*
X2634284Y-1160475D01*
X2630678Y-1173632D01*
X2628849Y-1187145D01*
X2628849Y-1200759D01*
X2630678Y-1214272D01*
X2634284Y-1227429D01*
X2639568Y-1239977D01*
X2646527Y-1251712D01*
X2655011Y-1262430D01*
X2664815Y-1271930D01*
X2675788Y-1280007D01*
X2687726Y-1286560D01*
X2700477Y-1291437D01*
X2713736Y-1294638D01*
G37*
G36*
X2686253Y-1031748D02*
G01*
X2686253Y-984402D01*
X2638907Y-984402D01*
X2639568Y-985977D01*
X2646527Y-997712D01*
X2655011Y-1008430D01*
X2664815Y-1017930D01*
X2675788Y-1026007D01*
G37*
G36*
X2775153Y-1031595D02*
G01*
X2779776Y-1029462D01*
X2791256Y-1022146D01*
X2801670Y-1013358D01*
X2810814Y-1003198D01*
X2818536Y-991971D01*
X2822346Y-984402D01*
X2775153Y-984402D01*
G37*
G36*
X2775153Y-895502D02*
G01*
X2822346Y-895502D01*
X2818536Y-887933D01*
X2810814Y-876706D01*
X2801670Y-866546D01*
X2791256Y-857758D01*
X2779776Y-850442D01*
X2775153Y-848309D01*
G37*
G36*
X2638907Y-895502D02*
G01*
X2686253Y-895502D01*
X2686253Y-848156D01*
X2675788Y-853897D01*
X2664815Y-861974D01*
X2655011Y-871474D01*
X2646527Y-882192D01*
X2639568Y-893927D01*
G37*
G36*
X6721906Y-837946D02*
G01*
X6733489Y-837082D01*
X6744817Y-834440D01*
X6755587Y-830071D01*
X6765544Y-824128D01*
X6774535Y-816762D01*
X6778294Y-812495D01*
X6781749Y-809955D01*
X6785914Y-809091D01*
X6790080Y-809955D01*
X6793484Y-812495D01*
X6797294Y-816762D01*
X6806234Y-824128D01*
X6816242Y-830071D01*
X6827012Y-834440D01*
X6838289Y-837082D01*
X6849922Y-837946D01*
X6861505Y-837082D01*
X6872782Y-834440D01*
X6883552Y-830071D01*
X6893559Y-824128D01*
X6902500Y-816762D01*
X6910222Y-808075D01*
X6916572Y-798322D01*
X6921296Y-787704D01*
X6924395Y-776528D01*
X6925716Y-764997D01*
X6925259Y-753364D01*
X6923074Y-741984D01*
X6919112Y-731012D01*
X6913575Y-720852D01*
X6906564Y-711606D01*
X6898182Y-703529D01*
X6888683Y-696874D01*
X6878269Y-691692D01*
X6867194Y-688187D01*
X6855714Y-686409D01*
X6844080Y-686409D01*
X6832600Y-688187D01*
X6821525Y-691692D01*
X6811111Y-696874D01*
X6801612Y-703529D01*
X6792925Y-711860D01*
X6789724Y-713994D01*
X6785914Y-714705D01*
X6782104Y-713994D01*
X6778853Y-711860D01*
X6770166Y-703529D01*
X6760667Y-696874D01*
X6750253Y-691692D01*
X6739178Y-688187D01*
X6727698Y-686409D01*
X6716115Y-686409D01*
X6704634Y-688187D01*
X6693560Y-691692D01*
X6683146Y-696874D01*
X6673646Y-703529D01*
X6665264Y-711606D01*
X6658203Y-720852D01*
X6652666Y-731012D01*
X6648754Y-741984D01*
X6646519Y-753364D01*
X6646062Y-764997D01*
X6647434Y-776528D01*
X6650481Y-787704D01*
X6655257Y-798322D01*
X6661556Y-808075D01*
X6669278Y-816762D01*
X6678269Y-824128D01*
X6688226Y-830071D01*
X6698996Y-834440D01*
X6710324Y-837082D01*
G37*
G36*
X448106Y-837946D02*
G01*
X459689Y-837082D01*
X471017Y-834440D01*
X481787Y-830071D01*
X491743Y-824128D01*
X500735Y-816762D01*
X504545Y-812495D01*
X507949Y-809955D01*
X512114Y-809091D01*
X516280Y-809955D01*
X519684Y-812495D01*
X523493Y-816762D01*
X532485Y-824128D01*
X542442Y-830071D01*
X553212Y-834440D01*
X564540Y-837082D01*
X576122Y-837946D01*
X587705Y-837082D01*
X599033Y-834440D01*
X609803Y-830071D01*
X619760Y-824128D01*
X628751Y-816762D01*
X636473Y-808075D01*
X642772Y-798322D01*
X647547Y-787704D01*
X650595Y-776528D01*
X651967Y-764997D01*
X651510Y-753364D01*
X649274Y-741984D01*
X645363Y-731012D01*
X639826Y-720852D01*
X632764Y-711606D01*
X624382Y-703529D01*
X614883Y-696874D01*
X604469Y-691692D01*
X593394Y-688187D01*
X581914Y-686409D01*
X570331Y-686409D01*
X558850Y-688187D01*
X547776Y-691692D01*
X537362Y-696874D01*
X527862Y-703529D01*
X519176Y-711911D01*
X515924Y-713994D01*
X512114Y-714756D01*
X508304Y-713994D01*
X505053Y-711911D01*
X496366Y-703529D01*
X486867Y-696874D01*
X476453Y-691692D01*
X465378Y-688187D01*
X453898Y-686409D01*
X442315Y-686409D01*
X430834Y-688187D01*
X419760Y-691692D01*
X409346Y-696874D01*
X399846Y-703529D01*
X391464Y-711606D01*
X384403Y-720852D01*
X378866Y-731012D01*
X374954Y-741984D01*
X372719Y-753364D01*
X372262Y-764997D01*
X373634Y-776528D01*
X376682Y-787704D01*
X381457Y-798322D01*
X387756Y-808075D01*
X395478Y-816762D01*
X404469Y-824128D01*
X414426Y-830071D01*
X425196Y-834440D01*
X436524Y-837082D01*
G37*
G36*
X6438900Y-594207D02*
G01*
X6459728Y-593242D01*
X6480403Y-590346D01*
X6500723Y-585571D01*
X6520484Y-578967D01*
X6539585Y-570534D01*
X6557822Y-560374D01*
X6575044Y-548589D01*
X6591096Y-535228D01*
X6605828Y-520496D01*
X6619189Y-504443D01*
X6630974Y-487222D01*
X6641134Y-468985D01*
X6649567Y-449884D01*
X6656171Y-430123D01*
X6660946Y-409803D01*
X6663842Y-389128D01*
X6664807Y-368300D01*
X6663842Y-347472D01*
X6660946Y-326796D01*
X6656171Y-306476D01*
X6649567Y-286715D01*
X6641134Y-267614D01*
X6630974Y-249377D01*
X6619189Y-232156D01*
X6605828Y-216103D01*
X6591096Y-201371D01*
X6575044Y-188010D01*
X6557822Y-176225D01*
X6539585Y-166065D01*
X6520484Y-157632D01*
X6500723Y-151028D01*
X6480403Y-146253D01*
X6459728Y-143357D01*
X6438900Y-142392D01*
X6418072Y-143357D01*
X6397396Y-146253D01*
X6377076Y-151028D01*
X6357315Y-157632D01*
X6338214Y-166065D01*
X6319977Y-176225D01*
X6302756Y-188010D01*
X6286703Y-201371D01*
X6271971Y-216103D01*
X6258610Y-232156D01*
X6246825Y-249377D01*
X6236665Y-267614D01*
X6228232Y-286715D01*
X6221628Y-306476D01*
X6216853Y-326796D01*
X6213957Y-347472D01*
X6212992Y-368300D01*
X6213957Y-389128D01*
X6216853Y-409803D01*
X6221628Y-430123D01*
X6228232Y-449884D01*
X6236665Y-468985D01*
X6246825Y-487222D01*
X6258610Y-504443D01*
X6271971Y-520496D01*
X6286703Y-535228D01*
X6302756Y-548589D01*
X6319977Y-560374D01*
X6338214Y-570534D01*
X6357315Y-578967D01*
X6377076Y-585571D01*
X6397396Y-590346D01*
X6418072Y-593242D01*
G37*
G36*
X901700Y-594207D02*
G01*
X922528Y-593242D01*
X943203Y-590346D01*
X963523Y-585571D01*
X983284Y-578967D01*
X1002385Y-570534D01*
X1020622Y-560374D01*
X1037844Y-548589D01*
X1053896Y-535228D01*
X1068628Y-520496D01*
X1081989Y-504443D01*
X1093774Y-487222D01*
X1103934Y-468985D01*
X1112367Y-449884D01*
X1118971Y-430123D01*
X1123746Y-409803D01*
X1126642Y-389128D01*
X1127607Y-368300D01*
X1126642Y-347472D01*
X1123746Y-326796D01*
X1118971Y-306476D01*
X1112367Y-286715D01*
X1103934Y-267614D01*
X1093774Y-249377D01*
X1081989Y-232156D01*
X1068628Y-216103D01*
X1053896Y-201371D01*
X1037844Y-188010D01*
X1020622Y-176225D01*
X1002385Y-166065D01*
X983284Y-157632D01*
X963523Y-151028D01*
X943203Y-146253D01*
X922528Y-143357D01*
X901700Y-142392D01*
X880871Y-143357D01*
X860196Y-146253D01*
X839876Y-151028D01*
X820115Y-157632D01*
X801014Y-166065D01*
X782777Y-176225D01*
X765556Y-188010D01*
X749503Y-201371D01*
X734771Y-216103D01*
X721410Y-232156D01*
X709625Y-249377D01*
X699465Y-267614D01*
X691032Y-286715D01*
X684428Y-306476D01*
X679653Y-326796D01*
X676757Y-347472D01*
X675792Y-368300D01*
X676757Y-389128D01*
X679653Y-409803D01*
X684428Y-430123D01*
X691032Y-449884D01*
X699465Y-468985D01*
X709625Y-487222D01*
X721410Y-504443D01*
X734771Y-520496D01*
X749503Y-535228D01*
X765556Y-548589D01*
X782777Y-560374D01*
X801014Y-570534D01*
X820115Y-578967D01*
X839876Y-585571D01*
X860196Y-590346D01*
X880871Y-593242D01*
G37*
G36*
X1428750Y-282295D02*
G01*
X1430324Y-281635D01*
X1442059Y-274675D01*
X1452778Y-266192D01*
X1462278Y-256387D01*
X1470355Y-245414D01*
X1476095Y-234950D01*
X1428750Y-234950D01*
G37*
G36*
X1339850Y-282295D02*
G01*
X1339850Y-234950D01*
X1292504Y-234950D01*
X1298244Y-245414D01*
X1306322Y-256387D01*
X1315821Y-266192D01*
X1326540Y-274675D01*
X1338275Y-281635D01*
G37*
G36*
X1428750Y-146050D02*
G01*
X1475943Y-146050D01*
X1473809Y-141427D01*
X1466494Y-129946D01*
X1457706Y-119532D01*
X1447546Y-110388D01*
X1436319Y-102666D01*
X1428750Y-98856D01*
G37*
G36*
X1292656Y-146050D02*
G01*
X1339850Y-146050D01*
X1339850Y-98856D01*
X1332280Y-102666D01*
X1321054Y-110388D01*
X1310894Y-119532D01*
X1302105Y-129946D01*
X1294790Y-141427D01*
G37*

%LPD*%
G36*
X3863086Y-6205118D02*
G01*
X3806850Y-6228842D01*
X3861815Y-6312408D01*
X3885539Y-6239256D01*
G37*
G36*
X3681729Y-6258712D02*
G01*
X3621735Y-6288735D01*
X3621735Y-6328714D01*
X3681729Y-6358737D01*
G37*
G36*
X1931670Y-6276949D02*
G01*
X1931670Y-6340449D01*
X1969770Y-6321399D01*
X1969770Y-6295999D01*
G37*
G36*
X1751584Y-6276949D02*
G01*
X1713484Y-6295999D01*
X1713484Y-6321399D01*
X1751584Y-6340449D01*
G37*
G36*
X5423916Y-5997549D02*
G01*
X5423916Y-6061049D01*
X5462016Y-6041999D01*
X5462016Y-6016599D01*
G37*
G36*
X5243830Y-5997549D02*
G01*
X5205730Y-6016599D01*
X5205730Y-6041999D01*
X5243830Y-6061049D01*
G37*
G36*
X3341115Y-6258712D02*
G01*
X3341115Y-6358737D01*
X3401110Y-6328714D01*
X3401110Y-6288735D01*
G37*
G36*
X5764530Y-5997549D02*
G01*
X5726430Y-6016599D01*
X5726430Y-6041999D01*
X5764530Y-6061049D01*
G37*
G36*
X4685030Y-5962497D02*
G01*
X4685030Y-5998413D01*
X4723130Y-6050280D01*
X4723130Y-5986780D01*
G37*
G36*
X4723130Y-6276949D02*
G01*
X4695850Y-6295999D01*
X4695850Y-6321399D01*
X4723130Y-6340449D01*
G37*
G36*
X4279900Y-5943600D02*
G01*
X4260850Y-5949442D01*
X4324350Y-5949442D01*
X4305300Y-5943600D01*
G37*
G36*
X4376267Y-6210249D02*
G01*
X4324553Y-6228842D01*
X4382516Y-6254750D01*
X4401108Y-6221374D01*
G37*
G36*
X6618884Y-2865272D02*
G01*
X6629400Y-2886964D01*
X6654800Y-2886964D01*
X6665315Y-2865272D01*
G37*
G36*
X4694072Y-4066184D02*
G01*
X4694072Y-4112615D01*
X4715764Y-4102100D01*
X4715764Y-4076700D01*
G37*
G36*
X4178300Y-4161536D02*
G01*
X4167784Y-4183227D01*
X4214215Y-4183227D01*
X4203700Y-4161536D01*
G37*
G36*
X7087209Y-2077770D02*
G01*
X7104684Y-2112772D01*
X7144715Y-2112772D01*
X7162190Y-2077770D01*
G37*
G36*
X3395827Y-5539384D02*
G01*
X3374136Y-5549900D01*
X3374136Y-5575300D01*
X3395827Y-5585815D01*
G37*
G36*
X2824937Y-5344769D02*
G01*
X2792069Y-5377637D01*
X2814828Y-5385511D01*
X2832811Y-5367528D01*
G37*
G36*
X2608427Y-4701184D02*
G01*
X2586736Y-4704384D01*
X2586736Y-4744415D01*
X2608427Y-4747615D01*
G37*
G36*
X3309772Y-4967884D02*
G01*
X3309772Y-5014315D01*
X3331464Y-5003800D01*
X3331464Y-4978400D01*
G37*
G36*
X3097885Y-3578250D02*
G01*
X3044850Y-3631285D01*
X3081985Y-3643680D01*
X3110280Y-3615385D01*
G37*
G36*
X3081070Y-3543909D02*
G01*
X3081070Y-3618890D01*
X3116072Y-3601415D01*
X3116072Y-3561384D01*
G37*
G36*
X7198614Y-4939182D02*
G01*
X7131659Y-4944364D01*
X7110730Y-4979974D01*
X7138771Y-5041036D01*
G37*
G36*
X7161530Y-4957470D02*
G01*
X7106412Y-4996484D01*
X7106412Y-5036515D01*
X7161530Y-5075529D01*
G37*
G36*
X7161530Y-5211470D02*
G01*
X7106412Y-5257800D01*
X7106412Y-5283200D01*
X7161530Y-5329529D01*
G37*
G36*
X2780995Y-1390751D02*
G01*
X2781198Y-1505051D01*
X2834436Y-1460500D01*
X2834436Y-1435100D01*
G37*
G36*
X2197506Y-133350D02*
G01*
X2144166Y-170484D01*
X2144166Y-210515D01*
X2197506Y-247650D01*
G37*
G36*
X1286967Y-5954522D02*
G01*
X1258722Y-5982817D01*
X1270152Y-6046774D01*
X1350975Y-5965952D01*
G37*
G36*
X1403197Y-6245453D02*
G01*
X1389227Y-6358940D01*
X1447596Y-6321399D01*
X1450746Y-6295999D01*
G37*
G36*
X1300988Y-5325516D02*
G01*
X1194003Y-5347716D01*
X1334871Y-5459831D01*
X1332484Y-5350560D01*
G37*
G36*
X4774336Y-5784596D02*
G01*
X4703572Y-5809538D01*
X4737303Y-5834735D01*
X4763871Y-5825388D01*
G37*
G36*
X4561789Y-5796940D02*
G01*
X4584700Y-5833160D01*
X4610100Y-5834532D01*
X4636668Y-5800852D01*
G37*
G36*
X4523892Y-5762752D02*
G01*
X4470857Y-5815787D01*
X4512208Y-5822086D01*
X4530191Y-5804103D01*
G37*
G36*
X4307789Y-5796940D02*
G01*
X4330700Y-5833160D01*
X4356100Y-5834532D01*
X4382668Y-5800852D01*
G37*
G36*
X4180789Y-5796940D02*
G01*
X4203700Y-5833160D01*
X4229100Y-5834532D01*
X4255668Y-5800852D01*
G37*
G36*
X3982415Y-5696864D02*
G01*
X3942384Y-5698947D01*
X3926789Y-5734812D01*
X4001668Y-5730849D01*
G37*
G36*
X3926789Y-5796940D02*
G01*
X3942384Y-5832805D01*
X3982415Y-5834888D01*
X4001668Y-5800852D01*
G37*
G36*
X3797757Y-5710224D02*
G01*
X3780485Y-5728817D01*
X3789222Y-5770829D01*
X3840276Y-5715914D01*
G37*
D10*
X4673600Y-4089400D02*
G01*
X6489700Y-4089400D01*
X6642100Y-3937000D01*
X6642100Y-2844800D01*
X4191000Y-4203700D02*
G01*
X4191000Y-3644900D01*
X4025900Y-3479800D01*
X3251200Y-3479800D01*
X3149600Y-3378200D01*
X3149600Y-1587500D01*
X3009645Y-1447800D01*
X2730754Y-1447800D01*
D11*
X3048000Y-3581400D02*
G01*
X3200400Y-3733800D01*
X3200400Y-5092700D01*
X3289300Y-5181600D01*
X3924300Y-5181600D01*
X3962400Y-5219700D01*
X3962400Y-5769457D01*
X7175500Y-5016500D02*
G01*
X6972300Y-4813300D01*
X6972300Y-2692400D01*
X7124700Y-2540000D01*
X7124700Y-2044700D01*
D10*
X3416300Y-5562600D02*
G01*
X2336800Y-5562600D01*
X2120900Y-5778500D01*
X2120900Y-6223000D01*
X2032000Y-6311900D01*
X2028825Y-6308725D01*
X1841500Y-6308725D01*
X3838981Y-5765876D02*
G01*
X3835476Y-5765876D01*
X3505200Y-5435600D01*
X2882900Y-5435600D01*
X2794000Y-5346700D01*
D11*
X1215009Y-5465876D02*
G01*
X1215009Y-5439790D01*
X1930400Y-4724400D01*
X2628900Y-4724400D01*
D10*
X3289300Y-4991100D02*
G01*
X4470400Y-4991100D01*
X4749800Y-5270500D01*
X7175500Y-5270500D01*
D11*
X7175500Y-5016500D02*
G01*
X4686300Y-5016500D01*
X3251200Y-3581400D01*
X3048000Y-3581400D01*
D10*
X5334000Y-6029325D02*
G01*
X5854700Y-6029325D01*
X4727981Y-5765876D02*
G01*
X4727981Y-5807481D01*
X4787900Y-5867400D01*
X4978400Y-5867400D01*
X5118100Y-6007100D01*
X5140325Y-6029325D01*
X5334000Y-6029325D01*
X4813300Y-6029325D02*
G01*
X4733925Y-6029325D01*
X4597400Y-5892800D01*
X4597400Y-5769457D01*
X4600981Y-5765876D01*
X4813300Y-6308725D02*
G01*
X4695825Y-6308725D01*
X4521200Y-6134100D01*
X4521200Y-5813094D01*
X4473981Y-5765876D01*
X4292600Y-6308725D02*
G01*
X4295775Y-6308725D01*
X4432300Y-6172200D01*
X4432300Y-5930900D01*
X4343400Y-5842000D01*
X4343400Y-5769457D01*
X4346981Y-5765876D01*
X4292600Y-6029325D02*
G01*
X4292600Y-5943600D01*
X4216400Y-5867400D01*
X4216400Y-5769457D01*
X4219981Y-5765876D01*
D11*
X3771900Y-6308725D02*
G01*
X3787775Y-6308725D01*
X3962400Y-6134100D01*
X3962400Y-5769457D01*
X3965981Y-5765876D01*
X3251200Y-6308725D02*
G01*
X3771900Y-6308725D01*
X2247900Y-190500D02*
G01*
X1765300Y-190500D01*
X825500Y-1130300D01*
X825500Y-5521325D01*
X1346200Y-6042025D01*
D10*
X1346200Y-6296025D02*
G01*
X1358900Y-6308725D01*
X1841500Y-6308725D01*
G36*
X4382515Y-6388862D02*
G01*
X4382515Y-6228842D01*
X4202429Y-6228842D01*
X4202429Y-6388862D01*
G37*
G36*
X4382515Y-6109462D02*
G01*
X4382515Y-5949442D01*
X4202429Y-5949442D01*
X4202429Y-6109462D01*
G37*
G36*
X4903215Y-6388862D02*
G01*
X4903215Y-6228842D01*
X4723129Y-6228842D01*
X4723129Y-6388862D01*
G37*
G36*
X4903215Y-6109462D02*
G01*
X4903215Y-5949442D01*
X4723129Y-5949442D01*
X4723129Y-6109462D01*
G37*
G36*
X5944615Y-6388862D02*
G01*
X5944615Y-6228842D01*
X5764529Y-6228842D01*
X5764529Y-6388862D01*
G37*
G36*
X5944615Y-6109462D02*
G01*
X5944615Y-5949442D01*
X5764529Y-5949442D01*
X5764529Y-6109462D01*
G37*
G36*
X3341115Y-6388862D02*
G01*
X3341115Y-6228842D01*
X3161029Y-6228842D01*
X3161029Y-6388862D01*
G37*
G36*
X3341115Y-6109462D02*
G01*
X3341115Y-5949442D01*
X3161029Y-5949442D01*
X3161029Y-6109462D01*
G37*
G36*
X5423915Y-6388862D02*
G01*
X5423915Y-6228842D01*
X5243829Y-6228842D01*
X5243829Y-6388862D01*
G37*
G36*
X5423915Y-6109462D02*
G01*
X5423915Y-5949442D01*
X5243829Y-5949442D01*
X5243829Y-6109462D01*
G37*
G36*
X1751584Y-5949442D02*
G01*
X1751584Y-6109462D01*
X1931670Y-6109462D01*
X1931670Y-5949442D01*
G37*
G36*
X1751584Y-6228842D02*
G01*
X1751584Y-6388862D01*
X1931670Y-6388862D01*
X1931670Y-6228842D01*
G37*
G36*
X3861815Y-6388862D02*
G01*
X3861815Y-6228842D01*
X3681729Y-6228842D01*
X3681729Y-6388862D01*
G37*
G36*
X3861815Y-6109462D02*
G01*
X3861815Y-5949442D01*
X3681729Y-5949442D01*
X3681729Y-6109462D01*
G37*
D13*
G01*
X2315006Y-5765876D03*
G01*
X2441981Y-5765876D03*
G01*
X2568981Y-5765876D03*
G01*
X2695981Y-5765876D03*
G01*
X2822981Y-5765876D03*
G01*
X2949981Y-5765876D03*
G01*
X3076981Y-5765876D03*
G01*
X3203981Y-5765876D03*
G01*
X3330981Y-5765876D03*
G01*
X3457981Y-5765876D03*
G01*
X3584981Y-5765876D03*
G01*
X3711981Y-5765876D03*
G01*
X3838981Y-5765876D03*
G01*
X3965981Y-5765876D03*
G01*
X4092981Y-5765876D03*
G01*
X4219981Y-5765876D03*
G01*
X4346981Y-5765876D03*
G01*
X4473981Y-5765876D03*
G01*
X4600981Y-5765876D03*
G01*
X4727981Y-5765876D03*
G01*
X4854981Y-5765876D03*
G01*
X4982006Y-5765876D03*
G01*
X6721906Y-5765876D03*
G01*
X6849897Y-5765876D03*
G01*
X448106Y-5765876D03*
G01*
X576097Y-5765876D03*
G01*
X6721906Y-762076D03*
G01*
X6849897Y-762076D03*
G01*
X448106Y-762076D03*
G01*
X576122Y-762076D03*
D25*
G01*
X1215009Y-5465876D03*
G01*
X6114999Y-5465876D03*
D26*
G01*
X1346200Y-6296025D03*
G01*
X1346200Y-6042025D03*
D27*
G01*
X1384300Y-1714500D03*
D26*
G01*
X1384300Y-190500D03*
G01*
X2247900Y-190500D03*
G01*
X2247900Y-1714500D03*
G01*
X2730703Y-939952D03*
G01*
X2730703Y-1193952D03*
G01*
X2730703Y-1447952D03*
G01*
X2730703Y-1701952D03*
D28*
G01*
X7213600Y-5524500D03*
G01*
X7213600Y-5270500D03*
G01*
X7213600Y-5016500D03*
G01*
X7213600Y-4762500D03*
G01*
X7213600Y-4508500D03*
D29*
G01*
X7213600Y-4254500D03*
G01*
X114300Y-4000500D03*
D28*
G01*
X114300Y-3746500D03*
G01*
X114300Y-3492500D03*
G01*
X114300Y-3238500D03*
G36*
X35560Y-2702560D02*
G01*
X193039Y-2702560D01*
X193039Y-2860039D01*
X35560Y-2860039D01*
G37*
G01*
X114300Y-2527300D03*
D30*
G01*
X6438900Y-6184900D03*
G01*
X901700Y-6184900D03*
G01*
X6438900Y-368300D03*
G01*
X901700Y-368300D03*
D13*
G01*
X3048000Y-3581400D03*
D14*
G01*
X3289300Y-4991100D03*
G01*
X2628900Y-4724400D03*
G01*
X2794000Y-5346700D03*
G01*
X3416300Y-5562600D03*
D13*
G01*
X7124700Y-2044700D03*
D14*
G01*
X4191000Y-4203700D03*
G01*
X4673600Y-4089400D03*
G01*
X6642100Y-2844800D03*
M02*
