G04 Layer: TopSilkLayer*
G04 EasyEDA v6.4.25, 2021-11-06T18:35:38+01:00*
G04 257399e89a0843229902440734c7eb75,b8d8dd1b48584f29be867e52f4c70977,10*
G04 Gerber Generator version 0.2*
G04 Scale: 100 percent, Rotated: No, Reflected: No *
G04 Dimensions in millimeters *
G04 leading zeros omitted , absolute positions ,4 integer and 5 decimal *
%FSLAX45Y45*%
%MOMM*%

%ADD10C,0.2540*%
%ADD31C,0.2032*%
%ADD32C,0.2030*%
%ADD33C,0.1524*%

%LPD*%
G36*
X6194450Y-2674721D02*
G01*
X6193332Y-2675229D01*
X6189065Y-2679293D01*
X6182461Y-2686862D01*
X6173927Y-2697327D01*
X6164021Y-2710180D01*
X6128969Y-2758186D01*
X6119723Y-2770073D01*
X6115812Y-2774645D01*
X6112256Y-2778404D01*
X6109004Y-2781401D01*
X6106007Y-2783738D01*
X6103112Y-2785465D01*
X6100368Y-2786583D01*
X6097574Y-2787243D01*
X6094730Y-2787446D01*
X6091732Y-2787294D01*
X6080658Y-2785313D01*
X6076645Y-2784906D01*
X6072886Y-2784906D01*
X6069279Y-2785516D01*
X6065621Y-2786684D01*
X6061862Y-2788615D01*
X6057900Y-2791256D01*
X6053531Y-2794711D01*
X6048705Y-2799080D01*
X6037122Y-2810865D01*
X5996025Y-2855214D01*
X5496001Y-2855417D01*
X5366105Y-2856128D01*
X5316321Y-2856636D01*
X5279085Y-2857246D01*
X5250891Y-2858211D01*
X5249621Y-2858516D01*
X5252821Y-2864053D01*
X5275630Y-2899003D01*
X5295223Y-2928366D01*
X5952337Y-2928366D01*
X5952896Y-2926537D01*
X5954623Y-2923540D01*
X5961684Y-2914142D01*
X5966917Y-2907690D01*
X5985256Y-2886557D01*
X6005220Y-2864510D01*
X6033719Y-2833827D01*
X6046876Y-2820212D01*
X6057138Y-2810408D01*
X6061405Y-2806750D01*
X6065164Y-2803906D01*
X6068517Y-2801823D01*
X6071616Y-2800350D01*
X6074460Y-2799486D01*
X6077153Y-2799181D01*
X6079794Y-2799334D01*
X6082487Y-2799943D01*
X6094120Y-2804566D01*
X6096711Y-2805176D01*
X6099251Y-2805379D01*
X6101791Y-2805023D01*
X6104382Y-2804160D01*
X6107074Y-2802585D01*
X6110071Y-2800350D01*
X6113322Y-2797302D01*
X6116980Y-2793441D01*
X6125718Y-2782925D01*
X6136995Y-2768193D01*
X6196533Y-2687269D01*
X6224219Y-2714294D01*
X6230315Y-2719984D01*
X6236157Y-2724962D01*
X6241643Y-2729128D01*
X6246672Y-2732430D01*
X6251143Y-2734818D01*
X6255004Y-2736240D01*
X6258153Y-2736697D01*
X6262116Y-2735580D01*
X6264300Y-2735834D01*
X6267043Y-2736799D01*
X6270294Y-2738374D01*
X6278270Y-2743504D01*
X6287922Y-2751023D01*
X6299098Y-2760827D01*
X6311544Y-2772714D01*
X6353962Y-2814675D01*
X6408470Y-2760065D01*
X6441541Y-2798470D01*
X6476593Y-2840532D01*
X6544360Y-2923794D01*
X6413296Y-2795371D01*
X6401765Y-2834284D01*
X6400088Y-2841752D01*
X6399072Y-2848508D01*
X6398666Y-2854807D01*
X6398869Y-2860751D01*
X6399733Y-2866593D01*
X6401257Y-2872587D01*
X6406438Y-2887726D01*
X6408572Y-2895447D01*
X6409486Y-2901086D01*
X6409131Y-2903931D01*
X6408521Y-2903778D01*
X6407251Y-2902966D01*
X6403035Y-2899105D01*
X6396634Y-2892755D01*
X6378600Y-2873502D01*
X6355334Y-2847492D01*
X6326174Y-2813913D01*
X6302248Y-2787091D01*
X6294018Y-2778506D01*
X6287770Y-2772867D01*
X6285331Y-2770987D01*
X6283248Y-2769768D01*
X6281572Y-2769158D01*
X6280200Y-2769108D01*
X6279083Y-2769565D01*
X6278168Y-2770530D01*
X6277508Y-2771902D01*
X6276543Y-2776016D01*
X6276187Y-2778607D01*
X6276035Y-2782112D01*
X6276390Y-2786227D01*
X6277152Y-2790952D01*
X6278422Y-2796235D01*
X6282283Y-2808427D01*
X6284874Y-2815336D01*
X6291326Y-2830525D01*
X6299454Y-2847543D01*
X6315303Y-2878937D01*
X6321094Y-2891282D01*
X6325260Y-2900984D01*
X6327648Y-2907588D01*
X6328054Y-2909570D01*
X6327902Y-2910535D01*
X6327241Y-2910484D01*
X6324650Y-2907792D01*
X6320028Y-2901899D01*
X6305600Y-2881782D01*
X6286144Y-2853131D01*
X6263690Y-2818993D01*
X6207252Y-2731871D01*
X6178092Y-2779014D01*
X6173012Y-2786532D01*
X6168796Y-2792120D01*
X6165392Y-2795879D01*
X6162751Y-2797810D01*
X6160719Y-2798013D01*
X6159246Y-2796590D01*
X6157671Y-2792222D01*
X6156553Y-2792222D01*
X6154978Y-2793441D01*
X6152946Y-2795879D01*
X6150508Y-2799486D01*
X6144564Y-2810052D01*
X6137249Y-2824734D01*
X6128816Y-2843276D01*
X6111544Y-2882747D01*
X6103874Y-2899511D01*
X6097219Y-2913481D01*
X6091936Y-2923794D01*
X6088430Y-2929737D01*
X6087414Y-2930855D01*
X6086398Y-2930804D01*
X6085636Y-2929280D01*
X6085078Y-2926486D01*
X6084671Y-2922524D01*
X6084671Y-2911703D01*
X6086449Y-2887726D01*
X6086754Y-2879242D01*
X6086500Y-2872130D01*
X6085636Y-2866136D01*
X6084112Y-2861056D01*
X6081826Y-2856585D01*
X6078778Y-2852470D01*
X6074867Y-2848457D01*
X6070193Y-2844241D01*
X6066180Y-2841498D01*
X6062421Y-2840329D01*
X6058306Y-2840939D01*
X6053378Y-2843530D01*
X6047181Y-2848254D01*
X6039154Y-2855315D01*
X6010198Y-2881985D01*
X5989421Y-2900730D01*
X5973216Y-2914650D01*
X5961634Y-2923895D01*
X5957570Y-2926791D01*
X5954623Y-2928467D01*
X5952896Y-2928975D01*
X5952439Y-2928823D01*
X5952337Y-2928366D01*
X5295223Y-2928366D01*
X5361949Y-3026867D01*
X5755030Y-3026867D01*
X5755436Y-3026003D01*
X5756656Y-3025190D01*
X5761228Y-3023819D01*
X5768441Y-3022752D01*
X5777941Y-3021888D01*
X5789422Y-3021279D01*
X5816854Y-3020771D01*
X5848045Y-3021126D01*
X5864148Y-3021584D01*
X5895797Y-3023158D01*
X5924346Y-3025444D01*
X5936640Y-3026816D01*
X5947105Y-3028340D01*
X5955436Y-3030016D01*
X5961329Y-3031845D01*
X5968898Y-3035401D01*
X5972403Y-3037382D01*
X5978753Y-3041802D01*
X5981649Y-3044240D01*
X5984392Y-3046933D01*
X5986881Y-3049778D01*
X5989269Y-3052927D01*
X5991453Y-3056280D01*
X5995314Y-3063798D01*
X5997041Y-3067964D01*
X5999988Y-3077311D01*
X6002426Y-3088081D01*
X6004306Y-3100374D01*
X6005728Y-3114294D01*
X6006744Y-3130042D01*
X6007404Y-3147669D01*
X6007658Y-3167430D01*
X6007658Y-3188716D01*
X6007354Y-3208223D01*
X6006744Y-3225444D01*
X6005830Y-3240430D01*
X6004610Y-3253282D01*
X6003036Y-3264052D01*
X6001156Y-3272790D01*
X6000089Y-3276447D01*
X5997702Y-3282289D01*
X5992825Y-3292703D01*
X5991453Y-3300120D01*
X5993638Y-3306368D01*
X6001207Y-3315106D01*
X6002782Y-3317341D01*
X6004204Y-3319983D01*
X6005474Y-3323082D01*
X6006642Y-3326688D01*
X6008624Y-3335680D01*
X6010198Y-3347465D01*
X6011519Y-3362502D01*
X6012535Y-3381298D01*
X6014008Y-3429508D01*
X6014262Y-3451504D01*
X6014212Y-3471214D01*
X6013754Y-3488791D01*
X6012840Y-3504387D01*
X6011418Y-3518204D01*
X6009538Y-3530346D01*
X6008420Y-3535832D01*
X6005677Y-3545789D01*
X6002375Y-3554476D01*
X6000496Y-3558387D01*
X5998413Y-3562045D01*
X5993790Y-3568649D01*
X5988507Y-3574440D01*
X5982411Y-3579571D01*
X5975604Y-3584244D01*
X5967984Y-3588613D01*
X5964584Y-3590290D01*
X6037834Y-3590290D01*
X6038291Y-3585413D01*
X6040678Y-3572306D01*
X6046724Y-3532581D01*
X6055664Y-3470452D01*
X6089751Y-3226054D01*
X6118707Y-3021279D01*
X6163513Y-3021380D01*
X6171844Y-3021787D01*
X6178042Y-3022752D01*
X6182512Y-3024581D01*
X6185611Y-3027426D01*
X6187795Y-3031591D01*
X6189472Y-3037281D01*
X6192113Y-3051911D01*
X6197498Y-3090011D01*
X6204966Y-3147009D01*
X6217970Y-3249930D01*
X6232804Y-3362350D01*
X6249822Y-3485794D01*
X6255105Y-3525367D01*
X6258458Y-3554476D01*
X6259479Y-3568649D01*
X6282994Y-3568649D01*
X6283452Y-3561486D01*
X6284264Y-3553866D01*
X6285280Y-3548126D01*
X6286855Y-3544011D01*
X6289192Y-3541268D01*
X6292596Y-3539693D01*
X6297371Y-3539083D01*
X6303873Y-3539185D01*
X6319418Y-3540302D01*
X6325514Y-3540302D01*
X6330594Y-3539744D01*
X6334912Y-3538626D01*
X6338519Y-3536950D01*
X6341567Y-3534562D01*
X6344208Y-3531514D01*
X6346596Y-3527704D01*
X6347307Y-3525672D01*
X6348018Y-3522421D01*
X6349339Y-3512413D01*
X6350508Y-3497681D01*
X6351473Y-3478276D01*
X6352336Y-3454298D01*
X6353606Y-3392627D01*
X6354216Y-3313125D01*
X6354318Y-3020466D01*
X6415684Y-3024886D01*
X6415582Y-3365804D01*
X6415024Y-3447592D01*
X6414465Y-3477361D01*
X6413601Y-3500932D01*
X6412484Y-3519220D01*
X6411010Y-3533190D01*
X6409182Y-3543808D01*
X6408115Y-3548126D01*
X6405575Y-3555339D01*
X6402578Y-3561537D01*
X6399682Y-3566312D01*
X6396329Y-3570935D01*
X6392570Y-3575304D01*
X6388404Y-3579469D01*
X6383883Y-3583381D01*
X6379057Y-3587038D01*
X6373926Y-3590442D01*
X6368491Y-3593592D01*
X6362852Y-3596386D01*
X6354441Y-3599789D01*
X6446672Y-3599789D01*
X6453174Y-3540658D01*
X6460032Y-3488029D01*
X6475018Y-3383686D01*
X6489954Y-3276142D01*
X6506108Y-3154527D01*
X6515455Y-3086252D01*
X6522110Y-3041243D01*
X6524142Y-3030321D01*
X6525209Y-3029102D01*
X6527596Y-3027934D01*
X6531152Y-3026867D01*
X6535724Y-3025851D01*
X6547510Y-3024124D01*
X6562090Y-3022701D01*
X6578447Y-3021685D01*
X6595719Y-3021076D01*
X6612890Y-3020872D01*
X6629044Y-3021076D01*
X6643268Y-3021787D01*
X6654596Y-3022955D01*
X6658864Y-3023717D01*
X6662064Y-3024632D01*
X6664096Y-3025648D01*
X6664807Y-3026867D01*
X6664147Y-3028340D01*
X6662216Y-3030423D01*
X6659219Y-3033014D01*
X6655257Y-3036011D01*
X6644894Y-3042818D01*
X6632295Y-3050184D01*
X6622440Y-3055670D01*
X6614871Y-3060344D01*
X6609334Y-3064560D01*
X6605574Y-3068574D01*
X6603288Y-3072790D01*
X6602323Y-3077464D01*
X6602425Y-3083001D01*
X6611264Y-3144774D01*
X6624624Y-3244494D01*
X6658914Y-3509314D01*
X6668008Y-3573424D01*
X6670243Y-3585464D01*
X6670751Y-3590290D01*
X6670141Y-3593846D01*
X6668211Y-3596233D01*
X6664553Y-3597706D01*
X6658965Y-3598519D01*
X6651040Y-3598824D01*
X6607911Y-3598875D01*
X6601815Y-3554069D01*
X6599224Y-3536899D01*
X6597954Y-3530041D01*
X6596634Y-3524300D01*
X6595109Y-3519474D01*
X6593382Y-3515512D01*
X6591350Y-3512362D01*
X6588963Y-3509924D01*
X6586118Y-3508095D01*
X6582816Y-3506825D01*
X6578904Y-3505911D01*
X6574332Y-3505403D01*
X6563055Y-3505047D01*
X6549237Y-3505098D01*
X6537807Y-3505606D01*
X6533184Y-3506317D01*
X6529222Y-3507333D01*
X6525818Y-3508857D01*
X6522974Y-3510889D01*
X6520586Y-3513531D01*
X6518656Y-3516833D01*
X6517030Y-3520948D01*
X6515709Y-3525926D01*
X6514592Y-3531819D01*
X6512915Y-3546754D01*
X6510781Y-3575862D01*
X6509816Y-3583025D01*
X6508292Y-3588258D01*
X6505752Y-3591864D01*
X6501841Y-3594252D01*
X6496202Y-3595776D01*
X6488379Y-3596741D01*
X6446672Y-3599789D01*
X6354441Y-3599789D01*
X6351016Y-3601008D01*
X6344818Y-3602786D01*
X6338519Y-3604209D01*
X6332169Y-3605276D01*
X6325768Y-3605885D01*
X6319316Y-3606139D01*
X6312916Y-3605834D01*
X6307074Y-3604920D01*
X6301892Y-3603345D01*
X6297371Y-3601212D01*
X6293459Y-3598468D01*
X6290157Y-3595065D01*
X6287516Y-3591051D01*
X6285433Y-3586378D01*
X6284010Y-3581095D01*
X6283198Y-3575202D01*
X6282994Y-3568649D01*
X6259479Y-3568649D01*
X6259677Y-3574796D01*
X6259423Y-3582111D01*
X6258661Y-3587800D01*
X6257239Y-3592068D01*
X6256324Y-3593693D01*
X6255258Y-3595065D01*
X6252667Y-3596995D01*
X6249416Y-3598062D01*
X6245555Y-3598418D01*
X6240983Y-3598367D01*
X6222593Y-3596843D01*
X6216243Y-3595878D01*
X6210909Y-3594658D01*
X6206439Y-3593134D01*
X6202934Y-3591407D01*
X6200292Y-3589375D01*
X6198616Y-3587038D01*
X6197803Y-3584448D01*
X6187236Y-3504336D01*
X6112459Y-3508654D01*
X6099606Y-3598875D01*
X6057239Y-3598824D01*
X6049467Y-3598519D01*
X6043980Y-3597706D01*
X6040374Y-3596182D01*
X6038443Y-3593795D01*
X6037834Y-3590290D01*
X5964584Y-3590290D01*
X5960567Y-3592068D01*
X5956757Y-3593439D01*
X5948527Y-3595573D01*
X5939028Y-3596995D01*
X5927648Y-3597757D01*
X5913831Y-3597960D01*
X5897016Y-3597656D01*
X5823610Y-3595268D01*
X5819851Y-3067812D01*
X5780938Y-3046425D01*
X5774842Y-3042818D01*
X5764580Y-3035960D01*
X5757621Y-3030423D01*
X5755690Y-3028340D01*
X5755030Y-3026867D01*
X5361949Y-3026867D01*
X5531053Y-3276142D01*
X5688177Y-3506825D01*
X5727903Y-3565448D01*
X5761736Y-3615842D01*
X5789422Y-3657498D01*
X5810605Y-3689858D01*
X5825032Y-3712565D01*
X5832348Y-3725062D01*
X5833211Y-3727043D01*
X5833211Y-3729278D01*
X5832094Y-3731158D01*
X5829808Y-3732682D01*
X5826201Y-3733952D01*
X5821324Y-3734917D01*
X5815076Y-3735578D01*
X5798413Y-3736086D01*
X5786424Y-3736136D01*
X5777382Y-3736441D01*
X5770880Y-3737254D01*
X5766562Y-3738727D01*
X5764072Y-3741115D01*
X5763006Y-3744671D01*
X5762955Y-3749497D01*
X5763786Y-3757574D01*
X5780278Y-3757574D01*
X5780735Y-3757168D01*
X5784748Y-3756304D01*
X5790946Y-3755644D01*
X5811316Y-3754475D01*
X5842355Y-3753408D01*
X5883960Y-3752545D01*
X5998718Y-3751224D01*
X6155283Y-3750614D01*
X6353352Y-3750614D01*
X6507276Y-3751326D01*
X6568998Y-3751884D01*
X6620509Y-3752646D01*
X6661607Y-3753561D01*
X6703669Y-3755186D01*
X6718401Y-3756507D01*
X6721805Y-3757168D01*
X6722465Y-3757574D01*
X6722465Y-3757929D01*
X6720484Y-3758641D01*
X6715810Y-3759352D01*
X6698538Y-3760571D01*
X6670751Y-3761689D01*
X6632600Y-3762603D01*
X6584137Y-3763416D01*
X6456781Y-3764483D01*
X6378041Y-3764787D01*
X6162040Y-3764889D01*
X6007252Y-3764229D01*
X5944412Y-3763670D01*
X5891479Y-3762908D01*
X5848604Y-3762044D01*
X5815990Y-3760978D01*
X5793740Y-3759809D01*
X5786628Y-3759149D01*
X5782106Y-3758488D01*
X5780887Y-3758133D01*
X5780278Y-3757574D01*
X5763786Y-3757574D01*
X5764834Y-3764178D01*
X5765901Y-3767277D01*
X5767425Y-3769817D01*
X5769660Y-3771849D01*
X5772759Y-3773474D01*
X5776925Y-3774694D01*
X5782310Y-3775659D01*
X5789117Y-3776421D01*
X5807811Y-3777538D01*
X5874156Y-3780332D01*
X5912251Y-3837025D01*
X5972251Y-3837025D01*
X5972454Y-3827424D01*
X5972962Y-3820210D01*
X5973978Y-3815029D01*
X5975553Y-3811676D01*
X5977737Y-3809847D01*
X5980582Y-3809237D01*
X5984290Y-3809644D01*
X5987694Y-3810711D01*
X5990488Y-3812540D01*
X5992774Y-3815334D01*
X5994501Y-3819296D01*
X5995822Y-3824528D01*
X5996736Y-3831234D01*
X5997346Y-3839667D01*
X5997702Y-3857498D01*
X5996990Y-3871010D01*
X5996381Y-3876598D01*
X5995568Y-3881221D01*
X5994876Y-3883609D01*
X6007608Y-3883609D01*
X6007862Y-3879799D01*
X6012027Y-3856126D01*
X6013551Y-3844696D01*
X6014567Y-3834028D01*
X6015532Y-3818280D01*
X6017107Y-3813098D01*
X6019342Y-3809898D01*
X6022035Y-3808729D01*
X6024981Y-3809593D01*
X6027877Y-3812540D01*
X6030417Y-3817467D01*
X6032449Y-3824528D01*
X6035903Y-3842613D01*
X6038267Y-3857751D01*
X6052108Y-3857751D01*
X6053074Y-3824224D01*
X6053582Y-3817162D01*
X6053836Y-3815791D01*
X6054140Y-3815892D01*
X6054852Y-3820312D01*
X6057188Y-3843731D01*
X6059662Y-3858107D01*
X6088176Y-3858107D01*
X6089751Y-3804665D01*
X6090959Y-3820210D01*
X6119164Y-3820210D01*
X6119774Y-3815537D01*
X6121095Y-3812540D01*
X6123279Y-3810863D01*
X6126327Y-3810203D01*
X6130391Y-3810254D01*
X6134354Y-3810812D01*
X6137351Y-3811981D01*
X6139535Y-3814064D01*
X6140907Y-3817315D01*
X6141516Y-3821988D01*
X6141516Y-3828440D01*
X6140907Y-3836924D01*
X6139752Y-3847998D01*
X6181039Y-3847998D01*
X6181140Y-3837432D01*
X6181547Y-3828796D01*
X6182258Y-3821887D01*
X6183325Y-3816553D01*
X6184798Y-3812692D01*
X6186728Y-3810152D01*
X6189167Y-3808729D01*
X6192113Y-3808272D01*
X6196736Y-3809187D01*
X6201156Y-3811574D01*
X6204864Y-3815079D01*
X6207404Y-3819448D01*
X6208928Y-3824782D01*
X6209131Y-3829304D01*
X6208318Y-3832860D01*
X6206642Y-3835247D01*
X6204254Y-3836263D01*
X6201410Y-3835806D01*
X6198362Y-3833672D01*
X6195212Y-3829761D01*
X6192113Y-3826510D01*
X6190030Y-3828287D01*
X6188862Y-3835400D01*
X6188572Y-3844391D01*
X6217767Y-3844391D01*
X6217818Y-3834384D01*
X6218631Y-3826103D01*
X6220206Y-3819499D01*
X6222644Y-3814470D01*
X6225844Y-3810965D01*
X6229959Y-3808933D01*
X6234938Y-3808272D01*
X6237884Y-3808729D01*
X6240322Y-3810152D01*
X6242253Y-3812743D01*
X6243726Y-3816654D01*
X6244793Y-3822039D01*
X6245504Y-3828999D01*
X6245910Y-3837787D01*
X6246001Y-3849776D01*
X6260947Y-3849776D01*
X6261354Y-3835501D01*
X6261963Y-3829253D01*
X6262776Y-3823665D01*
X6263792Y-3818788D01*
X6264960Y-3814673D01*
X6266180Y-3811422D01*
X6267500Y-3809034D01*
X6268821Y-3807612D01*
X6270193Y-3807155D01*
X6271463Y-3807714D01*
X6272682Y-3809390D01*
X6273749Y-3812235D01*
X6274714Y-3816248D01*
X6275476Y-3821531D01*
X6277051Y-3847998D01*
X6280099Y-3827729D01*
X6281166Y-3821988D01*
X6282436Y-3817365D01*
X6283858Y-3813810D01*
X6285382Y-3811320D01*
X6287008Y-3809796D01*
X6288684Y-3809288D01*
X6290360Y-3809644D01*
X6292037Y-3810914D01*
X6293662Y-3813048D01*
X6295136Y-3815994D01*
X6296558Y-3819702D01*
X6297726Y-3824122D01*
X6298742Y-3829253D01*
X6299504Y-3835095D01*
X6300012Y-3841496D01*
X6300154Y-3847998D01*
X6310985Y-3847998D01*
X6311087Y-3836263D01*
X6311493Y-3827068D01*
X6312204Y-3820109D01*
X6313474Y-3815029D01*
X6315303Y-3811625D01*
X6317843Y-3809593D01*
X6321196Y-3808577D01*
X6325463Y-3808272D01*
X6332423Y-3809288D01*
X6336893Y-3812794D01*
X6339179Y-3819448D01*
X6339890Y-3829964D01*
X6339332Y-3838346D01*
X6337757Y-3845255D01*
X6335471Y-3849878D01*
X6332677Y-3851605D01*
X6329832Y-3853027D01*
X6327546Y-3856888D01*
X6326993Y-3858971D01*
X6355232Y-3858971D01*
X6356654Y-3804665D01*
X6366408Y-3884117D01*
X6367983Y-3835196D01*
X6368542Y-3827322D01*
X6369304Y-3821074D01*
X6370269Y-3816451D01*
X6371488Y-3813352D01*
X6372860Y-3811828D01*
X6374536Y-3811727D01*
X6376466Y-3813098D01*
X6377940Y-3815283D01*
X6379260Y-3818534D01*
X6380327Y-3822801D01*
X6381262Y-3828440D01*
X6395770Y-3828440D01*
X6396024Y-3821531D01*
X6396736Y-3816299D01*
X6397904Y-3812489D01*
X6399631Y-3810050D01*
X6401968Y-3808679D01*
X6404864Y-3808272D01*
X6407759Y-3808679D01*
X6410096Y-3810050D01*
X6411823Y-3812489D01*
X6412992Y-3816299D01*
X6413703Y-3821531D01*
X6413957Y-3828440D01*
X6413754Y-3837228D01*
X6413195Y-3847998D01*
X6426504Y-3847998D01*
X6426606Y-3835857D01*
X6426962Y-3826459D01*
X6427724Y-3819448D01*
X6429044Y-3814521D01*
X6431076Y-3811270D01*
X6433921Y-3809441D01*
X6437782Y-3808577D01*
X6442760Y-3808374D01*
X6448806Y-3808831D01*
X6452209Y-3809949D01*
X6452920Y-3811625D01*
X6450685Y-3813810D01*
X6447485Y-3818128D01*
X6444843Y-3826052D01*
X6443065Y-3836365D01*
X6442405Y-3847998D01*
X6462623Y-3847998D01*
X6462725Y-3836263D01*
X6463080Y-3827068D01*
X6463842Y-3820109D01*
X6465062Y-3815029D01*
X6466890Y-3811625D01*
X6469430Y-3809593D01*
X6472783Y-3808577D01*
X6477050Y-3808272D01*
X6481368Y-3808577D01*
X6484721Y-3809593D01*
X6487261Y-3811727D01*
X6489039Y-3815283D01*
X6490258Y-3820515D01*
X6490970Y-3827830D01*
X6491325Y-3837482D01*
X6491274Y-3859885D01*
X6490970Y-3868115D01*
X6490218Y-3875633D01*
X6500926Y-3875633D01*
X6500977Y-3871671D01*
X6502349Y-3867708D01*
X6505143Y-3863949D01*
X6508902Y-3860952D01*
X6511493Y-3860901D01*
X6513017Y-3863898D01*
X6514236Y-3874820D01*
X6515150Y-3877462D01*
X6516420Y-3877716D01*
X6517792Y-3875532D01*
X6518198Y-3870706D01*
X6516725Y-3864051D01*
X6513626Y-3856329D01*
X6504990Y-3840886D01*
X6502298Y-3833622D01*
X6501130Y-3826814D01*
X6501434Y-3820718D01*
X6503212Y-3815638D01*
X6506311Y-3811676D01*
X6510781Y-3809187D01*
X6516522Y-3808272D01*
X6521094Y-3809441D01*
X6524548Y-3812743D01*
X6526733Y-3817823D01*
X6527495Y-3824528D01*
X6527139Y-3832148D01*
X6526022Y-3835450D01*
X6523888Y-3834637D01*
X6516979Y-3825087D01*
X6514744Y-3822700D01*
X6513626Y-3822547D01*
X6513576Y-3824427D01*
X6514541Y-3828186D01*
X6516573Y-3833469D01*
X6519519Y-3840175D01*
X6523431Y-3848049D01*
X6526987Y-3855974D01*
X6529171Y-3863390D01*
X6530136Y-3870147D01*
X6529781Y-3875989D01*
X6528206Y-3880865D01*
X6525463Y-3884574D01*
X6521500Y-3886911D01*
X6516420Y-3887724D01*
X6511594Y-3887063D01*
X6507480Y-3885336D01*
X6504279Y-3882694D01*
X6502044Y-3879342D01*
X6500926Y-3875633D01*
X6490218Y-3875633D01*
X6489649Y-3879087D01*
X6488684Y-3881932D01*
X6487464Y-3883101D01*
X6485991Y-3882593D01*
X6481216Y-3876294D01*
X6478981Y-3874617D01*
X6477660Y-3875430D01*
X6476542Y-3882186D01*
X6474968Y-3885031D01*
X6472631Y-3887012D01*
X6469837Y-3887724D01*
X6468414Y-3886911D01*
X6467043Y-3884574D01*
X6465824Y-3880916D01*
X6464757Y-3876040D01*
X6463842Y-3870147D01*
X6463182Y-3863390D01*
X6462776Y-3855974D01*
X6462623Y-3847998D01*
X6442405Y-3847998D01*
X6443065Y-3859631D01*
X6444843Y-3869944D01*
X6447485Y-3877818D01*
X6450685Y-3882186D01*
X6452920Y-3884371D01*
X6452209Y-3886047D01*
X6448806Y-3887165D01*
X6442760Y-3887571D01*
X6437782Y-3887419D01*
X6433921Y-3886555D01*
X6431076Y-3884726D01*
X6429044Y-3881475D01*
X6427724Y-3876548D01*
X6426962Y-3869537D01*
X6426606Y-3860139D01*
X6426504Y-3847998D01*
X6413195Y-3847998D01*
X6411772Y-3863390D01*
X6409740Y-3876040D01*
X6408572Y-3880916D01*
X6407353Y-3884574D01*
X6406083Y-3886911D01*
X6404864Y-3887724D01*
X6403644Y-3886911D01*
X6402374Y-3884574D01*
X6401155Y-3880916D01*
X6399987Y-3876040D01*
X6398869Y-3870147D01*
X6397904Y-3863390D01*
X6396482Y-3847998D01*
X6395923Y-3837228D01*
X6395770Y-3828440D01*
X6381262Y-3828440D01*
X6381800Y-3833418D01*
X6382156Y-3839514D01*
X6382156Y-3845864D01*
X6381851Y-3852367D01*
X6381140Y-3860444D01*
X6380124Y-3867251D01*
X6378854Y-3872890D01*
X6377279Y-3877411D01*
X6375298Y-3880967D01*
X6372961Y-3883558D01*
X6370218Y-3885336D01*
X6366967Y-3886352D01*
X6363258Y-3886758D01*
X6360414Y-3886200D01*
X6358229Y-3884371D01*
X6356705Y-3881018D01*
X6355791Y-3875836D01*
X6355334Y-3868623D01*
X6355232Y-3858971D01*
X6326993Y-3858971D01*
X6326022Y-3862628D01*
X6324854Y-3876649D01*
X6323330Y-3882390D01*
X6321044Y-3886301D01*
X6318199Y-3887724D01*
X6316776Y-3886911D01*
X6315405Y-3884574D01*
X6314186Y-3880916D01*
X6313119Y-3876040D01*
X6312255Y-3870147D01*
X6311544Y-3863390D01*
X6311138Y-3855974D01*
X6310985Y-3847998D01*
X6300154Y-3847998D01*
X6300012Y-3858056D01*
X6299606Y-3865930D01*
X6298793Y-3872229D01*
X6297574Y-3877208D01*
X6295898Y-3880916D01*
X6293713Y-3883558D01*
X6290919Y-3885285D01*
X6287516Y-3886352D01*
X6282080Y-3886504D01*
X6278016Y-3884777D01*
X6275425Y-3881120D01*
X6274409Y-3875582D01*
X6273952Y-3868978D01*
X6272936Y-3866896D01*
X6271006Y-3869537D01*
X6266129Y-3879900D01*
X6264808Y-3881221D01*
X6263690Y-3880764D01*
X6262776Y-3878427D01*
X6262065Y-3874211D01*
X6261150Y-3859987D01*
X6260947Y-3849776D01*
X6246001Y-3849776D01*
X6245910Y-3860139D01*
X6245555Y-3869232D01*
X6244844Y-3876192D01*
X6243726Y-3881120D01*
X6242151Y-3884371D01*
X6239916Y-3886149D01*
X6237020Y-3886758D01*
X6233363Y-3886352D01*
X6230264Y-3885387D01*
X6227521Y-3883710D01*
X6225184Y-3881272D01*
X6223203Y-3878021D01*
X6221526Y-3873906D01*
X6220206Y-3868928D01*
X6219190Y-3863035D01*
X6218478Y-3856177D01*
X6217767Y-3844391D01*
X6188572Y-3844391D01*
X6188456Y-3847998D01*
X6188862Y-3860596D01*
X6190030Y-3867708D01*
X6192113Y-3869486D01*
X6195212Y-3866235D01*
X6198209Y-3862527D01*
X6201359Y-3860190D01*
X6204356Y-3859479D01*
X6206794Y-3860546D01*
X6208928Y-3863949D01*
X6209538Y-3868064D01*
X6208776Y-3872585D01*
X6206947Y-3877056D01*
X6204102Y-3881170D01*
X6200597Y-3884574D01*
X6196533Y-3886860D01*
X6192113Y-3887724D01*
X6189167Y-3887266D01*
X6186728Y-3885844D01*
X6184798Y-3883253D01*
X6183325Y-3879443D01*
X6182258Y-3874109D01*
X6181547Y-3867200D01*
X6181140Y-3858564D01*
X6181039Y-3847998D01*
X6139752Y-3847998D01*
X6137910Y-3862933D01*
X6136030Y-3874770D01*
X6134150Y-3883202D01*
X6133236Y-3886149D01*
X6132322Y-3888232D01*
X6131407Y-3889451D01*
X6130442Y-3889857D01*
X6129528Y-3889349D01*
X6128613Y-3888028D01*
X6126734Y-3882796D01*
X6124905Y-3874160D01*
X6122974Y-3862120D01*
X6119876Y-3835450D01*
X6119215Y-3826713D01*
X6119164Y-3820210D01*
X6090959Y-3820210D01*
X6093256Y-3847947D01*
X6094272Y-3855008D01*
X6095542Y-3861663D01*
X6097016Y-3867607D01*
X6098641Y-3872839D01*
X6100318Y-3877106D01*
X6102096Y-3880205D01*
X6103874Y-3882034D01*
X6106871Y-3884422D01*
X6107176Y-3886149D01*
X6104788Y-3887215D01*
X6099810Y-3887571D01*
X6096203Y-3887266D01*
X6093358Y-3886149D01*
X6091224Y-3883812D01*
X6089700Y-3880154D01*
X6088735Y-3874820D01*
X6088278Y-3867556D01*
X6088176Y-3858107D01*
X6059662Y-3858107D01*
X6062167Y-3867861D01*
X6063691Y-3872433D01*
X6065316Y-3876040D01*
X6069838Y-3882847D01*
X6070193Y-3885641D01*
X6067856Y-3887215D01*
X6062776Y-3887724D01*
X6059525Y-3887317D01*
X6056934Y-3885996D01*
X6055004Y-3883558D01*
X6053582Y-3879697D01*
X6052667Y-3874262D01*
X6052159Y-3866997D01*
X6052108Y-3857751D01*
X6038267Y-3857751D01*
X6039307Y-3868267D01*
X6039408Y-3872687D01*
X6039205Y-3876395D01*
X6038748Y-3879392D01*
X6037986Y-3881780D01*
X6036970Y-3883507D01*
X6035649Y-3884676D01*
X6033211Y-3885539D01*
X6031230Y-3884929D01*
X6029909Y-3883050D01*
X6028740Y-3876751D01*
X6026556Y-3875836D01*
X6022848Y-3877411D01*
X6013704Y-3884269D01*
X6011011Y-3886047D01*
X6009132Y-3886606D01*
X6008014Y-3885844D01*
X6007608Y-3883609D01*
X5994876Y-3883609D01*
X5994552Y-3884726D01*
X5993434Y-3886911D01*
X5992215Y-3887724D01*
X5989777Y-3886403D01*
X5987694Y-3882948D01*
X5986119Y-3877767D01*
X5985357Y-3871468D01*
X5984849Y-3862730D01*
X5983935Y-3860037D01*
X5982106Y-3863492D01*
X5977331Y-3877462D01*
X5976061Y-3879799D01*
X5975045Y-3880104D01*
X5974181Y-3878376D01*
X5973521Y-3874515D01*
X5972606Y-3860037D01*
X5972251Y-3837025D01*
X5912251Y-3837025D01*
X5936843Y-3874008D01*
X5954979Y-3902456D01*
X5960872Y-3912209D01*
X5964021Y-3918051D01*
X5964428Y-3919270D01*
X5963666Y-3920185D01*
X5961583Y-3921048D01*
X5958230Y-3921810D01*
X5948476Y-3923029D01*
X5935573Y-3923690D01*
X5916625Y-3923893D01*
X5907786Y-3924198D01*
X5901385Y-3925062D01*
X5897016Y-3926687D01*
X5894324Y-3929329D01*
X5892901Y-3933139D01*
X5892342Y-3938473D01*
X5892241Y-3945483D01*
X5906668Y-3945483D01*
X5907125Y-3944975D01*
X5908497Y-3944467D01*
X5913932Y-3943604D01*
X5922924Y-3942740D01*
X5951524Y-3941267D01*
X5994095Y-3940098D01*
X6050330Y-3939184D01*
X6120028Y-3938574D01*
X6202883Y-3938270D01*
X6367780Y-3938524D01*
X6439255Y-3939133D01*
X6497929Y-3939997D01*
X6543294Y-3941165D01*
X6560870Y-3941826D01*
X6574993Y-3942587D01*
X6585559Y-3943400D01*
X6592570Y-3944264D01*
X6594703Y-3944721D01*
X6595922Y-3945229D01*
X6596227Y-3945737D01*
X6595668Y-3946194D01*
X6594144Y-3946702D01*
X6588404Y-3947566D01*
X6579108Y-3948429D01*
X6566153Y-3949192D01*
X6529527Y-3950462D01*
X6478625Y-3951478D01*
X6413550Y-3952189D01*
X6334404Y-3952595D01*
X6184544Y-3952595D01*
X6103874Y-3952240D01*
X6036665Y-3951528D01*
X5983122Y-3950563D01*
X5943549Y-3949344D01*
X5929020Y-3948582D01*
X5918098Y-3947769D01*
X5910783Y-3946906D01*
X5908497Y-3946448D01*
X5907125Y-3945940D01*
X5906668Y-3945483D01*
X5892241Y-3945483D01*
X5892241Y-3967124D01*
X5999886Y-3967124D01*
X6108441Y-4128058D01*
X6192926Y-4128058D01*
X6193586Y-4126026D01*
X6199174Y-4116628D01*
X6205169Y-4108246D01*
X6212128Y-4100322D01*
X6215684Y-4096765D01*
X6219139Y-4093718D01*
X6222441Y-4091178D01*
X6229654Y-4086758D01*
X6233058Y-4084015D01*
X6235598Y-4081170D01*
X6237224Y-4078122D01*
X6237935Y-4074820D01*
X6237732Y-4071315D01*
X6236614Y-4067505D01*
X6234582Y-4063339D01*
X6231636Y-4058869D01*
X6227724Y-4053992D01*
X6222898Y-4048709D01*
X6208725Y-4034282D01*
X6201816Y-4026154D01*
X6197193Y-4019346D01*
X6195466Y-4014876D01*
X6196025Y-4013962D01*
X6197701Y-4014165D01*
X6200292Y-4015435D01*
X6203696Y-4017721D01*
X6212586Y-4024782D01*
X6223457Y-4034840D01*
X6251397Y-4062171D01*
X6281674Y-4031081D01*
X6291580Y-4021886D01*
X6296050Y-4018026D01*
X6303416Y-4012488D01*
X6306007Y-4010964D01*
X6307785Y-4010456D01*
X6308445Y-4011015D01*
X6307988Y-4012692D01*
X6306413Y-4015333D01*
X6303924Y-4018838D01*
X6296406Y-4027932D01*
X6286042Y-4039006D01*
X6258153Y-4067556D01*
X6290665Y-4103624D01*
X6300368Y-4115104D01*
X6306718Y-4123537D01*
X6308699Y-4126585D01*
X6309868Y-4128820D01*
X6310172Y-4130243D01*
X6309715Y-4130801D01*
X6308394Y-4130497D01*
X6303365Y-4127195D01*
X6295136Y-4120235D01*
X6272479Y-4099001D01*
X6262319Y-4090517D01*
X6258001Y-4087215D01*
X6254343Y-4084777D01*
X6251498Y-4083202D01*
X6249619Y-4082643D01*
X6247739Y-4083202D01*
X6244844Y-4084777D01*
X6236614Y-4090619D01*
X6226200Y-4099204D01*
X6200546Y-4122928D01*
X6196330Y-4126585D01*
X6193790Y-4128262D01*
X6192926Y-4128058D01*
X6108441Y-4128058D01*
X6194958Y-4256024D01*
X6241643Y-4324299D01*
X6245758Y-4330039D01*
X6246368Y-4330141D01*
X6247333Y-4329684D01*
X6250533Y-4326890D01*
X6255105Y-4321860D01*
X6260947Y-4314850D01*
X6275882Y-4295394D01*
X6294120Y-4270044D01*
X6314592Y-4240276D01*
X6373926Y-4152493D01*
X6433718Y-4064558D01*
X6500317Y-3967124D01*
X6607048Y-3967124D01*
X6606946Y-3938473D01*
X6606336Y-3933139D01*
X6604914Y-3929329D01*
X6602222Y-3926687D01*
X6597853Y-3925062D01*
X6591452Y-3924198D01*
X6582613Y-3923893D01*
X6563664Y-3923690D01*
X6550761Y-3922877D01*
X6545427Y-3922217D01*
X6541007Y-3921404D01*
X6537706Y-3920490D01*
X6535572Y-3919474D01*
X6534861Y-3918407D01*
X6535216Y-3917086D01*
X6538264Y-3911447D01*
X6543903Y-3902252D01*
X6561328Y-3875836D01*
X6589623Y-3835146D01*
X6608724Y-3806647D01*
X6615531Y-3795979D01*
X6621068Y-3786124D01*
X6621475Y-3784803D01*
X6622643Y-3783736D01*
X6625996Y-3782720D01*
X6631381Y-3781806D01*
X6638442Y-3780993D01*
X6656781Y-3779824D01*
X6679234Y-3779418D01*
X6736994Y-3779418D01*
X6736892Y-3750716D01*
X6736334Y-3745382D01*
X6734860Y-3741572D01*
X6732117Y-3738930D01*
X6727647Y-3737356D01*
X6721144Y-3736492D01*
X6712102Y-3736136D01*
X6689750Y-3735984D01*
X6681520Y-3735628D01*
X6675374Y-3734968D01*
X6670954Y-3733952D01*
X6668211Y-3732428D01*
X6666839Y-3730447D01*
X6666738Y-3727805D01*
X6668058Y-3723690D01*
X6672681Y-3715765D01*
X6694017Y-3682441D01*
X6727698Y-3631590D01*
X6796125Y-3530346D01*
X7212380Y-2917037D01*
X7230313Y-2890113D01*
X7243216Y-2870149D01*
X7249363Y-2859735D01*
X7249617Y-2858973D01*
X7247432Y-2858566D01*
X7230618Y-2857804D01*
X7198715Y-2857093D01*
X7153605Y-2856433D01*
X7031126Y-2855569D01*
X6957517Y-2855315D01*
X6506464Y-2855214D01*
X6409486Y-2739339D01*
X6377990Y-2769870D01*
X6367678Y-2778963D01*
X6358737Y-2785872D01*
X6355130Y-2788208D01*
X6352336Y-2789732D01*
X6350406Y-2790240D01*
X6348374Y-2789478D01*
X6345224Y-2787345D01*
X6341110Y-2783941D01*
X6336233Y-2779471D01*
X6324701Y-2767787D01*
X6303213Y-2743708D01*
X6295745Y-2735783D01*
X6289243Y-2729687D01*
X6283553Y-2725216D01*
X6278422Y-2722219D01*
X6273647Y-2720594D01*
X6269075Y-2720238D01*
X6260033Y-2721610D01*
X6255715Y-2721457D01*
X6251244Y-2720441D01*
X6246622Y-2718409D01*
X6241694Y-2715412D01*
X6236411Y-2711348D01*
X6230569Y-2706166D01*
X6219190Y-2694787D01*
X6209690Y-2685796D01*
X6201613Y-2678988D01*
X6198463Y-2676702D01*
X6196025Y-2675229D01*
G37*
G36*
X5885027Y-3086252D02*
G01*
X5885027Y-3274009D01*
X5914136Y-3273907D01*
X5918911Y-3273653D01*
X5923280Y-3273145D01*
X5927242Y-3272383D01*
X5930798Y-3271316D01*
X5933948Y-3269843D01*
X5936742Y-3267964D01*
X5939231Y-3265627D01*
X5941364Y-3262782D01*
X5943193Y-3259429D01*
X5944768Y-3255467D01*
X5946089Y-3250844D01*
X5947206Y-3245510D01*
X5948070Y-3239516D01*
X5949238Y-3225088D01*
X5949848Y-3207156D01*
X5950000Y-3185414D01*
X5949797Y-3161944D01*
X5949137Y-3142437D01*
X5948578Y-3134004D01*
X5946902Y-3119729D01*
X5945784Y-3113735D01*
X5944463Y-3108502D01*
X5942888Y-3103930D01*
X5941009Y-3099968D01*
X5938926Y-3096666D01*
X5936488Y-3093872D01*
X5933795Y-3091586D01*
X5930747Y-3089757D01*
X5927344Y-3088386D01*
X5923584Y-3087420D01*
X5919470Y-3086760D01*
X5914948Y-3086354D01*
G37*
G36*
X6557467Y-3233724D02*
G01*
X6534353Y-3395929D01*
X6527596Y-3445256D01*
X6529933Y-3446018D01*
X6536232Y-3446678D01*
X6545630Y-3447135D01*
X6586524Y-3447287D01*
X6578853Y-3376320D01*
X6574840Y-3344164D01*
X6570472Y-3311601D01*
X6566153Y-3281476D01*
X6562242Y-3256584D01*
X6559245Y-3239719D01*
X6558178Y-3235198D01*
G37*
G36*
X6151575Y-3233928D02*
G01*
X6150711Y-3234283D01*
X6149746Y-3236010D01*
X6148679Y-3239109D01*
X6147511Y-3243478D01*
X6145072Y-3255721D01*
X6142482Y-3272231D01*
X6139891Y-3292398D01*
X6131052Y-3370783D01*
X6125514Y-3416604D01*
X6121298Y-3447287D01*
X6160262Y-3447186D01*
X6167018Y-3446779D01*
X6172098Y-3446068D01*
X6175705Y-3444951D01*
X6177991Y-3443274D01*
X6179058Y-3441090D01*
X6179108Y-3438245D01*
X6177889Y-3432911D01*
X6175502Y-3418128D01*
X6172301Y-3393287D01*
X6168644Y-3361639D01*
X6164021Y-3317697D01*
X6160160Y-3284677D01*
X6156502Y-3257550D01*
X6153454Y-3239617D01*
X6152286Y-3235096D01*
G37*
G36*
X5885027Y-3331768D02*
G01*
X5885027Y-3543046D01*
X5911494Y-3538728D01*
X5922264Y-3536340D01*
X5931916Y-3532987D01*
X5939485Y-3529076D01*
X5943854Y-3525164D01*
X5944768Y-3523335D01*
X5946292Y-3517341D01*
X5947511Y-3508603D01*
X5948527Y-3497529D01*
X5949289Y-3484626D01*
X5950000Y-3454857D01*
X5950051Y-3438906D01*
X5949340Y-3406952D01*
X5948680Y-3391814D01*
X5947816Y-3377793D01*
X5946698Y-3365347D01*
X5945428Y-3354933D01*
X5943904Y-3346907D01*
X5943092Y-3343960D01*
X5942228Y-3341776D01*
X5941314Y-3340404D01*
X5936081Y-3337051D01*
X5928207Y-3334308D01*
X5918758Y-3332429D01*
X5908852Y-3331768D01*
G37*
G36*
X6479794Y-3824071D02*
G01*
X6478524Y-3825646D01*
X6477762Y-3829151D01*
X6477609Y-3834180D01*
X6478117Y-3839210D01*
X6479082Y-3841648D01*
X6480403Y-3841445D01*
X6481978Y-3838498D01*
X6483146Y-3834485D01*
X6483400Y-3830523D01*
X6482842Y-3827119D01*
X6481419Y-3824681D01*
G37*
G36*
X5981598Y-3824071D02*
G01*
X5980328Y-3825646D01*
X5979566Y-3829151D01*
X5979414Y-3834180D01*
X5979922Y-3839210D01*
X5980887Y-3841648D01*
X5982208Y-3841445D01*
X5983782Y-3838498D01*
X5984951Y-3834485D01*
X5985205Y-3830523D01*
X5984646Y-3827119D01*
X5983224Y-3824681D01*
G37*
G36*
X6235446Y-3831640D02*
G01*
X6234480Y-3833418D01*
X6233769Y-3840276D01*
X6233515Y-3851605D01*
X6233769Y-3862933D01*
X6234480Y-3869791D01*
X6235446Y-3871620D01*
X6236665Y-3867861D01*
X6237630Y-3860241D01*
X6237986Y-3851605D01*
X6237630Y-3842969D01*
X6236665Y-3835349D01*
G37*
D31*
X6733288Y-5486400D02*
G01*
X6733288Y-5581904D01*
X6733288Y-5486400D02*
G01*
X6765038Y-5486400D01*
X6778754Y-5490971D01*
X6787898Y-5500115D01*
X6792470Y-5509260D01*
X6797042Y-5522721D01*
X6797042Y-5545581D01*
X6792470Y-5559297D01*
X6787898Y-5568187D01*
X6778754Y-5577331D01*
X6765038Y-5581904D01*
X6733288Y-5581904D01*
X6858764Y-5486400D02*
G01*
X6858764Y-5581904D01*
X6827014Y-5486400D02*
G01*
X6890514Y-5486400D01*
X6920486Y-5486400D02*
G01*
X6920486Y-5581904D01*
X6920486Y-5486400D02*
G01*
X6961380Y-5486400D01*
X6975096Y-5490971D01*
X6979668Y-5495544D01*
X6984240Y-5504687D01*
X6984240Y-5513831D01*
X6979668Y-5522721D01*
X6975096Y-5527294D01*
X6961380Y-5531865D01*
X6920486Y-5531865D01*
X6952490Y-5531865D02*
G01*
X6984240Y-5581904D01*
X6733288Y-5229860D02*
G01*
X6733288Y-5325363D01*
X6733288Y-5229860D02*
G01*
X6774182Y-5229860D01*
X6787898Y-5234431D01*
X6792470Y-5239004D01*
X6797042Y-5248147D01*
X6797042Y-5257292D01*
X6792470Y-5266181D01*
X6787898Y-5270754D01*
X6774182Y-5275326D01*
X6733288Y-5275326D01*
X6765038Y-5275326D02*
G01*
X6797042Y-5325363D01*
X6858764Y-5229860D02*
G01*
X6858764Y-5325363D01*
X6827014Y-5229860D02*
G01*
X6890514Y-5229860D01*
X6984240Y-5243576D02*
G01*
X6975096Y-5234431D01*
X6961380Y-5229860D01*
X6943346Y-5229860D01*
X6929630Y-5234431D01*
X6920486Y-5243576D01*
X6920486Y-5252720D01*
X6925058Y-5261863D01*
X6929630Y-5266181D01*
X6938774Y-5270754D01*
X6965952Y-5279897D01*
X6975096Y-5284470D01*
X6979668Y-5289042D01*
X6984240Y-5298186D01*
X6984240Y-5311647D01*
X6975096Y-5320792D01*
X6961380Y-5325363D01*
X6943346Y-5325363D01*
X6929630Y-5320792D01*
X6920486Y-5311647D01*
X6747002Y-4973320D02*
G01*
X6797040Y-4973320D01*
X6769608Y-5009642D01*
X6783324Y-5009642D01*
X6792468Y-5014213D01*
X6797040Y-5018786D01*
X6801611Y-5032502D01*
X6801611Y-5041645D01*
X6797040Y-5055107D01*
X6787895Y-5064252D01*
X6774179Y-5068823D01*
X6760463Y-5068823D01*
X6747002Y-5064252D01*
X6742429Y-5059679D01*
X6737858Y-5050536D01*
X6831584Y-5005323D02*
G01*
X6858761Y-5068823D01*
X6885940Y-5005323D02*
G01*
X6858761Y-5068823D01*
X6925056Y-4973320D02*
G01*
X6975093Y-4973320D01*
X6947915Y-5009642D01*
X6961377Y-5009642D01*
X6970522Y-5014213D01*
X6975093Y-5018786D01*
X6979665Y-5032502D01*
X6979665Y-5041645D01*
X6975093Y-5055107D01*
X6965950Y-5064252D01*
X6952488Y-5068823D01*
X6938772Y-5068823D01*
X6925056Y-5064252D01*
X6920484Y-5059679D01*
X6916165Y-5050536D01*
X6845302Y-4720589D02*
G01*
X6845302Y-4816094D01*
X6845302Y-4720589D02*
G01*
X6886196Y-4720589D01*
X6899912Y-4725162D01*
X6904484Y-4729734D01*
X6909056Y-4738878D01*
X6909056Y-4748021D01*
X6904484Y-4756912D01*
X6899912Y-4761484D01*
X6886196Y-4766055D01*
X6845302Y-4766055D01*
X6877052Y-4766055D02*
G01*
X6909056Y-4816094D01*
X6939028Y-4752594D02*
G01*
X6988812Y-4816094D01*
X6988812Y-4752594D02*
G01*
X6939028Y-4816094D01*
X6877052Y-4466589D02*
G01*
X6877052Y-4562094D01*
X6845302Y-4466589D02*
G01*
X6909056Y-4466589D01*
X6939028Y-4498594D02*
G01*
X6988812Y-4562094D01*
X6988812Y-4498594D02*
G01*
X6939028Y-4562094D01*
X6799072Y-4226560D02*
G01*
X6794754Y-4217415D01*
X6785609Y-4208271D01*
X6776465Y-4203700D01*
X6758177Y-4203700D01*
X6749288Y-4208271D01*
X6740143Y-4217415D01*
X6735572Y-4226560D01*
X6731000Y-4240021D01*
X6731000Y-4262881D01*
X6735572Y-4276597D01*
X6740143Y-4285487D01*
X6749288Y-4294631D01*
X6758177Y-4299204D01*
X6776465Y-4299204D01*
X6785609Y-4294631D01*
X6794754Y-4285487D01*
X6799072Y-4276597D01*
X6799072Y-4262881D01*
X6776465Y-4262881D02*
G01*
X6799072Y-4262881D01*
X6829297Y-4203700D02*
G01*
X6829297Y-4299204D01*
X6829297Y-4203700D02*
G01*
X6892797Y-4299204D01*
X6892797Y-4203700D02*
G01*
X6892797Y-4299204D01*
X6922770Y-4203700D02*
G01*
X6922770Y-4299204D01*
X6922770Y-4203700D02*
G01*
X6954520Y-4203700D01*
X6968236Y-4208271D01*
X6977379Y-4217415D01*
X6981952Y-4226560D01*
X6986524Y-4240021D01*
X6986524Y-4262881D01*
X6981952Y-4276597D01*
X6977379Y-4285487D01*
X6968236Y-4294631D01*
X6954520Y-4299204D01*
X6922770Y-4299204D01*
X398271Y-3972557D02*
G01*
X393954Y-3963413D01*
X384810Y-3954269D01*
X375665Y-3949697D01*
X357378Y-3949697D01*
X348487Y-3954269D01*
X339344Y-3963413D01*
X334771Y-3972557D01*
X330200Y-3986019D01*
X330200Y-4008879D01*
X334771Y-4022595D01*
X339344Y-4031485D01*
X348487Y-4040629D01*
X357378Y-4045201D01*
X375665Y-4045201D01*
X384810Y-4040629D01*
X393954Y-4031485D01*
X398271Y-4022595D01*
X398271Y-4008879D01*
X375665Y-4008879D02*
G01*
X398271Y-4008879D01*
X428497Y-3949697D02*
G01*
X428497Y-4045201D01*
X428497Y-3949697D02*
G01*
X491997Y-4045201D01*
X491997Y-3949697D02*
G01*
X491997Y-4045201D01*
X521970Y-3949697D02*
G01*
X521970Y-4045201D01*
X521970Y-3949697D02*
G01*
X553720Y-3949697D01*
X567436Y-3954269D01*
X576579Y-3963413D01*
X581152Y-3972557D01*
X585723Y-3986019D01*
X585723Y-4008879D01*
X581152Y-4022595D01*
X576579Y-4031485D01*
X567436Y-4040629D01*
X553720Y-4045201D01*
X521970Y-4045201D01*
X393954Y-3709413D02*
G01*
X384810Y-3700269D01*
X371094Y-3695697D01*
X352805Y-3695697D01*
X339344Y-3700269D01*
X330200Y-3709413D01*
X330200Y-3718557D01*
X334771Y-3727701D01*
X339344Y-3732019D01*
X348487Y-3736591D01*
X375665Y-3745735D01*
X384810Y-3750307D01*
X389381Y-3754879D01*
X393954Y-3764023D01*
X393954Y-3777485D01*
X384810Y-3786629D01*
X371094Y-3791201D01*
X352805Y-3791201D01*
X339344Y-3786629D01*
X330200Y-3777485D01*
X423926Y-3754879D02*
G01*
X478281Y-3754879D01*
X478281Y-3745735D01*
X473710Y-3736591D01*
X469392Y-3732019D01*
X460247Y-3727701D01*
X446531Y-3727701D01*
X437387Y-3732019D01*
X428497Y-3741163D01*
X423926Y-3754879D01*
X423926Y-3764023D01*
X428497Y-3777485D01*
X437387Y-3786629D01*
X446531Y-3791201D01*
X460247Y-3791201D01*
X469392Y-3786629D01*
X478281Y-3777485D01*
X508507Y-3695697D02*
G01*
X508507Y-3791201D01*
X538479Y-3754879D02*
G01*
X592836Y-3754879D01*
X592836Y-3745735D01*
X588263Y-3736591D01*
X583945Y-3732019D01*
X574802Y-3727701D01*
X561086Y-3727701D01*
X551942Y-3732019D01*
X543052Y-3741163D01*
X538479Y-3754879D01*
X538479Y-3764023D01*
X543052Y-3777485D01*
X551942Y-3786629D01*
X561086Y-3791201D01*
X574802Y-3791201D01*
X583945Y-3786629D01*
X592836Y-3777485D01*
X677418Y-3741163D02*
G01*
X668273Y-3732019D01*
X659384Y-3727701D01*
X645668Y-3727701D01*
X636523Y-3732019D01*
X627379Y-3741163D01*
X622807Y-3754879D01*
X622807Y-3764023D01*
X627379Y-3777485D01*
X636523Y-3786629D01*
X645668Y-3791201D01*
X659384Y-3791201D01*
X668273Y-3786629D01*
X677418Y-3777485D01*
X721105Y-3695697D02*
G01*
X721105Y-3772913D01*
X725678Y-3786629D01*
X734821Y-3791201D01*
X743712Y-3791201D01*
X707389Y-3727701D02*
G01*
X739394Y-3727701D01*
X330200Y-3441697D02*
G01*
X330200Y-3537201D01*
X330200Y-3441697D02*
G01*
X371094Y-3441697D01*
X384810Y-3446269D01*
X389381Y-3450841D01*
X393954Y-3459985D01*
X393954Y-3473701D01*
X389381Y-3482591D01*
X384810Y-3487163D01*
X371094Y-3491735D01*
X330200Y-3491735D01*
X423926Y-3473701D02*
G01*
X423926Y-3537201D01*
X423926Y-3500879D02*
G01*
X428497Y-3487163D01*
X437387Y-3478019D01*
X446531Y-3473701D01*
X460247Y-3473701D01*
X490220Y-3500879D02*
G01*
X544829Y-3500879D01*
X544829Y-3491735D01*
X540257Y-3482591D01*
X535686Y-3478019D01*
X526542Y-3473701D01*
X512826Y-3473701D01*
X503936Y-3478019D01*
X494792Y-3487163D01*
X490220Y-3500879D01*
X490220Y-3510023D01*
X494792Y-3523485D01*
X503936Y-3532629D01*
X512826Y-3537201D01*
X526542Y-3537201D01*
X535686Y-3532629D01*
X544829Y-3523485D01*
X574802Y-3473701D02*
G01*
X601979Y-3537201D01*
X629412Y-3473701D02*
G01*
X601979Y-3537201D01*
X330200Y-3187697D02*
G01*
X330200Y-3283201D01*
X330200Y-3187697D02*
G01*
X393954Y-3283201D01*
X393954Y-3187697D02*
G01*
X393954Y-3283201D01*
X423926Y-3246879D02*
G01*
X478281Y-3246879D01*
X478281Y-3237735D01*
X473710Y-3228591D01*
X469392Y-3224019D01*
X460247Y-3219701D01*
X446531Y-3219701D01*
X437387Y-3224019D01*
X428497Y-3233163D01*
X423926Y-3246879D01*
X423926Y-3256023D01*
X428497Y-3269485D01*
X437387Y-3278629D01*
X446531Y-3283201D01*
X460247Y-3283201D01*
X469392Y-3278629D01*
X478281Y-3269485D01*
X508507Y-3219701D02*
G01*
X558292Y-3283201D01*
X558292Y-3219701D02*
G01*
X508507Y-3283201D01*
X601979Y-3187697D02*
G01*
X601979Y-3264913D01*
X606552Y-3278629D01*
X615695Y-3283201D01*
X624839Y-3283201D01*
X588263Y-3219701D02*
G01*
X620268Y-3219701D01*
X317500Y-2781300D02*
G01*
X399287Y-2781300D01*
X358394Y-2489202D02*
G01*
X358394Y-2570990D01*
X317500Y-2530096D02*
G01*
X399287Y-2530096D01*
X50800Y-2262375D02*
G01*
X59944Y-2257803D01*
X73405Y-2244087D01*
X73405Y-2339591D01*
X107950Y-2266947D02*
G01*
X107950Y-2262375D01*
X112521Y-2253231D01*
X117094Y-2248659D01*
X126237Y-2244087D01*
X144526Y-2244087D01*
X153415Y-2248659D01*
X157987Y-2253231D01*
X162560Y-2262375D01*
X162560Y-2271519D01*
X157987Y-2280409D01*
X149097Y-2294125D01*
X103631Y-2339591D01*
X167131Y-2339591D01*
X197104Y-2276091D02*
G01*
X224536Y-2339591D01*
X251713Y-2276091D02*
G01*
X224536Y-2339591D01*
X2501900Y-6030468D02*
G01*
X2501900Y-6284976D01*
X2501900Y-6103112D02*
G01*
X2556509Y-6048755D01*
X2592831Y-6030468D01*
X2647441Y-6030468D01*
X2683763Y-6048755D01*
X2701797Y-6103112D01*
X2701797Y-6284976D01*
X2701797Y-6103112D02*
G01*
X2756408Y-6048755D01*
X2792729Y-6030468D01*
X2847340Y-6030468D01*
X2883661Y-6048755D01*
X2901950Y-6103112D01*
X2901950Y-6284976D01*
X3240024Y-6030468D02*
G01*
X3240024Y-6284976D01*
X3240024Y-6085078D02*
G01*
X3203702Y-6048755D01*
X3167379Y-6030468D01*
X3112770Y-6030468D01*
X3076447Y-6048755D01*
X3040125Y-6085078D01*
X3021838Y-6139687D01*
X3021838Y-6176010D01*
X3040125Y-6230365D01*
X3076447Y-6266942D01*
X3112770Y-6284976D01*
X3167379Y-6284976D01*
X3203702Y-6266942D01*
X3240024Y-6230365D01*
X3414522Y-5903213D02*
G01*
X3414522Y-6212331D01*
X3432809Y-6266942D01*
X3469131Y-6284976D01*
X3505454Y-6284976D01*
X3360165Y-6030468D02*
G01*
X3487420Y-6030468D01*
X3680206Y-5903213D02*
G01*
X3680206Y-6212331D01*
X3698240Y-6266942D01*
X3734561Y-6284976D01*
X3770884Y-6284976D01*
X3625595Y-6030468D02*
G01*
X3752850Y-6030468D01*
X3981958Y-6030468D02*
G01*
X3945636Y-6048755D01*
X3909059Y-6085078D01*
X3891025Y-6139687D01*
X3891025Y-6176010D01*
X3909059Y-6230365D01*
X3945636Y-6266942D01*
X3981958Y-6284976D01*
X4036568Y-6284976D01*
X4072890Y-6266942D01*
X4109211Y-6230365D01*
X4127245Y-6176010D01*
X4127245Y-6139687D01*
X4109211Y-6085078D01*
X4072890Y-6048755D01*
X4036568Y-6030468D01*
X3981958Y-6030468D01*
X4265422Y-6194044D02*
G01*
X4247388Y-6212331D01*
X4265422Y-6230365D01*
X4283709Y-6212331D01*
X4265422Y-6194044D01*
X4403597Y-5903213D02*
G01*
X4421886Y-5921502D01*
X4440174Y-5903213D01*
X4421886Y-5884926D01*
X4403597Y-5903213D01*
X4421886Y-6030468D02*
G01*
X4421886Y-6284976D01*
X4650993Y-6030468D02*
G01*
X4614672Y-6048755D01*
X4578350Y-6085078D01*
X4560061Y-6139687D01*
X4560061Y-6176010D01*
X4578350Y-6230365D01*
X4614672Y-6266942D01*
X4650993Y-6284976D01*
X4705604Y-6284976D01*
X4741925Y-6266942D01*
X4778247Y-6230365D01*
X4796536Y-6176010D01*
X4796536Y-6139687D01*
X4778247Y-6085078D01*
X4741925Y-6048755D01*
X4705604Y-6030468D01*
X4650993Y-6030468D01*
X3022600Y-6358889D02*
G01*
X3058922Y-6454394D01*
X3095243Y-6358889D02*
G01*
X3058922Y-6454394D01*
X3125215Y-6418071D02*
G01*
X3179825Y-6418071D01*
X3179825Y-6408928D01*
X3175254Y-6399784D01*
X3170681Y-6395212D01*
X3161791Y-6390894D01*
X3148075Y-6390894D01*
X3138931Y-6395212D01*
X3129788Y-6404355D01*
X3125215Y-6418071D01*
X3125215Y-6427215D01*
X3129788Y-6440678D01*
X3138931Y-6449821D01*
X3148075Y-6454394D01*
X3161791Y-6454394D01*
X3170681Y-6449821D01*
X3179825Y-6440678D01*
X3209797Y-6390894D02*
G01*
X3209797Y-6454394D01*
X3209797Y-6418071D02*
G01*
X3214370Y-6404355D01*
X3223513Y-6395212D01*
X3232658Y-6390894D01*
X3246120Y-6390894D01*
X3280663Y-6431787D02*
G01*
X3276345Y-6436105D01*
X3280663Y-6440678D01*
X3285236Y-6436105D01*
X3280663Y-6431787D01*
X3430777Y-6358889D02*
G01*
X3385311Y-6422644D01*
X3453384Y-6422644D01*
X3430777Y-6358889D02*
G01*
X3430777Y-6454394D01*
X3553459Y-6413500D02*
G01*
X3635247Y-6413500D01*
X3735324Y-6358889D02*
G01*
X3735324Y-6454394D01*
X3735324Y-6358889D02*
G01*
X3776218Y-6358889D01*
X3789934Y-6363462D01*
X3794506Y-6368034D01*
X3799077Y-6377178D01*
X3799077Y-6386321D01*
X3794506Y-6395212D01*
X3789934Y-6399784D01*
X3776218Y-6404355D01*
X3735324Y-6404355D01*
X3767074Y-6404355D02*
G01*
X3799077Y-6454394D01*
X3829050Y-6418071D02*
G01*
X3883406Y-6418071D01*
X3883406Y-6408928D01*
X3879088Y-6399784D01*
X3874515Y-6395212D01*
X3865372Y-6390894D01*
X3851656Y-6390894D01*
X3842511Y-6395212D01*
X3833622Y-6404355D01*
X3829050Y-6418071D01*
X3829050Y-6427215D01*
X3833622Y-6440678D01*
X3842511Y-6449821D01*
X3851656Y-6454394D01*
X3865372Y-6454394D01*
X3874515Y-6449821D01*
X3883406Y-6440678D01*
X3913631Y-6390894D02*
G01*
X3940809Y-6454394D01*
X3967988Y-6390894D02*
G01*
X3940809Y-6454394D01*
X4002531Y-6431787D02*
G01*
X3997959Y-6436105D01*
X4002531Y-6440678D01*
X4007104Y-6436105D01*
X4002531Y-6431787D01*
X4111752Y-6381750D02*
G01*
X4111752Y-6377178D01*
X4116324Y-6368034D01*
X4120895Y-6363462D01*
X4129786Y-6358889D01*
X4148074Y-6358889D01*
X4157218Y-6363462D01*
X4161790Y-6368034D01*
X4166108Y-6377178D01*
X4166108Y-6386321D01*
X4161790Y-6395212D01*
X4152645Y-6408928D01*
X4107179Y-6454394D01*
X4170679Y-6454394D01*
D33*
X1473200Y-2725671D02*
G01*
X1483613Y-2720591D01*
X1499107Y-2705097D01*
X1499107Y-2814063D01*
X1533397Y-2705097D02*
G01*
X1533397Y-2814063D01*
X1533397Y-2705097D02*
G01*
X1606295Y-2814063D01*
X1606295Y-2705097D02*
G01*
X1606295Y-2814063D01*
X1692402Y-2705097D02*
G01*
X1640586Y-2777741D01*
X1718310Y-2777741D01*
X1692402Y-2705097D02*
G01*
X1692402Y-2814063D01*
X1783842Y-2705097D02*
G01*
X1768347Y-2710177D01*
X1757934Y-2725671D01*
X1752600Y-2751833D01*
X1752600Y-2767327D01*
X1757934Y-2793235D01*
X1768347Y-2808983D01*
X1783842Y-2814063D01*
X1794255Y-2814063D01*
X1809750Y-2808983D01*
X1820163Y-2793235D01*
X1825497Y-2767327D01*
X1825497Y-2751833D01*
X1820163Y-2725671D01*
X1809750Y-2710177D01*
X1794255Y-2705097D01*
X1783842Y-2705097D01*
X1891029Y-2705097D02*
G01*
X1875281Y-2710177D01*
X1864868Y-2725671D01*
X1859787Y-2751833D01*
X1859787Y-2767327D01*
X1864868Y-2793235D01*
X1875281Y-2808983D01*
X1891029Y-2814063D01*
X1901189Y-2814063D01*
X1916937Y-2808983D01*
X1927352Y-2793235D01*
X1932431Y-2767327D01*
X1932431Y-2751833D01*
X1927352Y-2725671D01*
X1916937Y-2710177D01*
X1901189Y-2705097D01*
X1891029Y-2705097D01*
X2039620Y-2705097D02*
G01*
X1987550Y-2814063D01*
X1966721Y-2705097D02*
G01*
X2039620Y-2705097D01*
D31*
X1714500Y-1606042D02*
G01*
X1714500Y-1751329D01*
X1760220Y-1606042D02*
G01*
X1760220Y-1751329D01*
X1760220Y-1606042D02*
G01*
X1857247Y-1751329D01*
X1857247Y-1606042D02*
G01*
X1857247Y-1751329D01*
X1654555Y-158242D02*
G01*
X1640586Y-165100D01*
X1626870Y-179070D01*
X1619757Y-192786D01*
X1612900Y-213613D01*
X1612900Y-248157D01*
X1619757Y-268986D01*
X1626870Y-282955D01*
X1640586Y-296671D01*
X1654555Y-303529D01*
X1682242Y-303529D01*
X1695957Y-296671D01*
X1709928Y-282955D01*
X1716786Y-268986D01*
X1723644Y-248157D01*
X1723644Y-213613D01*
X1716786Y-192786D01*
X1709928Y-179070D01*
X1695957Y-165100D01*
X1682242Y-158242D01*
X1654555Y-158242D01*
X1769363Y-158242D02*
G01*
X1769363Y-262128D01*
X1776476Y-282955D01*
X1790192Y-296671D01*
X1811020Y-303529D01*
X1824989Y-303529D01*
X1845563Y-296671D01*
X1859534Y-282955D01*
X1866392Y-262128D01*
X1866392Y-158242D01*
X1960626Y-158242D02*
G01*
X1960626Y-303529D01*
X1912112Y-158242D02*
G01*
X2009139Y-158242D01*
X2164842Y-386842D02*
G01*
X2330957Y-386842D01*
X2247900Y-469900D02*
G01*
X2247900Y-303529D01*
X1384300Y-469900D02*
G01*
X1384300Y-303529D01*
X1384300Y-1562100D02*
G01*
X1384300Y-1395729D01*
X2164842Y-1504442D02*
G01*
X2330957Y-1504442D01*
X2247900Y-1587500D02*
G01*
X2247900Y-1421129D01*
X2006600Y-1006345D02*
G01*
X2006600Y-1075433D01*
X2068829Y-1082545D01*
X2061971Y-1075433D01*
X2055113Y-1054859D01*
X2055113Y-1034031D01*
X2061971Y-1013203D01*
X2075687Y-999233D01*
X2096515Y-992375D01*
X2110486Y-992375D01*
X2131313Y-999233D01*
X2145029Y-1013203D01*
X2151887Y-1034031D01*
X2151887Y-1054859D01*
X2145029Y-1075433D01*
X2138171Y-1082545D01*
X2124202Y-1089403D01*
X2055113Y-946655D02*
G01*
X2151887Y-905253D01*
X2055113Y-863597D02*
G01*
X2151887Y-905253D01*
X4138929Y-135128D02*
G01*
X4129786Y-116586D01*
X4111243Y-98044D01*
X4092702Y-88900D01*
X4055872Y-88900D01*
X4037329Y-98044D01*
X4018788Y-116586D01*
X4009643Y-135128D01*
X4000500Y-162813D01*
X4000500Y-208787D01*
X4009643Y-236728D01*
X4018788Y-255015D01*
X4037329Y-273557D01*
X4055872Y-282702D01*
X4092702Y-282702D01*
X4111243Y-273557D01*
X4129786Y-255015D01*
X4138929Y-236728D01*
X4138929Y-208787D01*
X4092702Y-208787D02*
G01*
X4138929Y-208787D01*
X4199890Y-88900D02*
G01*
X4199890Y-282702D01*
X4199890Y-88900D02*
G01*
X4282947Y-88900D01*
X4310888Y-98044D01*
X4320031Y-107187D01*
X4329175Y-125729D01*
X4329175Y-153415D01*
X4320031Y-171957D01*
X4310888Y-181102D01*
X4282947Y-190500D01*
X4199890Y-190500D01*
X4519422Y-116586D02*
G01*
X4501134Y-98044D01*
X4473447Y-88900D01*
X4436363Y-88900D01*
X4408677Y-98044D01*
X4390136Y-116586D01*
X4390136Y-135128D01*
X4399534Y-153415D01*
X4408677Y-162813D01*
X4427220Y-171957D01*
X4482591Y-190500D01*
X4501134Y-199644D01*
X4510277Y-208787D01*
X4519422Y-227329D01*
X4519422Y-255015D01*
X4501134Y-273557D01*
X4473447Y-282702D01*
X4436363Y-282702D01*
X4408677Y-273557D01*
X4390136Y-255015D01*
X2925318Y-911854D02*
G01*
X2921000Y-902710D01*
X2911856Y-893566D01*
X2902711Y-888994D01*
X2884424Y-888994D01*
X2875534Y-893566D01*
X2866390Y-902710D01*
X2861818Y-911854D01*
X2857245Y-925316D01*
X2857245Y-948176D01*
X2861818Y-961892D01*
X2866390Y-970782D01*
X2875534Y-979926D01*
X2884424Y-984498D01*
X2902711Y-984498D01*
X2911856Y-979926D01*
X2921000Y-970782D01*
X2925318Y-961892D01*
X2925318Y-948176D01*
X2902711Y-948176D02*
G01*
X2925318Y-948176D01*
X2955543Y-888994D02*
G01*
X2955543Y-984498D01*
X2955543Y-888994D02*
G01*
X3019043Y-984498D01*
X3019043Y-888994D02*
G01*
X3019043Y-984498D01*
X3049015Y-888994D02*
G01*
X3049015Y-984498D01*
X3049015Y-888994D02*
G01*
X3080765Y-888994D01*
X3094481Y-893566D01*
X3103625Y-902710D01*
X3108197Y-911854D01*
X3112770Y-925316D01*
X3112770Y-948176D01*
X3108197Y-961892D01*
X3103625Y-970782D01*
X3094481Y-979926D01*
X3080765Y-984498D01*
X3049015Y-984498D01*
X2888995Y-1150106D02*
G01*
X2888995Y-1245610D01*
X2857245Y-1150106D02*
G01*
X2921000Y-1150106D01*
X2950972Y-1150106D02*
G01*
X3014472Y-1245610D01*
X3014472Y-1150106D02*
G01*
X2950972Y-1245610D01*
X2857245Y-1411221D02*
G01*
X2857245Y-1506725D01*
X2857245Y-1411221D02*
G01*
X2898140Y-1411221D01*
X2911856Y-1415793D01*
X2916427Y-1420365D01*
X2921000Y-1429509D01*
X2921000Y-1438653D01*
X2916427Y-1447543D01*
X2911856Y-1452115D01*
X2898140Y-1456687D01*
X2857245Y-1456687D01*
X2888995Y-1456687D02*
G01*
X2921000Y-1506725D01*
X2950972Y-1411221D02*
G01*
X3014472Y-1506725D01*
X3014472Y-1411221D02*
G01*
X2950972Y-1506725D01*
X2911856Y-1672336D02*
G01*
X2866390Y-1672336D01*
X2861818Y-1713229D01*
X2866390Y-1708657D01*
X2879852Y-1704339D01*
X2893568Y-1704339D01*
X2907284Y-1708657D01*
X2916427Y-1717802D01*
X2921000Y-1731518D01*
X2921000Y-1740662D01*
X2916427Y-1754123D01*
X2907284Y-1763268D01*
X2893568Y-1767839D01*
X2879852Y-1767839D01*
X2866390Y-1763268D01*
X2861818Y-1758695D01*
X2857245Y-1749552D01*
X2950972Y-1704339D02*
G01*
X2978150Y-1767839D01*
X3005327Y-1704339D02*
G01*
X2978150Y-1767839D01*
D33*
X6621779Y-1868678D02*
G01*
X6621779Y-1863344D01*
X6627113Y-1852929D01*
X6632193Y-1847850D01*
X6642608Y-1842770D01*
X6663436Y-1842770D01*
X6673850Y-1847850D01*
X6678929Y-1852929D01*
X6684263Y-1863344D01*
X6684263Y-1873757D01*
X6678929Y-1884171D01*
X6668770Y-1899920D01*
X6616700Y-1951736D01*
X6689343Y-1951736D01*
X6728968Y-1925828D02*
G01*
X6723634Y-1930907D01*
X6728968Y-1936242D01*
X6734047Y-1930907D01*
X6728968Y-1925828D01*
X6820408Y-1842770D02*
G01*
X6768338Y-1915413D01*
X6846315Y-1915413D01*
X6820408Y-1842770D02*
G01*
X6820408Y-1951736D01*
X6880606Y-1842770D02*
G01*
X6880606Y-1951736D01*
X6932675Y-1879092D02*
G01*
X6880606Y-1930907D01*
X6901434Y-1910079D02*
G01*
X6937756Y-1951736D01*
X6647179Y-2287778D02*
G01*
X6647179Y-2282444D01*
X6652513Y-2272029D01*
X6657593Y-2266950D01*
X6668008Y-2261870D01*
X6688836Y-2261870D01*
X6699250Y-2266950D01*
X6704329Y-2272029D01*
X6709663Y-2282444D01*
X6709663Y-2292857D01*
X6704329Y-2303271D01*
X6694170Y-2319020D01*
X6642100Y-2370836D01*
X6714743Y-2370836D01*
X6754368Y-2344928D02*
G01*
X6749034Y-2350007D01*
X6754368Y-2355342D01*
X6759447Y-2350007D01*
X6754368Y-2344928D01*
X6845808Y-2261870D02*
G01*
X6793738Y-2334513D01*
X6871715Y-2334513D01*
X6845808Y-2261870D02*
G01*
X6845808Y-2370836D01*
X6906006Y-2261870D02*
G01*
X6906006Y-2370836D01*
X6958075Y-2298192D02*
G01*
X6906006Y-2350007D01*
X6926834Y-2329179D02*
G01*
X6963156Y-2370836D01*
X1900173Y-3653538D02*
G01*
X1895094Y-3643124D01*
X1879600Y-3627630D01*
X1988565Y-3627630D01*
X1879600Y-3562098D02*
G01*
X1884679Y-3577592D01*
X1900173Y-3588006D01*
X1926336Y-3593340D01*
X1941829Y-3593340D01*
X1967737Y-3588006D01*
X1983486Y-3577592D01*
X1988565Y-3562098D01*
X1988565Y-3551684D01*
X1983486Y-3536190D01*
X1967737Y-3525776D01*
X1941829Y-3520442D01*
X1926336Y-3520442D01*
X1900173Y-3525776D01*
X1884679Y-3536190D01*
X1879600Y-3551684D01*
X1879600Y-3562098D01*
X1879600Y-3486152D02*
G01*
X1988565Y-3486152D01*
X1915921Y-3434336D02*
G01*
X1967737Y-3486152D01*
X1946910Y-3465578D02*
G01*
X1988565Y-3429002D01*
X1567179Y-2146807D02*
G01*
X1567179Y-2141473D01*
X1572513Y-2131060D01*
X1577594Y-2125979D01*
X1588007Y-2120900D01*
X1608836Y-2120900D01*
X1619250Y-2125979D01*
X1624329Y-2131060D01*
X1629663Y-2141473D01*
X1629663Y-2151887D01*
X1624329Y-2162302D01*
X1614170Y-2178050D01*
X1562100Y-2229865D01*
X1634744Y-2229865D01*
X1674368Y-2146807D02*
G01*
X1674368Y-2141473D01*
X1679447Y-2131060D01*
X1684781Y-2125979D01*
X1695195Y-2120900D01*
X1715770Y-2120900D01*
X1726184Y-2125979D01*
X1731518Y-2131060D01*
X1736597Y-2141473D01*
X1736597Y-2151887D01*
X1731518Y-2162302D01*
X1721104Y-2178050D01*
X1669034Y-2229865D01*
X1741931Y-2229865D01*
X1776221Y-2157221D02*
G01*
X1776221Y-2209037D01*
X1781302Y-2224786D01*
X1791715Y-2229865D01*
X1807210Y-2229865D01*
X1817623Y-2224786D01*
X1833371Y-2209037D01*
X1833371Y-2157221D02*
G01*
X1833371Y-2229865D01*
X1867662Y-2120900D02*
G01*
X1867662Y-2229865D01*
X1867662Y-2120900D02*
G01*
X1935226Y-2120900D01*
X1867662Y-2172715D02*
G01*
X1909063Y-2172715D01*
X1341376Y-3666238D02*
G01*
X1336296Y-3655824D01*
X1320802Y-3640330D01*
X1429768Y-3640330D01*
X1320802Y-3574798D02*
G01*
X1325882Y-3590292D01*
X1341376Y-3600706D01*
X1367538Y-3606040D01*
X1383032Y-3606040D01*
X1408940Y-3600706D01*
X1424688Y-3590292D01*
X1429768Y-3574798D01*
X1429768Y-3564384D01*
X1424688Y-3548890D01*
X1408940Y-3538476D01*
X1383032Y-3533142D01*
X1367538Y-3533142D01*
X1341376Y-3538476D01*
X1325882Y-3548890D01*
X1320802Y-3564384D01*
X1320802Y-3574798D01*
X1320802Y-3498852D02*
G01*
X1429768Y-3498852D01*
X1357124Y-3447036D02*
G01*
X1408940Y-3498852D01*
X1388112Y-3478278D02*
G01*
X1429768Y-3441702D01*
D10*
X1780539Y-2946400D02*
G01*
X1722120Y-2987039D01*
X1722120Y-2987039D02*
G01*
X1722120Y-2905760D01*
X1722120Y-2905760D02*
G01*
X1780539Y-2946400D01*
X1897379Y-3025139D02*
G01*
X1628139Y-3025139D01*
X1628139Y-2867660D02*
G01*
X1897379Y-2867660D01*
X1803400Y-2997200D02*
G01*
X1803400Y-2895600D01*
X2374900Y-1816100D02*
G01*
X2374900Y-88900D01*
X2374900Y-88900D02*
G01*
X1257300Y-88900D01*
X1257300Y-1816100D02*
G01*
X1257300Y-88900D01*
X2374900Y-1816100D02*
G01*
X1257300Y-1816100D01*
X1816100Y-1358900D02*
G01*
X1816100Y-571500D01*
X1816100Y-571500D02*
G01*
X1714500Y-673100D01*
X1816100Y-571500D02*
G01*
X1892300Y-647700D01*
X2552700Y-25400D02*
G01*
X6159500Y-25400D01*
X6159500Y-2625394D01*
X2552700Y-2625394D01*
X2552700Y-25400D01*
X725901Y-1564599D02*
G01*
X725901Y-924600D01*
X725901Y-1564599D02*
G01*
X345902Y-1564599D01*
X345902Y-924600D02*
G01*
X345902Y-1564599D01*
X345902Y-924600D02*
G01*
X725901Y-924600D01*
X6705600Y-1981200D02*
G01*
X6527800Y-1981200D01*
X6527800Y-2235200D01*
X6705600Y-2235200D01*
X6858000Y-2235200D02*
G01*
X7035800Y-2235200D01*
X7035800Y-1981200D01*
X6858000Y-1981200D01*
X6705600Y-2400300D02*
G01*
X6527800Y-2400300D01*
X6527800Y-2654300D01*
X6705600Y-2654300D01*
X6858000Y-2654300D02*
G01*
X7035800Y-2654300D01*
X7035800Y-2400300D01*
X6858000Y-2400300D01*
D31*
X7340600Y-4318000D02*
G01*
X7340600Y-4127500D01*
X7086600Y-4127500D01*
X7086600Y-5651500D01*
X7340600Y-5651500D01*
D32*
X7340600Y-5651500D02*
G01*
X7340600Y-4318000D01*
D10*
X2032000Y-3619500D02*
G01*
X2032000Y-3797300D01*
X2286000Y-3797300D01*
X2286000Y-3619500D01*
X2286000Y-3467100D02*
G01*
X2286000Y-3289300D01*
X2032000Y-3289300D01*
X2032000Y-3467100D01*
D31*
X-12700Y-3111500D02*
G01*
X241300Y-3111500D01*
X241300Y-4127500D01*
X-12700Y-4127500D01*
X-12700Y-3937000D01*
D32*
X-12700Y-3111500D02*
G01*
X-12700Y-3937000D01*
D31*
X-12700Y-2400300D02*
G01*
X238760Y-2400300D01*
X238760Y-2908300D01*
X-12700Y-2908300D01*
X-12700Y-2400300D01*
D10*
X1676400Y-2286000D02*
G01*
X1491589Y-2286000D01*
X1491589Y-2540000D01*
X1676400Y-2540000D01*
X1828800Y-2540000D02*
G01*
X2014601Y-2540000D01*
X2014601Y-2286000D01*
X1828800Y-2286000D01*
X1727200Y-3467100D02*
G01*
X1727200Y-3289300D01*
X1473200Y-3289300D01*
X1473200Y-3467100D01*
X1473200Y-3619500D02*
G01*
X1473200Y-3797300D01*
X1727200Y-3797300D01*
X1727200Y-3619500D01*
X7023100Y-1249679D02*
G01*
X6540500Y-1249679D01*
X6540500Y-1564639D01*
X7023100Y-1564639D01*
X7023100Y-1564639D02*
G01*
X7023100Y-1470660D01*
X7023100Y-1343660D02*
G01*
X7023100Y-1249679D01*
G75*
G01*
X7023100Y-1470660D02*
G02*
X7023100Y-1343660I0J63500D01*
G75*
G01
X6049899Y-4419600D02*
G03X6049899Y-4419600I-499999J0D01*
G75*
G01
X2265299Y-4419600D02*
G03X2265299Y-4419600I-499999J0D01*
G75*
G01
X7065010Y-1191260D02*
G03X7065010Y-1191260I-19050J0D01*
M02*
