G04 Layer: TopPasteMaskLayer*
G04 EasyEDA v6.4.25, 2021-11-06T18:35:38+01:00*
G04 257399e89a0843229902440734c7eb75,b8d8dd1b48584f29be867e52f4c70977,10*
G04 Gerber Generator version 0.2*
G04 Scale: 100 percent, Rotated: No, Reflected: No *
G04 Dimensions in millimeters *
G04 leading zeros omitted , absolute positions ,4 integer and 5 decimal *
%FSLAX45Y45*%
%MOMM*%

%ADD12C,0.7000*%
%ADD15R,0.9093X1.2192*%
%ADD23R,1.8009X1.6002*%

%LPD*%
D12*
X6972300Y-1032441D02*
G01*
X6972300Y-1182441D01*
X6845300Y-1032441D02*
G01*
X6845300Y-1182441D01*
X6718300Y-1032441D02*
G01*
X6718300Y-1182441D01*
X6591300Y-1032441D02*
G01*
X6591300Y-1182441D01*
X6972300Y-1636961D02*
G01*
X6972300Y-1786961D01*
X6845300Y-1636961D02*
G01*
X6845300Y-1786961D01*
X6718300Y-1636961D02*
G01*
X6718300Y-1786961D01*
X6591300Y-1636961D02*
G01*
X6591300Y-1786961D01*
D15*
G01*
X1600200Y-2946400D03*
G01*
X1925320Y-2946400D03*
G36*
X2552954Y-25654D02*
G01*
X3052825Y-25654D01*
X3052825Y-525526D01*
X2552954Y-525526D01*
G37*
G36*
X2552445Y-2125218D02*
G01*
X3052318Y-2125218D01*
X3052318Y-2625344D01*
X2552445Y-2625344D01*
G37*
G36*
X5655563Y-29463D02*
G01*
X6155690Y-29463D01*
X6155690Y-529336D01*
X5655563Y-529336D01*
G37*
G36*
X5655563Y-2112263D02*
G01*
X6155436Y-2112263D01*
X6155436Y-2612389D01*
X5655563Y-2612389D01*
G37*
G36*
X2868929Y-3499357D02*
G01*
X2719070Y-3499357D01*
X2719070Y-3409442D01*
X2868929Y-3409442D01*
G37*
G36*
X2868929Y-3626357D02*
G01*
X2719070Y-3626357D01*
X2719070Y-3536442D01*
X2868929Y-3536442D01*
G37*
G36*
X2868929Y-3753357D02*
G01*
X2719070Y-3753357D01*
X2719070Y-3663442D01*
X2868929Y-3663442D01*
G37*
G36*
X2868929Y-3880357D02*
G01*
X2719070Y-3880357D01*
X2719070Y-3790442D01*
X2868929Y-3790442D01*
G37*
G36*
X2868929Y-4007357D02*
G01*
X2719070Y-4007357D01*
X2719070Y-3917442D01*
X2868929Y-3917442D01*
G37*
G36*
X2868929Y-4134357D02*
G01*
X2719070Y-4134357D01*
X2719070Y-4044442D01*
X2868929Y-4044442D01*
G37*
G36*
X2868929Y-4261357D02*
G01*
X2719070Y-4261357D01*
X2719070Y-4171442D01*
X2868929Y-4171442D01*
G37*
G36*
X2868929Y-4388357D02*
G01*
X2719070Y-4388357D01*
X2719070Y-4298442D01*
X2868929Y-4298442D01*
G37*
G36*
X2868929Y-4515357D02*
G01*
X2719070Y-4515357D01*
X2719070Y-4425442D01*
X2868929Y-4425442D01*
G37*
G36*
X2868929Y-4642357D02*
G01*
X2719070Y-4642357D01*
X2719070Y-4552442D01*
X2868929Y-4552442D01*
G37*
G36*
X2868929Y-4769357D02*
G01*
X2719070Y-4769357D01*
X2719070Y-4679442D01*
X2868929Y-4679442D01*
G37*
G36*
X2868929Y-4896357D02*
G01*
X2719070Y-4896357D01*
X2719070Y-4806442D01*
X2868929Y-4806442D01*
G37*
G36*
X2868929Y-5023357D02*
G01*
X2719070Y-5023357D01*
X2719070Y-4933442D01*
X2868929Y-4933442D01*
G37*
G36*
X2868929Y-5150357D02*
G01*
X2719070Y-5150357D01*
X2719070Y-5060442D01*
X2868929Y-5060442D01*
G37*
G36*
X3129025Y-5169407D02*
G01*
X3129025Y-5319268D01*
X3039109Y-5319268D01*
X3039109Y-5169407D01*
G37*
G36*
X3256025Y-5169407D02*
G01*
X3256025Y-5319268D01*
X3166109Y-5319268D01*
X3166109Y-5169407D01*
G37*
G36*
X3383025Y-5169407D02*
G01*
X3383025Y-5319268D01*
X3293109Y-5319268D01*
X3293109Y-5169407D01*
G37*
G36*
X3510025Y-5169407D02*
G01*
X3510025Y-5319268D01*
X3420109Y-5319268D01*
X3420109Y-5169407D01*
G37*
G36*
X3637025Y-5169407D02*
G01*
X3637025Y-5319268D01*
X3547109Y-5319268D01*
X3547109Y-5169407D01*
G37*
G36*
X3764025Y-5169407D02*
G01*
X3764025Y-5319268D01*
X3674109Y-5319268D01*
X3674109Y-5169407D01*
G37*
G36*
X3891025Y-5169407D02*
G01*
X3891025Y-5319268D01*
X3801109Y-5319268D01*
X3801109Y-5169407D01*
G37*
G36*
X4018025Y-5169407D02*
G01*
X4018025Y-5319268D01*
X3928109Y-5319268D01*
X3928109Y-5169407D01*
G37*
G36*
X4145025Y-5169407D02*
G01*
X4145025Y-5319268D01*
X4055109Y-5319268D01*
X4055109Y-5169407D01*
G37*
G36*
X4272025Y-5169407D02*
G01*
X4272025Y-5319268D01*
X4182109Y-5319268D01*
X4182109Y-5169407D01*
G37*
G36*
X4438904Y-5060442D02*
G01*
X4589018Y-5060442D01*
X4589018Y-5150357D01*
X4438904Y-5150357D01*
G37*
G36*
X4438904Y-4933442D02*
G01*
X4589018Y-4933442D01*
X4589018Y-5023357D01*
X4438904Y-5023357D01*
G37*
G36*
X4438904Y-4806442D02*
G01*
X4589018Y-4806442D01*
X4589018Y-4896357D01*
X4438904Y-4896357D01*
G37*
G36*
X4438904Y-4679442D02*
G01*
X4589018Y-4679442D01*
X4589018Y-4769357D01*
X4438904Y-4769357D01*
G37*
G36*
X4438904Y-4552442D02*
G01*
X4589018Y-4552442D01*
X4589018Y-4642357D01*
X4438904Y-4642357D01*
G37*
G36*
X4438904Y-4425442D02*
G01*
X4589018Y-4425442D01*
X4589018Y-4515357D01*
X4438904Y-4515357D01*
G37*
G36*
X4438904Y-4298442D02*
G01*
X4589018Y-4298442D01*
X4589018Y-4388357D01*
X4438904Y-4388357D01*
G37*
G36*
X4438904Y-4171442D02*
G01*
X4589018Y-4171442D01*
X4589018Y-4261357D01*
X4438904Y-4261357D01*
G37*
G36*
X4438904Y-4044442D02*
G01*
X4589018Y-4044442D01*
X4589018Y-4134357D01*
X4438904Y-4134357D01*
G37*
G36*
X4438904Y-3917442D02*
G01*
X4589018Y-3917442D01*
X4589018Y-4007357D01*
X4438904Y-4007357D01*
G37*
G36*
X4438904Y-3790442D02*
G01*
X4589018Y-3790442D01*
X4589018Y-3880357D01*
X4438904Y-3880357D01*
G37*
G36*
X4438904Y-3663442D02*
G01*
X4589018Y-3663442D01*
X4589018Y-3753357D01*
X4438904Y-3753357D01*
G37*
G36*
X4438904Y-3536442D02*
G01*
X4589018Y-3536442D01*
X4589018Y-3626357D01*
X4438904Y-3626357D01*
G37*
G36*
X4438904Y-3409442D02*
G01*
X4589018Y-3409442D01*
X4589018Y-3499357D01*
X4438904Y-3499357D01*
G37*
G36*
X3388106Y-3924300D02*
G01*
X3988054Y-3924300D01*
X3988054Y-4524502D01*
X3388106Y-4524502D01*
G37*
G36*
X330962Y-1434592D02*
G01*
X100837Y-1434592D01*
X100837Y-1054607D01*
X330962Y-1054607D01*
G37*
G36*
X950976Y-1304544D02*
G01*
X750823Y-1304544D01*
X750823Y-1184655D01*
X950976Y-1184655D01*
G37*
G36*
X950976Y-1074673D02*
G01*
X750823Y-1074673D01*
X750823Y-954531D01*
X950976Y-954531D01*
G37*
G36*
X950976Y-1534668D02*
G01*
X750823Y-1534668D01*
X750823Y-1414526D01*
X950976Y-1414526D01*
G37*
G36*
X6562090Y-2018029D02*
G01*
X6722109Y-2018029D01*
X6722109Y-2198115D01*
X6562090Y-2198115D01*
G37*
G36*
X6841490Y-2018029D02*
G01*
X7001509Y-2018029D01*
X7001509Y-2198115D01*
X6841490Y-2198115D01*
G37*
G36*
X6562090Y-2437129D02*
G01*
X6722109Y-2437129D01*
X6722109Y-2617215D01*
X6562090Y-2617215D01*
G37*
G36*
X6841490Y-2437129D02*
G01*
X7001509Y-2437129D01*
X7001509Y-2617215D01*
X6841490Y-2617215D01*
G37*
D23*
G01*
X2159127Y-3683000D03*
G01*
X2159127Y-3403600D03*
G36*
X1512570Y-2312923D02*
G01*
X1672589Y-2312923D01*
X1672589Y-2513076D01*
X1512570Y-2513076D01*
G37*
G36*
X1832610Y-2312923D02*
G01*
X1992629Y-2312923D01*
X1992629Y-2513076D01*
X1832610Y-2513076D01*
G37*
G01*
X1600200Y-3403600D03*
G01*
X1600200Y-3683000D03*
M02*
