G04 Layer: BottomSilkLayer*
G04 EasyEDA v6.4.25, 2021-11-06T18:35:38+01:00*
G04 257399e89a0843229902440734c7eb75,b8d8dd1b48584f29be867e52f4c70977,10*
G04 Gerber Generator version 0.2*
G04 Scale: 100 percent, Rotated: No, Reflected: No *
G04 Dimensions in millimeters *
G04 leading zeros omitted , absolute positions ,4 integer and 5 decimal *
%FSLAX45Y45*%
%MOMM*%

%ADD10C,0.2540*%
%ADD31C,0.2032*%
%ADD33C,0.1524*%
%ADD34C,0.3500*%

%LPD*%
D31*
X4504568Y-101600D02*
G01*
X4504568Y-340235D01*
X4504568Y-101600D02*
G01*
X4402294Y-101600D01*
X4368205Y-112963D01*
X4356841Y-124327D01*
X4345477Y-147055D01*
X4345477Y-169781D01*
X4356841Y-192509D01*
X4368205Y-203873D01*
X4402294Y-215237D01*
X4504568Y-215237D02*
G01*
X4402294Y-215237D01*
X4368205Y-226601D01*
X4356841Y-237964D01*
X4345477Y-260690D01*
X4345477Y-294782D01*
X4356841Y-317510D01*
X4368205Y-328874D01*
X4402294Y-340235D01*
X4504568Y-340235D01*
X4179567Y-101600D02*
G01*
X4270476Y-340235D01*
X4179567Y-101600D02*
G01*
X4088658Y-340235D01*
X4236387Y-260690D02*
G01*
X4122750Y-260690D01*
X3900022Y-101600D02*
G01*
X3900022Y-283418D01*
X3911386Y-317510D01*
X3922750Y-328874D01*
X3945478Y-340235D01*
X3968203Y-340235D01*
X3990931Y-328874D01*
X4002295Y-317510D01*
X4013659Y-283418D01*
X4013659Y-260690D01*
X3734114Y-101600D02*
G01*
X3825024Y-340235D01*
X3734114Y-101600D02*
G01*
X3643205Y-340235D01*
X3790932Y-260690D02*
G01*
X3677295Y-260690D01*
X3393203Y-101600D02*
G01*
X3393203Y-340235D01*
X3393203Y-101600D02*
G01*
X3290933Y-101600D01*
X3256841Y-112963D01*
X3245477Y-124327D01*
X3234113Y-147055D01*
X3234113Y-181145D01*
X3245477Y-203873D01*
X3256841Y-215237D01*
X3290933Y-226601D01*
X3393203Y-226601D01*
X3159114Y-101600D02*
G01*
X3159114Y-340235D01*
X3159114Y-101600D02*
G01*
X3056841Y-101600D01*
X3022749Y-112963D01*
X3011385Y-124327D01*
X3000021Y-147055D01*
X3000021Y-169781D01*
X3011385Y-192509D01*
X3022749Y-203873D01*
X3056841Y-215237D01*
X3159114Y-215237D01*
X3079569Y-215237D02*
G01*
X3000021Y-340235D01*
X2856842Y-101600D02*
G01*
X2879567Y-112963D01*
X2902295Y-135691D01*
X2913659Y-158417D01*
X2925023Y-192509D01*
X2925023Y-249326D01*
X2913659Y-283418D01*
X2902295Y-306146D01*
X2879567Y-328874D01*
X2856842Y-340235D01*
X2811386Y-340235D01*
X2788658Y-328874D01*
X2765933Y-306146D01*
X2754569Y-283418D01*
X2743205Y-249326D01*
X2743205Y-192509D01*
X2754569Y-158417D01*
X2765933Y-135691D01*
X2788658Y-112963D01*
X2811386Y-101600D01*
X2856842Y-101600D01*
X2629230Y-247718D02*
G01*
X2601955Y-311353D01*
X2574683Y-247718D02*
G01*
X2601955Y-311353D01*
X2499230Y-215900D02*
G01*
X2544683Y-279534D01*
X2476502Y-279534D01*
X2499230Y-215900D02*
G01*
X2499230Y-311353D01*
X4296986Y-2946397D02*
G01*
X4296986Y-3140359D01*
X4296986Y-2946397D02*
G01*
X4232330Y-2946397D01*
X4204622Y-2955632D01*
X4186148Y-2974106D01*
X4176913Y-2992579D01*
X4167677Y-3020288D01*
X4167677Y-3066470D01*
X4176913Y-3094179D01*
X4186148Y-3112650D01*
X4204622Y-3131124D01*
X4232330Y-3140359D01*
X4296986Y-3140359D01*
X4106717Y-2946397D02*
G01*
X4106717Y-3140359D01*
X3916446Y-2974106D02*
G01*
X3934919Y-2955632D01*
X3962628Y-2946397D01*
X3999575Y-2946397D01*
X4027284Y-2955632D01*
X4045757Y-2974106D01*
X4045757Y-2992579D01*
X4036519Y-3011050D01*
X4027284Y-3020288D01*
X4008810Y-3029524D01*
X3953393Y-3047997D01*
X3934919Y-3057232D01*
X3925684Y-3066470D01*
X3916446Y-3084941D01*
X3916446Y-3112650D01*
X3934919Y-3131124D01*
X3962628Y-3140359D01*
X3999575Y-3140359D01*
X4027284Y-3131124D01*
X4045757Y-3112650D01*
X3855486Y-2946397D02*
G01*
X3855486Y-3140359D01*
X3855486Y-2946397D02*
G01*
X3772359Y-2946397D01*
X3744650Y-2955632D01*
X3735415Y-2964870D01*
X3726177Y-2983341D01*
X3726177Y-3011050D01*
X3735415Y-3029524D01*
X3744650Y-3038759D01*
X3772359Y-3047997D01*
X3855486Y-3047997D01*
X3665217Y-2946397D02*
G01*
X3665217Y-3140359D01*
X3665217Y-3140359D02*
G01*
X3554382Y-3140359D01*
X3419530Y-2946397D02*
G01*
X3493422Y-3140359D01*
X3419530Y-2946397D02*
G01*
X3345639Y-3140359D01*
X3465713Y-3075706D02*
G01*
X3373348Y-3075706D01*
X3284679Y-2946397D02*
G01*
X3210788Y-3038759D01*
X3210788Y-3140359D01*
X3136897Y-2946397D02*
G01*
X3210788Y-3038759D01*
X3929606Y-2603497D02*
G01*
X3929606Y-2797462D01*
X3929606Y-2797462D02*
G01*
X3818768Y-2797462D01*
X3619263Y-2649679D02*
G01*
X3628499Y-2631206D01*
X3646972Y-2612735D01*
X3665446Y-2603497D01*
X3702390Y-2603497D01*
X3720863Y-2612735D01*
X3739337Y-2631206D01*
X3748572Y-2649679D01*
X3757808Y-2677388D01*
X3757808Y-2723570D01*
X3748572Y-2751279D01*
X3739337Y-2769753D01*
X3720863Y-2788226D01*
X3702390Y-2797462D01*
X3665446Y-2797462D01*
X3646972Y-2788226D01*
X3628499Y-2769753D01*
X3619263Y-2751279D01*
X3558303Y-2603497D02*
G01*
X3558303Y-2797462D01*
X3558303Y-2603497D02*
G01*
X3493648Y-2603497D01*
X3465939Y-2612735D01*
X3447465Y-2631206D01*
X3438230Y-2649679D01*
X3428994Y-2677388D01*
X3428994Y-2723570D01*
X3438230Y-2751279D01*
X3447465Y-2769753D01*
X3465939Y-2788226D01*
X3493648Y-2797462D01*
X3558303Y-2797462D01*
X2333162Y-5601268D02*
G01*
X2340528Y-5604824D01*
X2347894Y-5612190D01*
X2351450Y-5619302D01*
X2351450Y-5634034D01*
X2347894Y-5641146D01*
X2340528Y-5648512D01*
X2333162Y-5652068D01*
X2322240Y-5655878D01*
X2304206Y-5655878D01*
X2293284Y-5652068D01*
X2285918Y-5648512D01*
X2278806Y-5641146D01*
X2274996Y-5634034D01*
X2274996Y-5619302D01*
X2278806Y-5612190D01*
X2285918Y-5604824D01*
X2293284Y-5601268D01*
X2340528Y-5526338D02*
G01*
X2347894Y-5533704D01*
X2351450Y-5544626D01*
X2351450Y-5559104D01*
X2347894Y-5570026D01*
X2340528Y-5577138D01*
X2333162Y-5577138D01*
X2326050Y-5573582D01*
X2322240Y-5570026D01*
X2318684Y-5562660D01*
X2311318Y-5540816D01*
X2307762Y-5533704D01*
X2304206Y-5529894D01*
X2296840Y-5526338D01*
X2285918Y-5526338D01*
X2278806Y-5533704D01*
X2274996Y-5544626D01*
X2274996Y-5559104D01*
X2278806Y-5570026D01*
X2285918Y-5577138D01*
X2351450Y-5480618D02*
G01*
X2347894Y-5491540D01*
X2336972Y-5498652D01*
X2318684Y-5502208D01*
X2307762Y-5502208D01*
X2289728Y-5498652D01*
X2278806Y-5491540D01*
X2274996Y-5480618D01*
X2274996Y-5473252D01*
X2278806Y-5462330D01*
X2289728Y-5454964D01*
X2307762Y-5451408D01*
X2318684Y-5451408D01*
X2336972Y-5454964D01*
X2347894Y-5462330D01*
X2351450Y-5473252D01*
X2351450Y-5480618D01*
X2481425Y-5655746D02*
G01*
X2404971Y-5655746D01*
X2481425Y-5655746D02*
G01*
X2481425Y-5622980D01*
X2477869Y-5612058D01*
X2474059Y-5608502D01*
X2466947Y-5604946D01*
X2459581Y-5604946D01*
X2452469Y-5608502D01*
X2448659Y-5612058D01*
X2445103Y-5622980D01*
X2445103Y-5655746D01*
X2445103Y-5630346D02*
G01*
X2404971Y-5604946D01*
X2470503Y-5530016D02*
G01*
X2477869Y-5537128D01*
X2481425Y-5548050D01*
X2481425Y-5562782D01*
X2477869Y-5573704D01*
X2470503Y-5580816D01*
X2463137Y-5580816D01*
X2456025Y-5577260D01*
X2452469Y-5573704D01*
X2448659Y-5566338D01*
X2441547Y-5544494D01*
X2437737Y-5537128D01*
X2434181Y-5533572D01*
X2426815Y-5530016D01*
X2415893Y-5530016D01*
X2408781Y-5537128D01*
X2404971Y-5548050D01*
X2404971Y-5562782D01*
X2408781Y-5573704D01*
X2415893Y-5580816D01*
X2481425Y-5480486D02*
G01*
X2404971Y-5480486D01*
X2481425Y-5505886D02*
G01*
X2481425Y-5455086D01*
X2593134Y-5601345D02*
G01*
X2600500Y-5604901D01*
X2607866Y-5612267D01*
X2611422Y-5619379D01*
X2611422Y-5633857D01*
X2607866Y-5641223D01*
X2600500Y-5648589D01*
X2593134Y-5652145D01*
X2582466Y-5655701D01*
X2564178Y-5655701D01*
X2553256Y-5652145D01*
X2545890Y-5648589D01*
X2538778Y-5641223D01*
X2534968Y-5633857D01*
X2534968Y-5619379D01*
X2538778Y-5612267D01*
X2545890Y-5604901D01*
X2553256Y-5601345D01*
X2611422Y-5577215D02*
G01*
X2534968Y-5577215D01*
X2611422Y-5577215D02*
G01*
X2611422Y-5551815D01*
X2607866Y-5540893D01*
X2600500Y-5533527D01*
X2593134Y-5529971D01*
X2582466Y-5526415D01*
X2564178Y-5526415D01*
X2553256Y-5529971D01*
X2545890Y-5533527D01*
X2538778Y-5540893D01*
X2534968Y-5551815D01*
X2534968Y-5577215D01*
X2731424Y-5655810D02*
G01*
X2654970Y-5637522D01*
X2731424Y-5619488D02*
G01*
X2654970Y-5637522D01*
X2731424Y-5619488D02*
G01*
X2654970Y-5601200D01*
X2731424Y-5583166D02*
G01*
X2654970Y-5601200D01*
X2731424Y-5559036D02*
G01*
X2654970Y-5559036D01*
X2731424Y-5559036D02*
G01*
X2731424Y-5526270D01*
X2727868Y-5515348D01*
X2724058Y-5511792D01*
X2716946Y-5508236D01*
X2709580Y-5508236D01*
X2702468Y-5511792D01*
X2698658Y-5515348D01*
X2695102Y-5526270D01*
X2695102Y-5559036D01*
X2695102Y-5533636D02*
G01*
X2654970Y-5508236D01*
X2731424Y-5462262D02*
G01*
X2727868Y-5473184D01*
X2716946Y-5480550D01*
X2698658Y-5484106D01*
X2687736Y-5484106D01*
X2669702Y-5480550D01*
X2658780Y-5473184D01*
X2654970Y-5462262D01*
X2654970Y-5455150D01*
X2658780Y-5444228D01*
X2669702Y-5436862D01*
X2687736Y-5433306D01*
X2698658Y-5433306D01*
X2716946Y-5436862D01*
X2727868Y-5444228D01*
X2731424Y-5455150D01*
X2731424Y-5462262D01*
X2861424Y-5655762D02*
G01*
X2784970Y-5637474D01*
X2861424Y-5619440D02*
G01*
X2784970Y-5637474D01*
X2861424Y-5619440D02*
G01*
X2784970Y-5601152D01*
X2861424Y-5583118D02*
G01*
X2784970Y-5601152D01*
X2861424Y-5558988D02*
G01*
X2784970Y-5558988D01*
X2861424Y-5558988D02*
G01*
X2861424Y-5526222D01*
X2857868Y-5515300D01*
X2854058Y-5511744D01*
X2846946Y-5508188D01*
X2839580Y-5508188D01*
X2832468Y-5511744D01*
X2828658Y-5515300D01*
X2825102Y-5526222D01*
X2825102Y-5558988D01*
X2825102Y-5533588D02*
G01*
X2784970Y-5508188D01*
X2846946Y-5484058D02*
G01*
X2850502Y-5476946D01*
X2861424Y-5466024D01*
X2784970Y-5466024D01*
X2991426Y-5655716D02*
G01*
X2914972Y-5655716D01*
X2991426Y-5655716D02*
G01*
X2991426Y-5630316D01*
X2987870Y-5619394D01*
X2980504Y-5612028D01*
X2973138Y-5608472D01*
X2962470Y-5604916D01*
X2944182Y-5604916D01*
X2933260Y-5608472D01*
X2925894Y-5612028D01*
X2918782Y-5619394D01*
X2914972Y-5630316D01*
X2914972Y-5655716D01*
X2991426Y-5558942D02*
G01*
X2987870Y-5569864D01*
X2976948Y-5577230D01*
X2958660Y-5580786D01*
X2947738Y-5580786D01*
X2929704Y-5577230D01*
X2918782Y-5569864D01*
X2914972Y-5558942D01*
X2914972Y-5551830D01*
X2918782Y-5540908D01*
X2929704Y-5533542D01*
X2947738Y-5529986D01*
X2958660Y-5529986D01*
X2976948Y-5533542D01*
X2987870Y-5540908D01*
X2991426Y-5551830D01*
X2991426Y-5558942D01*
X3121423Y-5655665D02*
G01*
X3044969Y-5655665D01*
X3121423Y-5655665D02*
G01*
X3121423Y-5630265D01*
X3117867Y-5619343D01*
X3110501Y-5612231D01*
X3103135Y-5608421D01*
X3092467Y-5604865D01*
X3074179Y-5604865D01*
X3063257Y-5608421D01*
X3055891Y-5612231D01*
X3048779Y-5619343D01*
X3044969Y-5630265D01*
X3044969Y-5655665D01*
X3106945Y-5580989D02*
G01*
X3110501Y-5573623D01*
X3121423Y-5562701D01*
X3044969Y-5562701D01*
X3241420Y-5655774D02*
G01*
X3164966Y-5655774D01*
X3241420Y-5655774D02*
G01*
X3241420Y-5630374D01*
X3237865Y-5619452D01*
X3230499Y-5612086D01*
X3223133Y-5608530D01*
X3212465Y-5604974D01*
X3194177Y-5604974D01*
X3183254Y-5608530D01*
X3175888Y-5612086D01*
X3168777Y-5619452D01*
X3164966Y-5630374D01*
X3164966Y-5655774D01*
X3223133Y-5577288D02*
G01*
X3226943Y-5577288D01*
X3234054Y-5573478D01*
X3237865Y-5569922D01*
X3241420Y-5562810D01*
X3241420Y-5548078D01*
X3237865Y-5540966D01*
X3234054Y-5537156D01*
X3226943Y-5533600D01*
X3219577Y-5533600D01*
X3212465Y-5537156D01*
X3201543Y-5544522D01*
X3164966Y-5580844D01*
X3164966Y-5530044D01*
X3371425Y-5655731D02*
G01*
X3294971Y-5655731D01*
X3371425Y-5655731D02*
G01*
X3371425Y-5630331D01*
X3367869Y-5619409D01*
X3360503Y-5612043D01*
X3353137Y-5608487D01*
X3342469Y-5604931D01*
X3324181Y-5604931D01*
X3313259Y-5608487D01*
X3305893Y-5612043D01*
X3298781Y-5619409D01*
X3294971Y-5630331D01*
X3294971Y-5655731D01*
X3371425Y-5573689D02*
G01*
X3371425Y-5533557D01*
X3342469Y-5555401D01*
X3342469Y-5544479D01*
X3338659Y-5537113D01*
X3335103Y-5533557D01*
X3324181Y-5530001D01*
X3316815Y-5530001D01*
X3305893Y-5533557D01*
X3298781Y-5540923D01*
X3294971Y-5551845D01*
X3294971Y-5562767D01*
X3298781Y-5573689D01*
X3302337Y-5577245D01*
X3309703Y-5580801D01*
X3501420Y-5655678D02*
G01*
X3424966Y-5655678D01*
X3501420Y-5655678D02*
G01*
X3501420Y-5630278D01*
X3497864Y-5619356D01*
X3490498Y-5612244D01*
X3483132Y-5608434D01*
X3472464Y-5604878D01*
X3454176Y-5604878D01*
X3443254Y-5608434D01*
X3435888Y-5612244D01*
X3428776Y-5619356D01*
X3424966Y-5630278D01*
X3424966Y-5655678D01*
X3501420Y-5544426D02*
G01*
X3450620Y-5580748D01*
X3450620Y-5526392D01*
X3501420Y-5544426D02*
G01*
X3424966Y-5544426D01*
X3631420Y-5655884D02*
G01*
X3554966Y-5655884D01*
X3631420Y-5655884D02*
G01*
X3631420Y-5630230D01*
X3627864Y-5619308D01*
X3620498Y-5612196D01*
X3613132Y-5608386D01*
X3602464Y-5604830D01*
X3584176Y-5604830D01*
X3573254Y-5608386D01*
X3565888Y-5612196D01*
X3558776Y-5619308D01*
X3554966Y-5630230D01*
X3554966Y-5655884D01*
X3631420Y-5537266D02*
G01*
X3631420Y-5573588D01*
X3598654Y-5577144D01*
X3602464Y-5573588D01*
X3606020Y-5562666D01*
X3606020Y-5551744D01*
X3602464Y-5540822D01*
X3595098Y-5533710D01*
X3584176Y-5529900D01*
X3576810Y-5529900D01*
X3565888Y-5533710D01*
X3558776Y-5540822D01*
X3554966Y-5551744D01*
X3554966Y-5562666D01*
X3558776Y-5573588D01*
X3562332Y-5577144D01*
X3569698Y-5580954D01*
X3761425Y-5655840D02*
G01*
X3684971Y-5655840D01*
X3761425Y-5655840D02*
G01*
X3761425Y-5630440D01*
X3757869Y-5619518D01*
X3750503Y-5612152D01*
X3743137Y-5608596D01*
X3732469Y-5604786D01*
X3714181Y-5604786D01*
X3703259Y-5608596D01*
X3695893Y-5612152D01*
X3688781Y-5619518D01*
X3684971Y-5630440D01*
X3684971Y-5655840D01*
X3750503Y-5537222D02*
G01*
X3757869Y-5540778D01*
X3761425Y-5551700D01*
X3761425Y-5559066D01*
X3757869Y-5569988D01*
X3746947Y-5577354D01*
X3728659Y-5580910D01*
X3710625Y-5580910D01*
X3695893Y-5577354D01*
X3688781Y-5569988D01*
X3684971Y-5559066D01*
X3684971Y-5555510D01*
X3688781Y-5544588D01*
X3695893Y-5537222D01*
X3706815Y-5533666D01*
X3710625Y-5533666D01*
X3721547Y-5537222D01*
X3728659Y-5544588D01*
X3732469Y-5555510D01*
X3732469Y-5559066D01*
X3728659Y-5569988D01*
X3721547Y-5577354D01*
X3710625Y-5580910D01*
X3881422Y-5655696D02*
G01*
X3804968Y-5655696D01*
X3881422Y-5655696D02*
G01*
X3881422Y-5630296D01*
X3877866Y-5619374D01*
X3870500Y-5612262D01*
X3863134Y-5608452D01*
X3852466Y-5604896D01*
X3834178Y-5604896D01*
X3823256Y-5608452D01*
X3815890Y-5612262D01*
X3808778Y-5619374D01*
X3804968Y-5630296D01*
X3804968Y-5655696D01*
X3881422Y-5529966D02*
G01*
X3804968Y-5566288D01*
X3881422Y-5580766D02*
G01*
X3881422Y-5529966D01*
X4011422Y-5655901D02*
G01*
X3934968Y-5626691D01*
X4011422Y-5597481D02*
G01*
X3934968Y-5626691D01*
X4011422Y-5573605D02*
G01*
X3934968Y-5573605D01*
X4011422Y-5573605D02*
G01*
X4011422Y-5548205D01*
X4007865Y-5537283D01*
X4000500Y-5529917D01*
X3993134Y-5526361D01*
X3982465Y-5522805D01*
X3964177Y-5522805D01*
X3953256Y-5526361D01*
X3945890Y-5529917D01*
X3938777Y-5537283D01*
X3934968Y-5548205D01*
X3934968Y-5573605D01*
X4011422Y-5498675D02*
G01*
X3934968Y-5498675D01*
X4011422Y-5498675D02*
G01*
X4011422Y-5473275D01*
X4007865Y-5462353D01*
X4000500Y-5454987D01*
X3993134Y-5451431D01*
X3982465Y-5447875D01*
X3964177Y-5447875D01*
X3953256Y-5451431D01*
X3945890Y-5454987D01*
X3938777Y-5462353D01*
X3934968Y-5473275D01*
X3934968Y-5498675D01*
X4141419Y-5655851D02*
G01*
X4064965Y-5626641D01*
X4141419Y-5597685D02*
G01*
X4064965Y-5626641D01*
X4130497Y-5522755D02*
G01*
X4137863Y-5529867D01*
X4141419Y-5540789D01*
X4141419Y-5555521D01*
X4137863Y-5566443D01*
X4130497Y-5573555D01*
X4123131Y-5573555D01*
X4116019Y-5569999D01*
X4112463Y-5566443D01*
X4108653Y-5559077D01*
X4101541Y-5537233D01*
X4097731Y-5529867D01*
X4094175Y-5526311D01*
X4086809Y-5522755D01*
X4075887Y-5522755D01*
X4068775Y-5529867D01*
X4064965Y-5540789D01*
X4064965Y-5555521D01*
X4068775Y-5566443D01*
X4075887Y-5573555D01*
X4130497Y-5447825D02*
G01*
X4137863Y-5454937D01*
X4141419Y-5465859D01*
X4141419Y-5480591D01*
X4137863Y-5491513D01*
X4130497Y-5498625D01*
X4123131Y-5498625D01*
X4116019Y-5495069D01*
X4112463Y-5491513D01*
X4108653Y-5484147D01*
X4101541Y-5462303D01*
X4097731Y-5454937D01*
X4094175Y-5451381D01*
X4086809Y-5447825D01*
X4075887Y-5447825D01*
X4068775Y-5454937D01*
X4064965Y-5465859D01*
X4064965Y-5480591D01*
X4068775Y-5491513D01*
X4075887Y-5498625D01*
X4261418Y-5655713D02*
G01*
X4184964Y-5626757D01*
X4261418Y-5597547D02*
G01*
X4184964Y-5626757D01*
X4261418Y-5573671D02*
G01*
X4184964Y-5573671D01*
X4261418Y-5573671D02*
G01*
X4261418Y-5540905D01*
X4257862Y-5529983D01*
X4254052Y-5526427D01*
X4246940Y-5522617D01*
X4239574Y-5522617D01*
X4232462Y-5526427D01*
X4228652Y-5529983D01*
X4225096Y-5540905D01*
X4225096Y-5573671D02*
G01*
X4225096Y-5540905D01*
X4221540Y-5529983D01*
X4217730Y-5526427D01*
X4210618Y-5522617D01*
X4199696Y-5522617D01*
X4192330Y-5526427D01*
X4188774Y-5529983D01*
X4184964Y-5540905D01*
X4184964Y-5573671D01*
X4261418Y-5476897D02*
G01*
X4257862Y-5487819D01*
X4246940Y-5494931D01*
X4228652Y-5498741D01*
X4217730Y-5498741D01*
X4199696Y-5494931D01*
X4188774Y-5487819D01*
X4184964Y-5476897D01*
X4184964Y-5469531D01*
X4188774Y-5458609D01*
X4199696Y-5451497D01*
X4217730Y-5447687D01*
X4228652Y-5447687D01*
X4246940Y-5451497D01*
X4257862Y-5458609D01*
X4261418Y-5469531D01*
X4261418Y-5476897D01*
X4250496Y-5391045D02*
G01*
X4184964Y-5391045D01*
X4217730Y-5423811D02*
G01*
X4217730Y-5358279D01*
X4391418Y-5655665D02*
G01*
X4314964Y-5626709D01*
X4391418Y-5597499D02*
G01*
X4314964Y-5626709D01*
X4391418Y-5573623D02*
G01*
X4314964Y-5573623D01*
X4391418Y-5573623D02*
G01*
X4391418Y-5540857D01*
X4387862Y-5529935D01*
X4384052Y-5526379D01*
X4376940Y-5522569D01*
X4369574Y-5522569D01*
X4362462Y-5526379D01*
X4358652Y-5529935D01*
X4355096Y-5540857D01*
X4355096Y-5573623D02*
G01*
X4355096Y-5540857D01*
X4351540Y-5529935D01*
X4347730Y-5526379D01*
X4340618Y-5522569D01*
X4329696Y-5522569D01*
X4322330Y-5526379D01*
X4318774Y-5529935D01*
X4314964Y-5540857D01*
X4314964Y-5573623D01*
X4391418Y-5476849D02*
G01*
X4387862Y-5487771D01*
X4376940Y-5495137D01*
X4358652Y-5498693D01*
X4347730Y-5498693D01*
X4329696Y-5495137D01*
X4318774Y-5487771D01*
X4314964Y-5476849D01*
X4314964Y-5469483D01*
X4318774Y-5458815D01*
X4329696Y-5451449D01*
X4347730Y-5447893D01*
X4358652Y-5447893D01*
X4376940Y-5451449D01*
X4387862Y-5458815D01*
X4391418Y-5469483D01*
X4391418Y-5476849D01*
X4347730Y-5423763D02*
G01*
X4347730Y-5358231D01*
X4521415Y-5655868D02*
G01*
X4444961Y-5626658D01*
X4521415Y-5597702D02*
G01*
X4444961Y-5626658D01*
X4521415Y-5573572D02*
G01*
X4444961Y-5573572D01*
X4521415Y-5573572D02*
G01*
X4521415Y-5540806D01*
X4517859Y-5529884D01*
X4514049Y-5526328D01*
X4506937Y-5522772D01*
X4499571Y-5522772D01*
X4492459Y-5526328D01*
X4488649Y-5529884D01*
X4485093Y-5540806D01*
X4485093Y-5573572D02*
G01*
X4485093Y-5540806D01*
X4481537Y-5529884D01*
X4477727Y-5526328D01*
X4470615Y-5522772D01*
X4459693Y-5522772D01*
X4452327Y-5526328D01*
X4448771Y-5529884D01*
X4444961Y-5540806D01*
X4444961Y-5573572D01*
X4506937Y-5498642D02*
G01*
X4510493Y-5491530D01*
X4521415Y-5480608D01*
X4444961Y-5480608D01*
X4477727Y-5456478D02*
G01*
X4477727Y-5390946D01*
X4651415Y-5655820D02*
G01*
X4574961Y-5626610D01*
X4651415Y-5597654D02*
G01*
X4574961Y-5626610D01*
X4651415Y-5573524D02*
G01*
X4574961Y-5573524D01*
X4651415Y-5573524D02*
G01*
X4651415Y-5540758D01*
X4647859Y-5529836D01*
X4644049Y-5526280D01*
X4636937Y-5522724D01*
X4629571Y-5522724D01*
X4622459Y-5526280D01*
X4618649Y-5529836D01*
X4615093Y-5540758D01*
X4615093Y-5573524D02*
G01*
X4615093Y-5540758D01*
X4611537Y-5529836D01*
X4607727Y-5526280D01*
X4600615Y-5522724D01*
X4589693Y-5522724D01*
X4582327Y-5526280D01*
X4578771Y-5529836D01*
X4574961Y-5540758D01*
X4574961Y-5573524D01*
X4636937Y-5498594D02*
G01*
X4640493Y-5491482D01*
X4651415Y-5480560D01*
X4574961Y-5480560D01*
X4640493Y-5423664D02*
G01*
X4574961Y-5423664D01*
X4607727Y-5456430D02*
G01*
X4607727Y-5391152D01*
X4771415Y-5655678D02*
G01*
X4694961Y-5626722D01*
X4771415Y-5597512D02*
G01*
X4694961Y-5626722D01*
X4771415Y-5573636D02*
G01*
X4694961Y-5573636D01*
X4694961Y-5573636D02*
G01*
X4694961Y-5529948D01*
X4753127Y-5451462D02*
G01*
X4760493Y-5455018D01*
X4767859Y-5462384D01*
X4771415Y-5469496D01*
X4771415Y-5484228D01*
X4767859Y-5491340D01*
X4760493Y-5498706D01*
X4753127Y-5502262D01*
X4742459Y-5506072D01*
X4724171Y-5506072D01*
X4713249Y-5502262D01*
X4705883Y-5498706D01*
X4698771Y-5491340D01*
X4694961Y-5484228D01*
X4694961Y-5469496D01*
X4698771Y-5462384D01*
X4705883Y-5455018D01*
X4713249Y-5451462D01*
X4771415Y-5427332D02*
G01*
X4694961Y-5427332D01*
X4771415Y-5427332D02*
G01*
X4771415Y-5401932D01*
X4767859Y-5391010D01*
X4760493Y-5383898D01*
X4753127Y-5380088D01*
X4742459Y-5376532D01*
X4724171Y-5376532D01*
X4713249Y-5380088D01*
X4705883Y-5383898D01*
X4698771Y-5391010D01*
X4694961Y-5401932D01*
X4694961Y-5427332D01*
X4901417Y-5655886D02*
G01*
X4824963Y-5655886D01*
X4901417Y-5655886D02*
G01*
X4901417Y-5623120D01*
X4897861Y-5612198D01*
X4894051Y-5608388D01*
X4886939Y-5604832D01*
X4879573Y-5604832D01*
X4872461Y-5608388D01*
X4868651Y-5612198D01*
X4865095Y-5623120D01*
X4865095Y-5655886D02*
G01*
X4865095Y-5623120D01*
X4861539Y-5612198D01*
X4857729Y-5608388D01*
X4850617Y-5604832D01*
X4839695Y-5604832D01*
X4832329Y-5608388D01*
X4828773Y-5612198D01*
X4824963Y-5623120D01*
X4824963Y-5655886D01*
X4901417Y-5580956D02*
G01*
X4824963Y-5580956D01*
X4901417Y-5580956D02*
G01*
X4824963Y-5551746D01*
X4901417Y-5522790D02*
G01*
X4824963Y-5551746D01*
X4901417Y-5522790D02*
G01*
X4824963Y-5522790D01*
X4901417Y-5476816D02*
G01*
X4897861Y-5487738D01*
X4886939Y-5495104D01*
X4868651Y-5498660D01*
X4857729Y-5498660D01*
X4839695Y-5495104D01*
X4828773Y-5487738D01*
X4824963Y-5476816D01*
X4824963Y-5469704D01*
X4828773Y-5458782D01*
X4839695Y-5451416D01*
X4857729Y-5447860D01*
X4868651Y-5447860D01*
X4886939Y-5451416D01*
X4897861Y-5458782D01*
X4901417Y-5469704D01*
X4901417Y-5476816D01*
X5031417Y-5655838D02*
G01*
X4954963Y-5655838D01*
X5031417Y-5655838D02*
G01*
X5031417Y-5623072D01*
X5027861Y-5612150D01*
X5024051Y-5608594D01*
X5016939Y-5604784D01*
X5009573Y-5604784D01*
X5002461Y-5608594D01*
X4998651Y-5612150D01*
X4995095Y-5623072D01*
X4995095Y-5655838D02*
G01*
X4995095Y-5623072D01*
X4991539Y-5612150D01*
X4987729Y-5608594D01*
X4980617Y-5604784D01*
X4969695Y-5604784D01*
X4962329Y-5608594D01*
X4958773Y-5612150D01*
X4954963Y-5623072D01*
X4954963Y-5655838D01*
X5031417Y-5580908D02*
G01*
X4954963Y-5580908D01*
X5031417Y-5580908D02*
G01*
X4954963Y-5551698D01*
X5031417Y-5522742D02*
G01*
X4954963Y-5551698D01*
X5031417Y-5522742D02*
G01*
X4954963Y-5522742D01*
X5016939Y-5498612D02*
G01*
X5020495Y-5491500D01*
X5031417Y-5480578D01*
X4954963Y-5480578D01*
X6158478Y-5315821D02*
G01*
X6082024Y-5315821D01*
X6158478Y-5315821D02*
G01*
X6158478Y-5283309D01*
X6154922Y-5272387D01*
X6151112Y-5268577D01*
X6144000Y-5265021D01*
X6136634Y-5265021D01*
X6129522Y-5268577D01*
X6125712Y-5272387D01*
X6122156Y-5283309D01*
X6122156Y-5315821D02*
G01*
X6122156Y-5283309D01*
X6118600Y-5272387D01*
X6114790Y-5268577D01*
X6107678Y-5265021D01*
X6096756Y-5265021D01*
X6089390Y-5268577D01*
X6085834Y-5272387D01*
X6082024Y-5283309D01*
X6082024Y-5315821D01*
X6158478Y-5241145D02*
G01*
X6082024Y-5241145D01*
X6082024Y-5241145D02*
G01*
X6082024Y-5197457D01*
X6158478Y-5117447D02*
G01*
X6082024Y-5117447D01*
X6158478Y-5066393D02*
G01*
X6107678Y-5117447D01*
X6125712Y-5099159D02*
G01*
X6082024Y-5066393D01*
X1241323Y-5315770D02*
G01*
X1165123Y-5315770D01*
X1241323Y-5315770D02*
G01*
X1241323Y-5283004D01*
X1237767Y-5272082D01*
X1234211Y-5268526D01*
X1226845Y-5264970D01*
X1219733Y-5264970D01*
X1212367Y-5268526D01*
X1208811Y-5272082D01*
X1205001Y-5283004D01*
X1205001Y-5315770D02*
G01*
X1205001Y-5283004D01*
X1201445Y-5272082D01*
X1197889Y-5268526D01*
X1190523Y-5264970D01*
X1179601Y-5264970D01*
X1172235Y-5268526D01*
X1168679Y-5272082D01*
X1165123Y-5283004D01*
X1165123Y-5315770D01*
X1241323Y-5240840D02*
G01*
X1165123Y-5240840D01*
X1165123Y-5240840D02*
G01*
X1165123Y-5197152D01*
X1241323Y-5088186D02*
G01*
X1165123Y-5117142D01*
X1241323Y-5088186D02*
G01*
X1165123Y-5058976D01*
X1190523Y-5106220D02*
G01*
X1190523Y-5069898D01*
D33*
X4553458Y-6353175D02*
G01*
X4558791Y-6353175D01*
X4569206Y-6347840D01*
X4574286Y-6342761D01*
X4579365Y-6332346D01*
X4579365Y-6311519D01*
X4574286Y-6301104D01*
X4569206Y-6296025D01*
X4558791Y-6290690D01*
X4548377Y-6290690D01*
X4537963Y-6296025D01*
X4522215Y-6306185D01*
X4470400Y-6358254D01*
X4470400Y-6285611D01*
X4496308Y-6245987D02*
G01*
X4491227Y-6251320D01*
X4485893Y-6245987D01*
X4491227Y-6240906D01*
X4496308Y-6245987D01*
X4553458Y-6201282D02*
G01*
X4558791Y-6201282D01*
X4569206Y-6196203D01*
X4574286Y-6190869D01*
X4579365Y-6180454D01*
X4579365Y-6159880D01*
X4574286Y-6149467D01*
X4569206Y-6144132D01*
X4558791Y-6139053D01*
X4548377Y-6139053D01*
X4537963Y-6144132D01*
X4522215Y-6154546D01*
X4470400Y-6206617D01*
X4470400Y-6133719D01*
X4543043Y-6099429D02*
G01*
X4491227Y-6099429D01*
X4475479Y-6094348D01*
X4470400Y-6083935D01*
X4470400Y-6068440D01*
X4475479Y-6058027D01*
X4491227Y-6042279D01*
X4543043Y-6042279D02*
G01*
X4470400Y-6042279D01*
X4579365Y-6007988D02*
G01*
X4470400Y-6007988D01*
X4579365Y-6007988D02*
G01*
X4579365Y-5940425D01*
X4527550Y-6007988D02*
G01*
X4527550Y-5966587D01*
X5061458Y-6369050D02*
G01*
X5066791Y-6369050D01*
X5077206Y-6363715D01*
X5082286Y-6358636D01*
X5087365Y-6348221D01*
X5087365Y-6327394D01*
X5082286Y-6316979D01*
X5077206Y-6311900D01*
X5066791Y-6306565D01*
X5056377Y-6306565D01*
X5045963Y-6311900D01*
X5030215Y-6322060D01*
X4978400Y-6374129D01*
X4978400Y-6301486D01*
X5004308Y-6261862D02*
G01*
X4999227Y-6267195D01*
X4993893Y-6261862D01*
X4999227Y-6256781D01*
X5004308Y-6261862D01*
X5061458Y-6217157D02*
G01*
X5066791Y-6217157D01*
X5077206Y-6212078D01*
X5082286Y-6206744D01*
X5087365Y-6196329D01*
X5087365Y-6175755D01*
X5082286Y-6165342D01*
X5077206Y-6160007D01*
X5066791Y-6154928D01*
X5056377Y-6154928D01*
X5045963Y-6160007D01*
X5030215Y-6170421D01*
X4978400Y-6222492D01*
X4978400Y-6149594D01*
X5051043Y-6115304D02*
G01*
X4999227Y-6115304D01*
X4983479Y-6110223D01*
X4978400Y-6099810D01*
X4978400Y-6084315D01*
X4983479Y-6073902D01*
X4999227Y-6058154D01*
X5051043Y-6058154D02*
G01*
X4978400Y-6058154D01*
X5087365Y-6023863D02*
G01*
X4978400Y-6023863D01*
X5087365Y-6023863D02*
G01*
X5087365Y-5956300D01*
X5035550Y-6023863D02*
G01*
X5035550Y-5982462D01*
X6128765Y-6395844D02*
G01*
X6123686Y-6411592D01*
X6108191Y-6422006D01*
X6082029Y-6427086D01*
X6066536Y-6427086D01*
X6040627Y-6422006D01*
X6024879Y-6411592D01*
X6019800Y-6395844D01*
X6019800Y-6385430D01*
X6024879Y-6369936D01*
X6040627Y-6359522D01*
X6066536Y-6354442D01*
X6082029Y-6354442D01*
X6108191Y-6359522D01*
X6123686Y-6369936D01*
X6128765Y-6385430D01*
X6128765Y-6395844D01*
X6045708Y-6314818D02*
G01*
X6040627Y-6320152D01*
X6035293Y-6314818D01*
X6040627Y-6309738D01*
X6045708Y-6314818D01*
X6128765Y-6265034D02*
G01*
X6128765Y-6207884D01*
X6087363Y-6239126D01*
X6087363Y-6223378D01*
X6082029Y-6212964D01*
X6076950Y-6207884D01*
X6061456Y-6202550D01*
X6051041Y-6202550D01*
X6035293Y-6207884D01*
X6024879Y-6218298D01*
X6019800Y-6233792D01*
X6019800Y-6249286D01*
X6024879Y-6265034D01*
X6030213Y-6270114D01*
X6040627Y-6275448D01*
X6128765Y-6157846D02*
G01*
X6128765Y-6100696D01*
X6087363Y-6131938D01*
X6087363Y-6116444D01*
X6082029Y-6106030D01*
X6076950Y-6100696D01*
X6061456Y-6095616D01*
X6051041Y-6095616D01*
X6035293Y-6100696D01*
X6024879Y-6111110D01*
X6019800Y-6126858D01*
X6019800Y-6142352D01*
X6024879Y-6157846D01*
X6030213Y-6163180D01*
X6040627Y-6168260D01*
X6092443Y-6061326D02*
G01*
X6040627Y-6061326D01*
X6024879Y-6056246D01*
X6019800Y-6045832D01*
X6019800Y-6030084D01*
X6024879Y-6019670D01*
X6040627Y-6004176D01*
X6092443Y-6004176D02*
G01*
X6019800Y-6004176D01*
X6128765Y-5969886D02*
G01*
X6019800Y-5969886D01*
X6128765Y-5969886D02*
G01*
X6128765Y-5902322D01*
X6076950Y-5969886D02*
G01*
X6076950Y-5928230D01*
X3525265Y-6292725D02*
G01*
X3520186Y-6308473D01*
X3504691Y-6318887D01*
X3478529Y-6323967D01*
X3463036Y-6323967D01*
X3437127Y-6318887D01*
X3421379Y-6308473D01*
X3416300Y-6292725D01*
X3416300Y-6282311D01*
X3421379Y-6266817D01*
X3437127Y-6256403D01*
X3463036Y-6251323D01*
X3478529Y-6251323D01*
X3504691Y-6256403D01*
X3520186Y-6266817D01*
X3525265Y-6282311D01*
X3525265Y-6292725D01*
X3442208Y-6211699D02*
G01*
X3437127Y-6217033D01*
X3431793Y-6211699D01*
X3437127Y-6206619D01*
X3442208Y-6211699D01*
X3504691Y-6172329D02*
G01*
X3509772Y-6161915D01*
X3525265Y-6146167D01*
X3416300Y-6146167D01*
X3488943Y-6111877D02*
G01*
X3437127Y-6111877D01*
X3421379Y-6106797D01*
X3416300Y-6096383D01*
X3416300Y-6080889D01*
X3421379Y-6070475D01*
X3437127Y-6054727D01*
X3488943Y-6054727D02*
G01*
X3416300Y-6054727D01*
X3525265Y-6020437D02*
G01*
X3416300Y-6020437D01*
X3525265Y-6020437D02*
G01*
X3525265Y-5953127D01*
X3473450Y-6020437D02*
G01*
X3473450Y-5979035D01*
X5587491Y-6292471D02*
G01*
X5592572Y-6282057D01*
X5608065Y-6266563D01*
X5499100Y-6266563D01*
X5608065Y-6201031D02*
G01*
X5602986Y-6216525D01*
X5587491Y-6226939D01*
X5561329Y-6232273D01*
X5545836Y-6232273D01*
X5519927Y-6226939D01*
X5504179Y-6216525D01*
X5499100Y-6201031D01*
X5499100Y-6190617D01*
X5504179Y-6175123D01*
X5519927Y-6164709D01*
X5545836Y-6159375D01*
X5561329Y-6159375D01*
X5587491Y-6164709D01*
X5602986Y-6175123D01*
X5608065Y-6190617D01*
X5608065Y-6201031D01*
X5608065Y-6125085D02*
G01*
X5499100Y-6125085D01*
X5608065Y-6125085D02*
G01*
X5499100Y-6083683D01*
X5608065Y-6042027D02*
G01*
X5499100Y-6083683D01*
X5608065Y-6042027D02*
G01*
X5499100Y-6042027D01*
X2094989Y-6238750D02*
G01*
X2100069Y-6228336D01*
X2115563Y-6212842D01*
X2006597Y-6212842D01*
X2115563Y-6178552D02*
G01*
X2006597Y-6178552D01*
X2079241Y-6126482D02*
G01*
X2027425Y-6178552D01*
X2048253Y-6157724D02*
G01*
X2006597Y-6121402D01*
X4025391Y-6304917D02*
G01*
X4030472Y-6294503D01*
X4045965Y-6279009D01*
X3937000Y-6279009D01*
X4045965Y-6213477D02*
G01*
X4040886Y-6228971D01*
X4025391Y-6239385D01*
X3999229Y-6244719D01*
X3983736Y-6244719D01*
X3957827Y-6239385D01*
X3942079Y-6228971D01*
X3937000Y-6213477D01*
X3937000Y-6203063D01*
X3942079Y-6187569D01*
X3957827Y-6177155D01*
X3983736Y-6171821D01*
X3999229Y-6171821D01*
X4025391Y-6177155D01*
X4040886Y-6187569D01*
X4045965Y-6203063D01*
X4045965Y-6213477D01*
X4009643Y-6137531D02*
G01*
X3957827Y-6137531D01*
X3942079Y-6132451D01*
X3937000Y-6122037D01*
X3937000Y-6106543D01*
X3942079Y-6096129D01*
X3957827Y-6080381D01*
X4009643Y-6080381D02*
G01*
X3937000Y-6080381D01*
X4045965Y-6046091D02*
G01*
X3937000Y-6046091D01*
X4045965Y-6046091D02*
G01*
X4045965Y-5978527D01*
X3994150Y-6046091D02*
G01*
X3994150Y-6004689D01*
D31*
X1591055Y-6424295D02*
G01*
X1518157Y-6424295D01*
X1591055Y-6448425D02*
G01*
X1591055Y-6399911D01*
X1591055Y-6377051D02*
G01*
X1518157Y-6377051D01*
X1552955Y-6377051D02*
G01*
X1563370Y-6366637D01*
X1566671Y-6359779D01*
X1566671Y-6349364D01*
X1563370Y-6342506D01*
X1552955Y-6338951D01*
X1518157Y-6338951D01*
X1545844Y-6316090D02*
G01*
X1545844Y-6274435D01*
X1552955Y-6274435D01*
X1559813Y-6277990D01*
X1563370Y-6281546D01*
X1566671Y-6288404D01*
X1566671Y-6298819D01*
X1563370Y-6305677D01*
X1556257Y-6312535D01*
X1545844Y-6316090D01*
X1538986Y-6316090D01*
X1528571Y-6312535D01*
X1521713Y-6305677D01*
X1518157Y-6298819D01*
X1518157Y-6288404D01*
X1521713Y-6281546D01*
X1528571Y-6274435D01*
X1566671Y-6251575D02*
G01*
X1518157Y-6251575D01*
X1545844Y-6251575D02*
G01*
X1556257Y-6248272D01*
X1563370Y-6241414D01*
X1566671Y-6234303D01*
X1566671Y-6223888D01*
X1566671Y-6201029D02*
G01*
X1518157Y-6201029D01*
X1552955Y-6201029D02*
G01*
X1563370Y-6190614D01*
X1566671Y-6183756D01*
X1566671Y-6173343D01*
X1563370Y-6166485D01*
X1552955Y-6162929D01*
X1518157Y-6162929D01*
X1552955Y-6162929D02*
G01*
X1563370Y-6152514D01*
X1566671Y-6145656D01*
X1566671Y-6135243D01*
X1563370Y-6128385D01*
X1552955Y-6124829D01*
X1518157Y-6124829D01*
X1591055Y-6101969D02*
G01*
X1587500Y-6098667D01*
X1591055Y-6095111D01*
X1594357Y-6098667D01*
X1591055Y-6101969D01*
X1566671Y-6098667D02*
G01*
X1518157Y-6098667D01*
X1556257Y-6034151D02*
G01*
X1563370Y-6037706D01*
X1566671Y-6048120D01*
X1566671Y-6058535D01*
X1563370Y-6068695D01*
X1556257Y-6072251D01*
X1549400Y-6068695D01*
X1545844Y-6061837D01*
X1542542Y-6044564D01*
X1538986Y-6037706D01*
X1532128Y-6034151D01*
X1528571Y-6034151D01*
X1521713Y-6037706D01*
X1518157Y-6048120D01*
X1518157Y-6058535D01*
X1521713Y-6068695D01*
X1528571Y-6072251D01*
X1591055Y-6000877D02*
G01*
X1532128Y-6000877D01*
X1521713Y-5997575D01*
X1518157Y-5990462D01*
X1518157Y-5983604D01*
X1566671Y-6011290D02*
G01*
X1566671Y-5987161D01*
X1566671Y-5943472D02*
G01*
X1563370Y-5950330D01*
X1556257Y-5957188D01*
X1545844Y-5960745D01*
X1538986Y-5960745D01*
X1528571Y-5957188D01*
X1521713Y-5950330D01*
X1518157Y-5943472D01*
X1518157Y-5933059D01*
X1521713Y-5926201D01*
X1528571Y-5919088D01*
X1538986Y-5915787D01*
X1545844Y-5915787D01*
X1556257Y-5919088D01*
X1563370Y-5926201D01*
X1566671Y-5933059D01*
X1566671Y-5943472D01*
X1566671Y-5892927D02*
G01*
X1518157Y-5892927D01*
X1545844Y-5892927D02*
G01*
X1556257Y-5889370D01*
X1563370Y-5882512D01*
X1566671Y-5875654D01*
X1566671Y-5865240D01*
D34*
X2716733Y-6103416D02*
G01*
X2716733Y-6078016D01*
X2691333Y-6052616D01*
X2716733Y-6128816D02*
G01*
X2792933Y-6128816D01*
X2818333Y-6154216D01*
X2615133Y-6154216D02*
G01*
X2564333Y-6154216D01*
X2513533Y-6103416D01*
X2437333Y-6103416D01*
X2462733Y-6230416D02*
G01*
X2538933Y-6230416D01*
X2615133Y-6154216D01*
X2640533Y-6154216D01*
X2716733Y-6103416D01*
X2742133Y-6230416D01*
D10*
X164998Y-5765876D02*
G01*
X164998Y-765886D01*
X7164984Y-765886D01*
X7164984Y-5765876D01*
X164998Y-5765876D01*
X164998Y-4965877D02*
G01*
X7164984Y-4965877D01*
X4419600Y-6245225D02*
G01*
X4419600Y-6423025D01*
X4165600Y-6423025D01*
X4165600Y-6245225D01*
X4165600Y-6092825D02*
G01*
X4165600Y-5915025D01*
X4419600Y-5915025D01*
X4419600Y-6092825D01*
X4940300Y-6245225D02*
G01*
X4940300Y-6423025D01*
X4686300Y-6423025D01*
X4686300Y-6245225D01*
X4686300Y-6092825D02*
G01*
X4686300Y-5915025D01*
X4940300Y-5915025D01*
X4940300Y-6092825D01*
X5981700Y-6245225D02*
G01*
X5981700Y-6423025D01*
X5727700Y-6423025D01*
X5727700Y-6245225D01*
X5727700Y-6092825D02*
G01*
X5727700Y-5915025D01*
X5981700Y-5915025D01*
X5981700Y-6092825D01*
X3378200Y-6245225D02*
G01*
X3378200Y-6423025D01*
X3124200Y-6423025D01*
X3124200Y-6245225D01*
X3124200Y-6092825D02*
G01*
X3124200Y-5915025D01*
X3378200Y-5915025D01*
X3378200Y-6092825D01*
X5461000Y-6245225D02*
G01*
X5461000Y-6423025D01*
X5207000Y-6423025D01*
X5207000Y-6245225D01*
X5207000Y-6092825D02*
G01*
X5207000Y-5915025D01*
X5461000Y-5915025D01*
X5461000Y-6092825D01*
X1714500Y-6092825D02*
G01*
X1714500Y-5915025D01*
X1968500Y-5915025D01*
X1968500Y-6092825D01*
X1968500Y-6245225D02*
G01*
X1968500Y-6423025D01*
X1714500Y-6423025D01*
X1714500Y-6245225D01*
X3898900Y-6245225D02*
G01*
X3898900Y-6423025D01*
X3644900Y-6423025D01*
X3644900Y-6245225D01*
X3644900Y-6092825D02*
G01*
X3644900Y-5915025D01*
X3898900Y-5915025D01*
X3898900Y-6092825D01*
X1447800Y-5915025D02*
G01*
X1193800Y-5915025D01*
X1193800Y-6423025D01*
X1447800Y-6423025D01*
X1473200Y-6397625D01*
X1473200Y-5940425D01*
X1447800Y-5915025D01*
G75*
G01
X2816200Y-6243117D02*
G03X2816200Y-6243117I-74066J0D01*
G75*
G01
X2536800Y-6230417D02*
G03X2536800Y-6230417I-74066J0D01*
M02*
