M48
METRIC,LZ,000.000
;FILE_FORMAT=3:3
;TYPE=PLATED
;Layer: Drill PTH
;EasyEDA v6.4.25, 2021-11-06T18:35:38+01:00
;257399e89a0843229902440734c7eb75,b8d8dd1b48584f29be867e52f4c70977,10
;Gerber Generator version 0.2
;Holesize 1 = 0.305 mm
T01C0.305
;Holesize 2 = 0.501 mm
T02C0.501
;Holesize 3 = 0.650 mm
T03C0.650
;Holesize 4 = 0.889 mm
T04C0.889
;Holesize 5 = 0.915 mm
T05C0.915
;Holesize 6 = 1.501 mm
T06C1.501
;Holesize 7 = 3.000 mm
T07C3.000
%
G05
G90
T01
X032893Y-049911
X026289Y-047244
X027940Y-053467
X034163Y-055626
X041910Y-042037
X046736Y-040894
X066421Y-028448
T02
X030480Y-035814
X071247Y-020447
T03
X023150Y-057659
X024420Y-057659
X025690Y-057659
X026960Y-057659
X028230Y-057659
X029500Y-057659
X030770Y-057659
X032040Y-057659
X033310Y-057659
X034580Y-057659
X035850Y-057659
X037120Y-057659
X038390Y-057659
X039660Y-057659
X040930Y-057659
X042200Y-057659
X043470Y-057659
X044740Y-057659
X046010Y-057659
X047280Y-057659
X048550Y-057659
X049820Y-057659
X067219Y-057659
X068499Y-057659
X004481Y-057659
X005761Y-057659
X067219Y-007621
X068499Y-007621
X004481Y-007621
X005761Y-007621
T04
X072136Y-055245
X072136Y-052705
X072136Y-050165
X072136Y-047625
X072136Y-045085
X072136Y-042545
X001143Y-040005
X001143Y-037465
X001143Y-034925
X001143Y-032385
X001143Y-027813
X001143Y-025273
T05
X013462Y-062960
X013462Y-060420
X013843Y-017145
X013843Y-001905
X022479Y-001905
X022479Y-017145
X027307Y-009400
X027307Y-011940
X027307Y-014480
X027307Y-017020
T06
X012150Y-054659
X061150Y-054659
T07
X064389Y-061849
X009017Y-061849
X064389Y-003683
X009017Y-003683
M30
