G04 Layer: TopSolderMaskLayer*
G04 EasyEDA v6.4.25, 2021-11-06T18:35:38+01:00*
G04 257399e89a0843229902440734c7eb75,b8d8dd1b48584f29be867e52f4c70977,10*
G04 Gerber Generator version 0.2*
G04 Scale: 100 percent, Rotated: No, Reflected: No *
G04 Dimensions in millimeters *
G04 leading zeros omitted , absolute positions ,4 integer and 5 decimal *
%FSLAX45Y45*%
%MOMM*%

%ADD35C,0.9032*%
%ADD36C,1.2032*%
%ADD37C,2.6032*%
%ADD38C,1.7272*%
%ADD40R,1.7272X1.7272*%
%ADD48C,1.7780*%
%ADD49R,1.7780X1.7780*%
%ADD50R,2.0041X1.8034*%
%ADD52C,4.2032*%

%LPD*%
D35*
X6972300Y-1032441D02*
G01*
X6972300Y-1182441D01*
X6845300Y-1032441D02*
G01*
X6845300Y-1182441D01*
X6718300Y-1032441D02*
G01*
X6718300Y-1182441D01*
X6591300Y-1032441D02*
G01*
X6591300Y-1182441D01*
X6972300Y-1636961D02*
G01*
X6972300Y-1786961D01*
X6845300Y-1636961D02*
G01*
X6845300Y-1786961D01*
X6718300Y-1636961D02*
G01*
X6718300Y-1786961D01*
X6591300Y-1636961D02*
G01*
X6591300Y-1786961D01*
D36*
G01*
X2315006Y-5765876D03*
G01*
X2441981Y-5765876D03*
G01*
X2568981Y-5765876D03*
G01*
X2695981Y-5765876D03*
G01*
X2822981Y-5765876D03*
G01*
X2949981Y-5765876D03*
G01*
X3076981Y-5765876D03*
G01*
X3203981Y-5765876D03*
G01*
X3330981Y-5765876D03*
G01*
X3457981Y-5765876D03*
G01*
X3584981Y-5765876D03*
G01*
X3711981Y-5765876D03*
G01*
X3838981Y-5765876D03*
G01*
X3965981Y-5765876D03*
G01*
X4092981Y-5765876D03*
G01*
X4219981Y-5765876D03*
G01*
X4346981Y-5765876D03*
G01*
X4473981Y-5765876D03*
G01*
X4600981Y-5765876D03*
G01*
X4727981Y-5765876D03*
G01*
X4854981Y-5765876D03*
G01*
X4982006Y-5765876D03*
G01*
X6721906Y-5765876D03*
G01*
X6849897Y-5765876D03*
G01*
X448106Y-5765876D03*
G01*
X576097Y-5765876D03*
G01*
X6721906Y-762076D03*
G01*
X6849897Y-762076D03*
G01*
X448106Y-762076D03*
G01*
X576122Y-762076D03*
D37*
G01*
X1215009Y-5465876D03*
G01*
X6114999Y-5465876D03*
D38*
G01*
X1346200Y-6296025D03*
G01*
X1346200Y-6042025D03*
G36*
X1544573Y-3017520D02*
G01*
X1544573Y-2875279D01*
X1655826Y-2875279D01*
X1655826Y-3017520D01*
G37*
G36*
X1869694Y-3017520D02*
G01*
X1869694Y-2875279D01*
X1980945Y-2875279D01*
X1980945Y-3017520D01*
G37*
D40*
G01*
X1384300Y-1714500D03*
D38*
G01*
X1384300Y-190500D03*
G01*
X2247900Y-190500D03*
G01*
X2247900Y-1714500D03*
G36*
X2542793Y-535686D02*
G01*
X2542793Y-15494D01*
X3062986Y-15494D01*
X3062986Y-535686D01*
G37*
G36*
X2542286Y-2635504D02*
G01*
X2542286Y-2115057D01*
X3062477Y-2115057D01*
X3062477Y-2635504D01*
G37*
G36*
X5645404Y-539495D02*
G01*
X5645404Y-19304D01*
X6165850Y-19304D01*
X6165850Y-539495D01*
G37*
G36*
X5645404Y-2622550D02*
G01*
X5645404Y-2102104D01*
X6165595Y-2102104D01*
X6165595Y-2622550D01*
G37*
G01*
X2730703Y-939952D03*
G01*
X2730703Y-1193952D03*
G01*
X2730703Y-1447952D03*
G01*
X2730703Y-1701952D03*
G36*
X2708909Y-3509518D02*
G01*
X2708909Y-3399281D01*
X2879090Y-3399281D01*
X2879090Y-3509518D01*
G37*
G36*
X2708909Y-3636518D02*
G01*
X2708909Y-3526281D01*
X2879090Y-3526281D01*
X2879090Y-3636518D01*
G37*
G36*
X2708909Y-3763518D02*
G01*
X2708909Y-3653281D01*
X2879090Y-3653281D01*
X2879090Y-3763518D01*
G37*
G36*
X2708909Y-3890518D02*
G01*
X2708909Y-3780281D01*
X2879090Y-3780281D01*
X2879090Y-3890518D01*
G37*
G36*
X2708909Y-4017518D02*
G01*
X2708909Y-3907281D01*
X2879090Y-3907281D01*
X2879090Y-4017518D01*
G37*
G36*
X2708909Y-4144518D02*
G01*
X2708909Y-4034281D01*
X2879090Y-4034281D01*
X2879090Y-4144518D01*
G37*
G36*
X2708909Y-4271518D02*
G01*
X2708909Y-4161281D01*
X2879090Y-4161281D01*
X2879090Y-4271518D01*
G37*
G36*
X2708909Y-4398518D02*
G01*
X2708909Y-4288281D01*
X2879090Y-4288281D01*
X2879090Y-4398518D01*
G37*
G36*
X2708909Y-4525518D02*
G01*
X2708909Y-4415281D01*
X2879090Y-4415281D01*
X2879090Y-4525518D01*
G37*
G36*
X2708909Y-4652518D02*
G01*
X2708909Y-4542281D01*
X2879090Y-4542281D01*
X2879090Y-4652518D01*
G37*
G36*
X2708909Y-4779518D02*
G01*
X2708909Y-4669281D01*
X2879090Y-4669281D01*
X2879090Y-4779518D01*
G37*
G36*
X2708909Y-4906518D02*
G01*
X2708909Y-4796281D01*
X2879090Y-4796281D01*
X2879090Y-4906518D01*
G37*
G36*
X2708909Y-5033518D02*
G01*
X2708909Y-4923281D01*
X2879090Y-4923281D01*
X2879090Y-5033518D01*
G37*
G36*
X2708909Y-5160518D02*
G01*
X2708909Y-5050281D01*
X2879090Y-5050281D01*
X2879090Y-5160518D01*
G37*
G36*
X3028950Y-5329428D02*
G01*
X3028950Y-5159247D01*
X3139186Y-5159247D01*
X3139186Y-5329428D01*
G37*
G36*
X3155950Y-5329428D02*
G01*
X3155950Y-5159247D01*
X3266186Y-5159247D01*
X3266186Y-5329428D01*
G37*
G36*
X3282950Y-5329428D02*
G01*
X3282950Y-5159247D01*
X3393186Y-5159247D01*
X3393186Y-5329428D01*
G37*
G36*
X3409950Y-5329428D02*
G01*
X3409950Y-5159247D01*
X3520186Y-5159247D01*
X3520186Y-5329428D01*
G37*
G36*
X3536950Y-5329428D02*
G01*
X3536950Y-5159247D01*
X3647186Y-5159247D01*
X3647186Y-5329428D01*
G37*
G36*
X3663950Y-5329428D02*
G01*
X3663950Y-5159247D01*
X3774186Y-5159247D01*
X3774186Y-5329428D01*
G37*
G36*
X3790950Y-5329428D02*
G01*
X3790950Y-5159247D01*
X3901186Y-5159247D01*
X3901186Y-5329428D01*
G37*
G36*
X3917950Y-5329428D02*
G01*
X3917950Y-5159247D01*
X4028186Y-5159247D01*
X4028186Y-5329428D01*
G37*
G36*
X4044950Y-5329428D02*
G01*
X4044950Y-5159247D01*
X4155186Y-5159247D01*
X4155186Y-5329428D01*
G37*
G36*
X4171950Y-5329428D02*
G01*
X4171950Y-5159247D01*
X4282186Y-5159247D01*
X4282186Y-5329428D01*
G37*
G36*
X4428743Y-5160518D02*
G01*
X4428743Y-5050281D01*
X4599177Y-5050281D01*
X4599177Y-5160518D01*
G37*
G36*
X4428743Y-5033518D02*
G01*
X4428743Y-4923281D01*
X4599177Y-4923281D01*
X4599177Y-5033518D01*
G37*
G36*
X4428743Y-4906518D02*
G01*
X4428743Y-4796281D01*
X4599177Y-4796281D01*
X4599177Y-4906518D01*
G37*
G36*
X4428743Y-4779518D02*
G01*
X4428743Y-4669281D01*
X4599177Y-4669281D01*
X4599177Y-4779518D01*
G37*
G36*
X4428743Y-4652518D02*
G01*
X4428743Y-4542281D01*
X4599177Y-4542281D01*
X4599177Y-4652518D01*
G37*
G36*
X4428743Y-4525518D02*
G01*
X4428743Y-4415281D01*
X4599177Y-4415281D01*
X4599177Y-4525518D01*
G37*
G36*
X4428743Y-4398518D02*
G01*
X4428743Y-4288281D01*
X4599177Y-4288281D01*
X4599177Y-4398518D01*
G37*
G36*
X4428743Y-4271518D02*
G01*
X4428743Y-4161281D01*
X4599177Y-4161281D01*
X4599177Y-4271518D01*
G37*
G36*
X4428743Y-4144518D02*
G01*
X4428743Y-4034281D01*
X4599177Y-4034281D01*
X4599177Y-4144518D01*
G37*
G36*
X4428743Y-4017518D02*
G01*
X4428743Y-3907281D01*
X4599177Y-3907281D01*
X4599177Y-4017518D01*
G37*
G36*
X4428743Y-3890518D02*
G01*
X4428743Y-3780281D01*
X4599177Y-3780281D01*
X4599177Y-3890518D01*
G37*
G36*
X4428743Y-3763518D02*
G01*
X4428743Y-3653281D01*
X4599177Y-3653281D01*
X4599177Y-3763518D01*
G37*
G36*
X4428743Y-3636518D02*
G01*
X4428743Y-3526281D01*
X4599177Y-3526281D01*
X4599177Y-3636518D01*
G37*
G36*
X4428743Y-3509518D02*
G01*
X4428743Y-3399281D01*
X4599177Y-3399281D01*
X4599177Y-3509518D01*
G37*
G36*
X3377945Y-4534662D02*
G01*
X3377945Y-3914139D01*
X3998213Y-3914139D01*
X3998213Y-4534662D01*
G37*
G36*
X90678Y-1444752D02*
G01*
X90678Y-1044447D01*
X341121Y-1044447D01*
X341121Y-1444752D01*
G37*
G36*
X740663Y-1314704D02*
G01*
X740663Y-1174495D01*
X961136Y-1174495D01*
X961136Y-1314704D01*
G37*
G36*
X740663Y-1084834D02*
G01*
X740663Y-944371D01*
X961136Y-944371D01*
X961136Y-1084834D01*
G37*
G36*
X740663Y-1544828D02*
G01*
X740663Y-1404365D01*
X961136Y-1404365D01*
X961136Y-1544828D01*
G37*
G36*
X6551929Y-2208276D02*
G01*
X6551929Y-2007870D01*
X6732270Y-2007870D01*
X6732270Y-2208276D01*
G37*
G36*
X6831329Y-2208276D02*
G01*
X6831329Y-2007870D01*
X7011670Y-2007870D01*
X7011670Y-2208276D01*
G37*
G36*
X6551929Y-2627376D02*
G01*
X6551929Y-2426970D01*
X6732270Y-2426970D01*
X6732270Y-2627376D01*
G37*
G36*
X6831329Y-2627376D02*
G01*
X6831329Y-2426970D01*
X7011670Y-2426970D01*
X7011670Y-2627376D01*
G37*
D48*
G01*
X7213600Y-5524500D03*
G01*
X7213600Y-5270500D03*
G01*
X7213600Y-5016500D03*
G01*
X7213600Y-4762500D03*
G01*
X7213600Y-4508500D03*
G36*
X7124700Y-4343400D02*
G01*
X7124700Y-4165600D01*
X7302500Y-4165600D01*
X7302500Y-4343400D01*
G37*
D50*
G01*
X2159127Y-3683000D03*
G01*
X2159127Y-3403600D03*
D49*
G01*
X114300Y-4000500D03*
D48*
G01*
X114300Y-3746500D03*
G01*
X114300Y-3492500D03*
G01*
X114300Y-3238500D03*
G36*
X25400Y-2870200D02*
G01*
X25400Y-2692400D01*
X203200Y-2692400D01*
X203200Y-2870200D01*
G37*
G01*
X114300Y-2527300D03*
G36*
X1502410Y-2523236D02*
G01*
X1502410Y-2302763D01*
X1682750Y-2302763D01*
X1682750Y-2523236D01*
G37*
G36*
X1822450Y-2523236D02*
G01*
X1822450Y-2302763D01*
X2002789Y-2302763D01*
X2002789Y-2523236D01*
G37*
G36*
X1500123Y-3493770D02*
G01*
X1500123Y-3313429D01*
X1700529Y-3313429D01*
X1700529Y-3493770D01*
G37*
G36*
X1500123Y-3773170D02*
G01*
X1500123Y-3592829D01*
X1700529Y-3592829D01*
X1700529Y-3773170D01*
G37*
D52*
G01*
X6438900Y-6184900D03*
G01*
X901700Y-6184900D03*
G01*
X6438900Y-368300D03*
G01*
X901700Y-368300D03*
M02*
